<svg xmlns="http://www.w3.org/2000/svg" width="560" height="315" viewBox="0 0 560 315"><title>fallback_uams-logo_main_dark_16-9</title><rect width="560" height="315" fill="#fff"/><path d="M70.11,215.69H86.37v3.5H74v6H85v3.49H74v8.9H70.11Z" transform="translate(0 0)"/><path d="M88.94,229.39v-.06a8.79,8.79,0,0,1,17.57-.06v.06a8.62,8.62,0,0,1-8.83,8.58A8.52,8.52,0,0,1,88.94,229.39Zm13.79,0v-.06a5.09,5.09,0,0,0-5-5.3,4.94,4.94,0,0,0-5,5.24v.06a5.1,5.1,0,0,0,5,5.3A5,5,0,0,0,102.73,229.39Z" transform="translate(0 0)"/><path d="M110.58,221.06h3.77v3.71c1-2.46,2.93-4.15,5.84-4v4H120c-3.31,0-5.62,2.16-5.62,6.52v6.28h-3.77Z" transform="translate(0 0)"/><path d="M140.76,237.54v-2a6.66,6.66,0,0,1-5.34,2.37c-3.12,0-5.86-1.78-5.86-5.09v-.06c0-3.65,2.84-5.4,6.67-5.4a13.76,13.76,0,0,1,4.56.69v-.31c0-2.28-1.44-3.53-4.06-3.53a11.54,11.54,0,0,0-4.71,1l-1-3a14.15,14.15,0,0,1,6.27-1.37c4.87,0,7.24,2.56,7.24,7v9.77Zm.09-6.9a10.67,10.67,0,0,0-3.77-.65c-2.37,0-3.78,1-3.78,2.55v.07c0,1.56,1.41,2.43,3.18,2.43,2.5,0,4.37-1.4,4.37-3.46Z" transform="translate(0 0)"/><path d="M156.65,215.69h9.8a7.88,7.88,0,0,1,5.71,1.94,4.88,4.88,0,0,1,1.47,3.62v.06a5.22,5.22,0,0,1-3.12,4.87c2.56.87,4.33,2.34,4.33,5.3v.06c0,3.91-3.21,6-8.08,6H156.65Zm9,9.21c2.47,0,4.12-1,4.12-3v-.06c0-1.72-1.38-2.78-3.84-2.78h-5.52v5.81Zm1.12,9.23c2.62,0,4.22-1,4.22-3v-.06c0-1.84-1.47-2.94-4.5-2.94h-6.08v6Z" transform="translate(0 0)"/><path d="M178,229.36v-.06c0-4.71,3.33-8.58,8.05-8.58,5.24,0,7.89,4.12,7.89,8.86,0,.34,0,.68-.06,1.06H181.75a4.6,4.6,0,0,0,4.74,4.18,6,6,0,0,0,4.47-2l2.21,2a8.34,8.34,0,0,1-6.74,3.09A8.22,8.22,0,0,1,178,229.36Zm12.2-1.22c-.25-2.43-1.69-4.33-4.18-4.33-2.31,0-3.94,1.77-4.28,4.33Z" transform="translate(0 0)"/><path d="M198.55,233v-8.67h-2.09v-3.25h2.09v-4.52h3.77v4.52h4.44v3.25h-4.44v8.08a1.8,1.8,0,0,0,2,2.06,5.14,5.14,0,0,0,2.34-.56V237a6.58,6.58,0,0,1-3.4.85C200.51,237.82,198.55,236.6,198.55,233Z" transform="translate(0 0)"/><path d="M211.35,233v-8.67h-2.09v-3.25h2.09v-4.52h3.77v4.52h4.44v3.25h-4.44v8.08a1.8,1.8,0,0,0,2,2.06,5.14,5.14,0,0,0,2.34-.56V237a6.58,6.58,0,0,1-3.4.85C213.31,237.82,211.35,236.6,211.35,233Z" transform="translate(0 0)"/><path d="M222.37,229.36v-.06c0-4.71,3.34-8.58,8-8.58,5.24,0,7.89,4.12,7.89,8.86,0,.34,0,.68-.06,1.06H226.14a4.61,4.61,0,0,0,4.75,4.18,6,6,0,0,0,4.46-2l2.21,2a8.32,8.32,0,0,1-6.74,3.09A8.22,8.22,0,0,1,222.37,229.36Zm12.2-1.22c-.25-2.43-1.69-4.33-4.18-4.33-2.31,0-3.93,1.77-4.28,4.33Z" transform="translate(0 0)"/><path d="M242.35,221.06h3.77v3.71c1-2.46,2.93-4.15,5.84-4v4h-.22c-3.31,0-5.62,2.16-5.62,6.52v6.28h-3.77Z" transform="translate(0 0)"/><path d="M261.42,234.35l2.31-2.74a10.06,10.06,0,0,0,6.9,2.84c2.37,0,3.87-1.1,3.87-2.75v-.06c0-1.56-.88-2.4-4.93-3.34-4.65-1.12-7.28-2.5-7.28-6.52v-.06c0-3.75,3.13-6.34,7.46-6.34a12.13,12.13,0,0,1,7.93,2.75l-2.06,2.9a9.91,9.91,0,0,0-5.93-2.25c-2.25,0-3.56,1.16-3.56,2.59v.06c0,1.69,1,2.44,5.18,3.44,4.62,1.12,7,2.77,7,6.39v.07c0,4.08-3.21,6.52-7.8,6.52A13.45,13.45,0,0,1,261.42,234.35Z" transform="translate(0 0)"/><path d="M283.08,233v-8.67H281v-3.25h2.09v-4.52h3.78v4.52h4.43v3.25h-4.43v8.08a1.8,1.8,0,0,0,2,2.06,5.14,5.14,0,0,0,2.34-.56V237a6.63,6.63,0,0,1-3.4.85C285.05,237.82,283.08,236.6,283.08,233Z" transform="translate(0 0)"/><path d="M305.38,237.54v-2a6.68,6.68,0,0,1-5.34,2.37c-3.12,0-5.87-1.78-5.87-5.09v-.06c0-3.65,2.84-5.4,6.68-5.4a13.76,13.76,0,0,1,4.56.69v-.31c0-2.28-1.44-3.53-4.06-3.53a11.54,11.54,0,0,0-4.71,1l-1-3a14.15,14.15,0,0,1,6.27-1.37c4.87,0,7.24,2.56,7.24,7v9.77Zm.09-6.9a10.69,10.69,0,0,0-3.78-.65c-2.37,0-3.77,1-3.77,2.55v.07c0,1.56,1.4,2.43,3.18,2.43,2.5,0,4.37-1.4,4.37-3.46Z" transform="translate(0 0)"/><path d="M314.34,233v-8.67h-2.09v-3.25h2.09v-4.52h3.77v4.52h4.43v3.25h-4.43v8.08a1.8,1.8,0,0,0,2,2.06,5.14,5.14,0,0,0,2.34-.56V237a6.6,6.6,0,0,1-3.4.85C316.3,237.82,314.34,236.6,314.34,233Z" transform="translate(0 0)"/><path d="M325.2,229.36v-.06c0-4.71,3.34-8.58,8.05-8.58,5.24,0,7.9,4.12,7.9,8.86a10.09,10.09,0,0,1-.07,1.06H329a4.6,4.6,0,0,0,4.74,4.18,6,6,0,0,0,4.46-2l2.22,2a8.35,8.35,0,0,1-6.74,3.09A8.22,8.22,0,0,1,325.2,229.36Zm12.2-1.22c-.25-2.43-1.68-4.33-4.18-4.33-2.31,0-3.93,1.77-4.27,4.33Z" transform="translate(0 0)"/><path d="M351.27,229.39v-.06a8.79,8.79,0,0,1,17.57-.06v.06a8.62,8.62,0,0,1-8.84,8.58A8.52,8.52,0,0,1,351.27,229.39Zm13.79,0v-.06A5.09,5.09,0,0,0,360,224a5,5,0,0,0-5,5.24v.06a5.1,5.1,0,0,0,5,5.3A5,5,0,0,0,365.06,229.39Z" transform="translate(0 0)"/><path d="M373.33,224.31h-2.09v-3.16h2.09V220a5.62,5.62,0,0,1,1.34-4.09,5,5,0,0,1,3.72-1.31,10.13,10.13,0,0,1,3.06.44v3.18a6.66,6.66,0,0,0-2.22-.41c-1.44,0-2.18.78-2.18,2.5v.9h4.36v3.13h-4.3v13.23h-3.78Z" transform="translate(0 0)"/><path d="M391.88,215.69h3.83v9.08h10.43v-9.08H410v21.85h-3.84v-9.21H395.71v9.21h-3.83Z" transform="translate(0 0)"/><path d="M414.39,229.36v-.06c0-4.71,3.34-8.58,8.05-8.58,5.24,0,7.89,4.12,7.89,8.86,0,.34,0,.68-.06,1.06H418.16a4.61,4.61,0,0,0,4.75,4.18,6,6,0,0,0,4.46-2l2.21,2a8.34,8.34,0,0,1-6.74,3.09A8.22,8.22,0,0,1,414.39,229.36Zm12.2-1.22c-.25-2.43-1.69-4.33-4.18-4.33-2.31,0-3.94,1.77-4.28,4.33Z" transform="translate(0 0)"/><path d="M444.38,237.54v-2a6.65,6.65,0,0,1-5.33,2.37c-3.12,0-5.87-1.78-5.87-5.09v-.06c0-3.65,2.84-5.4,6.68-5.4a13.76,13.76,0,0,1,4.56.69v-.31c0-2.28-1.44-3.53-4.06-3.53a11.5,11.5,0,0,0-4.71,1l-1-3a14.15,14.15,0,0,1,6.27-1.37c4.87,0,7.24,2.56,7.24,7v9.77Zm.1-6.9a10.69,10.69,0,0,0-3.78-.65c-2.37,0-3.77,1-3.77,2.55v.07c0,1.56,1.4,2.43,3.18,2.43,2.49,0,4.37-1.4,4.37-3.46Z" transform="translate(0 0)"/><path d="M453,214.76h3.78v22.78H453Z" transform="translate(0 0)"/><path d="M462.62,233v-8.67h-2.09v-3.25h2.09v-4.52h3.77v4.52h4.43v3.25h-4.43v8.08a1.8,1.8,0,0,0,2,2.06,5.14,5.14,0,0,0,2.34-.56V237a6.6,6.6,0,0,1-3.4.85C464.58,237.82,462.62,236.6,462.62,233Z" transform="translate(0 0)"/><path d="M474.79,214.76h3.77v8.86a5.93,5.93,0,0,1,5.15-2.9c3.71,0,5.87,2.49,5.87,6.33v10.49H485.8v-9.37c0-2.55-1.28-4-3.52-4s-3.72,1.53-3.72,4.09v9.3h-3.77Z" transform="translate(0 0)"/><path d="M158.6,145.39c0,12.05.33,23.28-8.54,33-7.53,8.2-19.28,11.92-30.33,12.24H108.92c-11-.33-22.77-3.85-30.3-12-8.87-9.71-8.53-20.93-8.53-33V100.91c0-7.54,1.17-19.77-7.38-22.94v-.51H94.53V78c-8.38,3.17-7.38,15.4-7.38,22.94V145.6c0,22.27,9.38,32.64,26.62,32.64,9.37,0,18.91-3.85,24.44-11.72,3.69-5,3.52-9.2,3.52-15.23V100.91c0-7.54,1-19.77-7.37-22.94v-.51h31.8l.18.51c-8.54,3.17-7.54,15.4-7.54,23.1l-.2,44.32Z" transform="translate(0 0)"/><path d="M208.67,91.7l-20.91,54.56-8.7,23.62c-3.52,9.37-4.69,14.22,3.34,17.24v.5H151.6v-.5c9.71-4.86,12.56-14.22,16.24-23.79l27.95-69.8c2.35-6,5.53-13-2.51-15.56v-.51h26.45l34.81,85.87c3.85,9.57,6.88,18.93,16.41,23.79v.5H236.63v-.5c8.21-3.69,6.86-5.53,2.35-17.24l-9-23.62L208.67,91.7Z" transform="translate(0 0)"/><path d="M367.88,88c1.34-3.51,2.52-6.87,2.52-10.38v-.17h29V78c-4,1.17-5.19,6-5.19,9.87l11,82.2c1,7.88,1.84,12.39,8.53,17.08v.5h-32.3v-.5c5.87-1.84,6.86-6.87,6.86-12.56l-9.54-80.69-37.49,95.92c-8.38-6.36-10.73-10.88-14.74-20.25L294.72,94l-9.54,72c-1.33,10.22-2.52,17.58,5.36,21.1v.5H263.25v-.5c7-6.19,8-14.4,9.38-23.44l9.54-70.15c.66-4.68,2.5-11.36-5.19-15.56v-.51h29.3v.17c0,2.68,1.34,5.2,2.34,7.54L340.1,159l27.78-71Z" transform="translate(0 0)"/><path d="M480.2,97.4c-6.54-6.7-16.91-10.57-26.3-10.57s-21.58,3.7-21.58,15.25c0,22.93,57.58,22.6,57.58,53.56,0,17.92-18.74,34.66-44.86,34.66a86.5,86.5,0,0,1-30-5l-4.86-20.93a57.92,57.92,0,0,0,36.67,13.89c9.53,0,23.94-5.68,23.94-17.41,0-26.11-57.61-21.43-57.61-56.92,0-21.08,21.61-29.13,42-29.13a84.24,84.24,0,0,1,24.95,3.69V97.4Z" transform="translate(0 0)"/><path d="M208.94,168.22a14,14,0,1,0-14-14,14,14,0,0,0,14,14Z" transform="translate(0 0)" fill="#9d2235"/><path d="M498.25,180.42c0-1.86-1.41-2.73-3.33-2.73h-3.87v8.24h2v-2.59h1.27l1.78,2.59h2.41l-2.1-3A2.53,2.53,0,0,0,498.25,180.42Zm-3.46,1.28h-1.73v-2.28h1.73c.86,0,1.41.41,1.41,1.14S495.7,181.7,494.79,181.7Z" transform="translate(0 0)"/><path d="M494.33,173.56a8.41,8.41,0,1,0,8.41,8.41A8.41,8.41,0,0,0,494.33,173.56Zm7,8.37v0a7,7,0,1,1-14,.05V182a7,7,0,1,1,14,0Z" transform="translate(0 0)"/></svg>