<svg xmlns="http://www.w3.org/2000/svg" width="560" height="315" viewBox="0 0 560 315"><title>UAMS Logo</title><rect width="560" height="315" fill="#fff"/><path d="M158.6,170.18c0,12,.33,23.28-8.54,33-7.53,8.21-19.28,11.92-30.33,12.25H108.92c-11-.34-22.77-3.85-30.3-12.06-8.87-9.71-8.53-20.92-8.53-33V125.7c0-7.54,1.17-19.76-7.38-22.94v-.5H94.53v.5c-8.38,3.18-7.38,15.4-7.38,22.94v44.69c0,22.27,9.38,32.64,26.62,32.64,9.37,0,18.91-3.85,24.44-11.72,3.69-5,3.52-9.2,3.52-15.23V125.7c0-7.54,1-19.76-7.37-22.94v-.5h31.8l.18.5c-8.54,3.18-7.54,15.4-7.54,23.11l-.2,44.31Z" transform="translate(0 0)"/><path d="M208.67,116.49l-20.91,54.56-8.7,23.62c-3.52,9.37-4.69,14.22,3.34,17.24v.5H151.6v-.5c9.71-4.85,12.56-14.22,16.24-23.78l27.95-69.8c2.35-6,5.53-13-2.51-15.57v-.5h26.45l34.81,85.87c3.85,9.56,6.88,18.93,16.41,23.78v.5H236.63v-.5c8.21-3.69,6.86-5.52,2.35-17.24l-9-23.62-21.26-54.56Z" transform="translate(0 0)"/><path d="M367.88,112.8c1.34-3.51,2.52-6.86,2.52-10.37v-.17h29v.5c-4,1.18-5.19,6-5.19,9.88l11,82.2c1,7.87,1.84,12.39,8.53,17.07v.5h-32.3v-.5c5.87-1.84,6.86-6.86,6.86-12.55l-9.54-80.7-37.49,95.92c-8.38-6.36-10.73-10.87-14.74-20.25l-31.81-75.5-9.54,72c-1.33,10.22-2.52,17.58,5.36,21.1v.5H263.25v-.5c7-6.19,8-14.4,9.38-23.43l9.54-70.15c.66-4.69,2.5-11.37-5.19-15.57v-.5h29.3v.17c0,2.67,1.34,5.2,2.34,7.53l31.48,73.83,27.78-71Z" transform="translate(0 0)"/><path d="M480.2,122.19c-6.54-6.7-16.91-10.56-26.3-10.56s-21.58,3.69-21.58,15.24c0,22.93,57.58,22.6,57.58,53.56,0,17.92-18.74,34.66-44.86,34.66a86.5,86.5,0,0,1-30-5l-4.86-20.93A57.92,57.92,0,0,0,446.89,203c9.53,0,23.94-5.68,23.94-17.41,0-26.11-57.61-21.42-57.61-56.92,0-21.07,21.61-29.13,42-29.13a84.24,84.24,0,0,1,24.95,3.69v18.93Z" transform="translate(0 0)"/><path d="M208.94,193a14,14,0,1,0-14-14,14,14,0,0,0,14,14Z" transform="translate(0 0)" fill="#9d2235"/><path d="M498.25,205.22c0-1.87-1.41-2.73-3.33-2.73h-3.87v8.23h2v-2.59h1.27l1.78,2.59h2.41l-2.1-3A2.53,2.53,0,0,0,498.25,205.22Zm-3.46,1.27h-1.73v-2.27h1.73c.86,0,1.41.4,1.41,1.13S495.7,206.49,494.79,206.49Z" transform="translate(0 0)"/><path d="M494.33,198.35a8.41,8.41,0,1,0,8.41,8.41A8.42,8.42,0,0,0,494.33,198.35Zm7,8.37v0a7,7,0,0,1-7,7.1,7,7,0,0,1-7-7.05v-.05a7,7,0,1,1,14,0Z" transform="translate(0 0)"/></svg>