<svg xmlns="http://www.w3.org/2000/svg" width="1294" height="483" viewBox="0 0 1294 483" preserveAspectRatio="xMidYMid meet"><title>Triangles</title><path d="M1294,465.59l-.37.92h-20l-15.2-37.39h29.95L1294,443v-2.66l-4.55-11.19H1294v-1h-5l-10-24.59h15v-1h-15.36l-11.52-28.35,9.74-24.26,6.07,14.92h0L1294,392.08v-2.65l-9.87-24.28H1294v-1h-10.28l-6.32-15.56,13.7-34.1,1.19-2.95,1.71,4.21V313.1l-1.17-2.89,1.17-2.93V304.6l-1.74,4.34-9.66-23.76H1294v-1h-11.81L1267,246.8h27v-1h-27.41l-6.33-15.56,14.89-37.05L1294,239.55V236.9l-6.38-15.69H1294v-1h-6.78l-11.53-28.35,9.75-24.26,3.53,8.69,5,12.37V186l-1.3-3.19h1.3v-1h-1.7L1286,166.26l8-20v-2.68l-3.45,8.59-9.66-23.75H1294v-1h-13.52l-10-24.59h19.6l3.91,9.61v-2.66l-2.83-7H1294v-1h-3.23l-15.2-37.39H1294v-1h-18.84l-6.32-15.56,14.89-37L1294,36.14V33.49l-9.74-24L1288.09,0H1287l-3.32,8.26L1280.33,0h-1.07L1283,9.1h-19.61L1259.65,0h-1.08l3.7,9.1h-30L1228.62,0h-1.08l4,9.78h0l15.32,37.7h-19.61l-11.52-28.36.17-.43h0L1223.39,0h-1.08l-7.17,17.86L1207.88,0h-1.08l7.6,18.69h-19.61L1187.19,0h-1.08l7.6,18.69h-30l-6.33-15.56L1158.69,0h-1.08l-1.08,2.7h-20l-1.1-2.7h-1.08l1.1,2.7h-19.61l-1.1-2.7h-1.08l11.5,28.29h-30l-6.32-15.56L1094,0h-1.08L1088,12.3h-20L1063,0h-1.08l5,12.3h-19.61l-5-12.3h-1.07l15.4,37.88h-29.95l-6.33-15.56,9-22.32h-1.08l-3.32,8.26L1021.53,0h-1.08l3.91,9.6-4.94,12.29h-20L990.5,0h-1.07l8.9,21.89H978.72L969.82,0h-1.08L988,47.48H958.09l-6.33-15.56L964.59,0h-1.08l-7.17,17.86L949.08,0H948l7.8,19.19-4.94,12.3h-20L918.05,0H917l12.8,31.49H910.16L898.63,3.13l.18-.43h0L899.89,0h-1.08l-.75,1.86L897.31,0h-1.08l1.09,2.7h-19.6L876.62,0h-1.08l1.1,2.7H846.69L845.59,0h-1.08l1.38,3.39h0l.12.31h0l15.2,37.38H841.6L830.08,12.73,835.19,0h-1.08l-4.6,11.46L824.85,0h-1.08l5,12.29H809.16L804.16,0h-1.08l5,12.29h-30L773.13,0h-1.08l5.28,13h0l15.32,37.7h-19.6L761.52,22.32l9-22.32h-1.08L761,21.06,752.39,0h-1.08l8.9,21.89H740.6L731.7,0h-1.08l8.9,21.89H709.57l-.48-1.19L703.25,6.33,705.79,0h-1.08l-2.37,5.9h-20L679.93,0h-1.08l2.4,5.9H661.64L659.25,0h-1.08L671,31.49H641l-6.33-15.56L641.09,0H640l-.75,1.87L638.51,0h-1.08l1.3,3.2-4.94,12.29h-20L607.48,0H606.4l6.3,15.49H593.09L586.79,0h-1.08l16.7,41.08H572.46L572,39.89l-5.84-14.37L576.39,0h-1.08l-4.6,11.46L566.05,0H565l5.2,12.8-4.94,12.29h-20L535,0h-1.08l10.2,25.09H524.53L514.33,0h-1.08l20.6,50.68h-30l-6.32-15.56L511.69,0h-1.08l-8.46,21.06L493.59,0h-1.08l9.1,22.39-4.94,12.3h-20L462.56,0h-1.08l14.1,34.69H456L444.45,6.33,447,0h-1.08l-2,5.06L441.82,0h-1.08l2.4,5.9H423.53L421.13,0h-1.08l2.4,5.9H392.5L390.36.63,390.1,0H389l2.23,5.47.58,1.43L407,44.28H387.42L375.89,15.93,382.29,0h-1.08l-5.89,14.66L369.36,0h-1.08l6.3,15.49H355L348.68,0H347.6l6.3,15.49h-30L317.64,0h-42.5l10.2,25.09H255.39l-2.14-5.27L249.06,9.53l3.15-7.84L252.89,0h-1.08l-3.29,8.2h0l-.36.9h-20L224.45,0h-1.08l3.7,9.1H207.46L203.76,0h-1.08l14.1,34.69H186.83l-6.32-15.56L188.19,0h-1.08l-2,5.07L183,0h-1.08l2.6,6.4L179.6,18.69h-20L152,0h-1.08l7.6,18.69H138.9L131.3,0h-1.08l18,44.28h-30L112,28.72,123.49,0h-1.08l-5.89,14.66L110.56,0h-1.08L116,16,111,28.29H91L79.53,0H78.45L90,28.29H70.35L58.85,0H6l.2.5L21.4,37.88H1.79L0,33.49v2.65L11.11,63.47H0v1H11.52l10.2,25.09-4.94,12.3H0v1H16.38L6.83,126.61,0,109.81v2.66l6.09,15H0v1H6.09L0,143.61v2.68l6.86-17.07,21.39,52.61H0v1H28.66l10.2,25.1-4.94,12.29h-20L0,186v2.65l12.82,31.55H0v1H13.23l10,24.59H3.62L0,236.9v2.65l2.54,6.25H0v1H3l10.2,25.09-5,12.29H0v1H7.8L0,304.6v2.68L8.57,286l6.19,15.23h0L30,338.56H10.35L0,313.1v2.65l19.68,48.4H0v1H20.08l10.2,25.09-4.94,12.29h-20L0,389.42v2.66l4.25,10.45H0v1H4.66l10,24.59H0v1H14.66L5.11,452.88,0,440.31V443l4.57,11.25L0,465.59v2.68l.84,2.08L6,483H58.84l0-.07,9.75-24.25,6.19,15.22h0l3.69,9.1h1.08l-3.7-9.1h30l3.69,9.1h1.08l-3.7-9.1h19.21l-.14.35L122.4,483h1.08l3.35-8.33,3.38,8.33h1.08l-3.93-9.66,9.75-24.26,3.3,8.1,2.89,7.13h0L150.9,483H152l-7.6-18.69h30l7.6,18.69H183l-7.6-18.69h19.21L187.1,483h1.08l7.21-17.92L202.67,483h1.08l-7.83-19.26,9.75-24.25,6.19,15.22h0L223.36,483h1.08l-11.5-28.29h29.95l10.2,25.09L251.8,483h1.08l4.72-11.75,6.34-15.77L275.13,483h42.51l0-.07,14.89-37.05L347.59,483h1.08l-3.7-9.1h19.61l3.69,9.1h1.08l-3.7-9.1h19.21L381.2,483h1.08l3.35-8.33L389,483h1.08l-3.92-9.66,14.88-37L420,483h1.08l-7.6-18.69h19.61l7.6,18.69h1.08l-7.6-18.69h19.21L445.9,483H447l7.21-17.92L461.47,483h1.08l-1.1-2.7H491.4l1.1,2.7h1.08l-1.1-2.7h19.21L510.6,483h1.08l.78-1.93.78,1.93h1.08L513,479.74l9.75-24.26,6.06,14.91h0L533.93,483H535l-5-12.29h30L565,483H566l-5-12.29h19.2L575.3,483h1.08L581,471.47,585.7,483h1.08l-5.23-12.86,9.75-24.26,6.06,14.92h0l9,22.2h1.08l-8.9-21.89h29.95l8.9,21.89h1.08l-8.9-21.89h19.2l-3.35,8.35L640,483h1.08l8.49-21.12L658.16,483h1.08l-9.13-22.46,9.75-24.25,6.06,14.91h0L678.84,483h1.08l-12.8-31.49h30l10.2,25.09L704.7,483h1.08l12.35-30.72L730.61,483h1.08l-1.09-2.7h19.61l1.09,2.7h1.08l-1.1-2.7h19.21L769.4,483h1.08l.78-1.93L772,483h1.08l-1.33-3.26,11-27.32,3.91-9.73L803.07,483h1.08l-5-12.29h19.61l5,12.29h1.08l-5-12.29H839L834.1,483h1.08l4.63-11.53L844.5,483h1.08l-5.23-12.86,14.89-37.05L875.53,483h1.08l-8.9-21.89h19.61l8.9,21.89h1.08l-8.9-21.89h19.2L898.8,483h1.08l8.49-21.12,5.22,12.83L917,483H918l-2.4-5.9h30L948,483h1.08l-2.4-5.9h19.2L963.5,483h1.08l2.06-5.13,2.09,5.13h1.08l-2.63-6.46.17-.44,9.58-23.82L983,467.19h0L989.42,483h1.07l-6.29-15.49h29.95l6.3,15.49h1.07l-6.29-15.49h19.2L1028.2,483h1.08l5.92-14.72,6,14.72h1.07l-6.52-16.06,9.74-24.25,6.07,14.91,10.32,25.4H1063l-10.2-25.09h30L1092.9,483H1094l1.78-4.43,8-19.89,9.88,24.32h1.08l-10.43-25.66,9.75-24.25L1120.1,448h0l14.23,35h1.08l-14.1-34.69h30l10.2,25.1-3.12,7.76-.74,1.83h1.08l13.63-33.92L1186.1,483h1.08l-2.4-5.9h19.61l2.4,5.9h1.08l-2.4-5.9h19.2l-2.37,5.9h1.08l2.06-5.13,2.09,5.13h1.08l-2.63-6.46,14.89-37.05L1258.56,483h1.08l-6.3-15.49H1273l6.29,15.49h1.08L1274,467.51h19.2L1287,483h1.08l5.92-14.73h0Zm-6-37.47h-30l-6.32-15.56,14.89-37.05ZM51.42,340.33l3.88,9.55,2.31,5.67h0l15.2,37.39H53.2L41.67,364.58Zm-10.32,23-9.65-23.75h19.2ZM42.86,39.65l5.61,13.8.58,1.43L64.24,92.26H44.63L33.11,63.91Zm-10.32,23L22.88,38.88H42.09ZM169.69,46.05l21.38,52.61H161.12L159,93.39,154.8,83.1ZM159.37,69l-9.66-23.76h19.21Zm78.87-32.59,21.39,52.61H229.68L223.35,73.5Zm-10.32,23-9.65-23.75h19.2l-2.64,6.57ZM303.54,35l3.26-8.09,21.39,52.61h-30l-2.14-5.27-4.18-10.29Zm-7.06,14.9-9.66-23.76H306Zm258.83,2.6,21.39,52.61h-30L540.42,89.5ZM545,75.43l-9.66-23.75h19.2Zm69.72-9.81,9.15-22.77,21.39,52.61h-30L609,79.9Zm-1.17.22L603.9,42.08h19.2Zm78.88-32.58,21.38,52.6H683.86L677.54,70.3Zm-10.32,23-9.66-23.75h19.21ZM835.5,105.06H815.89L804.37,76.7l9.74-24.25,6.07,14.91h0Zm174-55.81,21.39,52.61h-30L994.61,86.3Zm-10.32,23-9.65-23.76h19.2Zm78.88-32.59,21.38,52.61h-30l-6.32-15.56Zm-10.32,23-9.66-23.76h19.21Zm78.87-32.58L1168,82.67h-30l-6.33-15.56ZM1136.3,53l-9.66-23.75h19.2Zm110.86,46.12-4.94,12.29h-20L1207,74.07h30ZM1238,74.07h19.21l-9.55,23.76Zm8.16,299.68-10-24.59h19.61l10,24.59Zm19.61,1-9.55,23.76-9.66-23.76ZM77.13,276.35l6.19,15.23h0L98.52,329H78.91L67.38,300.61Zm-10.32,23-9.65-23.75h19.2Zm1171.78-17.85-4.94,12.29h-20l-15.2-37.39h30Zm-9.12-25.1h19.2l-9.54,23.76ZM604.12,197.82H584.51L573,169.46l.17-.43h0l9.57-23.82,6.07,14.91h0Zm137.12-19.19H721.63L710.1,150.27,719.85,126l6.06,14.91h0Zm317.07,16H1038.7l-11.53-28.36,9.75-24.25,6.06,14.91h0Zm137.11-19.19h-19.61l-11.52-28.36.17-.43,9.57-23.82,6.07,14.91h0ZM784.08,233H764.47L753,204.65l9.75-24.26,6.06,14.92h0Zm137.11-19.19h-19.6l-11.53-28.35,9.75-24.26,6.06,14.91h0Zm233.2-12.11h0l.12.32,15.2,37.38H1150.1l-11.52-28.35,9.74-24.26Zm-5.53-16.24,14.89-37.05L1185.14,201h-30l-3-7.3ZM1180.11,265h-19.6l-10-24.59h19.61Zm-8.91-24.59h19.2l-9.55,23.76Zm8.92,25.59L1171,288.72l-.41,1L1160.91,266Zm-52.93-29.29-4.94,12.3h-20L1087,211.61h30Zm-9.13-25.09h19.21l-9.55,23.76Zm20,.77L1159.43,265h-30l-6.32-15.56Zm0-2.6L1128.35,186h19.2Zm-.74.83h-19.61l-10-24.59h19.61Zm-20.69,0h-29.95l-6.33-15.56L1095.19,158Zm-30.75.69h0l15.32,37.7h-19.6L1070,220.64l9.75-24.25Zm-16.38,8.07-9.66-23.75H1079Zm-19.94,1.84h19.2l-6.78,16.88-2.76,6.87Zm9.12,25.09-4.94,12.29h-20l-15.2-37.38h30Zm10.08-26.09H1049.1l-10-24.59h19.6Zm-20.69,0h-29.95l-.48-1.19-5.84-14.37,14.89-37.05Zm-30.75.69h0l15.33,37.69H1013l-11.53-28.35,9.75-24.26ZM1000.89,229l-9.65-23.76h19.2ZM673,239.9l-4.94,12.3h-20l-15.2-37.39H662.8Zm-9.12-25.09h19.2l-9.54,23.76Zm20,.77,21.39,52.61h-30L669,252.63Zm12.47,28h19.61l10,24.59H706.32Zm45.24-13.29-4.94,12.29h-20l-15.19-37.39h30Zm-9.12-25.1h19.2L742.09,229Zm-6.51,64-9.55,23.75-9.65-23.75ZM717,243.6h19.2l-9.54,23.75Zm20,.77,3.54,8.69L758.37,297H738.76l-11.52-28.36Zm.54-1.34,5.74-14.28L752.41,206l21.39,52.61H743.85Zm27.36-9h19.61l10,24.59h-19.6Zm29.61,25.59-9.55,23.76-9.66-23.76ZM785.57,234h19.2l-.75,1.86-8.8,21.9ZM796,258.59l9.57-23.82,6.06,14.91h0l15.33,37.7H807.32L795.79,259l.18-.44Zm10.11-25.15L821,196.39,842.35,249h-30Zm27.36-9H853L863,249H843.43ZM863,250l-9.54,23.75L843.84,250Zm-8.92-25.59h19.21l-9.55,23.75Zm20,.77,6.06,14.91h0l15.33,37.7H875.88l-11.53-28.36Zm36.81,14.22H881l-.48-1.19-5.85-14.37,14.89-37.05ZM902,214.81H921.6l10,24.59H912ZM881.37,240.4h30l10.2,25.09-4.94,12.3h-20Zm31,0h19.2l-9.55,23.76Zm10.28-25.59h19.2l-9.54,23.76Zm20,.77,6.07,14.91h0L964,268.19H944.43l-11.52-28.36Zm7.27,15.22h30l10.2,25.1-4.94,12.29h-20Zm31,0h19.21l-9.55,23.76Zm19.2-1h-19.6l-10-24.59h19.61Zm-20.68,0h-30l-6.33-15.56,14.89-37Zm-31.71-29.62-9.65-23.75h19.2Zm-.53,1.34-4.94,12.29h-20l-15.19-37.38H937Zm-57.74-17.33-9.66-23.76H899Zm-10.28,25.59L869.55,186h19.2Zm-.54,1.33-4.94,12.3h-20L838.52,186h30Zm-26,12.3H833L821.5,195.05l9.75-24.25,6.06,14.91h0Zm-31.71-29.62L811.28,170h19.2Zm-10.28,25.59L801,195.62H820.2Zm-.54,1.33L805.17,233h-20L770,195.62h29.95Zm-48.93-39.23-8.8,21.9-9.66-23.75h19.2Zm-9.54,22.74H732l-10-24.59h19.61Zm-20.69,0H701l-6.33-15.56,5.74-14.29,9.15-22.76Zm-33.28-5.54,17.86,43.92H695.92l-11.53-28.35L694.14,190ZM683.82,213l-9.66-23.76h19.21Zm-.74.83H663.47l-10-24.59h19.61Zm-20.69,0H632.44l-6.32-15.56L641,161.2Zm-30.75.69h0L647,252.2H627.36l-11.53-28.36.18-.43h0l9.57-23.82Zm-16.38,8.07-9.65-23.75h19.2Zm-19.94,1.84h19.21L605,248.16Zm9.12,25.09-4.94,12.29h-20l-15.2-37.38h30Zm10.09-26.09H594.92l-10-24.59h19.61Zm-20.69,0h-30l-6.33-15.56,14.89-37Zm-33.28-5.53,17.85,43.91H558.8l-11.52-28.35L557,209.18Zm-13.85,14.29-9.66-23.76h19.21ZM218.82,243.1l-4.95,12.29h-20L178.66,218h30ZM209.69,218H228.9l-9.55,23.76Zm9.75,26.21,10.23-25.44,21.39,52.61h-30l-6.32-15.56Zm22.7,2.58h19.61l10,24.59H252.13Zm45.23-13.3-4.58,11.4h0l-.36.9h-20l-15.2-37.39h30Zm-9.12-25.09h19.21l-9.55,23.76Zm-6.5,64L269.1,279l-6.9,17.18-9.66-23.75Zm-8.92-25.59H282l-9.55,23.75Zm20,.77,4.26,10.48,1.93,4.74h0l15.2,37.39H284.58l-11.53-28.36Zm6,12-5.43-13.38,3.15-7.84,11.74-29.21,21.38,52.61H289.66Zm21.92-22.41H330.3l10,24.59H320.69Zm45.24-13.29L351,236.2H331l-15.2-37.38h30Zm-9.12-25.09H366l-9.55,23.75Zm-6.51,64-9.55,23.76-9.65-23.76Zm-8.92-25.59h19.21L341,261Zm20,.77,6.19,15.23h0l15.19,37.38H353.13l-11.52-28.35Zm.53-1.33,14.89-37,21.39,52.61H358.22Zm27.36-9h19.61l10,24.59H389.25Zm29.61,25.59L399.31,277l-9.66-23.75Zm-8.92-25.59h19.2l-9.54,23.75Zm20,.76,5.61,13.8.58,1.43L441.3,281H421.69l-11.53-28.35Zm36.82,14.23h-30l-2.14-5.27L420.45,227l14.89-37ZM447.81,218h19.61l10,24.59H457.8ZM427.18,243.6h29.95l10.2,25.09L462.39,281h-20Zm31,0h19.21l0,.05-9.52,23.71ZM468.49,218H487.7l-9.55,23.76Zm20,.77,6.06,14.91h0l15.33,37.7H490.25L478.72,243ZM495.74,234h30l10.2,25.09L531,271.39h-20Zm31,0H546l-9.55,23.76Zm19.2-1H526.36l-10-24.59H536Zm-20.69,0H495.33L489,217.44l14.89-37.05Zm-31.7-29.62-9.66-23.75h19.2Zm-.54,1.34L488.1,217h-20l-15.2-37.38h29.95ZM467,217H447.4l-11.53-28.35,9.75-24.26,6.19,15.23h0ZM435.3,187.39l-9.65-23.76h19.2ZM425,213l-9.66-23.76h19.21Zm-.54,1.33-4.94,12.3h-20l-15.2-37.39h29.95Zm-26,12.3H378.84l-11.52-28.36L377.07,174l5.61,13.8.58,1.42ZM366.75,197l-9.66-23.75H376.3Zm-.74.84H346.4l-10-24.59H356Zm-20.69,0H315.37l-6.32-15.56,14.89-37Zm-30.62,1h0l15.2,37.38H310.29l-11.53-28.35,9.75-24.26Zm-16.51,7.76-9.66-23.76h19.21Zm-.74.83H277.84l-10-24.59h19.61Zm-20.68,0h-30l-6.32-15.56,14.89-37Zm-34.89-9.49,4.26,10.49h0l15.2,37.39H241.73L230.2,217.44,240,193.19Zm-12.24,18.26L220,192.42h19.2Zm-.74.83H209.29l-10-24.59H218.9Zm-20.69,0h-30l-6.33-15.56L183,173.83l3.79-9.43Zm-30.62,1h0l15.19,37.38H173.17L161.65,227l9.75-24.26Zm-16.51,7.76L151.42,202h19.21Zm-.74.84H140.73l-10-24.59h19.61Zm0,1-9.55,23.75-9.65-23.75ZM150.26,252.7,145.32,265h-20l-15.2-37.38h30ZM144.92,266l-9.55,23.76L125.71,266Zm.77.77,5.61,13.8.58,1.42,15.19,37.39H147.46L135.94,291Zm4.72,9-4.19-10.3,14.89-37.05L182.5,281H152.55Zm23.17-19.33h19.61l10,24.59H183.58ZM203.19,282l-9.55,23.76L184,282Zm-8.92-25.59h19.2l-9.54,23.76Zm20,.77,6.19,15.23h0l15.2,37.38H216l-11.53-28.35Zm7.27,15.23h30l10.2,25.09-4.94,12.29h-20Zm51,.77,21.38,52.61H264l-6.32-15.56Zm12.46,28h19.61l10,24.59H295Zm5.09-38.39H320l10.2,25.09-4.58,11.4h0l-.36.9h-20Zm39.26,30,11.74-29.2,21.39,52.61H332.51l-.89-2.19-5.44-13.37Zm24.21-1.18h19.61l10,24.59H363.54Zm5.08-38.38h30l10.2,25.09-4.95,12.29h-20Zm51,.76L431,306.57h-30L394.74,291Zm12.47,28h19.61l10,24.59H432.09Zm29.6,25.59-9.54,23.76-9.66-23.76ZM442.78,282H462l-9.55,23.76Zm20,.77,21.39,52.61H464.54L453,307Zm3.9,6.94-3.37-8.27,14.89-37.05L499.57,297H469.62Zm24-17.3h19.61l10,24.59H500.65ZM520.26,298l-7.38,18.35-2.17,5.4L501.06,298Zm-8.92-25.59h19.21L521,296.14Zm20,.77,6.06,14.91h0l15.32,37.7H533.09l-11.52-28.36Zm.53-1.34,14.89-37,21.39,52.61h-30Zm27.36-9h19.61l10,24.59H569.21Zm29.61,25.59-9.55,23.76-9.66-23.76Zm-8.92-25.59h19.2l-9.55,23.76Zm20,.77,3.54,8.69,17.85,43.92H601.65l-11.53-28.36Zm.54-1.34,14.89-37,21.38,52.61H606.73Zm27.36-9h19.61l10,24.59H637.76Zm29.6,25.58-9.54,23.76-9.66-23.76Zm-8.92-25.58h19.21L658.11,277Zm10.4,24.59L668.43,254l6.06,14.92h0l15.33,37.69H670.21l-11.53-28.35.17-.43Zm16.85-8.6h29.95l10.2,25.09-4.94,12.29h-20Zm51,.77,21.39,52.61h-30L711.81,307Zm12.47,28h19.61l10,24.59H749.17Zm5.08-38.39h30l10.2,25.09L779.46,297h-20Zm51,.77L816.64,313H786.69l-6.32-15.56Zm12.47,28h19.6l10,24.59H817.72ZM812.81,250h30L853,275.09,848,287.38H828Zm51,.77,21.39,52.6h-30l-6.33-15.56Zm12.47,28h19.61l10,24.59H886.28Zm29.61,25.59-9.55,23.76-9.65-23.76ZM897,278.78h19.2l-9.54,23.76Zm20,.77L923,294.47h0l15.32,37.69H918.72L907.2,303.81Zm5.66,11.25-5.12-12.58,14.89-37.05,21.39,52.61h-30Zm22.24-21.61h19.61l10,24.59h-19.6Zm29.61,25.59-9.55,23.75-9.66-23.75Zm-8.92-25.59h19.2l-.16.4-9.39,23.35Zm20,.77,6.06,14.91h0l15.33,37.7H987.28l-11.53-28.36Zm.54-1.34,14.89-37.05,21.38,52.61H992.36Zm27.36-9H1033l10,24.59h-19.61Zm29.6,25.59-9.54,23.76-9.66-23.76Zm-8.92-25.59h19.21l-9.55,23.76Zm20,.77,6.06,14.91h0l15.32,37.7h-19.6l-11.53-28.35Zm6.38,13L1054.59,259l14.89-37,21.39,52.61h-29.95ZM1082,250h19.61l10,24.59H1092Zm29.61,25.59-6.79,16.88-2.76,6.87-9.66-23.75ZM1102.64,250h19.2l-9.54,23.75Zm20,.76,6.07,14.92h0L1144,303.37h-19.61L1112.87,275Zm7.27,15.23h29.95l10.2,25.09-4.94,12.29h-20Zm51,.77,21.38,52.61h-30L1166,303.81Zm12.47,28H1213l10,24.59h-19.61Zm-.41-1-11.53-28.36,9.75-24.25,6.06,14.91h0l.13.31h0l15.2,37.39Zm-2.15-54.38h-20L1155.59,202h30l10.2,25.09ZM1186.62,202h19.21l-9.55,23.75Zm-.4-1-10-24.59h19.61l10,24.59Zm-22.5-55.22-9.66-23.75h19.2Zm-10.29,25.6-9.66-23.76H1163Zm-.53,1.33L1148,185h-20l-15.19-37.38h30Zm-26,12.29h-19.6l-11.53-28.35,9.75-24.26,3.53,8.7Zm-31.7-29.62-9.66-23.75h19.21ZM1084.88,181l-9.66-23.76h19.2Zm-.54,1.34-4.94,12.29h-20l-15.2-37.39h30ZM1026.6,165,1017,141.24h19.2Zm-7.52,18.72-2.76,6.87-9.66-23.76h19.21Zm-3.3,8.2-4.94,12.3h-20l-15.2-37.39h30Zm-26,12.3H970.14l-11.52-28.36,9.74-24.25,6.07,14.91h0Zm-31.7-29.63-9.66-23.75h19.2Zm-.74.84H937.7l-10-24.59h19.61Zm-20.69,0h-30l-6.33-15.56,14.89-37.05Zm-31-31.39-.71,1.77-9.66-23.76h19.2Zm-1.25,3.1-4.94,12.29h-20l-15.2-37.38h29.95ZM888.75,185H869.14l-10-24.59h19.6Zm-20.69,0H838.11l-.48-1.19-5.84-14.37,14.89-37.05Zm-31.7-29.62-9.66-23.75h19.21Zm-.54,1.34L830.88,169h-20l-15.2-37.38h30Zm-15.63,37.88h-19.6l-10-24.59H810.2Zm-20.68,0h-30l-6.33-15.56L778.12,142ZM767.8,165l-9.65-23.76h19.2Zm-.53,1.33-4.94,12.3h-20l-15.19-37.39h30Zm-48.94-39.22L709.53,149l-9.66-23.75h19.21Zm-19.08,47.48-9.66-23.75h19.2Zm-.54,1.34-4.94,12.29h-20l-15.2-37.38h30Zm-26,12.29H653.07l-11.53-28.35,9.75-24.26,3.54,8.7ZM641,158.6l-9.65-23.76h19.2Zm-10.28,25.59L621,160.43h19.21Zm-.54,1.33-4.94,12.3h-20L590,160.43h30ZM572.42,168.2l-9.66-23.76H582Zm-10.29,25.59L552.48,170h19.2Zm-.53,1.33-4.94,12.29h-20L521.45,170H551.4Zm-26,12.29H516l-11.53-28.35,9.75-24.26,3.53,8.7Zm-31.71-29.62L494.2,154h19.21Zm-.74.84H483.51l-10-24.59h19.61Zm-20.68,0h-30l-6.32-15.56,3.25-8.09,11.64-29ZM458.7,129.17l-8,19.83-9.66-23.75h19.21Zm-8.51,21.17-4.94,12.29h-20L410,125.25H440Zm-15.62,37.88H415l-10-24.59h19.61Zm-20.69,0H383.93L381.79,183l-4.19-10.29,11.64-28.95,3.25-8.1ZM382.17,158.6l-9.65-23.76h19.2Zm-.53,1.33-4.94,12.3h-20l-15.19-37.39h29.95Zm-26,12.3H336l-11.53-28.35,9.75-24.26,5.61,13.8.58,1.42ZM323.9,142.61l-9.66-23.76h19.21ZM313.62,168.2,304,144.44h19.21Zm-.54,1.33-4.94,12.3h-20l-15.2-37.39h29.95Zm-26,12.3H267.44l-11.53-28.36,9.75-24.25,6.19,15.22h0Zm-31.7-29.63-9.66-23.75h19.2Zm-10.29,25.59L235.4,154h19.21Zm-.53,1.34-4.95,12.29h-20L204.37,154h30Zm-26,12.29H198.88l-11.52-28.35,9.75-24.26,1.92,4.73L203.3,154h0Zm-31.7-29.62L177.13,138h19.21ZM176.5,187.39l-9.65-23.76h19.2Zm-.53,1.33L171,201H151l-15.2-37.39h30Zm-26,12.3H130.33L118.8,172.66l9.75-24.25,6.19,15.22h0Zm-31.71-29.63-9.65-23.75h19.2Zm-.74.84H97.88l-10-24.59H107.5Zm0,1L108,197l-9.66-23.75Zm.77.77,21.38,52.61H109.7l-2.14-5.27-4.18-10.29Zm-9.82,52.18.58,1.43L124.23,265H104.62L93.09,236.64l9.75-24.26ZM124.63,266l10,24.59H115L105,266Zm10,25.59-9.54,23.76-9.66-23.76Zm-10.08,25.09L119.61,329h-20L84.4,291.58h29.95Zm10.85-24.32L156.79,345H126.84l-6.33-15.56Zm12.47,28h19.61l10,24.59H157.87ZM153,282h30l10.2,25.09-5,12.3h-20Zm51,.77,21.39,52.61h-30l-2.14-5.27-4.18-10.29Zm12.47,28H236l10,24.59H226.42ZM246,336.36l-9.55,23.76-9.66-23.76Zm-8.93-25.59h19.21l-9.55,23.76Zm20,.77,6.19,15.22h0l15.2,37.39H258.87L247.34,335.8Zm7.27,15.22h29.95l10.2,25.09-4.94,12.3h-20Zm31,0h19.2l-3.44,8.57L305,350.52Zm10.28-25.58h19.21l-9.55,23.75Zm20,.76,4.26,10.48,1.93,4.75h0L347,354.55H327.42L315.9,326.2Zm7.26,15.23h29.95l10.21,25.09-4.58,11.39h0l-.37.9h-20Zm31,0h19.21l-9.55,23.76Zm10.29-25.59h19.2l-9.54,23.76Zm20,.77,6.19,15.22h0L415.59,345H396L384.45,316.6Zm7.27,15.22h29.95l10.2,25.09L436.68,345h-20Zm51,.77L473.86,361H443.91l-6.32-15.56Zm12.47,28h19.61l10,24.59H474.94ZM470,298h30l10.2,25.09-4.94,12.29h-20Zm51,.77,21.39,52.6H512.47l-.49-1.19-5.84-14.37Zm12.47,28h19.61l10,24.59H543.5Zm5.08-38.38h29.95l10.2,25.09-4.94,12.3h-20Zm51,.77L611,341.76H581L574.7,326.2Zm12.47,28h19.61l10,24.59H612.05Zm5.08-38.39h30l10.2,25.1-4.94,12.29h-20Zm51,.77,21.39,52.61H649.58l-6.33-15.56Zm12.47,28h19.61l10,24.59H680.61Zm29.61,25.59-9.55,23.76L681,333.16Zm-8.92-25.59h19.2L701,331.33Zm20,.77,6.07,14.91h0L732.66,361H713.05L701.53,332.6Zm7.27,15.23h30l10.2,25.09L753.75,361h-20Zm31,0h19.21l-9.55,23.75ZM759.86,298h19.2l-9.55,23.75Zm20,.77,3.22,7.92,18.17,44.68H781.61L770.08,323ZM787.1,314h29.95l10.2,25.09-4.94,12.29h-20Zm31,0h19.2l-9.54,23.76Zm10.28-25.59h19.21l-.75,1.86-8.8,21.9ZM838.81,313l9.58-23.82,6.06,14.91h0l15.33,37.7H850.17L838.64,313.4l.17-.43Zm16.85-8.6h30l10.2,25.09-3.4,8.47-1.54,3.83h-20Zm51,.77,21.39,52.61H898.1l-6.33-15.56Zm12.47,28h19.61l10,24.59h-19.6Zm5.08-38.38h29.95l10.2,25.09-4.94,12.29h-20Zm41.27,25,9.74-24.21,21.38,52.61h-30l-6.32-15.56Zm22.21,3.81h19.6l10,24.59H997.68Zm5.08-38.39h30l10.2,25.09L1029.8,318l-1.82,4.53h-20Zm51,.77,21.39,52.61h-30L1028.88,323Zm12.47,28h19.61l10,24.59h-19.61Zm5.09-38.38h30l10.2,25.09L1096.54,313h-20Zm51,.76L1133.72,329h-30l-.49-1.19-5.84-14.37Zm12.47,28h19.61l10,24.59h-19.6ZM1154.41,330l-9.55,23.76L1135.2,330Zm-8.92-25.59h19.2l-9.55,23.76Zm20,.77,6.06,14.91h0l15.33,37.7h-19.61l-11.53-28.35Zm7.27,15.23h30l10.2,25.09-3.83,9.51-1.11,2.78h-20Zm31,0H1223l-9.54,23.75ZM1214,294.78h19.21l-9.55,23.75Zm-16-39.39-3-7.29-3.36-8.27,14.89-37,21.38,52.6Zm8.53-55.21-9.65-23.75h19.2Zm-10.06-24.75L1181.3,138h30l10.2,25.09-4.94,12.3ZM1212.33,138h19.21L1222,161.8Zm19.2-1h-19.6l-10-24.59h19.61Zm-8.91-24.59h19.2l-9.55,23.76ZM1210.85,137H1180.9l-6.33-15.56,14.89-37Zm-31.71-29.62-9.65-23.75h19.2Zm-.53,1.34-4.94,12.29h-20l-15.19-37.38h30ZM1163,146.64h-19.61l-10-24.59H1153Zm-20.69,0h-30L1106,131.08,1120.9,94ZM1110.59,117l-9.66-23.76h19.2Zm-.54,1.33-4.94,12.3h-20l-15.2-37.39h29.95Zm-15.63,37.89h-19.61l-10-24.59h19.6Zm-20.69,0h-30l-6.32-15.56,14.89-37.05ZM1042,126.61l-9.66-23.75h19.21Zm-.54,1.34-4.94,12.29h-20l-15.2-37.38h29.95Zm-15.63,37.88h-19.6l-10-24.59h19.61Zm-20.68,0H975.23l-.49-1.19-5.84-14.37,14.89-37.05Zm-28.95-36.49-2.76,6.87-9.66-23.76H983Zm-3.29,8.2L968,149.84H948l-15.19-37.39h30Zm-26,12.3H927.3l-11.53-28.36,9.75-24.25,6.06,14.91h0Zm-31.7-29.62-9.66-23.76h19.21Zm-.74.83H894.85l-10-24.59h19.61Zm-20.69,0H863.82l-6.32-15.56,14.89-37Zm-30.75.69h0l15.33,37.69H858.74l-11.53-28.35L857,106.82Zm-16.38,8.07L837,106.06h19.2Zm-.74.84H826.3l-10-24.59h19.61Zm-20.68,0h-30l-.49-1.19-5.84-14.37,14.89-37Zm-30.75.68h0L809.79,169H790.18l-11.52-28.35,9.74-24.26Zm-16.38,8.08-9.66-23.76h19.2Zm-.74.83H757.74l-10-24.59h19.61Zm-20.69,0H726.71l-6.33-15.56,14.89-37.05ZM725,110.62,715.3,86.86h19.2Zm-.54,1.33-4.94,12.3h-20l-15.2-37.39h30Zm-15.63,37.89H689.18l-10-24.59h19.6Zm-20.69,0h-30l-6.32-15.56L657.57,120l9.15-22.77Zm-31.7-29.62-9.66-23.76H666Zm-.54,1.33-4.94,12.29h-20l-15.2-37.38h29.95Zm-15.62,37.88H620.63l-10-24.59h19.61Zm-20.69,0H589.6l-6.33-15.56,14.89-37.05Zm-31.71-29.62-9.65-23.75h19.2Zm-.53,1.34-4.94,12.29h-20l-15.19-37.38h30ZM571.68,169H552.07l-10-24.59h19.61ZM551,169H521l-6.33-15.56,14.89-37Zm-31.7-29.62-9.66-23.76h19.2Zm-.54,1.33L513.81,153h-20l-15.2-37.39h29.95Zm-26,12.3H473.11l-11.53-28.36,9.75-24.25,3.54,8.69ZM461,123.41l-9.66-23.75h19.2Zm-.74.84H440.67l-10-24.59h19.61Zm-20.69,0H409.64l-6.33-15.56,8.55-21.28,6.34-15.77Zm-30.63,1h0l15.19,37.38H404.55L393,134.28,402.78,110ZM392.46,133l-9.66-23.76H402Zm-.74.83H372.11l-10-24.59h19.61Zm-20.69,0H341.08l-2.14-5.26-4.18-10.3,11.63-28.95,3.26-8.1Zm-31.7-29.62-9.66-23.75h19.21Zm-.54,1.34-4.94,12.29h-20l-15.2-37.38h29.95Zm-15.63,37.88H303.55l-10-24.59h19.61Zm-20.68,0h-30l-6.32-15.56,14.89-37Zm-31.71-29.62-9.66-23.76h19.21Zm-.53,1.33-4.95,12.3h-20l-15.2-37.39h30ZM254.61,153H235l-10-24.59h19.61Zm-20.69,0H204l-6.33-15.56,14.89-37Zm-31.71-29.62-9.65-23.76h19.2Zm-.53,1.33L196.74,137h-20l-15.2-37.38h29.95Zm-15.63,37.88H166.44l-10-24.59h19.61Zm-20.69,0h-30l-6.32-15.56L144,110ZM133.66,133,124,109.25h19.21Zm-.54,1.34-4.94,12.29h-20L93,109.25h30Zm-26,12.29H87.48L76,118.29,85.7,94l5.61,13.8.58,1.42ZM75.39,117,65.73,93.26h19.2Zm0,2.6,21.39,52.61h-30l-6.32-15.56Zm-10.32,23-9.66-23.76H74.65Zm32.11,30.62,10.2,25.09-4.94,12.29h-20l-15.2-37.38Zm4.86,38.38-9.55,23.76-9.65-23.76ZM92.56,238l21.38,52.61H84L77.67,275ZM82.24,261,72.58,237.2H91.79Zm16.68,69,10,24.59H89.31L79.31,330Zm-.08,50.68L94.26,392h0l-.36.9h-20l-15.2-37.39h30Zm-9.12-25.09h19.2l-9.54,23.76ZM100,330h19.21l-9.55,23.76Zm11.8,21.11L120,330.73,126.17,346h0l15.19,37.38h-19.6L110.23,355ZM127.24,346h30l10.2,25.09-5,12.29h-20Zm31,0h19.21l-9.55,23.75Zm10.29-25.59h19.2l-9.54,23.75Zm20,.77,5.61,13.79.58,1.43,15.2,37.39H190.31l-11.53-28.36Zm7.27,15.22h29.95L236,361.45,231,373.75H211Zm51,.77,21.38,52.61H238.24l-6.32-15.56Zm12.46,28h19.61l10,24.59H269.27Zm29.61,25.59-9.55,23.76-9.65-23.76ZM280,365.15h19.21l-9.55,23.75Zm20,.77,6.19,15.22h0l15.19,37.39h-19.6l-11.53-28.36Zm.53-1.34,3.25-8.08,11.64-29,21.39,52.61H306.8Zm27.36-9h19.61l10,24.59H337.83Zm29.61,25.59L354,389.71l-6.1,15.19-9.66-23.76Zm-8.92-25.59h19.2l-9.54,23.76Zm20,.77,21.39,52.61H370.27l-11.53-28.35Zm3.43,5.79L369,355l3.15-7.85,11.74-29.2,21.39,52.61h-30ZM396.39,346H416l10,24.59H406.38ZM426,371.55l-9.55,23.75-9.66-23.75ZM417.07,346h19.21l-9.55,23.75Zm20,.77L443.24,362h0l15.2,37.38H438.83L427.3,371ZM444.32,362h29.95L484.47,387l-4.94,12.29h-20Zm31,0h19.2L485,385.71Zm10.28-25.59h19.21l-9.55,23.76Zm20,.77L511.67,352h0L527,389.74H507.38l-11.52-28.36Zm7.26,15.22h30l10.2,25.1-4.94,12.29h-20Zm31,0h19.21l-7.38,18.36-2.17,5.4Zm10.29-25.59h19.2l-9.54,23.76Zm20,.77,6.06,14.92h0l15.33,37.69H575.94l-11.53-28.35Zm7.27,15.23h30l10.2,25.09-4.94,12.29h-20Zm31,0h19.2l-9.54,23.75Zm10.28-25.59H642l-9.55,23.75Zm20,.77,3.22,7.92,18.17,44.69H644.5L633,342.19ZM650,333.16h30l10.2,25.09-4.94,12.3h-20Zm51,.77,21.39,52.61h-30l-.68-1.65L686.1,371Zm12.47,28h19.61l10,24.59h-19.6Zm29.61,25.59-9.55,23.76-9.66-23.76ZM734.15,362h19.2l-9.55,23.76Zm20,.77,6.06,14.91h0l15.33,37.7H755.9L744.37,387Zm.54-1.34,14.89-37.05,21.38,52.61H761Zm27.36-9h19.6l10,24.59H792Zm29.6,25.59-9.54,23.76-9.66-23.76Zm-8.92-25.59h19.21l-2,5-7.55,18.79Zm20,.77L825.9,361l18.17,44.69H824.46l-11.53-28.35Zm.53-1.33,14.89-37.05,21.39,52.61h-30Zm27.36-9h19.61l10,24.59H860.57Zm29.61,25.59-9.55,23.75L861,368.35Zm-8.92-25.59h19.2l-9.54,23.75Zm10.4,24.59,9.57-23.82,6.07,14.91h0l15.32,37.7H893l-11.52-28.36.17-.43Zm16.84-8.6h30l10.2,25.09-4.94,12.3h-20Zm31,0h19.21l-9.55,23.76Zm10.29-25.59H959l-9.55,23.76Zm20,.77,6.06,14.91h0l15.33,37.7H961.57L950,358.19Zm7.27,15.23h30l10.2,25.09-4.94,12.29h-20Zm31,0h19.2l-9.54,23.75Zm10.28-25.59h19.21L1018,347.32Zm20,.76,6.06,14.92h0l15.32,37.69h-19.6l-11.53-28.35Zm7.27,15.23h30l10.2,25.09-3.13,7.77-1.81,4.52h-20Zm31,0h19.21l-9.55,23.76ZM1076.93,314h19.2l-9.54,23.76Zm20,.77,6.07,14.91h0l15.32,37.7h-19.61L1087.16,339Zm7.27,15.22h29.95l10.2,25.09-4.94,12.3h-20Zm51,.77,21.38,52.61h-30l-2.82-6.95-3.5-8.61Zm12.47,28h19.6l10,24.59h-19.61Zm29.6,25.59-9.54,23.76-9.66-23.76Zm-8.92-25.59h19.21L1198,382.51Zm20,.77,6.06,14.91h0l15.32,37.7h-19.6l-11.53-28.35Zm.53-1.33,14.89-37.05,21.39,52.61h-29.95Zm27-10-11.53-28.36,9.75-24.25,6.06,14.91h0l.13.31h0l15.19,37.39Zm2.11-45.68-3.36-8.27,14.89-37,21.39,52.61h-29.95Zm11.5-47.92-9.66-23.76H1259Zm-.74.83h-19.61l-10-24.59h19.6Zm-30-25.58-11.53-28.36.18-.43,9.57-23.83,6.06,14.92h0l15.33,37.7Zm-1.24-53.95,14.89-37.05,21.38,52.61h-30Zm27.36-9h19.6l10,24.59h-19.61Zm-.41-1-11.53-28.35,9.75-24.26,3.53,8.7L1264,165.83Zm-23.24-54.38h-19.61L1190,83.1l9.74-24.26,3.54,8.7Zm-31.7-29.62-9.66-23.75H1199Zm-.74.84h-19.61l-10-24.59h19.61Zm-51.44.68h0l15.32,37.7H1133L1121.44,92.7l.17-.44,9.58-23.82Zm-16.38,8.08-9.66-23.76h19.21Zm-.74.83h-19.61l-10-24.59h19.6Zm-54-5.53L1084,130.65h-19.61l-11.53-28.36L1062.63,78ZM1052.31,101l-9.65-23.75h19.2Zm-.74.84H1032l-10-24.59h19.61Zm-51.43.68h0l15.32,37.69H995.85l-11.52-28.35,9.74-24.26Zm-16.38,8.08L974.1,86.86h19.2Zm-.74.83H963.41l-10-24.59H973Zm-20.69,0h-30l-.48-1.19-5.85-14.37L939.76,61.8l1.18-3Zm-31.7-29.62L921,58.08h19.2Zm-.54,1.34-4.94,12.29h-20l-15.2-37.38h29.95Zm-26,12.29H884.45L872.92,67.11l9.75-24.26,6.06,14.91h0l.13.32h0ZM872.35,65.84,862.7,42.08h19.2Zm-9.57,23.83-.71,1.76-9.66-23.76h19.21Zm-1.25,3.09-4.94,12.3h-20l-15.2-37.39h30ZM803.8,75.43l-9.66-23.75h19.2ZM793.51,101l-9.65-23.75h19.2Zm-.53,1.34L788,114.65H768L752.83,77.27h29.95Zm-26,12.29H747.34L735.81,86.3,745.56,62,751.62,77h0ZM735.24,85l-9.66-23.76h19.21Zm-.74.83H714.89l-10-24.59h19.61Zm-51.44.69h0l15.33,37.7H678.78L667.25,95.89,677,71.64Zm-7.57-13.82-8.81,21.9L657,70.87h19.2Zm-9.55,22.73h-19.6l-10-24.59H656Zm-54-5.53,17.85,43.91H610.22L598.7,105.49l9.74-24.25Zm-13.85,14.29-9.66-23.75h19.2Zm-.74.84H577.78l-10-24.59h19.61Zm-51.44.68h0l15.33,37.7H541.67l-11.53-28.35.17-.44h0l9.58-23.82Zm-7.58-13.82-8.8,21.9-9.66-23.76h19.21Zm-9.54,22.73H509.22l-10-24.59h19.61Zm-20.68,0h-30l-6.32-15.56L486.76,62ZM476.44,85l-9.66-23.76H486Zm-.54,1.33L471,98.66H451l-15.2-37.39H465.7Zm-26,12.3H430.26L418.74,70.31l9.75-24.26,1.92,4.73,4.26,10.49h0ZM418.17,69l-9.66-23.76h19.21ZM407.88,94.63l-9.65-23.76h19.2ZM407.35,96l-4.94,12.3h-20L367.2,70.87h29.95Zm-26,12.3H361.71L350.18,79.9l9.75-24.25,6.19,15.22h0ZM349.61,78.63,340,54.88h19.21Zm-.74.84H329.26l-10-24.59h19.61ZM297,79l.58,1.43,15.2,37.38H293.15L281.62,89.5l9.75-24.26Zm-15.92,9.19L271.4,64.47h19.2Zm-.74.83H260.71l-10-24.59h19.61Zm-51.31,1h0l15.19,37.39H224.59L213.07,99.09l9.75-24.25ZM212.5,97.83l-9.66-23.76h19.21Zm-.74.83H192.15l-10-24.59h19.61Zm-51.89-.43.58,1.43L175.65,137H156l-11.53-28.35,9.75-24.26Zm-15.93,9.19-9.65-23.75h19.2Zm-.74.84H123.59l-10-24.59h19.61Zm-20.68,0h-30L90.42,103l-4.18-10.3,14.89-37ZM90.81,78.63,81.15,54.88h19.21ZM90.28,80l-5,12.29h-20L50.12,54.88h30ZM64.65,93.26l10,24.59H55L45,93.26Zm-.08,50.68-4.95,12.3h-20l-15.2-37.39h30Zm-5.35,13.29L49.68,181,40,157.23ZM60,158l6.19,15.23h0l15.2,37.38H61.77L50.25,182.26Zm21.8,53.61,10,24.59H72.17l-10-24.59Zm-.09,50.68-4.94,12.3h-20L41.55,237.2h30ZM66.07,300.18H46.46l-10-24.59H56.08Zm0,1-9.55,23.75-9.66-23.75Zm.77.76,21.38,52.61H58.28l-.17-.42L52,339Zm6.36,92,10,24.59H63.6l-10-24.59Zm10,25.59-.13.34-9.41,23.41L64,419.53Zm-8.92-25.59H93.5L84,417.69Zm20,.76L97,401.47l3.44,8.46h0l15.19,37.38H96L84.52,419Zm.53-1.33,8-20,6.84-17,21.39,52.61h-30Zm27.36-9h19.61l10,24.59H132.16Zm29.61,25.59-9.55,23.76-9.66-23.76Zm-8.92-25.59h19.2l-9.54,23.76Zm20,.77L169,400.33h0l15.2,37.39H164.6l-11.52-28.36Zm.54-1.33,14.89-37.06,21.39,52.61h-30Zm27.36-9h19.61l10,24.59H200.71Zm29.61,25.59-9.55,23.76-9.66-23.76Zm-8.92-25.59h19.2l-9.55,23.76Zm20,.77,3.29,8.1,2.9,7.13h0l15.2,37.38H233.16l-11.53-28.35Zm7.27,15.23h30l10.2,25.09-4.94,12.29h-20Zm51,.77L311,444.12h-30l-6.33-15.56Zm12.47,28h19.61l10,24.59H312.12Zm5.08-38.39h30l10.2,25.09-4.95,12.3h-20Zm39.37,29.74,11.64-29,21.39,52.61h-30L343.32,419Zm24.11-.95h19.61l10,24.59H380.67Zm5.08-38.38h29.95l10.2,25.09L411,408.93H391Zm51,.76,21.39,52.61H418.2l-3.43-8.44-2.9-7.12Zm12.47,28h19.61l10,24.59H449.23Zm29.61,25.59-9.55,23.76-9.65-23.76Zm-8.92-25.59h19.21l-9.55,23.76Zm20,.77L486,416h0l15.32,37.69H481.67l-11.52-28.35Zm.53-1.33,14.89-37,21.39,52.61h-30Zm27.36-9H527.4l10,24.59H517.79Zm29.61,25.59-9.55,23.75-9.66-23.75Zm-8.92-25.59h19.2l-9.55,23.75Zm20,.77,6.06,14.91h0l15.33,37.7H550.23L538.7,415.76Zm.54-1.34,14.89-37.05,21.38,52.61h-30Zm27.36-9H596l10,24.59H586.34ZM606,406.73l-4.32,10.77-5.22,13-9.66-23.76ZM597,381.14h19.21l-9.55,23.76Zm20,.77,6.06,14.91h0l15.33,37.7H618.79l-11.53-28.35Zm.53-1.33,14.89-37.05,21.39,52.61h-30Zm27.36-9h19.61l10,24.59H654.9Zm29.61,25.59L665,420.89l-9.65-23.75Zm-8.92-25.59h19.2l-9.54,23.75Zm20,.77,6.07,14.91h0L707,424.92H687.34l-11.52-28.35Zm7.27,15.22h29.95L733,412.63,728,424.92H708Zm47.1,10.5,3.91-9.73,21.38,52.61h-30l-.67-1.65L729,425.36Zm16.38,18.29h19.61l10,24.59H766.3Zm5.08-38.39h30L801.54,403l-4.94,12.3h-20Zm51,.77,21.39,52.61H803.83l-6.33-15.56Zm12.47,28h19.61l10,24.59H834.86ZM830,368.35H859.9l10.2,25.09-4.94,12.29h-20Zm51,.77,21.39,52.61h-30l-6.33-15.56Zm12.47,28H913l10,24.59h-19.6ZM923,422.72l-9.55,23.76-9.66-23.76Zm-8.92-25.58h19.2l-9.55,23.75Zm10.4,24.59,9.57-23.83,6.06,14.92h0l15.33,37.69H935.86l-11.53-28.35Zm10.11-25.16,14.89-37.05,21.38,52.61H940.94Zm27.36-9h19.6l10,24.59H972Zm29.6,25.59L982,436.88l-9.66-23.75Zm-8.92-25.59h19.21l-9.55,23.75Zm20,.77,6.06,14.91,15.32,37.7h-19.6l-11.53-28.36Zm.53-1.34,7.81-19.43,7.08-17.62,21.39,52.61h-30Zm27.36-9h19.61l10,24.59h-19.61Zm29.61,25.59-9.55,23.76-9.65-23.76Zm-8.92-25.59h19.2l-9.54,23.76Zm20,.77,6.07,14.91h0l15.32,37.7H1073L1061.45,403Zm.54-1.33,14.89-37.05L1108,392.94h-30Zm27.36-9h19.61l10,24.59h-19.6Zm29.61,25.59-9.55,23.75-9.66-23.75Zm-8.92-25.59H1139l-9.55,23.75Zm20,.77,6.06,14.91h0l.13.31h0l15.2,37.39h-19.61L1130,393.37Zm7.27,15.22h30l10.2,25.09-4.94,12.3h-20Zm51,.77,21.39,52.61h-30l-2.83-7-3.5-8.61Zm12.47,28h19.61l10,24.59h-19.61Zm5.08-38.39h30l10.2,25.1-3.83,9.51-1.11,2.78h-20Zm51-1.83-9.66-23.75h19.2Zm9.94-24.75h-20l-15.2-37.39h30l10.21,25.09Zm5.48-13.63-9.66-23.76h19.21Zm9.55-24.76h-19.61l-10-24.59h19.61Zm-25.73-63.28h0l15.32,37.69h-19.6L1250,255.83l.17-.44,9.58-23.82Zm-6.43-16.68h-20l-15.2-37.39h29.95l10.2,25.09Zm5.48-13.63-9.66-23.76h19.2Zm10.28-25.59-9.66-23.76h19.21ZM1290,153.54l-4.94,12.29h-20l-15.2-37.38h30Zm-10.61-26.09h-30l-6.32-15.56,14.89-37Zm-31.07-79h19.2l-.16.41L1258,72.24Zm26,15.68h0l15.33,37.7h-19.61L1258.55,73.5l.18-.43h0l9.57-23.82ZM1283,10.1l-9.55,23.75-9.66-23.75Zm-50.24,0h30l10.2,25.09-4.94,12.29h-20Zm14.53,38.38,10,24.59h-19.6l-10-24.59Zm-32.08-28,21.39,52.61h-30l-6.33-15.56Zm-.77-.77-9.55,23.76-9.66-23.76Zm-20.28,0,10.2,25.09-5,12.3h-20l-15.2-37.39ZM1156.9,4.47l3.53,8.69,17.85,43.92h-19.6l-11.53-28.36Zm-.77-.77-9.55,23.75L1136.92,3.7Zm-39.89,0h19.6l10,24.59h-19.61Zm9.32,25.59,10.2,25.09-4.94,12.29h-20l-15.2-37.38Zm-37.22-15.23L1094.4,29h0l15.33,37.69h-19.61l-11.53-28.35.18-.44Zm-.77-.77L1078,37.05l-9.65-23.76Zm-39.89,0h19.61l10,24.59h-19.6ZM1057,38.88,1067.2,64l-4.94,12.29h-20l-15.2-37.39Zm-37.22-15.22,3.54,8.69,17.85,43.92h-19.61L1010,47.91Zm-.77-.77-9.54,23.76-9.66-23.76Zm-39.89,0h19.61l10,24.59H989.12Zm9.33,25.59,10.2,25.09-4.94,12.29h-20L958.5,48.48ZM951.23,33.25l6.06,14.92h0l15.32,37.69H953L941.48,57.51Zm-.77-.76-9.55,23.75-9.66-23.75Zm-20.29,0,10,24.59H920.56l-10-24.59Zm-32.07-28,21.38,52.61h-30l-3-7.3-3.36-8.26Zm-.77-.77-9.55,23.76L878.12,3.7Zm-50.24,0H877l10.2,25.09L882.3,41.08h-20Zm14.53,38.38,10,24.59H852L842,42.08Zm-32.08-28,21.39,52.61H821l-6.33-15.56Zm-.77-.77-8.84,22-.71,1.76-9.65-23.76Zm-50.23,0h30l10.2,25.1-4.94,12.29h-20Zm14.52,38.39,10,24.59H783.45l-10-24.59ZM761,23.66l21.39,52.61h-30l-.48-1.19-5.85-14.37Zm-.77-.77-9.54,23.76L741,22.89Zm-20.28,0L750.13,48l-4.94,12.3h-20L710,22.89ZM702.71,7.67l6.06,14.91h0l15.33,37.7H704.49L693,31.92Zm-.77-.77-9.55,23.75L682.74,6.9Zm-39.89,0h19.61l10,24.59h-19.6Zm9.32,25.59,10.2,25.09-4.94,12.29h-20l-15.2-37.38ZM634.16,17.26l6.06,14.91h0l15.32,37.7H635.93L624.41,41.52Zm-.78-.77-.74,1.86-8.8,21.9-9.66-23.76Zm-39.89,0H613.1l10,24.59H603.49Zm9.33,25.59L613,67.17l-4.94,12.3h-20L572.87,42.08ZM565.6,26.86l6.06,14.91h0L587,79.47H567.38L555.85,51.11Zm-.77-.77-9.55,23.75-9.66-23.75Zm-39.89,0h19.61l10,24.59H534.93Zm9.32,25.59,10.2,25.09-4.94,12.29h-20l-15.2-37.38ZM497,36.45l6.07,14.92h0l15.33,37.69H498.82L487.29,60.71l.18-.43h0Zm-.77-.76-.74,1.85-8.8,21.9-9.66-23.75Zm-20.28,0,10,24.59H466.38l-10-24.59Zm-32.08-28L465.3,60.28H435.35L429,44.71Zm-.77-.77-9.55,23.75L423.94,6.9Zm-50.23,0h29.95L433.06,32l-4.94,12.29h-20Zm14.52,38.38,10,24.59H397.82l-10-24.59Zm-32.08-28,21.39,52.61H366.79l-6.33-15.56L369,33Zm-.76-.77L365,40.25l-9.66-23.76Zm-20.29,0,10.2,25.09-4.94,12.3h-20l-15.2-37.39Zm-31,0h0l15.2,37.39H318.86L307.33,25.52l9.75-24.25Zm-7-16-9.54,23.76L297.11.5ZM276.42.5H296l10,24.59H286.42Zm9.33,25.59L296,51.18,291,63.47H271l-15.2-37.38ZM248.53,10.86l5.61,13.8.58,1.43,15.19,37.38H250.3L238.78,35.12Zm-.77-.76-9.55,23.75L228.55,10.1Zm-39.9,0h19.61l10,24.59H217.86Zm9.33,25.59,10.2,25.09-4.94,12.29h-20l-15.2-37.38ZM180,20.46l6.19,15.23h0l15.2,37.38H181.75L170.22,44.72Zm-.77-.77-9.55,23.76L160,19.69Zm-39.89,0h19.61l10,24.59H149.3Zm9.32,25.59,10.2,25.09-4.94,12.3h-20l-15.2-37.39ZM111.41,30.06l6.19,15.22h0l15.2,37.39H113.19L101.66,54.31Zm-.77-.77L101.1,53,91.44,29.29Zm-20.28,0,10,24.59H80.75l-10-24.59ZM79.67,53.88H49.72l-2.14-5.27L43.39,38.32l14.89-37ZM57.51.5,48,24.26,38.31.5ZM7.28.5H37.23l10.2,25.09L42.49,37.88h-20ZM2.19,38.88H21.8l10,24.59H12.19ZM12.6,64.47H31.8L22.26,88.23Zm20,.77L54,117.85H24l-6.33-15.56ZM7.4,127.88l9.75-24.25,6.19,15.22h0l15.19,37.39H18.93Zm11.93,29.35H38.94l10,24.6H29.33Zm10.4,25.59H48.94l-9.55,23.76Zm20,.77L71.1,236.2h-30l-6.32-15.56ZM34.28,222,37,228.64l3.48,8.56h0l15.2,37.39H36.06L24.53,246.23Zm-20-.77h19.2L24,245ZM4,246.8H23.23l-9.55,23.75Zm5.09,37.82L13.77,273,24,247.57l21.39,52.61H15.44Zm6.73,16.56h30L56,326.27l-4.94,12.29H31Zm-5.08,38.38H30.37l10,24.59H20.75Zm10.4,25.59H40.37l-9.55,23.76Zm20,.77,21.38,52.61H32.57L26.25,403ZM25.71,404.3l6.19,15.23h0l15.2,37.38H27.49L16,428.56Zm-20-.77h19.2l-9.55,23.76Zm1.12,79-5-12.36-1.3-3.2,14.89-37.05L36.81,482.5Zm31,0-10-24.59H47.5l10,24.59Zm20.35-.83-9.66-23.76H67.79Zm9.95-24.76h-20L33,419.53h30l10.2,25.09Zm7.23,16-6.33-15.56,3.25-8.08,11.64-29,21.39,52.61Zm31,0-10-24.59h19.61l10,24.59Zm20.35-.83-9.66-23.76h19.2Zm10.31-25.66h0l-.37.9h-20l-15.2-37.38h30L141.69,435Zm6.86,16.9-6.32-15.56,5.86-14.59,9-22.46,21.39,52.61Zm31,0-10-24.59h19.61l10,24.59Zm20.35-.84-9.65-23.75h19.2Zm10-24.75h-20l-15.2-37.39H200l10.2,25.09Zm7.23,16-6.32-15.56,14.89-37,21.38,52.61Zm21-24.59h19.61l10,24.59H243.56Zm20.06,49.35L244,454.71h19.2Zm10.29-25.59-9.66-23.76h19.21ZM276,482.5l-11.52-28.35,9.75-24.26,3.29,8.1,2.9,7.13h0l15.19,37.38Zm40.7,0h-20l-15.2-37.38h30l10.2,25.09Zm5.48-13.63-9.66-23.75h19.21Zm10.29-25.59-9.66-23.75H342Zm12.09,29.62L333,444.55l9.75-24.26L349,435.52h0l15.2,37.38Zm40.7,0h-20l-15.2-37.38H380l10.2,25.09Zm5.48-13.62-9.66-23.76h19.2ZM401,433.69l-9.66-23.76h19.21Zm12.1,29.62L401.59,435l9.75-24.25,21.39,52.61Zm40.7,0h-20l-15.19-37.39h29.95L458.76,451Zm7.23,16-3.43-8.44-2.9-7.12,14.89-37.05L491,479.3Zm31,0-10-24.59h19.61l10,24.59Zm20.35-.83-9.66-23.76H522Zm9.94-24.76h-20l-15.2-37.38h29.95l10.2,25.09Zm7.23,16-6.32-15.56,14.89-37,21.38,52.61Zm31,0-10-24.59h19.61l10,24.59Zm20.35-.84-9.66-23.75h19.21Zm9.95-24.75h-20l-15.2-37.39h29.95l10.2,25.09Zm7.23,16-6.33-15.56,14.89-37.05,21.39,52.61Zm31,0-10-24.59H638.8l10,24.59Zm20.35-.84-9.66-23.75h19.21Zm10-24.75h-20l-15.19-37.38h30l10.2,25.09Zm7.23,16L660.39,435l14.89-37.05,21.39,52.61Zm21-24.59h19.61l10,24.59H697.75Zm22.81,42.51-2.75,6.84-9.66-23.76h19.21Zm7.53-18.75-9.65-23.76h19.2Zm12.1,29.62L718.66,451l9.75-24.26,6.06,14.91h0l15.33,37.7Zm40.7,0h-20l-15.2-37.38h30L775.83,467Zm5.48-13.63-9.66-23.75h19.2Zm10.28-25.59L777,416.33H796.2Zm12.1,29.63-11.53-28.36L797,417.1,803,432h0l15.33,37.7Zm40.7,0h-20l-15.19-37.39h30l10.2,25.09Zm5.47-13.63-9.65-23.76h19.2Zm10.29-25.59-9.66-23.76h19.2Zm12.09,29.62-11.52-28.35,9.74-24.26,5.22,12.83,16.17,39.78Zm40.7,0H888l-15.2-37.39h30l10.2,25.1Zm7.23,16-6.32-15.56,14.89-37.05,21.38,52.61Zm31,0-10-24.59h19.6l10,24.59Zm20.35-.83L957,451.51h19.21Zm9.95-24.76h-20l-15.2-37.38H971.3l10.2,25.09Zm7.23,16L977.46,451l14.89-37.05,21.39,52.61Zm31,0-10-24.59h19.61l10,24.59Zm20.35-.84-9.66-23.75h19.2Zm9.95-24.75h-20l-15.19-37.39h29.95l10.2,25.09Zm7.23,16L1046,441.35l6.9-17.16,8-19.89,21.39,52.61Zm21-24.59H1093l10,24.59h-19.6Zm20.06,49.35-9.66-23.76H1103Zm10.28-25.59-9.65-23.76h19.2Zm10-24.76h-20l-15.2-37.38h30l10.2,25.09-3.12,7.77Zm7.23,16-6.32-15.55,14.89-37.05,21.38,52.6Zm21-24.59h19.6l10,24.59h-19.61ZM1162,472.07l-9.66-23.76h19.2Zm10.28-25.59-9.66-23.76h19.21Zm12.1,29.62-11.53-28.35,9.75-24.26,6.06,14.92h0l.13.31L1204,476.1Zm40.69,0h-20l-15.19-37.38h30l10.2,25.09Zm5.48-13.63-9.66-23.75h19.21Zm10.29-25.58-9.66-23.76h19.2Zm12.09,29.62-11.52-28.36,9.74-24.25,6.07,14.91h0l15.32,37.7Z" fill="#000"/></svg>