<svg xmlns="http://www.w3.org/2000/svg" xmlns:xlink="http://www.w3.org/1999/xlink" width="496.22" height="403.18" viewBox="0 0 496.22 403.18" preserveAspectRatio="xMidYMid meet"><title>Triangles</title><defs><clipPath id="a"><rect width="496.22" height="403.18" fill="none"/></clipPath><clipPath id="b"><rect y="-536.48" width="496.22" height="170.57" fill="none"/></clipPath></defs><g clip-path="url(#a)"><polygon points="1.5 105.23 -29.85 105.23 -14.08 144 1.5 105.23" fill="#dcdadb" opacity="0.4"/><polygon points="11.87 323.35 -19.49 323.35 -3.72 362.11 11.87 323.35" fill="#908e8f" opacity="0.5"/><polygon points="-37.45 202.11 -27.54 226.47 19.46 226.47 -14.08 144 -37.45 202.11" fill="#fff" opacity="0.4"/><polygon points="35.23 265.24 19.46 226.47 -27.54 226.47 -3.9 284.58 27.45 284.58 35.23 265.24" fill="#fdfdfd" opacity="0"/><polygon points="27.45 284.58 -3.9 284.58 11.87 323.35 27.45 284.58" fill="#dcdadb" opacity="0.4"/><polygon points="11.87 323.35 -3.9 284.58 -35.26 284.58 -19.49 323.35 11.87 323.35" fill="#908e8f" opacity="0.5"/><polygon points="11.87 323.35 -19.49 323.35 -3.72 362.11 11.87 323.35" fill="#908e8f" opacity="0.5"/><polygon points="-37.45 202.11 -27.54 226.47 19.46 226.47 -14.08 144 -37.45 202.11" fill="#fff" opacity="0.4"/><polygon points="35.23 265.24 19.46 226.47 -27.54 226.47 -3.9 284.58 27.45 284.58 35.23 265.24" fill="#fdfdfd" opacity="0"/><polygon points="27.45 284.58 -3.9 284.58 11.87 323.35 27.45 284.58" fill="#dcdadb" opacity="0.4"/><polygon points="11.87 323.35 -3.9 284.58 -35.26 284.58 -19.49 323.35 11.87 323.35" fill="#908e8f" opacity="0.5"/><polygon points="50.82 226.47 19.46 226.47 35.23 265.24 50.82 226.47" fill="#908e8f" opacity="0.5"/><polygon points="66.4 187.71 35.05 187.71 50.82 226.47 66.4 187.71" fill="#dcdadb" opacity="0.4"/><polygon points="1.5 105.23 -14.08 144 3.69 187.71 35.05 187.71 1.5 105.23" fill="#22739d"/><polygon points="50.82 226.47 35.05 187.71 3.69 187.71 19.46 226.47 50.82 226.47" fill="#908e8f" opacity="0.5"/><polygon points="27.45 284.58 37.36 308.94 84.36 308.94 50.82 226.47 27.45 284.58" fill="#fff" opacity="0.4"/><polygon points="100.13 347.71 84.36 308.94 37.36 308.94 61 367.05 92.35 367.05 100.13 347.71" fill="#fdfdfd" opacity="0"/><polygon points="92.35 367.05 61 367.05 76.76 405.82 92.35 367.05" fill="#dcdadb" opacity="0.4"/><polygon points="27.45 284.58 11.87 323.35 29.64 367.05 61 367.05 27.45 284.58" fill="#22739d"/><polygon points="76.76 405.82 61 367.05 29.64 367.05 45.41 405.82 76.76 405.82" fill="#908e8f" opacity="0.5"/><polygon points="115.71 308.94 84.36 308.94 100.13 347.71 115.71 308.94" fill="#908e8f" opacity="0.5"/><polygon points="131.3 270.18 99.95 270.18 115.71 308.94 131.3 270.18" fill="#dcdadb" opacity="0.4"/><polygon points="66.4 187.71 50.82 226.47 68.59 270.18 99.95 270.18 66.4 187.71" fill="#22739d"/><polygon points="115.71 308.94 99.95 270.18 68.59 270.18 84.36 308.94 115.71 308.94" fill="#908e8f" opacity="0.5"/><polygon points="27.45 284.58 37.36 308.94 84.36 308.94 50.82 226.47 27.45 284.58" fill="#fff" opacity="0.4"/><polygon points="100.13 347.71 84.36 308.94 37.36 308.94 61 367.05 92.35 367.05 100.13 347.71" fill="#fdfdfd" opacity="0"/><polygon points="92.35 367.05 61 367.05 76.76 405.82 92.35 367.05" fill="#dcdadb" opacity="0.4"/><polygon points="27.45 284.58 11.87 323.35 29.64 367.05 61 367.05 27.45 284.58" fill="#22739d"/><polygon points="76.76 405.82 61 367.05 29.64 367.05 45.41 405.82 76.76 405.82" fill="#908e8f" opacity="0.5"/><polygon points="115.71 308.94 84.36 308.94 100.13 347.71 115.71 308.94" fill="#908e8f" opacity="0.5"/><polygon points="131.3 270.18 99.95 270.18 115.71 308.94 131.3 270.18" fill="#dcdadb" opacity="0.4"/><polygon points="66.4 187.71 50.82 226.47 68.59 270.18 99.95 270.18 66.4 187.71" fill="#22739d"/><polygon points="115.71 308.94 99.95 270.18 68.59 270.18 84.36 308.94 115.71 308.94" fill="#908e8f" opacity="0.5"/><polygon points="180.61 391.41 149.26 391.41 165.02 430.18 180.61 391.41" fill="#908e8f" opacity="0.5"/><polygon points="196.2 352.65 164.84 352.65 180.61 391.41 196.2 352.65" fill="#dcdadb" opacity="0.4"/><polygon points="131.3 270.18 115.71 308.94 133.49 352.65 164.84 352.65 131.3 270.18" fill="#22739d"/><polygon points="180.61 391.41 164.84 352.65 133.49 352.65 149.26 391.41 180.61 391.41" fill="#908e8f" opacity="0.5"/><polygon points="180.61 391.41 149.26 391.41 165.02 430.18 180.61 391.41" fill="#908e8f" opacity="0.5"/><polygon points="196.2 352.65 164.84 352.65 180.61 391.41 196.2 352.65" fill="#dcdadb" opacity="0.4"/><polygon points="131.3 270.18 115.71 308.94 133.49 352.65 164.84 352.65 131.3 270.18" fill="#22739d"/><polygon points="180.61 391.41 164.84 352.65 133.49 352.65 149.26 391.41 180.61 391.41" fill="#908e8f" opacity="0.5"/><polygon points="-11.5 381.46 -1.59 405.82 45.41 405.82 11.87 323.35 -11.5 381.46" fill="#fff" opacity="0.4"/><polygon points="-11.5 381.46 -27.08 420.22 -9.31 463.93 22.05 463.93 -11.5 381.46" fill="#22739d"/><polygon points="92.35 367.05 102.26 391.41 149.26 391.41 115.71 308.94 92.35 367.05" fill="#fff" opacity="0.4"/><polygon points="165.03 430.18 149.26 391.41 102.26 391.41 125.89 449.52 157.25 449.52 165.03 430.18" fill="#fdfdfd" opacity="0"/><polygon points="92.35 367.05 76.76 405.82 94.54 449.52 125.89 449.52 92.35 367.05" fill="#22739d"/><polygon points="157.25 449.52 167.16 473.88 214.16 473.88 180.61 391.41 157.25 449.52" fill="#fff" opacity="0.4"/><polygon points="196.2 352.65 180.61 391.41 198.39 435.12 229.74 435.12 196.2 352.65" fill="#22739d"/><polygon points="458.37 109.68 489.72 109.68 473.95 70.92 458.37 109.68" fill="#908e8f" opacity="0.5"/><polygon points="442.78 148.44 474.14 148.44 458.37 109.68 442.78 148.44" fill="#dcdadb" opacity="0.4"/><polygon points="507.68 230.92 523.27 192.15 505.49 148.44 474.14 148.44 507.68 230.92" fill="#22739d"/><polygon points="458.37 109.68 474.14 148.44 505.49 148.44 489.72 109.68 458.37 109.68" fill="#908e8f" opacity="0.5"/><polygon points="458.37 109.68 489.72 109.68 473.95 70.92 458.37 109.68" fill="#908e8f" opacity="0.5"/><polygon points="442.78 148.44 474.14 148.44 458.37 109.68 442.78 148.44" fill="#dcdadb" opacity="0.4"/><polygon points="507.68 230.92 523.27 192.15 505.49 148.44 474.14 148.44 507.68 230.92" fill="#22739d"/><polygon points="458.37 109.68 474.14 148.44 505.49 148.44 489.72 109.68 458.37 109.68" fill="#908e8f" opacity="0.5"/><polygon points="546.63 134.04 536.72 109.68 489.72 109.68 523.27 192.15 546.63 134.04" fill="#fff" opacity="0.4"/><polygon points="473.95 70.92 489.72 109.68 536.72 109.68 513.09 51.57 481.73 51.57 473.95 70.92" fill="#fdfdfd" opacity="0"/><polygon points="481.73 51.57 513.09 51.57 497.32 12.8 481.73 51.57" fill="#dcdadb" opacity="0.4"/><polygon points="520.68 -45.31 510.77 -69.67 463.77 -69.67 497.32 12.8 520.68 -45.31" fill="#fff" opacity="0.4"/><polygon points="481.73 51.57 471.82 27.21 424.82 27.21 458.37 109.68 481.73 51.57" fill="#fff" opacity="0.4"/><polygon points="409.06 -11.56 424.82 27.21 471.82 27.21 448.19 -30.9 416.84 -30.9 409.06 -11.56" fill="#fdfdfd" opacity="0"/><polygon points="481.73 51.57 497.32 12.8 479.54 -30.9 448.19 -30.9 481.73 51.57" fill="#22739d"/><polygon points="393.47 27.21 424.82 27.21 409.06 -11.56 393.47 27.21" fill="#908e8f" opacity="0.5"/><polygon points="377.89 65.97 409.24 65.97 393.47 27.21 377.89 65.97" fill="#dcdadb" opacity="0.4"/><polygon points="442.78 148.44 458.37 109.68 440.59 65.97 409.24 65.97 442.78 148.44" fill="#22739d"/><polygon points="393.47 27.21 409.24 65.97 440.59 65.97 424.82 27.21 393.47 27.21" fill="#908e8f" opacity="0.5"/><polygon points="416.84 -30.9 406.93 -55.26 359.93 -55.26 393.47 27.21 416.84 -30.9" fill="#fff" opacity="0.4"/><polygon points="377.89 65.97 393.47 27.21 375.69 -16.5 344.34 -16.5 377.89 65.97" fill="#22739d"/></g><g clip-path="url(#b)"><polygon points="5.34 56.55 -15.35 56.55 -4.94 82.14 5.34 56.55" fill="#908e8f" opacity="0.5"/><polygon points="20.77 18.2 10.36 -7.39 -20.66 -7.39 -5.06 30.96 15.63 30.96 20.77 18.2" fill="#fdfdfd" opacity="0"/><polygon points="15.63 30.96 -5.06 30.96 5.34 56.55 15.63 30.96" fill="#dcdadb" opacity="0.4"/><polygon points="5.34 56.55 -5.06 30.96 -25.76 30.96 -15.35 56.55 5.34 56.55" fill="#908e8f" opacity="0.5"/><polygon points="31.05 -7.39 10.36 -7.39 20.77 18.2 31.05 -7.39" fill="#908e8f" opacity="0.5"/><polygon points="-35.79 158.85 -29.25 174.93 1.77 174.93 -20.37 120.5 -35.79 158.85" fill="#fff" opacity="0.4"/><polygon points="12.18 200.52 1.77 174.93 -29.25 174.93 -13.65 213.29 7.05 213.29 12.18 200.52" fill="#fdfdfd" opacity="0"/><polygon points="7.05 213.29 -13.65 213.29 -3.24 238.88 7.05 213.29" fill="#dcdadb" opacity="0.4"/><polygon points="22.47 174.93 1.77 174.93 12.18 200.52 22.47 174.93" fill="#908e8f" opacity="0.5"/><polygon points="-10.08 94.91 -3.54 110.99 27.48 110.99 5.34 56.55 -10.08 94.91" fill="#fff" opacity="0.4"/><polygon points="37.89 136.58 27.48 110.99 -3.54 110.99 12.06 149.35 32.76 149.35 37.89 136.58" fill="#fdfdfd" opacity="0"/><polygon points="32.76 149.35 12.06 149.35 22.47 174.93 32.76 149.35" fill="#dcdadb" opacity="0.4"/><polygon points="-10.08 94.91 -20.37 120.5 -8.63 149.35 12.06 149.35 -10.08 94.91" fill="#22739d"/><polygon points="22.47 174.93 12.06 149.35 -8.63 149.35 1.77 174.93 22.47 174.93" fill="#908e8f" opacity="0.5"/><polygon points="48.18 110.99 27.48 110.99 37.89 136.58 48.18 110.99" fill="#908e8f" opacity="0.5"/><polygon points="15.63 30.96 22.17 47.05 53.19 47.05 31.05 -7.39 15.63 30.96" fill="#fff" opacity="0.4"/><polygon points="63.6 72.63 53.19 47.05 22.17 47.05 37.77 85.4 58.47 85.4 63.6 72.63" fill="#fdfdfd" opacity="0"/><polygon points="58.47 85.4 37.77 85.4 48.18 110.99 58.47 85.4" fill="#dcdadb" opacity="0.4"/><polygon points="15.63 30.96 5.34 56.55 17.08 85.4 37.77 85.4 15.63 30.96" fill="#22739d"/><polygon points="48.18 110.99 37.77 85.4 17.08 85.4 27.48 110.99 48.18 110.99" fill="#908e8f" opacity="0.5"/><polygon points="22.47 174.93 1.77 174.93 12.18 200.52 22.47 174.93" fill="#908e8f" opacity="0.5"/><polygon points="-10.08 94.91 -3.54 110.99 27.48 110.99 5.34 56.55 -10.08 94.91" fill="#fff" opacity="0.4"/><polygon points="37.89 136.58 27.48 110.99 -3.54 110.99 12.06 149.35 32.76 149.35 37.89 136.58" fill="#fdfdfd" opacity="0"/><polygon points="32.76 149.35 12.06 149.35 22.47 174.93 32.76 149.35" fill="#dcdadb" opacity="0.4"/><polygon points="-10.08 94.91 -20.37 120.5 -8.63 149.35 12.06 149.35 -10.08 94.91" fill="#22739d"/><polygon points="22.47 174.93 12.06 149.35 -8.63 149.35 1.77 174.93 22.47 174.93" fill="#908e8f" opacity="0.5"/><polygon points="48.18 110.99 27.48 110.99 37.89 136.58 48.18 110.99" fill="#908e8f" opacity="0.5"/><polygon points="15.63 30.96 22.17 47.05 53.19 47.05 31.05 -7.39 15.63 30.96" fill="#fff" opacity="0.4"/><polygon points="63.6 72.63 53.19 47.05 22.17 47.05 37.77 85.4 58.47 85.4 63.6 72.63" fill="#fdfdfd" opacity="0"/><polygon points="58.47 85.4 37.77 85.4 48.18 110.99 58.47 85.4" fill="#dcdadb" opacity="0.4"/><polygon points="15.63 30.96 5.34 56.55 17.08 85.4 37.77 85.4 15.63 30.96" fill="#22739d"/><polygon points="48.18 110.99 37.77 85.4 17.08 85.4 27.48 110.99 48.18 110.99" fill="#908e8f" opacity="0.5"/><polygon points="73.89 47.05 53.19 47.05 63.6 72.63 73.89 47.05" fill="#908e8f" opacity="0.5"/><polygon points="89.31 8.69 78.9 -16.9 47.88 -16.9 63.48 21.46 84.18 21.46 89.31 8.69" fill="#fdfdfd" opacity="0"/><polygon points="84.18 21.46 63.48 21.46 73.89 47.05 84.18 21.46" fill="#dcdadb" opacity="0.4"/><polygon points="41.34 -32.98 31.05 -7.39 42.79 21.46 63.48 21.46 41.34 -32.98" fill="#22739d"/><polygon points="73.89 47.05 63.48 21.46 42.79 21.46 53.19 47.05 73.89 47.05" fill="#908e8f" opacity="0.5"/><polygon points="99.6 -16.9 78.9 -16.9 89.31 8.69 99.6 -16.9" fill="#908e8f" opacity="0.5"/><polygon points="3.6 382.85 -6.81 357.26 -37.83 357.26 -22.23 395.62 -1.53 395.62 3.6 382.85" fill="#fdfdfd" opacity="0"/><polygon points="3.6 382.85 -6.81 357.26 -37.83 357.26 -22.23 395.62 -1.53 395.62 3.6 382.85" fill="#fdfdfd" opacity="0"/><polygon points="13.89 357.26 -6.81 357.26 3.6 382.85 13.89 357.26" fill="#908e8f" opacity="0.5"/><polygon points="-18.66 277.24 -12.12 293.31 18.9 293.31 -3.24 238.88 -18.66 277.24" fill="#fff" opacity="0.4"/><polygon points="29.31 318.9 18.9 293.31 -12.12 293.31 3.48 331.67 24.18 331.67 29.31 318.9" fill="#fdfdfd" opacity="0"/><polygon points="24.18 331.67 3.48 331.67 13.89 357.26 24.18 331.67" fill="#dcdadb" opacity="0.4"/><polygon points="-18.66 277.23 -28.95 302.82 -17.21 331.67 3.48 331.67 -18.66 277.23" fill="#22739d"/><polygon points="13.89 357.26 3.48 331.67 -17.21 331.67 -6.81 357.26 13.89 357.26" fill="#908e8f" opacity="0.5"/><polygon points="39.6 293.31 18.9 293.31 29.31 318.9 39.6 293.31" fill="#908e8f" opacity="0.5"/><polygon points="7.05 213.29 13.59 229.37 44.61 229.37 22.47 174.93 7.05 213.29" fill="#fff" opacity="0.4"/><polygon points="55.02 254.96 44.61 229.37 13.59 229.37 29.19 267.73 49.88 267.73 55.02 254.96" fill="#fdfdfd" opacity="0"/><polygon points="49.88 267.73 29.19 267.73 39.6 293.31 49.88 267.73" fill="#dcdadb" opacity="0.4"/><polygon points="7.05 213.29 -3.24 238.88 8.49 267.73 29.19 267.73 7.05 213.29" fill="#22739d"/><polygon points="39.6 293.31 29.19 267.73 8.49 267.73 18.9 293.31 39.6 293.31" fill="#908e8f" opacity="0.5"/><polygon points="65.31 229.37 44.61 229.37 55.02 254.96 65.31 229.37" fill="#908e8f" opacity="0.5"/><polygon points="32.76 149.35 39.3 165.43 70.32 165.43 48.18 110.99 32.76 149.35" fill="#fff" opacity="0.4"/><polygon points="80.73 191.01 70.32 165.43 39.3 165.43 54.9 203.78 75.59 203.78 80.73 191.01" fill="#fdfdfd" opacity="0"/><polygon points="75.59 203.78 54.9 203.78 65.31 229.37 75.59 203.78" fill="#dcdadb" opacity="0.4"/><polygon points="32.76 149.35 22.47 174.93 34.2 203.78 54.9 203.78 32.76 149.35" fill="#22739d"/><polygon points="65.31 229.37 54.9 203.78 34.2 203.78 44.61 229.37 65.31 229.37" fill="#908e8f" opacity="0.5"/><polygon points="91.02 165.43 70.32 165.43 80.73 191.01 91.02 165.43" fill="#908e8f" opacity="0.5"/><polygon points="58.47 85.4 65.01 101.48 96.03 101.48 73.89 47.05 58.47 85.4" fill="#fff" opacity="0.4"/><polygon points="106.44 127.07 96.03 101.48 65.01 101.48 80.61 139.84 101.3 139.84 106.44 127.07" fill="#fdfdfd" opacity="0"/><polygon points="101.3 139.84 80.61 139.84 91.02 165.43 101.3 139.84" fill="#dcdadb" opacity="0.4"/><polygon points="58.47 85.4 48.18 110.99 59.91 139.84 80.61 139.84 58.47 85.4" fill="#22739d"/><polygon points="91.02 165.43 80.61 139.84 59.91 139.84 70.32 165.43 91.02 165.43" fill="#908e8f" opacity="0.5"/><polygon points="116.73 101.48 96.03 101.48 106.44 127.07 116.73 101.48" fill="#908e8f" opacity="0.5"/><polygon points="84.18 21.46 90.72 37.54 121.74 37.54 99.6 -16.9 84.18 21.46" fill="#fff" opacity="0.4"/><polygon points="132.15 63.13 121.74 37.54 90.72 37.54 106.32 75.89 127.01 75.89 132.15 63.13" fill="#fdfdfd" opacity="0"/><polygon points="127.01 75.89 106.32 75.89 116.73 101.48 127.01 75.89" fill="#dcdadb" opacity="0.4"/><polygon points="84.18 21.46 73.89 47.05 85.62 75.89 106.32 75.89 84.18 21.46" fill="#22739d"/><polygon points="116.73 101.48 106.32 75.89 85.62 75.89 96.03 101.48 116.73 101.48" fill="#908e8f" opacity="0.5"/><polygon points="91.02 165.43 70.32 165.43 80.73 191.01 91.02 165.43" fill="#908e8f" opacity="0.5"/><polygon points="58.47 85.4 65.01 101.48 96.03 101.48 73.89 47.05 58.47 85.4" fill="#fff" opacity="0.4"/><polygon points="106.44 127.07 96.03 101.48 65.01 101.48 80.61 139.84 101.3 139.84 106.44 127.07" fill="#fdfdfd" opacity="0"/><polygon points="101.3 139.84 80.61 139.84 91.02 165.43 101.3 139.84" fill="#dcdadb" opacity="0.4"/><polygon points="58.47 85.4 48.18 110.99 59.91 139.84 80.61 139.84 58.47 85.4" fill="#22739d"/><polygon points="91.02 165.43 80.61 139.84 59.91 139.84 70.32 165.43 91.02 165.43" fill="#908e8f" opacity="0.5"/><polygon points="116.73 101.48 96.03 101.48 106.44 127.07 116.73 101.48" fill="#908e8f" opacity="0.5"/><polygon points="84.18 21.46 90.72 37.54 121.74 37.54 99.6 -16.9 84.18 21.46" fill="#fff" opacity="0.4"/><polygon points="132.15 63.13 121.74 37.54 90.72 37.54 106.32 75.89 127.01 75.89 132.15 63.13" fill="#fdfdfd" opacity="0"/><polygon points="127.01 75.89 106.32 75.89 116.73 101.48 127.01 75.89" fill="#dcdadb" opacity="0.4"/><polygon points="84.18 21.46 73.89 47.05 85.62 75.89 106.32 75.89 84.18 21.46" fill="#22739d"/><polygon points="116.73 101.48 106.32 75.89 85.62 75.89 96.03 101.48 116.73 101.48" fill="#908e8f" opacity="0.5"/><polygon points="142.44 37.54 121.74 37.54 132.15 63.13 142.44 37.54" fill="#908e8f" opacity="0.5"/><polygon points="157.86 -0.82 147.45 -26.41 116.43 -26.41 132.03 11.95 152.72 11.95 157.86 -0.82" fill="#fdfdfd" opacity="0"/><polygon points="152.72 11.95 132.03 11.95 142.44 37.54 152.72 11.95" fill="#dcdadb" opacity="0.4"/><polygon points="109.89 -42.49 99.6 -16.9 111.33 11.95 132.03 11.95 109.89 -42.49" fill="#22739d"/><polygon points="142.44 37.54 132.03 11.95 111.33 11.95 121.74 37.54 142.44 37.54" fill="#908e8f" opacity="0.5"/><polygon points="-1.53 395.62 5.01 411.69 36.03 411.69 13.89 357.26 -1.53 395.62" fill="#fff" opacity="0.4"/><polygon points="-1.53 395.62 -11.82 421.2 -0.09 450.05 20.61 450.05 -1.53 395.62" fill="#22739d"/><polygon points="24.18 331.67 30.72 347.75 61.74 347.75 39.6 293.31 24.18 331.67" fill="#fff" opacity="0.4"/><polygon points="72.15 373.34 61.74 347.75 30.72 347.75 46.32 386.11 67.01 386.11 72.15 373.34" fill="#fdfdfd" opacity="0"/><polygon points="67.01 386.11 46.32 386.11 56.72 411.69 67.01 386.11" fill="#dcdadb" opacity="0.4"/><polygon points="24.18 331.67 13.89 357.26 25.62 386.11 46.32 386.11 24.18 331.67" fill="#22739d"/><polygon points="56.72 411.69 46.32 386.11 25.62 386.11 36.03 411.69 56.72 411.69" fill="#908e8f" opacity="0.5"/><polygon points="-1.53 395.62 5.01 411.69 36.03 411.69 13.89 357.26 -1.53 395.62" fill="#fff" opacity="0.4"/><polygon points="-1.53 395.62 -11.82 421.2 -0.09 450.05 20.61 450.05 -1.53 395.62" fill="#22739d"/><polygon points="24.18 331.67 30.72 347.75 61.74 347.75 39.6 293.31 24.18 331.67" fill="#fff" opacity="0.4"/><polygon points="72.15 373.34 61.74 347.75 30.72 347.75 46.32 386.11 67.01 386.11 72.15 373.34" fill="#fdfdfd" opacity="0"/><polygon points="67.01 386.11 46.32 386.11 56.72 411.69 67.01 386.11" fill="#dcdadb" opacity="0.4"/><polygon points="24.18 331.67 13.89 357.26 25.62 386.11 46.32 386.11 24.18 331.67" fill="#22739d"/><polygon points="56.72 411.69 46.32 386.11 25.62 386.11 36.03 411.69 56.72 411.69" fill="#908e8f" opacity="0.5"/><polygon points="82.43 347.75 61.74 347.75 72.15 373.34 82.43 347.75" fill="#908e8f" opacity="0.5"/><polygon points="49.88 267.73 56.42 283.81 87.45 283.81 65.31 229.37 49.88 267.73" fill="#fff" opacity="0.4"/><polygon points="97.86 309.39 87.45 283.81 56.42 283.81 72.03 322.16 92.72 322.16 97.86 309.39" fill="#fdfdfd" opacity="0"/><polygon points="92.72 322.16 72.03 322.16 82.43 347.75 92.72 322.16" fill="#dcdadb" opacity="0.4"/><polygon points="49.88 267.73 39.6 293.31 51.33 322.16 72.03 322.16 49.88 267.73" fill="#22739d"/><polygon points="82.43 347.75 72.03 322.16 51.33 322.16 61.74 347.75 82.43 347.75" fill="#908e8f" opacity="0.5"/><polygon points="108.14 283.81 87.45 283.81 97.86 309.39 108.14 283.81" fill="#908e8f" opacity="0.5"/><polygon points="75.59 203.78 82.14 219.86 113.16 219.86 91.02 165.43 75.59 203.78" fill="#fff" opacity="0.4"/><polygon points="123.56 245.45 113.16 219.86 82.14 219.86 97.74 258.22 118.43 258.22 123.56 245.45" fill="#fdfdfd" opacity="0"/><polygon points="118.43 258.22 97.74 258.22 108.14 283.81 118.43 258.22" fill="#dcdadb" opacity="0.4"/><polygon points="75.59 203.78 65.31 229.37 77.04 258.22 97.74 258.22 75.59 203.78" fill="#22739d"/><polygon points="108.14 283.81 97.74 258.22 77.04 258.22 87.45 283.81 108.14 283.81" fill="#908e8f" opacity="0.5"/><polygon points="133.85 219.86 113.16 219.86 123.56 245.45 133.85 219.86" fill="#908e8f" opacity="0.5"/><polygon points="101.3 139.84 107.84 155.92 138.87 155.92 116.73 101.48 101.3 139.84" fill="#fff" opacity="0.4"/><polygon points="149.28 181.51 138.87 155.92 107.84 155.92 123.44 194.28 144.14 194.28 149.28 181.51" fill="#fdfdfd" opacity="0"/><polygon points="144.14 194.28 123.44 194.28 133.85 219.86 144.14 194.28" fill="#dcdadb" opacity="0.4"/><polygon points="101.3 139.84 91.02 165.43 102.75 194.28 123.44 194.28 101.3 139.84" fill="#22739d"/><polygon points="133.85 219.86 123.44 194.28 102.75 194.28 113.16 219.86 133.85 219.86" fill="#908e8f" opacity="0.5"/><polygon points="159.56 155.92 138.87 155.92 149.28 181.51 159.56 155.92" fill="#908e8f" opacity="0.5"/><polygon points="127.01 75.89 133.55 91.97 164.58 91.97 142.44 37.54 127.01 75.89" fill="#fff" opacity="0.4"/><polygon points="174.98 117.56 164.58 91.97 133.55 91.97 149.16 130.33 169.85 130.33 174.98 117.56" fill="#fdfdfd" opacity="0"/><polygon points="169.85 130.33 149.16 130.33 159.56 155.92 169.85 130.33" fill="#dcdadb" opacity="0.4"/><polygon points="127.01 75.89 116.73 101.48 128.46 130.33 149.16 130.33 127.01 75.89" fill="#22739d"/><polygon points="159.56 155.92 149.16 130.33 128.46 130.33 138.87 155.92 159.56 155.92" fill="#908e8f" opacity="0.5"/><polygon points="185.27 91.97 164.58 91.97 174.98 117.56 185.27 91.97" fill="#908e8f" opacity="0.5"/><polygon points="152.72 11.95 159.26 28.03 190.29 28.03 168.15 -26.41 152.72 11.95" fill="#fff" opacity="0.4"/><polygon points="200.69 53.62 190.29 28.03 159.26 28.03 174.87 66.39 195.56 66.39 200.69 53.62" fill="#fdfdfd" opacity="0"/><polygon points="195.56 66.39 174.87 66.39 185.27 91.97 195.56 66.39" fill="#dcdadb" opacity="0.4"/><polygon points="152.72 11.95 142.44 37.54 154.17 66.39 174.87 66.39 152.72 11.95" fill="#22739d"/><polygon points="185.27 91.97 174.87 66.39 154.17 66.39 164.58 91.97 185.27 91.97" fill="#908e8f" opacity="0.5"/><polygon points="159.56 155.92 138.87 155.92 149.28 181.51 159.56 155.92" fill="#908e8f" opacity="0.5"/><polygon points="127.01 75.89 133.55 91.97 164.58 91.97 142.44 37.54 127.01 75.89" fill="#fff" opacity="0.4"/><polygon points="174.98 117.56 164.58 91.97 133.55 91.97 149.16 130.33 169.85 130.33 174.98 117.56" fill="#fdfdfd" opacity="0"/><polygon points="169.85 130.33 149.16 130.33 159.56 155.92 169.85 130.33" fill="#dcdadb" opacity="0.4"/><polygon points="127.01 75.89 116.73 101.48 128.46 130.33 149.16 130.33 127.01 75.89" fill="#22739d"/><polygon points="159.56 155.92 149.16 130.33 128.46 130.33 138.87 155.92 159.56 155.92" fill="#908e8f" opacity="0.5"/><polygon points="185.27 91.97 164.58 91.97 174.98 117.56 185.27 91.97" fill="#908e8f" opacity="0.5"/><polygon points="152.72 11.95 159.26 28.03 190.29 28.03 168.15 -26.41 152.72 11.95" fill="#fff" opacity="0.4"/><polygon points="200.69 53.62 190.29 28.03 159.26 28.03 174.87 66.39 195.56 66.39 200.69 53.62" fill="#fdfdfd" opacity="0"/><polygon points="195.56 66.39 174.87 66.39 185.27 91.97 195.56 66.39" fill="#dcdadb" opacity="0.4"/><polygon points="152.72 11.95 142.44 37.54 154.17 66.39 174.87 66.39 152.72 11.95" fill="#22739d"/><polygon points="185.27 91.97 174.87 66.39 154.17 66.39 164.58 91.97 185.27 91.97" fill="#908e8f" opacity="0.5"/><polygon points="210.98 28.03 190.29 28.03 200.69 53.62 210.98 28.03" fill="#908e8f" opacity="0.5"/><polygon points="226.4 -10.33 216 -35.91 184.97 -35.91 200.57 2.44 221.27 2.44 226.4 -10.33" fill="#fdfdfd" opacity="0"/><polygon points="221.27 2.44 200.57 2.44 210.98 28.03 221.27 2.44" fill="#dcdadb" opacity="0.4"/><polygon points="178.43 -51.99 168.15 -26.41 179.88 2.44 200.57 2.44 178.43 -51.99" fill="#22739d"/><polygon points="210.98 28.03 200.57 2.44 179.88 2.44 190.29 28.03 210.98 28.03" fill="#908e8f" opacity="0.5"/><polygon points="67.01 386.11 73.55 402.19 104.58 402.19 82.43 347.75 67.01 386.11" fill="#fff" opacity="0.4"/><polygon points="114.98 427.78 104.58 402.19 73.55 402.19 89.15 440.55 109.85 440.55 114.98 427.78" fill="#fdfdfd" opacity="0"/><polygon points="67.01 386.11 56.72 411.7 68.46 440.55 89.15 440.55 67.01 386.11" fill="#22739d"/><polygon points="125.27 402.19 104.58 402.19 114.98 427.78 125.27 402.19" fill="#908e8f" opacity="0.5"/><polygon points="92.72 322.16 99.26 338.24 130.28 338.24 108.14 283.81 92.72 322.16" fill="#fff" opacity="0.4"/><polygon points="140.69 363.83 130.28 338.24 99.26 338.24 114.86 376.6 135.56 376.6 140.69 363.83" fill="#fdfdfd" opacity="0"/><polygon points="135.56 376.6 114.86 376.6 125.27 402.19 135.56 376.6" fill="#dcdadb" opacity="0.4"/><polygon points="92.72 322.16 82.43 347.75 94.17 376.6 114.86 376.6 92.72 322.16" fill="#22739d"/><polygon points="125.27 402.19 114.86 376.6 94.17 376.6 104.58 402.19 125.27 402.19" fill="#908e8f" opacity="0.5"/><polygon points="67.01 386.11 73.55 402.19 104.58 402.19 82.43 347.75 67.01 386.11" fill="#fff" opacity="0.4"/><polygon points="114.98 427.78 104.58 402.19 73.55 402.19 89.15 440.55 109.85 440.55 114.98 427.78" fill="#fdfdfd" opacity="0"/><polygon points="67.01 386.11 56.72 411.7 68.46 440.55 89.15 440.55 67.01 386.11" fill="#22739d"/><polygon points="125.27 402.19 104.58 402.19 114.98 427.78 125.27 402.19" fill="#908e8f" opacity="0.5"/><polygon points="92.72 322.16 99.26 338.24 130.28 338.24 108.14 283.81 92.72 322.16" fill="#fff" opacity="0.4"/><polygon points="140.69 363.83 130.28 338.24 99.26 338.24 114.86 376.6 135.56 376.6 140.69 363.83" fill="#fdfdfd" opacity="0"/><polygon points="135.56 376.6 114.86 376.6 125.27 402.19 135.56 376.6" fill="#dcdadb" opacity="0.4"/><polygon points="92.72 322.16 82.43 347.75 94.17 376.6 114.86 376.6 92.72 322.16" fill="#22739d"/><polygon points="125.27 402.19 114.86 376.6 94.17 376.6 104.58 402.19 125.27 402.19" fill="#908e8f" opacity="0.5"/><polygon points="150.98 338.24 130.28 338.24 140.69 363.83 150.98 338.24" fill="#908e8f" opacity="0.5"/><polygon points="118.43 258.22 124.97 274.3 155.99 274.3 133.85 219.86 118.43 258.22" fill="#fff" opacity="0.4"/><polygon points="166.4 299.89 155.99 274.3 124.97 274.3 140.57 312.66 161.27 312.66 166.4 299.89" fill="#fdfdfd" opacity="0"/><polygon points="161.27 312.66 140.57 312.66 150.98 338.24 161.27 312.66" fill="#dcdadb" opacity="0.4"/><polygon points="118.43 258.22 108.14 283.81 119.88 312.66 140.57 312.66 118.43 258.22" fill="#22739d"/><polygon points="150.98 338.24 140.57 312.66 119.88 312.66 130.28 338.24 150.98 338.24" fill="#908e8f" opacity="0.5"/><polygon points="176.69 274.3 155.99 274.3 166.4 299.89 176.69 274.3" fill="#908e8f" opacity="0.5"/><polygon points="144.14 194.28 150.68 210.35 181.7 210.35 159.56 155.92 144.14 194.28" fill="#fff" opacity="0.4"/><polygon points="192.11 235.94 181.7 210.35 150.68 210.35 166.28 248.71 186.98 248.71 192.11 235.94" fill="#fdfdfd" opacity="0"/><polygon points="186.98 248.71 166.28 248.71 176.69 274.3 186.98 248.71" fill="#dcdadb" opacity="0.4"/><polygon points="144.14 194.28 133.85 219.86 145.59 248.71 166.28 248.71 144.14 194.28" fill="#22739d"/><polygon points="176.69 274.3 166.28 248.71 145.59 248.71 155.99 274.3 176.69 274.3" fill="#908e8f" opacity="0.5"/><polygon points="202.4 210.35 181.7 210.35 192.11 235.94 202.4 210.35" fill="#908e8f" opacity="0.5"/><polygon points="169.85 130.33 176.39 146.41 207.41 146.41 185.27 91.97 169.85 130.33" fill="#fff" opacity="0.4"/><polygon points="217.82 172 207.41 146.41 176.39 146.41 191.99 184.77 212.69 184.77 217.82 172" fill="#fdfdfd" opacity="0"/><polygon points="212.69 184.77 191.99 184.77 202.4 210.35 212.69 184.77" fill="#dcdadb" opacity="0.4"/><polygon points="169.85 130.33 159.56 155.92 171.3 184.77 191.99 184.77 169.85 130.33" fill="#22739d"/><polygon points="202.4 210.35 191.99 184.77 171.3 184.77 181.7 210.35 202.4 210.35" fill="#908e8f" opacity="0.5"/><polygon points="228.11 146.41 207.41 146.41 217.82 172 228.11 146.41" fill="#908e8f" opacity="0.5"/><polygon points="195.56 66.39 202.1 82.47 233.12 82.47 210.98 28.03 195.56 66.39" fill="#fff" opacity="0.4"/><polygon points="243.53 108.06 233.12 82.47 202.1 82.47 217.7 120.82 238.4 120.82 243.53 108.06" fill="#fdfdfd" opacity="0"/><polygon points="238.4 120.82 217.7 120.82 228.11 146.41 238.4 120.82" fill="#dcdadb" opacity="0.4"/><polygon points="195.56 66.39 185.27 91.97 197.01 120.82 217.7 120.82 195.56 66.39" fill="#22739d"/><polygon points="228.11 146.41 217.7 120.82 197.01 120.82 207.41 146.41 228.11 146.41" fill="#908e8f" opacity="0.5"/><polygon points="253.82 82.47 233.12 82.47 243.53 108.06 253.82 82.47" fill="#908e8f" opacity="0.5"/><polygon points="221.27 2.44 227.81 18.52 258.83 18.52 236.69 -35.91 221.27 2.44" fill="#fff" opacity="0.4"/><polygon points="269.24 44.11 258.83 18.52 227.81 18.52 243.41 56.88 264.11 56.88 269.24 44.11" fill="#fdfdfd" opacity="0"/><polygon points="264.11 56.88 243.41 56.88 253.82 82.47 264.11 56.88" fill="#dcdadb" opacity="0.4"/><polygon points="221.27 2.44 210.98 28.03 222.72 56.88 243.41 56.88 221.27 2.44" fill="#22739d"/><polygon points="253.82 82.47 243.41 56.88 222.72 56.88 233.12 82.47 253.82 82.47" fill="#908e8f" opacity="0.5"/><polygon points="228.11 146.41 207.41 146.41 217.82 172 228.11 146.41" fill="#908e8f" opacity="0.5"/><polygon points="195.56 66.39 202.1 82.47 233.12 82.47 210.98 28.03 195.56 66.39" fill="#fff" opacity="0.4"/><polygon points="243.53 108.06 233.12 82.47 202.1 82.47 217.7 120.82 238.4 120.82 243.53 108.06" fill="#fdfdfd" opacity="0"/><polygon points="238.4 120.82 217.7 120.82 228.11 146.41 238.4 120.82" fill="#dcdadb" opacity="0.4"/><polygon points="195.56 66.39 185.27 91.97 197.01 120.82 217.7 120.82 195.56 66.39" fill="#22739d"/><polygon points="228.11 146.41 217.7 120.82 197.01 120.82 207.41 146.41 228.11 146.41" fill="#908e8f" opacity="0.5"/><polygon points="253.82 82.47 233.12 82.47 243.53 108.06 253.82 82.47" fill="#908e8f" opacity="0.5"/><polygon points="221.27 2.44 227.81 18.52 258.83 18.52 236.69 -35.91 221.27 2.44" fill="#fff" opacity="0.4"/><polygon points="269.24 44.11 258.83 18.52 227.81 18.52 243.41 56.88 264.11 56.88 269.24 44.11" fill="#fdfdfd" opacity="0"/><polygon points="264.11 56.88 243.41 56.88 253.82 82.47 264.11 56.88" fill="#dcdadb" opacity="0.4"/><polygon points="221.27 2.44 210.98 28.03 222.72 56.88 243.41 56.88 221.27 2.44" fill="#22739d"/><polygon points="253.82 82.47 243.41 56.88 222.72 56.88 233.12 82.47 253.82 82.47" fill="#908e8f" opacity="0.5"/><polygon points="279.53 18.52 258.83 18.52 269.24 44.11 279.53 18.52" fill="#908e8f" opacity="0.5"/><polygon points="289.81 -7.07 269.12 -7.07 279.53 18.52 289.81 -7.07" fill="#dcdadb" opacity="0.4"/><polygon points="279.53 18.52 269.12 -7.07 248.43 -7.07 258.83 18.52 279.53 18.52" fill="#908e8f" opacity="0.5"/><polygon points="135.56 376.6 142.1 392.68 173.12 392.68 150.98 338.24 135.56 376.6" fill="#fff" opacity="0.4"/><polygon points="183.53 418.27 173.12 392.68 142.1 392.68 157.7 431.04 178.4 431.04 183.53 418.27" fill="#fdfdfd" opacity="0"/><polygon points="135.56 376.6 125.27 402.19 137 431.04 157.7 431.04 135.56 376.6" fill="#22739d"/><polygon points="193.82 392.68 173.12 392.68 183.53 418.27 193.82 392.68" fill="#908e8f" opacity="0.5"/><polygon points="161.27 312.66 167.81 328.74 198.83 328.74 176.69 274.3 161.27 312.66" fill="#fff" opacity="0.4"/><polygon points="209.24 354.32 198.83 328.74 167.81 328.74 183.41 367.09 204.1 367.09 209.24 354.32" fill="#fdfdfd" opacity="0"/><polygon points="204.1 367.09 183.41 367.09 193.82 392.68 204.1 367.09" fill="#dcdadb" opacity="0.4"/><polygon points="161.27 312.66 150.98 338.24 162.71 367.09 183.41 367.09 161.27 312.66" fill="#22739d"/><polygon points="193.82 392.68 183.41 367.09 162.71 367.09 173.12 392.68 193.82 392.68" fill="#908e8f" opacity="0.5"/><polygon points="135.56 376.6 142.1 392.68 173.12 392.68 150.98 338.24 135.56 376.6" fill="#fff" opacity="0.4"/><polygon points="183.53 418.27 173.12 392.68 142.1 392.68 157.7 431.04 178.4 431.04 183.53 418.27" fill="#fdfdfd" opacity="0"/><polygon points="135.56 376.6 125.27 402.19 137 431.04 157.7 431.04 135.56 376.6" fill="#22739d"/><polygon points="193.82 392.68 173.12 392.68 183.53 418.27 193.82 392.68" fill="#908e8f" opacity="0.5"/><polygon points="161.27 312.66 167.81 328.74 198.83 328.74 176.69 274.3 161.27 312.66" fill="#fff" opacity="0.4"/><polygon points="209.24 354.32 198.83 328.74 167.81 328.74 183.41 367.09 204.1 367.09 209.24 354.32" fill="#fdfdfd" opacity="0"/><polygon points="204.1 367.09 183.41 367.09 193.82 392.68 204.1 367.09" fill="#dcdadb" opacity="0.4"/><polygon points="161.27 312.66 150.98 338.24 162.71 367.09 183.41 367.09 161.27 312.66" fill="#22739d"/><polygon points="193.82 392.68 183.41 367.09 162.71 367.09 173.12 392.68 193.82 392.68" fill="#908e8f" opacity="0.5"/><polygon points="219.53 328.74 198.83 328.74 209.24 354.32 219.53 328.74" fill="#908e8f" opacity="0.5"/><polygon points="186.98 248.71 193.52 264.79 224.54 264.79 202.4 210.35 186.98 248.71" fill="#fff" opacity="0.4"/><polygon points="234.95 290.38 224.54 264.79 193.52 264.79 209.12 303.15 229.81 303.15 234.95 290.38" fill="#fdfdfd" opacity="0"/><polygon points="229.81 303.15 209.12 303.15 219.53 328.74 229.81 303.15" fill="#dcdadb" opacity="0.4"/><polygon points="186.98 248.71 176.69 274.3 188.42 303.15 209.12 303.15 186.98 248.71" fill="#22739d"/><polygon points="219.53 328.74 209.12 303.15 188.42 303.15 198.83 328.74 219.53 328.74" fill="#908e8f" opacity="0.5"/><polygon points="245.24 264.79 224.54 264.79 234.95 290.38 245.24 264.79" fill="#908e8f" opacity="0.5"/><polygon points="212.69 184.77 219.23 200.85 250.25 200.85 228.11 146.41 212.69 184.77" fill="#fff" opacity="0.4"/><polygon points="260.66 226.44 250.25 200.85 219.23 200.85 234.83 239.21 255.52 239.21 260.66 226.44" fill="#fdfdfd" opacity="0"/><polygon points="255.52 239.21 234.83 239.21 245.24 264.79 255.52 239.21" fill="#dcdadb" opacity="0.4"/><polygon points="212.69 184.77 202.4 210.36 214.13 239.21 234.83 239.21 212.69 184.77" fill="#22739d"/><polygon points="245.24 264.79 234.83 239.21 214.13 239.21 224.54 264.79 245.24 264.79" fill="#908e8f" opacity="0.5"/><polygon points="270.94 200.85 250.25 200.85 260.66 226.44 270.94 200.85" fill="#908e8f" opacity="0.5"/><polygon points="238.4 120.82 244.94 136.9 275.96 136.9 253.82 82.47 238.4 120.82" fill="#fff" opacity="0.4"/><polygon points="286.37 162.49 275.96 136.9 244.94 136.9 260.54 175.26 281.23 175.26 286.37 162.49" fill="#fdfdfd" opacity="0"/><polygon points="281.23 175.26 260.54 175.26 270.94 200.85 281.23 175.26" fill="#dcdadb" opacity="0.4"/><polygon points="238.4 120.82 228.11 146.41 239.84 175.26 260.54 175.26 238.4 120.82" fill="#22739d"/><polygon points="270.94 200.85 260.54 175.26 239.84 175.26 250.25 200.85 270.94 200.85" fill="#908e8f" opacity="0.5"/><polygon points="296.65 136.9 275.96 136.9 286.37 162.49 296.65 136.9" fill="#908e8f" opacity="0.5"/><polygon points="264.11 56.88 270.65 72.96 301.67 72.96 279.53 18.52 264.11 56.88" fill="#fff" opacity="0.4"/><polygon points="312.08 98.55 301.67 72.96 270.65 72.96 286.25 111.32 306.94 111.32 312.08 98.55" fill="#fdfdfd" opacity="0"/><polygon points="306.94 111.32 286.25 111.32 296.65 136.9 306.94 111.32" fill="#dcdadb" opacity="0.4"/><polygon points="264.11 56.88 253.82 82.47 265.55 111.32 286.25 111.32 264.11 56.88" fill="#22739d"/><polygon points="296.65 136.9 286.25 111.32 265.55 111.32 275.96 136.9 296.65 136.9" fill="#908e8f" opacity="0.5"/><polygon points="322.36 72.96 301.67 72.96 312.08 98.55 322.36 72.96" fill="#908e8f" opacity="0.5"/><polygon points="289.81 -7.07 296.36 9.02 327.38 9.02 305.24 -45.42 289.81 -7.07" fill="#fff" opacity="0.4"/><polygon points="337.79 34.6 327.38 9.02 296.36 9.02 311.96 47.37 332.65 47.37 337.79 34.6" fill="#fdfdfd" opacity="0"/><polygon points="332.65 47.37 311.96 47.37 322.36 72.96 332.65 47.37" fill="#dcdadb" opacity="0.4"/><polygon points="289.81 -7.07 279.53 18.52 291.26 47.37 311.96 47.37 289.81 -7.07" fill="#22739d"/><polygon points="322.36 72.96 311.96 47.37 291.26 47.37 301.67 72.96 322.36 72.96" fill="#908e8f" opacity="0.5"/><polygon points="296.65 136.9 275.96 136.9 286.37 162.49 296.65 136.9" fill="#908e8f" opacity="0.5"/><polygon points="264.11 56.88 270.65 72.96 301.67 72.96 279.53 18.52 264.11 56.88" fill="#fff" opacity="0.4"/><polygon points="312.08 98.55 301.67 72.96 270.65 72.96 286.25 111.32 306.94 111.32 312.08 98.55" fill="#fdfdfd" opacity="0"/><polygon points="306.94 111.32 286.25 111.32 296.65 136.9 306.94 111.32" fill="#dcdadb" opacity="0.4"/><polygon points="264.11 56.88 253.82 82.47 265.55 111.32 286.25 111.32 264.11 56.88" fill="#22739d"/><polygon points="296.65 136.9 286.25 111.32 265.55 111.32 275.96 136.9 296.65 136.9" fill="#908e8f" opacity="0.5"/><polygon points="322.36 72.96 301.67 72.96 312.08 98.55 322.36 72.96" fill="#908e8f" opacity="0.5"/><polygon points="289.81 -7.07 296.36 9.02 327.38 9.02 305.24 -45.42 289.81 -7.07" fill="#fff" opacity="0.4"/><polygon points="337.79 34.6 327.38 9.02 296.36 9.02 311.96 47.37 332.65 47.37 337.79 34.6" fill="#fdfdfd" opacity="0"/><polygon points="332.65 47.37 311.96 47.37 322.36 72.96 332.65 47.37" fill="#dcdadb" opacity="0.4"/><polygon points="289.81 -7.07 279.53 18.52 291.26 47.37 311.96 47.37 289.81 -7.07" fill="#22739d"/><polygon points="322.36 72.96 311.96 47.37 291.26 47.37 301.67 72.96 322.36 72.96" fill="#908e8f" opacity="0.5"/><polygon points="348.07 9.02 327.38 9.02 337.79 34.6 348.07 9.02" fill="#908e8f" opacity="0.5"/><polygon points="358.36 -16.57 337.67 -16.57 348.07 9.02 358.36 -16.57" fill="#dcdadb" opacity="0.4"/><polygon points="348.07 9.02 337.67 -16.57 316.97 -16.57 327.38 9.02 348.07 9.02" fill="#908e8f" opacity="0.5"/><polygon points="204.1 367.09 210.64 383.17 241.67 383.17 219.53 328.74 204.1 367.09" fill="#fff" opacity="0.4"/><polygon points="252.07 408.76 241.67 383.17 210.64 383.17 226.25 421.53 246.94 421.53 252.07 408.76" fill="#fdfdfd" opacity="0"/><polygon points="204.1 367.09 193.82 392.68 205.55 421.53 226.25 421.53 204.1 367.09" fill="#22739d"/><polygon points="262.36 383.17 241.67 383.17 252.07 408.76 262.36 383.17" fill="#908e8f" opacity="0.5"/><polygon points="229.81 303.15 236.35 319.23 267.38 319.23 245.24 264.79 229.81 303.15" fill="#fff" opacity="0.4"/><polygon points="277.78 344.82 267.38 319.23 236.35 319.23 251.96 357.58 272.65 357.58 277.78 344.82" fill="#fdfdfd" opacity="0"/><polygon points="272.65 357.58 251.96 357.58 262.36 383.17 272.65 357.58" fill="#dcdadb" opacity="0.4"/><polygon points="229.81 303.15 219.53 328.74 231.26 357.58 251.96 357.58 229.81 303.15" fill="#22739d"/><polygon points="262.36 383.17 251.96 357.58 231.26 357.58 241.67 383.17 262.36 383.17" fill="#908e8f" opacity="0.5"/><polygon points="204.1 367.09 210.64 383.17 241.67 383.17 219.53 328.74 204.1 367.09" fill="#fff" opacity="0.4"/><polygon points="252.07 408.76 241.67 383.17 210.64 383.17 226.25 421.53 246.94 421.53 252.07 408.76" fill="#fdfdfd" opacity="0"/><polygon points="204.1 367.09 193.82 392.68 205.55 421.53 226.25 421.53 204.1 367.09" fill="#22739d"/><polygon points="262.36 383.17 241.67 383.17 252.07 408.76 262.36 383.17" fill="#908e8f" opacity="0.5"/><polygon points="229.81 303.15 236.35 319.23 267.38 319.23 245.24 264.79 229.81 303.15" fill="#fff" opacity="0.4"/><polygon points="277.78 344.82 267.38 319.23 236.35 319.23 251.96 357.58 272.65 357.58 277.78 344.82" fill="#fdfdfd" opacity="0"/><polygon points="272.65 357.58 251.96 357.58 262.36 383.17 272.65 357.58" fill="#dcdadb" opacity="0.4"/><polygon points="229.81 303.15 219.53 328.74 231.26 357.58 251.96 357.58 229.81 303.15" fill="#22739d"/><polygon points="262.36 383.17 251.96 357.58 231.26 357.58 241.67 383.17 262.36 383.17" fill="#908e8f" opacity="0.5"/><polygon points="288.07 319.23 267.38 319.23 277.78 344.82 288.07 319.23" fill="#908e8f" opacity="0.5"/><polygon points="255.52 239.21 262.06 255.28 293.09 255.28 270.94 200.85 255.52 239.21" fill="#fff" opacity="0.4"/><polygon points="303.49 280.87 293.09 255.28 262.06 255.28 277.66 293.64 298.36 293.64 303.49 280.87" fill="#fdfdfd" opacity="0"/><polygon points="298.36 293.64 277.66 293.64 288.07 319.23 298.36 293.64" fill="#dcdadb" opacity="0.4"/><polygon points="255.52 239.2 245.24 264.79 256.97 293.64 277.66 293.64 255.52 239.2" fill="#22739d"/><polygon points="288.07 319.23 277.66 293.64 256.97 293.64 267.38 319.23 288.07 319.23" fill="#908e8f" opacity="0.5"/><polygon points="313.78 255.28 293.09 255.28 303.49 280.87 313.78 255.28" fill="#908e8f" opacity="0.5"/><polygon points="281.23 175.26 287.77 191.34 318.8 191.34 296.65 136.9 281.23 175.26" fill="#fff" opacity="0.4"/><polygon points="329.2 216.93 318.8 191.34 287.77 191.34 303.37 229.7 324.07 229.7 329.2 216.93" fill="#fdfdfd" opacity="0"/><polygon points="324.07 229.7 303.37 229.7 313.78 255.28 324.07 229.7" fill="#dcdadb" opacity="0.4"/><polygon points="281.23 175.26 270.94 200.85 282.68 229.7 303.37 229.7 281.23 175.26" fill="#22739d"/><polygon points="313.78 255.28 303.37 229.7 282.68 229.7 293.09 255.28 313.78 255.28" fill="#908e8f" opacity="0.5"/><polygon points="339.49 191.34 318.8 191.34 329.2 216.93 339.49 191.34" fill="#908e8f" opacity="0.5"/><polygon points="306.94 111.32 313.48 127.4 344.5 127.4 322.36 72.96 306.94 111.32" fill="#fff" opacity="0.4"/><polygon points="354.91 152.98 344.5 127.4 313.48 127.4 329.08 165.75 349.78 165.75 354.91 152.98" fill="#fdfdfd" opacity="0"/><polygon points="349.78 165.75 329.08 165.75 339.49 191.34 349.78 165.75" fill="#dcdadb" opacity="0.4"/><polygon points="306.94 111.32 296.65 136.9 308.39 165.75 329.08 165.75 306.94 111.32" fill="#22739d"/><polygon points="339.49 191.34 329.08 165.75 308.39 165.75 318.8 191.34 339.49 191.34" fill="#908e8f" opacity="0.5"/><polygon points="365.2 127.4 344.5 127.4 354.91 152.98 365.2 127.4" fill="#908e8f" opacity="0.5"/><polygon points="332.65 47.37 339.19 63.45 370.21 63.45 348.07 9.02 332.65 47.37" fill="#fff" opacity="0.4"/><polygon points="380.62 89.04 370.21 63.45 339.19 63.45 354.79 101.81 375.49 101.81 380.62 89.04" fill="#fdfdfd" opacity="0"/><polygon points="375.49 101.81 354.79 101.81 365.2 127.4 375.49 101.81" fill="#dcdadb" opacity="0.4"/><polygon points="332.65 47.37 322.36 72.96 334.1 101.81 354.79 101.81 332.65 47.37" fill="#22739d"/><polygon points="365.2 127.4 354.79 101.81 334.1 101.81 344.5 127.4 365.2 127.4" fill="#908e8f" opacity="0.5"/><polygon points="390.91 63.45 370.21 63.45 380.62 89.04 390.91 63.45" fill="#908e8f" opacity="0.5"/><polygon points="406.33 25.09 395.92 -0.49 364.9 -0.49 380.5 37.86 401.2 37.86 406.33 25.09" fill="#fdfdfd" opacity="0"/><polygon points="401.2 37.86 380.5 37.86 390.91 63.45 401.2 37.86" fill="#dcdadb" opacity="0.4"/><polygon points="358.36 -16.57 348.07 9.02 359.81 37.86 380.5 37.86 358.36 -16.57" fill="#22739d"/><polygon points="390.91 63.45 380.5 37.86 359.81 37.86 370.21 63.45 390.91 63.45" fill="#908e8f" opacity="0.5"/><polygon points="365.2 127.4 344.5 127.4 354.91 152.98 365.2 127.4" fill="#908e8f" opacity="0.5"/><polygon points="332.65 47.37 339.19 63.45 370.21 63.45 348.07 9.02 332.65 47.37" fill="#fff" opacity="0.4"/><polygon points="380.62 89.04 370.21 63.45 339.19 63.45 354.79 101.81 375.49 101.81 380.62 89.04" fill="#fdfdfd" opacity="0"/><polygon points="375.49 101.81 354.79 101.81 365.2 127.4 375.49 101.81" fill="#dcdadb" opacity="0.4"/><polygon points="332.65 47.37 322.36 72.96 334.1 101.81 354.79 101.81 332.65 47.37" fill="#22739d"/><polygon points="365.2 127.4 354.79 101.81 334.1 101.81 344.5 127.4 365.2 127.4" fill="#908e8f" opacity="0.5"/><polygon points="390.91 63.45 370.21 63.45 380.62 89.04 390.91 63.45" fill="#908e8f" opacity="0.5"/><polygon points="406.33 25.09 395.92 -0.49 364.9 -0.49 380.5 37.86 401.2 37.86 406.33 25.09" fill="#fdfdfd" opacity="0"/><polygon points="401.2 37.86 380.5 37.86 390.91 63.45 401.2 37.86" fill="#dcdadb" opacity="0.4"/><polygon points="358.36 -16.57 348.07 9.02 359.81 37.86 380.5 37.86 358.36 -16.57" fill="#22739d"/><polygon points="390.91 63.45 380.5 37.86 359.81 37.86 370.21 63.45 390.91 63.45" fill="#908e8f" opacity="0.5"/><polygon points="416.62 -0.49 395.92 -0.49 406.33 25.09 416.62 -0.49" fill="#908e8f" opacity="0.5"/><polygon points="272.65 357.58 279.19 373.67 310.21 373.67 288.07 319.23 272.65 357.58" fill="#fff" opacity="0.4"/><polygon points="320.62 399.25 310.21 373.67 279.19 373.67 294.79 412.02 315.49 412.02 320.62 399.25" fill="#fdfdfd" opacity="0"/><polygon points="272.65 357.58 262.36 383.17 274.1 412.02 294.79 412.02 272.65 357.58" fill="#22739d"/><polygon points="330.91 373.67 310.21 373.67 320.62 399.25 330.91 373.67" fill="#908e8f" opacity="0.5"/><polygon points="298.36 293.64 304.9 309.72 335.92 309.72 313.78 255.28 298.36 293.64" fill="#fff" opacity="0.4"/><polygon points="346.33 335.31 335.92 309.72 304.9 309.72 320.5 348.08 341.2 348.08 346.33 335.31" fill="#fdfdfd" opacity="0"/><polygon points="341.2 348.08 320.5 348.08 330.91 373.67 341.2 348.08" fill="#dcdadb" opacity="0.4"/><polygon points="298.36 293.64 288.07 319.23 299.81 348.08 320.5 348.08 298.36 293.64" fill="#22739d"/><polygon points="330.91 373.67 320.5 348.08 299.81 348.08 310.21 373.67 330.91 373.67" fill="#908e8f" opacity="0.5"/><polygon points="272.65 357.58 279.19 373.67 310.21 373.67 288.07 319.23 272.65 357.58" fill="#fff" opacity="0.4"/><polygon points="320.62 399.25 310.21 373.67 279.19 373.67 294.79 412.02 315.49 412.02 320.62 399.25" fill="#fdfdfd" opacity="0"/><polygon points="272.65 357.58 262.36 383.17 274.1 412.02 294.79 412.02 272.65 357.58" fill="#22739d"/><polygon points="330.91 373.67 310.21 373.67 320.62 399.25 330.91 373.67" fill="#908e8f" opacity="0.5"/><polygon points="298.36 293.64 304.9 309.72 335.92 309.72 313.78 255.28 298.36 293.64" fill="#fff" opacity="0.4"/><polygon points="346.33 335.31 335.92 309.72 304.9 309.72 320.5 348.08 341.2 348.08 346.33 335.31" fill="#fdfdfd" opacity="0"/><polygon points="341.2 348.08 320.5 348.08 330.91 373.67 341.2 348.08" fill="#dcdadb" opacity="0.4"/><polygon points="298.36 293.64 288.07 319.23 299.81 348.08 320.5 348.08 298.36 293.64" fill="#22739d"/><polygon points="330.91 373.67 320.5 348.08 299.81 348.08 310.21 373.67 330.91 373.67" fill="#908e8f" opacity="0.5"/><polygon points="356.62 309.72 335.92 309.72 346.33 335.31 356.62 309.72" fill="#908e8f" opacity="0.5"/><polygon points="324.07 229.7 330.61 245.78 361.63 245.78 339.49 191.34 324.07 229.7" fill="#fff" opacity="0.4"/><polygon points="372.04 271.37 361.63 245.78 330.61 245.78 346.21 284.13 366.91 284.13 372.04 271.37" fill="#fdfdfd" opacity="0"/><polygon points="366.91 284.13 346.21 284.13 356.62 309.72 366.91 284.13" fill="#dcdadb" opacity="0.4"/><polygon points="324.07 229.7 313.78 255.28 325.51 284.13 346.21 284.13 324.07 229.7" fill="#22739d"/><polygon points="356.62 309.72 346.21 284.13 325.51 284.13 335.92 309.72 356.62 309.72" fill="#908e8f" opacity="0.5"/><polygon points="382.33 245.78 361.63 245.78 372.04 271.37 382.33 245.78" fill="#908e8f" opacity="0.5"/><polygon points="349.78 165.75 356.32 181.83 387.34 181.83 365.2 127.4 349.78 165.75" fill="#fff" opacity="0.4"/><polygon points="397.75 207.42 387.34 181.83 356.32 181.83 371.92 220.19 392.62 220.19 397.75 207.42" fill="#fdfdfd" opacity="0"/><polygon points="392.62 220.19 371.92 220.19 382.33 245.78 392.62 220.19" fill="#dcdadb" opacity="0.4"/><polygon points="349.78 165.75 339.49 191.34 351.23 220.19 371.92 220.19 349.78 165.75" fill="#22739d"/><polygon points="382.33 245.78 371.92 220.19 351.23 220.19 361.63 245.78 382.33 245.78" fill="#908e8f" opacity="0.5"/><polygon points="408.04 181.83 387.34 181.83 397.75 207.42 408.04 181.83" fill="#908e8f" opacity="0.5"/><polygon points="375.49 101.81 382.03 117.89 413.05 117.89 390.91 63.45 375.49 101.81" fill="#fff" opacity="0.4"/><polygon points="423.46 143.48 413.05 117.89 382.03 117.89 397.63 156.25 418.32 156.25 423.46 143.48" fill="#fdfdfd" opacity="0"/><polygon points="418.32 156.25 397.63 156.25 408.04 181.83 418.32 156.25" fill="#dcdadb" opacity="0.4"/><polygon points="375.49 101.81 365.2 127.4 376.93 156.25 397.63 156.25 375.49 101.81" fill="#22739d"/><polygon points="408.04 181.83 397.63 156.25 376.93 156.25 387.34 181.83 408.04 181.83" fill="#908e8f" opacity="0.5"/><polygon points="433.75 117.89 413.05 117.89 423.46 143.48 433.75 117.89" fill="#908e8f" opacity="0.5"/><polygon points="401.2 37.86 407.74 53.94 438.76 53.94 416.62 -0.49 401.2 37.86" fill="#fff" opacity="0.4"/><polygon points="449.17 79.53 438.76 53.94 407.74 53.94 423.34 92.3 444.03 92.3 449.17 79.53" fill="#fdfdfd" opacity="0"/><polygon points="444.03 92.3 423.34 92.3 433.75 117.89 444.03 92.3" fill="#dcdadb" opacity="0.4"/><polygon points="401.2 37.86 390.91 63.45 402.64 92.3 423.34 92.3 401.2 37.86" fill="#22739d"/><polygon points="433.75 117.89 423.34 92.3 402.64 92.3 413.05 117.89 433.75 117.89" fill="#908e8f" opacity="0.5"/><polygon points="459.46 53.94 438.76 53.94 449.17 79.53 459.46 53.94" fill="#908e8f" opacity="0.5"/><polygon points="469.74 28.36 449.05 28.36 459.46 53.94 469.74 28.36" fill="#dcdadb" opacity="0.4"/><polygon points="426.91 -26.08 416.62 -0.49 428.35 28.36 449.05 28.36 426.91 -26.08" fill="#22739d"/><polygon points="459.46 53.94 449.05 28.36 428.35 28.36 438.76 53.94 459.46 53.94" fill="#908e8f" opacity="0.5"/><polygon points="433.75 117.89 413.05 117.89 423.46 143.48 433.75 117.89" fill="#908e8f" opacity="0.5"/><polygon points="401.2 37.86 407.74 53.94 438.76 53.94 416.62 -0.49 401.2 37.86" fill="#fff" opacity="0.4"/><polygon points="449.17 79.53 438.76 53.94 407.74 53.94 423.34 92.3 444.03 92.3 449.17 79.53" fill="#fdfdfd" opacity="0"/><polygon points="444.03 92.3 423.34 92.3 433.75 117.89 444.03 92.3" fill="#dcdadb" opacity="0.4"/><polygon points="401.2 37.86 390.91 63.45 402.64 92.3 423.34 92.3 401.2 37.86" fill="#22739d"/><polygon points="433.75 117.89 423.34 92.3 402.64 92.3 413.05 117.89 433.75 117.89" fill="#908e8f" opacity="0.5"/><polygon points="459.46 53.94 438.76 53.94 449.17 79.53 459.46 53.94" fill="#908e8f" opacity="0.5"/><polygon points="469.74 28.36 449.05 28.36 459.46 53.94 469.74 28.36" fill="#dcdadb" opacity="0.4"/><polygon points="426.91 -26.08 416.62 -0.49 428.35 28.36 449.05 28.36 426.91 -26.08" fill="#22739d"/><polygon points="459.46 53.94 449.05 28.36 428.35 28.36 438.76 53.94 459.46 53.94" fill="#908e8f" opacity="0.5"/><polygon points="341.2 348.08 347.74 364.16 378.76 364.16 356.62 309.72 341.2 348.08" fill="#fff" opacity="0.4"/><polygon points="389.17 389.75 378.76 364.16 347.74 364.16 363.34 402.51 384.03 402.51 389.17 389.75" fill="#fdfdfd" opacity="0"/><polygon points="384.03 402.51 363.34 402.51 373.75 428.1 384.03 402.51" fill="#dcdadb" opacity="0.4"/><polygon points="341.2 348.08 330.91 373.67 342.64 402.51 363.34 402.51 341.2 348.08" fill="#22739d"/><polygon points="373.75 428.1 363.34 402.51 342.64 402.51 353.05 428.1 373.75 428.1" fill="#908e8f" opacity="0.5"/><polygon points="399.45 364.16 378.76 364.16 389.17 389.75 399.45 364.16" fill="#908e8f" opacity="0.5"/><polygon points="366.91 284.13 373.45 300.21 404.47 300.21 382.33 245.78 366.91 284.13" fill="#fff" opacity="0.4"/><polygon points="414.88 325.8 404.47 300.21 373.45 300.21 389.05 338.57 409.74 338.57 414.88 325.8" fill="#fdfdfd" opacity="0"/><polygon points="409.74 338.57 389.05 338.57 399.45 364.16 409.74 338.57" fill="#dcdadb" opacity="0.4"/><polygon points="366.9 284.13 356.62 309.72 368.35 338.57 389.05 338.57 366.9 284.13" fill="#22739d"/><polygon points="399.45 364.16 389.05 338.57 368.35 338.57 378.76 364.16 399.45 364.16" fill="#908e8f" opacity="0.5"/><polygon points="341.2 348.08 347.74 364.16 378.76 364.16 356.62 309.72 341.2 348.08" fill="#fff" opacity="0.4"/><polygon points="389.17 389.75 378.76 364.16 347.74 364.16 363.34 402.51 384.03 402.51 389.17 389.75" fill="#fdfdfd" opacity="0"/><polygon points="384.03 402.51 363.34 402.51 373.75 428.1 384.03 402.51" fill="#dcdadb" opacity="0.4"/><polygon points="341.2 348.08 330.91 373.67 342.64 402.51 363.34 402.51 341.2 348.08" fill="#22739d"/><polygon points="373.75 428.1 363.34 402.51 342.64 402.51 353.05 428.1 373.75 428.1" fill="#908e8f" opacity="0.5"/><polygon points="399.45 364.16 378.76 364.16 389.17 389.75 399.45 364.16" fill="#908e8f" opacity="0.5"/><polygon points="366.91 284.13 373.45 300.21 404.47 300.21 382.33 245.78 366.91 284.13" fill="#fff" opacity="0.4"/><polygon points="414.88 325.8 404.47 300.21 373.45 300.21 389.05 338.57 409.74 338.57 414.88 325.8" fill="#fdfdfd" opacity="0"/><polygon points="409.74 338.57 389.05 338.57 399.45 364.16 409.74 338.57" fill="#dcdadb" opacity="0.4"/><polygon points="366.9 284.13 356.62 309.72 368.35 338.57 389.05 338.57 366.9 284.13" fill="#22739d"/><polygon points="399.45 364.16 389.05 338.57 368.35 338.57 378.76 364.16 399.45 364.16" fill="#908e8f" opacity="0.5"/><polygon points="425.16 300.21 404.47 300.21 414.88 325.8 425.16 300.21" fill="#908e8f" opacity="0.5"/><polygon points="392.62 220.19 399.15 236.27 430.18 236.27 408.04 181.83 392.62 220.19" fill="#fff" opacity="0.4"/><polygon points="440.58 261.86 430.18 236.27 399.15 236.27 414.76 274.63 435.45 274.63 440.58 261.86" fill="#fdfdfd" opacity="0"/><polygon points="435.45 274.63 414.76 274.63 425.16 300.21 435.45 274.63" fill="#dcdadb" opacity="0.4"/><polygon points="392.62 220.19 382.33 245.78 394.06 274.63 414.76 274.63 392.62 220.19" fill="#22739d"/><polygon points="425.16 300.21 414.76 274.63 394.06 274.63 404.47 300.21 425.16 300.21" fill="#908e8f" opacity="0.5"/><polygon points="450.87 236.27 430.18 236.27 440.58 261.86 450.87 236.27" fill="#908e8f" opacity="0.5"/><polygon points="418.32 156.25 424.87 172.32 455.89 172.32 433.75 117.89 418.32 156.25" fill="#fff" opacity="0.4"/><polygon points="466.3 197.91 455.89 172.32 424.87 172.32 440.47 210.68 461.16 210.68 466.3 197.91" fill="#fdfdfd" opacity="0"/><polygon points="461.16 210.68 440.47 210.68 450.87 236.27 461.16 210.68" fill="#dcdadb" opacity="0.4"/><polygon points="418.32 156.25 408.04 181.83 419.77 210.68 440.47 210.68 418.32 156.25" fill="#22739d"/><polygon points="450.87 236.27 440.47 210.68 419.77 210.68 430.18 236.27 450.87 236.27" fill="#908e8f" opacity="0.5"/><polygon points="476.58 172.32 455.89 172.32 466.3 197.91 476.58 172.32" fill="#908e8f" opacity="0.5"/><polygon points="444.03 92.3 450.57 108.38 481.6 108.38 459.46 53.95 444.03 92.3" fill="#fff" opacity="0.4"/><polygon points="492 133.97 481.6 108.38 450.57 108.38 466.18 146.74 486.87 146.74 492 133.97" fill="#fdfdfd" opacity="0"/><polygon points="486.87 146.74 466.18 146.74 476.58 172.32 486.87 146.74" fill="#dcdadb" opacity="0.4"/><polygon points="444.03 92.3 433.75 117.89 445.48 146.74 466.18 146.74 444.03 92.3" fill="#22739d"/><polygon points="476.58 172.32 466.18 146.74 445.48 146.74 455.89 172.32 476.58 172.32" fill="#908e8f" opacity="0.5"/><polygon points="502.29 108.38 481.6 108.38 492 133.97 502.29 108.38" fill="#908e8f" opacity="0.5"/><polygon points="512.58 82.79 491.88 82.79 502.29 108.38 512.58 82.79" fill="#dcdadb" opacity="0.4"/><polygon points="469.74 28.36 459.46 53.95 471.19 82.79 491.88 82.79 469.74 28.36" fill="#22739d"/><polygon points="502.29 108.38 491.88 82.79 471.19 82.79 481.6 108.38 502.29 108.38" fill="#908e8f" opacity="0.5"/><polygon points="502.29 108.38 481.6 108.38 492 133.97 502.29 108.38" fill="#908e8f" opacity="0.5"/><polygon points="512.58 82.79 491.88 82.79 502.29 108.38 512.58 82.79" fill="#dcdadb" opacity="0.4"/><polygon points="469.74 28.36 459.46 53.95 471.19 82.79 491.88 82.79 469.74 28.36" fill="#22739d"/><polygon points="502.29 108.38 491.88 82.79 471.19 82.79 481.6 108.38 502.29 108.38" fill="#908e8f" opacity="0.5"/><polygon points="409.74 338.57 416.28 354.65 447.31 354.65 425.16 300.21 409.74 338.57" fill="#fff" opacity="0.4"/><polygon points="457.71 380.24 447.31 354.65 416.28 354.65 431.88 393.01 452.58 393.01 457.71 380.24" fill="#fdfdfd" opacity="0"/><polygon points="452.58 393.01 431.88 393.01 442.29 418.6 452.58 393.01" fill="#dcdadb" opacity="0.4"/><polygon points="409.74 338.57 399.45 364.16 411.19 393.01 431.88 393.01 409.74 338.57" fill="#22739d"/><polygon points="442.29 418.6 431.88 393.01 411.19 393.01 421.6 418.6 442.29 418.6" fill="#908e8f" opacity="0.5"/><polygon points="468 354.65 447.31 354.65 457.71 380.24 468 354.65" fill="#908e8f" opacity="0.5"/><polygon points="435.45 274.63 441.99 290.71 473.01 290.71 450.87 236.27 435.45 274.63" fill="#fff" opacity="0.4"/><polygon points="483.42 316.29 473.01 290.71 441.99 290.71 457.59 329.06 478.29 329.06 483.42 316.29" fill="#fdfdfd" opacity="0"/><polygon points="478.29 329.06 457.59 329.06 468 354.65 478.29 329.06" fill="#dcdadb" opacity="0.4"/><polygon points="435.45 274.63 425.16 300.21 436.9 329.06 457.59 329.06 435.45 274.63" fill="#22739d"/><polygon points="468 354.65 457.59 329.06 436.9 329.06 447.31 354.65 468 354.65" fill="#908e8f" opacity="0.5"/><polygon points="409.74 338.57 416.28 354.65 447.31 354.65 425.16 300.21 409.74 338.57" fill="#fff" opacity="0.4"/><polygon points="457.71 380.24 447.31 354.65 416.28 354.65 431.88 393.01 452.58 393.01 457.71 380.24" fill="#fdfdfd" opacity="0"/><polygon points="452.58 393.01 431.88 393.01 442.29 418.6 452.58 393.01" fill="#dcdadb" opacity="0.4"/><polygon points="409.74 338.57 399.45 364.16 411.19 393.01 431.88 393.01 409.74 338.57" fill="#22739d"/><polygon points="442.29 418.6 431.88 393.01 411.19 393.01 421.6 418.6 442.29 418.6" fill="#908e8f" opacity="0.5"/><polygon points="468 354.65 447.31 354.65 457.71 380.24 468 354.65" fill="#908e8f" opacity="0.5"/><polygon points="435.45 274.63 441.99 290.71 473.01 290.71 450.87 236.27 435.45 274.63" fill="#fff" opacity="0.4"/><polygon points="483.42 316.29 473.01 290.71 441.99 290.71 457.59 329.06 478.29 329.06 483.42 316.29" fill="#fdfdfd" opacity="0"/><polygon points="478.29 329.06 457.59 329.06 468 354.65 478.29 329.06" fill="#dcdadb" opacity="0.4"/><polygon points="435.45 274.63 425.16 300.21 436.9 329.06 457.59 329.06 435.45 274.63" fill="#22739d"/><polygon points="468 354.65 457.59 329.06 436.9 329.06 447.31 354.65 468 354.65" fill="#908e8f" opacity="0.5"/><polygon points="493.71 290.71 473.01 290.71 483.42 316.29 493.71 290.71" fill="#908e8f" opacity="0.5"/><polygon points="461.16 210.68 467.7 226.76 498.72 226.76 476.58 172.33 461.16 210.68" fill="#fff" opacity="0.4"/><polygon points="509.13 252.35 498.72 226.76 467.7 226.76 483.3 265.12 504 265.12 509.13 252.35" fill="#fdfdfd" opacity="0"/><polygon points="504 265.12 483.3 265.12 493.71 290.71 504 265.12" fill="#dcdadb" opacity="0.4"/><polygon points="461.16 210.68 450.87 236.27 462.61 265.12 483.3 265.12 461.16 210.68" fill="#22739d"/><polygon points="493.71 290.71 483.3 265.12 462.61 265.12 473.01 290.71 493.71 290.71" fill="#908e8f" opacity="0.5"/><polygon points="486.87 146.74 493.41 162.82 524.43 162.82 502.29 108.38 486.87 146.74" fill="#fff" opacity="0.4"/><polygon points="534.84 188.41 524.43 162.82 493.41 162.82 509.01 201.18 529.71 201.18 534.84 188.41" fill="#fdfdfd" opacity="0"/><polygon points="486.87 146.74 476.58 172.33 488.32 201.18 509.01 201.18 486.87 146.74" fill="#22739d"/><polygon points="519.42 226.76 509.01 201.18 488.32 201.18 498.72 226.76 519.42 226.76" fill="#908e8f" opacity="0.5"/><polygon points="478.29 329.06 484.83 345.14 515.85 345.14 493.71 290.71 478.29 329.06" fill="#fff" opacity="0.4"/><polygon points="526.26 370.73 515.85 345.14 484.83 345.14 500.43 383.5 521.13 383.5 526.26 370.73" fill="#fdfdfd" opacity="0"/><polygon points="478.29 329.06 468 354.65 479.73 383.5 500.43 383.5 478.29 329.06" fill="#22739d"/><polygon points="510.84 409.09 500.43 383.5 479.73 383.5 490.14 409.09 510.84 409.09" fill="#908e8f" opacity="0.5"/><polygon points="504 265.12 493.71 290.71 505.44 319.56 526.14 319.56 504 265.12" fill="#22739d"/><polygon points="478.29 329.06 484.83 345.14 515.85 345.14 493.71 290.71 478.29 329.06" fill="#fff" opacity="0.4"/><polygon points="526.26 370.73 515.85 345.14 484.83 345.14 500.43 383.5 521.13 383.5 526.26 370.73" fill="#fdfdfd" opacity="0"/><polygon points="478.29 329.06 468 354.65 479.73 383.5 500.43 383.5 478.29 329.06" fill="#22739d"/><polygon points="510.84 409.09 500.43 383.5 479.73 383.5 490.14 409.09 510.84 409.09" fill="#908e8f" opacity="0.5"/><polygon points="504 265.12 493.71 290.71 505.44 319.56 526.14 319.56 504 265.12" fill="#22739d"/></g></svg>