<svg xmlns="http://www.w3.org/2000/svg" width="1294.25" height="483.31" viewBox="0 0 1294.25 483.31"><title>triangles_seamless_black</title><path d="M1294.25,465.89l-.37.91h-20l-15.2-37.4h30l5.63,13.85v-2.66l-4.55-11.19h4.55v-1h-5l-10-24.61h15v-1h-15.36l-11.53-28.37,9.75-24.27,6.06,14.92h0l11.08,27.26v-2.66l-9.87-24.29h9.87v-1H1284l-6.33-15.57,13.71-34.11,1.19-3,1.71,4.21v-2.66l-1.18-2.89,1.18-2.92v-2.69l-1.75,4.34-9.65-23.77h11.4v-1h-11.81l-15.2-37.4h27v-1h-27.42l-6.33-15.57,14.9-37.08,18.85,46.39v-2.65l-6.38-15.7h6.38v-1h-6.79L1275.93,192l9.75-24.27,3.54,8.7,5,12.37v-2.65l-1.3-3.19h1.3v-1h-1.7l-6.33-15.57,8-20V143.7l-3.46,8.6-9.66-23.77h13.12v-1h-13.52l-10-24.61h19.61l3.91,9.62v-2.66l-2.83-7h2.83v-1H1291l-15.2-37.41h18.44v-1h-18.84l-6.33-15.57L1284,10.87l10.28,25.29V33.51l-9.74-24L1288.34,0h-1.08l-3.32,8.27L1280.58,0h-1.08l3.7,9.1h-19.61l-3.7-9.1h-1.08l3.7,9.1h-30l-3.7-9.1h-1.08l4,9.79h0l15.33,37.72h-19.61l-11.53-28.37.17-.44h0L1223.63,0h-1.08l-7.18,17.87L1208.11,0H1207l7.6,18.7H1195L1187.42,0h-1.08l7.6,18.7h-30l-6.33-15.57L1158.91,0h-1.08l-1.08,2.7h-20L1135.64,0h-1.08l1.1,2.7H1116L1115,0h-1.08l11.5,28.31h-30l-6.33-15.57L1094.2,0h-1.08l-4.94,12.3h-20l-5-12.3h-1.08l5,12.3h-19.62l-5-12.3h-1.07l15.4,37.91h-30l-6.32-15.57,9-22.34h-1.08l-3.32,8.27L1021.73,0h-1.08l3.9,9.6-4.94,12.31h-20L990.69,0h-1.07l8.9,21.91H978.9L970,0h-1.08l19.31,47.51h-30L952,31.94,964.78,0H963.7l-7.18,17.87L949.26,0h-1.08L956,19.2,951,31.51H931L918.22,0h-1.08L930,31.51H910.33L898.81,3.13,899,2.7h0L900.06,0H899l-.75,1.87L897.48,0H896.4l1.1,2.7H877.89L876.79,0h-1.08l1.1,2.7h-30L845.75,0h-1.08l1.38,3.39h0l.13.31h0l15.2,37.41H841.76L830.24,12.74,835.35,0h-1.08l-4.6,11.47L825,0h-1.08l5,12.3H809.31l-5-12.3h-1.08l5,12.3h-30l-5-12.3H772.2l5.28,13h0l15.33,37.72H773.2L761.67,22.34l9-22.34h-1.08L761.1,21.07,752.53,0h-1.07l8.9,21.91H740.75L731.84,0h-1.08l8.91,21.91h-30l-.48-1.2L703.38,6.33,705.93,0h-1.08l-2.37,5.9h-20L680.06,0H679l2.4,5.9H661.77L659.37,0h-1.08L671.1,31.51h-30l-6.33-15.57L641.22,0h-1.08l-.75,1.87L638.63,0h-1.08l1.3,3.2-4.94,12.3h-20L607.59,0h-1.08l6.3,15.5H593.2L586.9,0h-1.08l16.71,41.11h-30l-.48-1.19-5.85-14.38L576.5,0h-1.08l-4.6,11.47L566.16,0h-1.08l5.2,12.8-4.94,12.31h-20L535.12,0H534l10.2,25.11H524.63L514.43,0h-1.08L534,50.71H504l-6.33-15.57L511.79,0h-1.08l-8.46,21.07L493.69,0h-1.08l9.1,22.41-4.94,12.3h-20L462.65,0h-1.08l14.1,34.71H456.06L444.53,6.34,447.08,0H446l-2,5.07L441.9,0h-1.07l2.39,5.9H423.61L421.21,0h-1.07l2.39,5.9H392.58L390.43.63,390.18,0H389.1l2.22,5.47.58,1.43,15.2,37.41H387.49L376,15.94,382.37,0h-1.08l-5.9,14.67L369.43,0h-1.08l6.3,15.5H355L348.74,0h-1.08L354,15.5H324L317.71,0H275.19l10.2,25.11H255.44l-2.15-5.28L249.11,9.54l3.15-7.85L252.94,0h-1.08l-3.29,8.2h0l-.36.9h-20L224.49,0h-1.08l3.7,9.1H207.5L203.8,0h-1.08l14.1,34.71H186.87l-6.33-15.57L188.23,0h-1.08l-2,5.07L183.05,0H182l2.6,6.4-4.94,12.3h-20L152,0h-1.08l7.6,18.7H138.93L131.33,0h-1.08l18,44.31H118.3L112,28.74,123.52,0h-1.08l-5.9,14.67L110.58,0H109.5L116,16l-4.94,12.31h-20L79.55,0H78.47L90,28.31H70.36L58.86,0H6l.2.5L21.4,37.91H1.79L0,33.51v2.65L11.12,63.51H0v1H11.52l10.2,25.11-4.94,12.3H0v1H16.38L6.83,126.69,0,109.88v2.66l6.09,15H0v1H6.09L0,143.7v2.68L6.86,129.3l21.4,52.64H0v1H28.66l10.2,25.11-4.94,12.3h-20L0,186.13v2.65l12.83,31.57H0v1H13.23l10,24.61H3.62L0,237.05v2.65L2.54,246H0v1H3l10.2,25.1-4.94,12.3H0v1H7.8L0,304.79v2.69l8.57-21.35,6.2,15.24h0L30,338.78H10.35L0,313.3V316l19.68,48.43H0v1H20.09l10.2,25.11-4.94,12.3h-20L0,389.67v2.66l4.25,10.46H0v1H4.66l10,24.61H0v1H14.66L5.11,453.17,0,440.59v2.66L4.57,454.5,0,465.89v2.68l.84,2.08L6,483.31H58.85l0-.07L68.57,459l6.19,15.24h0l3.7,9.1h1.08l-3.7-9.1h30l3.69,9.1h1.08l-3.7-9.1h19.21l-.13.34-3.52,8.76h1.08l3.34-8.34,3.39,8.34h1.08l-3.93-9.67,9.75-24.27,3.29,8.1,2.9,7.13h0l7.6,18.71H152l-7.6-18.71h30l7.6,18.71H183l-7.6-18.71h19.21l-7.51,18.71h1.08l7.2-17.94,7.29,17.94h1.08L196,464l9.75-24.27L211.9,455h0l11.5,28.31h1.08L213,455h30l10.2,25.11-1.29,3.2h1.08l4.72-11.76L264,455.77l11.19,27.54H317.7l0-.07,14.89-37.07,15.09,37.14h1.08l-3.7-9.1h19.62l3.69,9.1h1.08l-3.7-9.1h19.21l-3.65,9.1h1.08L385.7,475l3.39,8.34h1.08l-3.93-9.67,14.89-37.07,19,46.74h1.07l-7.6-18.71h19.62l7.6,18.71h1.07l-7.6-18.71H453.5L446,483.31h1.08l7.2-17.94,7.29,17.94h1.08l-1.1-2.7h30l1.1,2.7h1.08l-1.1-2.7h19.21l-1.09,2.7h1.08l.78-1.93.78,1.93h1.08L513.09,480l9.75-24.27,6.07,14.92h0L534,483.31h1.08l-5-12.31h30l5,12.31h1.08l-5-12.31h19.21l-5,12.31h1.08l4.64-11.54,4.68,11.54h1.08l-5.23-12.87,9.75-24.27,6.07,14.92h0l9,22.22h1.08l-8.9-21.91h30l8.9,21.91h1.08l-8.9-21.91h19.21l-3.36,8.36-5.44,13.55h1.08l8.49-21.14,8.58,21.14h1.08l-9.13-22.47L660,436.57l6.07,14.92h0L679,483.31h1.08l-12.8-31.51h30l10.2,25.11-2.57,6.4h1.08l12.34-30.74,12.49,30.74h1.08l-1.09-2.7h19.61l1.1,2.7h1.08l-1.1-2.7h19.21l-1.09,2.7h1.08l.78-1.93.78,1.93h1.08L771.94,480l11-27.34,3.91-9.73,16.4,40.34h1.08l-5-12.31h19.61l5,12.31H825L820,471h19.21l-5,12.31h1.08L840,471.77l4.68,11.54h1.08l-5.23-12.87,14.89-37.07,20.3,49.94h1.08l-8.9-21.91h19.61l8.9,21.91h1.08l-8.9-21.91h19.21L899,483.31h1.07l8.5-21.14L913.76,475l3.37,8.3h1.08l-2.4-5.9h30l2.4,5.9h1.08l-2.4-5.9h19.21l-2.37,5.9h1.08l2.06-5.13,2.08,5.13H970l-2.63-6.47.18-.43,9.57-23.84,6.07,14.92h0l6.43,15.82h1.07l-6.3-15.51h30l6.3,15.51h1.08l-6.3-15.51h19.21l-6.23,15.51h1.08l5.92-14.74,6,14.74h1.08l-6.53-16.07,9.75-24.27,6.07,14.92,10.33,25.42h1.08L1053,458.2h30l10.2,25.11h1.08l1.78-4.44,8-19.9,9.89,24.34h1.08l-10.44-25.67,9.75-24.27,6.07,14.92h0l14.23,35h1.08l-14.11-34.71h30l10.2,25.11-3.12,7.77-.73,1.83h1.07l13.64-33.94,13.79,33.94h1.08l-2.4-5.9h19.61l2.4,5.9h1.08l-2.4-5.9h19.21l-2.37,5.9h1.08l2.06-5.13,2.08,5.13h1.08l-2.62-6.47,14.89-37.07,17.69,43.54h1.08l-6.3-15.51h19.61l6.3,15.51h1.08l-6.3-15.51h19.21l-6.23,15.51h1.08l5.92-14.74h0Zm-6-37.49h-30l-6.33-15.57,14.89-37.08ZM51.43,340.54l3.88,9.56,2.31,5.68h0l15.2,37.41H53.21L41.68,364.82Zm-10.32,23-9.66-23.77H50.66ZM42.86,39.68l5.62,13.81.58,1.42,15.2,37.41H44.64L33.11,64Zm-10.31,23L22.89,38.91h19.2Zm137.17-16.6,21.39,52.64h-30L159,93.45l-4.18-10.3Zm-10.32,23-9.66-23.77H169Zm78.89-32.6,21.39,52.64h-30l-6.33-15.57ZM228,59.48l-9.66-23.77h19.21l-2.64,6.58ZM303.6,35l3.26-8.11,21.39,52.65h-30l-2.14-5.27L292,64Zm-7.06,14.9-9.66-23.77h19.21Zm258.88,2.6,21.39,52.64h-30l-6.32-15.57Zm-10.32,23-9.66-23.77h19.21Zm69.74-9.82L624,42.88l21.39,52.64h-30L609.1,80Zm-1.17.22L604,42.11h19.21Zm78.89-32.6L714,85.92H684l-6.32-15.57Zm-10.32,23-9.66-23.77h19.21Zm153.42,48.84H816.05L804.52,76.75l9.75-24.27,6.06,14.92h0Zm174-55.84,21.39,52.64h-29.95L994.8,86.35Zm-10.32,23-9.65-23.77h19.2Zm78.89-32.6,21.39,52.64h-30l-6.33-15.57Zm-10.32,23-9.66-23.77h19.21Zm78.89-32.6,21.39,52.64h-30l-6.33-15.57Zm-10.32,23-9.66-23.77h19.21ZM1247.4,99.22l-4.94,12.3h-20l-15.2-37.4h30Zm-9.12-25.1h19.21l-9.55,23.77ZM1246.44,374l-10-24.6h19.61l10,24.6Zm19.61,1-9.55,23.78L1246.84,375ZM77.14,276.53l6.2,15.23h0l15.2,37.41H78.92L67.39,300.8Zm-10.31,23-9.66-23.77h19.2Zm1172-17.87L1233.88,294h-20l-15.2-37.41h29.95Zm-9.13-25.1h19.21l-9.55,23.77ZM604.24,197.94H584.63L573.1,169.57l.17-.43h0l9.58-23.84,6.06,14.92h0Zm137.14-19.2H721.77l-11.53-28.37L720,126.1,726.05,141h0Zm317.13,16H1038.9l-11.53-28.37,9.75-24.27,6.06,14.92h0Zm137.14-19.2H1176l-11.53-28.37.17-.44,9.58-23.83,6.06,14.92h0ZM784.23,233.15H764.62l-11.53-28.37,9.75-24.27,6.06,14.92h0ZM921.37,214H901.76l-11.53-28.37L900,161.3,906,176.23h0Zm233.24-12.12h0l.12.31,15.21,37.41h-19.62l-11.53-28.37,9.75-24.27Zm-5.53-16.26L1164,148.5l21.39,52.64h-29.95l-3-7.3Zm31.26,79.59h-19.61l-10-24.61h19.61Zm-8.92-24.61h19.21l-9.55,23.77Zm8.92,25.61-9.13,22.74-.42,1-9.66-23.77Zm-52.94-29.31-4.94,12.31h-20l-15.2-37.41h30Zm-9.12-25.1h19.21l-9.55,23.77Zm20,.77,21.39,52.64h-30l-6.32-15.57Zm0-2.61-9.65-23.77h19.2Zm-.73.84h-19.62l-10-24.61h19.62Zm-20.7,0h-30l-6.33-15.57,14.89-37.08Zm-30.75.68h0l15.33,37.73h-19.62l-11.53-28.38,9.75-24.27Zm-16.38,8.08L1060,195.74h19.2Zm-20,1.84h19.21l-6.79,16.9-2.76,6.87Zm9.12,25.11-4.94,12.3h-20l-15.2-37.41h30Zm10.09-26.11H1049.3l-10-24.61h19.61Zm-20.7,0h-30l-.49-1.19-5.84-14.38,14.89-37.07Zm-30.75.69h0l15.33,37.72h-19.62l-11.53-28.37,9.75-24.28Zm-16.39,8.08-9.65-23.77h19.2Zm-328,10.93-4.94,12.31h-20L633,215h30ZM664,215h19.21l-9.55,23.77Zm20,.77,21.4,52.64h-30l-6.33-15.57Zm12.48,28h19.61l10,24.61H706.46Zm45.24-13.3-4.94,12.3h-20l-15.2-37.4h30Zm-9.12-25.1h19.2l-9.54,23.77Zm-6.51,64-9.55,23.77-9.66-23.77Zm-8.92-25.61h19.21l-9.55,23.77Zm20,.77,3.53,8.7,17.86,44H738.91l-11.53-28.38Zm.53-1.33,5.74-14.29,9.15-22.79L774,258.76H744Zm27.37-9h19.61l10,24.61H775Zm29.61,25.61-9.55,23.77-9.66-23.77Zm-8.92-25.61h19.21l-.75,1.86-8.8,21.91Zm10.4,24.61,9.58-23.84,6.06,14.92h0l15.33,37.72H807.48L796,259.19l.17-.43Zm10.11-25.17,14.89-37.08,21.4,52.65h-30Zm27.37-9h19.61l10,24.61H843.59Zm29.61,25.61-9.55,23.77L844,250.16Zm-8.92-25.61h19.2L864,248.32Zm20,.77,6.06,14.92h0L895.66,278H876l-11.52-28.37Zm36.82,14.23h-30l-.49-1.19L874.8,224l14.89-37.07ZM902.17,215h19.61l10,24.6H912.16Zm-20.64,25.6h30l10.2,25.11L916.75,278h-20Zm31,0h19.21l-9.55,23.77ZM922.86,215h19.2l-9.54,23.77Zm20,.77,6.06,14.92h0l15.33,37.72H944.61L933.09,240ZM950.1,231h30l10.2,25.11-4.94,12.3h-20Zm31,0h19.21l-9.55,23.77Zm19.21-1H980.73l-10-24.6h19.61Zm-20.7,0H949.7l-6.33-15.57,14.89-37.07Zm-31.71-29.64-9.65-23.77h19.2Zm-.53,1.34L942.47,214h-20l-15.2-37.41h30Zm-57.75-17.34L880,160.54h19.21Zm-10.29,25.6-9.65-23.77h19.2Zm-.53,1.34-4.94,12.3h-20l-15.2-37.41h30Zm-26,12.3H833.19l-11.53-28.37,9.75-24.27,6.06,14.92h0Zm-31.71-29.64-9.66-23.77h19.21Zm-10.28,25.6-9.66-23.77h19.2Zm-.54,1.34-4.94,12.3h-20l-15.2-37.41h30ZM761.32,181.6l-8.8,21.91-9.66-23.77h19.21Zm-9.54,22.75H732.17l-10-24.61h19.61Zm-20.69,0h-30l-6.32-15.57,5.74-14.3,9.15-22.78Zm-33.28-5.54,17.85,43.94H696.05l-11.53-28.37,9.75-24.27ZM684,213.11l-9.66-23.77H693.5Zm-.74.84H663.6l-10-24.61h19.61Zm-20.69,0h-30l-6.32-15.57,14.89-37.07Zm-30.75.68h0l15.32,37.72H627.48L616,224l.18-.43h0l9.57-23.84Zm-16.39,8.08-9.66-23.77h19.21Zm-19.94,1.84h19.21l-9.55,23.77Zm9.12,25.11L599.62,262h-20l-15.2-37.41h30Zm10.08-26.11H595l-10-24.61h19.61Zm-20.69,0H564L557.67,208l14.89-37.07ZM560.67,218,578.52,262H558.91l-11.53-28.37,9.75-24.27Zm-13.86,14.31-9.66-23.77h19.21ZM218.86,243.25l-4.94,12.31h-20l-15.2-37.41h30Zm-9.13-25.1h19.21l-9.55,23.77Zm9.75,26.23,10.23-25.46,21.39,52.64H221.15L214.82,256Zm22.7,2.58H261.8l10,24.6H252.18Zm45.25-13.31-4.58,11.4h0l-.36.91h-20l-15.2-37.41h30Zm-9.13-25.1h19.21L288,232.32Zm-6.5,64-2.64,6.58-6.91,17.19-9.66-23.77ZM262.88,247h19.2l-9.55,23.77Zm20,.76,4.26,10.49L289,263h0l15.21,37.41H284.63L273.1,272Zm6,12-5.44-13.38,3.15-7.85,11.74-29.23L319.67,262H289.72Zm21.92-22.42h19.62l10,24.61H320.75ZM356,224.05l-4.95,12.3H331l-15.2-37.41h30Zm-9.13-25.11h19.21l-9.55,23.78Zm-6.5,64-9.55,23.77L321.16,263Zm-8.93-25.61h19.21l-9.55,23.77Zm20,.77,6.19,15.24h0l15.21,37.41H353.2l-11.53-28.38Zm.54-1.33,14.89-37.08,21.39,52.65H358.29Zm27.36-9h19.62l10,24.61H389.32Zm29.62,25.61-9.55,23.77-9.66-23.77ZM400,227.75h19.21l-9.55,23.77Zm20,.77,5.61,13.81.58,1.42,15.2,37.41H421.77l-11.53-28.37Zm36.82,14.23H426.86l-2.15-5.27-4.18-10.3,14.89-37.07Zm-8.92-24.6h19.62l10,24.6H457.89Zm-20.63,25.6h30l10.2,25.11-4.94,12.3h-20Zm31,0h19.21l0,.06L468,267.53Zm10.28-25.6h19.21l-9.55,23.77Zm20,.77,6.07,14.92h0L510,271.56H490.34l-11.53-28.37Zm7.27,15.23h30L536,259.26l-4.94,12.3H511Zm31,0h19.21l-9.55,23.77Zm19.2-1H526.46l-10-24.6h19.62Zm-20.69,0h-30l-6.32-15.57L504,180.51Zm-31.71-29.64L484,179.74h19.21Zm-.53,1.34-4.95,12.3h-20L453,179.74h29.95Zm-26,12.3H447.49L436,188.78l9.75-24.28,6.19,15.24h0Zm-31.71-29.64-9.66-23.77h19.21Zm-10.29,25.6-9.66-23.77h19.21Zm-.53,1.34-4.95,12.3h-20l-15.2-37.41h29.95Zm-26,12.3H378.92l-11.53-28.37,9.75-24.27,5.61,13.81.58,1.42Zm-31.71-29.64-9.66-23.77h19.21Zm-.74.83H346.47l-10-24.6h19.61Zm-20.69,0h-30l-6.33-15.57L324,145.3Zm-30.63,1h0L330,236.35H310.35L298.82,208l9.75-24.27Zm-16.51,7.77-9.66-23.77H307.8Zm-.74.84H277.9l-10-24.61h19.61Zm-20.69,0h-30L240.54,192l14.89-37.08ZM241.92,198l4.27,10.51h0L261.39,246H241.78l-11.53-28.38L240,193.31Zm-12.24,18.27L220,192.54h19.21Zm-.74.84H209.33l-10-24.61h19.61Zm-20.69,0h-30L172,201.58l11.1-27.64,3.79-9.43Zm-30.63,1h0l15.2,37.41H173.21l-11.53-28.38,9.75-24.27Zm-16.51,7.77-9.66-23.78h19.21Zm-.74.83H140.76l-10-24.61h19.61Zm0,1-9.55,23.77-9.66-23.77Zm-10.08,25.11-4.94,12.3h-20l-15.2-37.41h30Zm-5.35,13.3-9.54,23.77-9.66-23.77Zm.77.77,5.62,13.81.57,1.42,15.21,37.41H147.49L136,291.2Zm4.73,9-4.19-10.3,14.89-37.07,21.39,52.64H152.58Zm23.17-19.33h19.62l10,24.6H183.61Zm29.62,25.6-9.55,23.77L184,282.16Zm-8.92-25.6h19.2L204,280.33Zm20,.77,6.19,15.23h0L235.68,310H216.06L204.53,281.6Zm7.27,15.23h30l10.2,25.11L256.77,310h-20Zm51,.77L294,326H264l-6.33-15.57Zm12.47,28h19.61l10,24.6H295ZM290.12,263h30l10.2,25.11-4.58,11.4h0l-.36.9h-20Zm39.28,30,11.74-29.22,21.39,52.64h-30l-.89-2.19-5.44-13.38Zm24.21-1.18h19.61l10,24.6H363.61Zm5.08-38.41h30l10.2,25.1-4.94,12.31h-20Zm51,.77,21.39,52.64h-30l-6.33-15.57Zm12.47,28h19.61l10,24.61H432.18Zm29.61,25.61-9.55,23.77-9.66-23.77Zm-8.92-25.61h19.21l-9.55,23.77Zm20,.77,21.39,52.65H464.63L453.1,307.2Zm3.9,6.95-3.37-8.28,14.9-37.08,21.39,52.65h-30Zm24-17.32h19.61l10,24.61H500.75Zm29.61,25.61L513,316.53l-2.17,5.41-9.66-23.77Zm-8.92-25.61h19.21l-9.55,23.77Zm20,.77,6.06,14.92h0L552.81,326H533.2L521.67,297.6ZM532,272l14.9-37.07,21.39,52.64h-30Zm27.37-9h19.61l10,24.6H569.32Zm29.61,25.6-9.55,23.77-9.66-23.77ZM580,263h19.21l-9.55,23.77Zm20,.77,3.53,8.7,17.86,43.94H601.77L590.24,288Zm.53-1.34,14.9-37.07L636.81,278h-30Zm27.37-9H647.5l10,24.6H637.89ZM657.5,279,648,302.73,638.29,279Zm-8.92-25.6h19.21l-9.55,23.77ZM659,278l9.58-23.84,6.06,14.93h0L690,306.77H670.34L658.81,278.4,659,278Zm16.85-8.6h29.95L716,294.47,711,306.77H691Zm51,.77,21.39,52.64h-30L712,307.2Zm12.47,28h19.61l10,24.6H749.31Zm5.09-38.41h30l10.2,25.1-4.94,12.31h-20Zm51,.77,21.39,52.64h-30l-6.32-15.57Zm12.47,28h19.61l10,24.61H817.88Zm5.09-38.4h29.95l10.2,25.1-4.94,12.3h-20Zm51,.77,21.39,52.64h-30L849.09,288Zm12.47,28h19.61l10,24.61H886.45Zm29.61,25.61-9.54,23.77-9.66-23.77ZM897.14,279h19.21l-9.55,23.77Zm20,.77,6.06,14.92h0l15.33,37.72H918.9L907.37,304ZM922.77,291l-5.11-12.59,14.89-37.08L953.94,294H924ZM945,269.36h19.61l10,24.61H955ZM974.63,295l-9.55,23.77L955.43,295Zm-8.92-25.61h19.21l-.16.41-9.39,23.36Zm20,.77,6.06,14.92h0l15.33,37.72H987.47L975.94,294.4Zm.54-1.34,14.89-37.07,21.39,52.64h-30Zm27.36-9h19.61l10,24.6h-19.61Zm29.61,25.6-9.55,23.77L1024,285.36Zm-8.92-25.6h19.21l-9.55,23.77Zm20,.77,6.06,14.92h0l15.33,37.72H1056l-11.53-28.37Zm6.38,13-5.84-14.38,14.89-37.07,21.39,52.64h-30Zm21.52-23.41h19.61l10,24.6h-19.61Zm29.61,25.6-6.78,16.9-2.77,6.87-9.66-23.77Zm-8.92-25.6h19.21l-9.55,23.77Zm20,.76,6.06,14.93h0l15.33,37.72h-19.61l-11.53-28.38Zm7.27,15.24h30l10.21,25.11-4.94,12.3h-20Zm51,.77,21.39,52.64h-30L1166.22,304Zm12.47,28h19.62l10,24.6h-19.62Zm-.4-1-11.53-28.38,9.75-24.27,6.06,14.92h0l.13.32h0l15.2,37.41ZM1191,239.55h-20l-15.2-37.41h30l10.2,25.11Zm-4.18-37.41h19.21l-9.55,23.78Zm-.41-1-10-24.6h19.62l10,24.6Zm-22.5-55.24-9.66-23.77h19.21Zm-10.29,25.6L1144,147.73h19.21Zm-.53,1.34-4.94,12.3h-20L1113,147.73h30Zm-26,12.3h-19.61l-11.53-28.37,9.75-24.27,3.53,8.7Zm-31.71-29.64-9.66-23.77h19.21Zm-10.29,25.61-9.66-23.78h19.21Zm-.53,1.33-4.94,12.3h-20l-15.2-37.41h30ZM1026.8,165.1l-9.66-23.77h19.21Zm-7.52,18.73-2.77,6.88-9.66-23.77h19.21ZM1016,192,1011,204.35H991l-15.2-37.41h30Zm-26,12.31H970.33L958.8,176l9.75-24.27,6.06,14.92h0ZM958.23,174.7l-9.66-23.77h19.21Zm-.74.84H937.88l-10-24.61h19.61Zm-20.69,0h-30L900.52,160l14.89-37.07Zm-31-31.41-.71,1.77-9.66-23.77h19.21Zm-1.25,3.1-4.94,12.31h-20l-15.21-37.41h30Zm-15.63,37.91H869.31l-10-24.6h19.61Zm-20.69,0h-30l-.48-1.19L832,169.57l14.89-37.07ZM836.52,155.5l-9.66-23.77h19.21Zm-.54,1.34L831,169.14H811l-15.2-37.41h29.95Zm-15.63,37.9H800.74l-10-24.6h19.61Zm-20.69,0h-30l-6.32-15.57,14.89-37.07ZM768,165.1l-9.66-23.77H777.5Zm-.54,1.34-4.94,12.3h-20l-15.2-37.41h30Zm-48.94-39.25-8.8,21.91L700,125.33h19.21ZM699.38,174.7l-9.66-23.77h19.21Zm-.54,1.34-4.94,12.3h-20l-15.2-37.41h29.95Zm-26,12.3H653.2L641.67,160l9.75-24.27,3.53,8.7ZM641.1,158.7l-9.66-23.77h19.21Zm-10.29,25.61-9.66-23.77h19.21Zm-.54,1.33-4.94,12.3h-20l-15.2-37.4h30ZM572.53,168.3l-9.66-23.77h19.21Zm-10.29,25.61-9.66-23.77h19.21Zm-.53,1.33-5,12.31h-20l-15.2-37.41h30Zm-26,12.31H516.06l-11.53-28.38,9.75-24.27,3.53,8.7ZM504,177.9l-9.66-23.77h19.21Zm-.74.84H483.61l-10-24.61h19.61Zm-20.69,0h-30l-6.33-15.57,3.25-8.09,11.65-29Zm-23.74-49.48-8,19.84-9.66-23.77h19.21Zm-8.51,21.17-4.94,12.31h-20l-15.2-37.41h30Zm-15.63,37.91H415l-10-24.6h19.61Zm-20.69,0H384l-2.14-5.27-4.19-10.3,11.64-29,3.26-8.1ZM382.25,158.7l-9.66-23.77H391.8Zm-.54,1.34-4.94,12.3h-20l-15.2-37.41h30Zm-26,12.3H336.06L324.53,144l9.75-24.27,5.61,13.8.58,1.43ZM324,142.7l-9.66-23.77h19.21Zm-10.28,25.6L304,144.53h19.21Zm-.54,1.34-4.94,12.3h-20L273,144.53h30Zm-26,12.3H267.49L256,153.57l9.75-24.27,6.19,15.23h0ZM255.39,152.3l-9.65-23.77h19.2Zm-10.28,25.61-9.66-23.78h19.21Zm-.54,1.33-4.94,12.3h-20l-15.2-37.41h30Zm-26,12.3H198.92l-11.53-28.37,9.75-24.27,1.93,4.73,4.26,10.5h0ZM186.83,161.9l-9.66-23.77h19.2Zm-10.29,25.61-9.66-23.77h19.21Zm-.54,1.33-4.94,12.3H151l-15.2-37.4h30Zm-26,12.3H130.35l-11.53-28.37,9.75-24.27,6.19,15.24h0ZM118.26,171.5l-9.66-23.77h19.2Zm-.74.84H97.9l-10-24.61h19.62Zm0,1L108,197.11l-9.66-23.77Zm.77.77,21.39,52.64h-30l-2.14-5.27-4.18-10.3Zm-9.82,52.21.58,1.43,15.2,37.41H104.64L93.11,236.79l9.75-24.27Zm16.19,39.84,10,24.6H115l-10-24.6Zm10,25.6-9.55,23.78-9.66-23.78Zm-10.09,25.11-4.94,12.3h-20l-15.2-37.41h30Zm10.86-24.34,21.39,52.65h-30l-6.32-15.57Zm12.47,28h19.61l10,24.61H157.9ZM153,282.16h30l10.2,25.11-4.94,12.3h-20Zm51,.77,21.39,52.64h-30l-2.14-5.27L189.11,320Zm12.47,28h19.61l10,24.6H226.47Zm29.61,25.6-9.55,23.78-9.66-23.78ZM237.16,311h19.21l-9.55,23.77Zm20,.77L263.33,327h0l15.2,37.41H258.92L247.39,336ZM264.41,327h30l10.2,25.11-4.95,12.3h-20Zm31,0h19.21l-3.44,8.58-6.11,15.19Zm10.29-25.6h19.21l-9.55,23.77Zm20,.77L330,312.62l1.93,4.75h0l15.2,37.41H327.49L316,326.41ZM333,317.37h29.95l10.21,25.11-4.58,11.4h0l-.37.9h-20Zm31,0h19.21l-9.55,23.77Zm10.29-25.6h19.21L384,315.54Zm20,.76,6.19,15.24h0l15.2,37.41H396.06L384.53,316.8Zm7.27,15.24H431.5l10.21,25.1-4.95,12.31h-20Zm51,.77L474,361.18H444l-6.33-15.57Zm12.47,28h19.62l10,24.6H475Zm5.09-38.41h29.95l10.21,25.1-4.95,12.31h-20Zm51,.77,21.39,52.64H512.57l-.49-1.19L506.24,336Zm12.47,28h19.61l10,24.61H543.6Zm5.09-38.41h29.95l10.21,25.11-5,12.3h-20Zm51,.77L611.09,342h-30l-6.32-15.57Zm12.47,28h19.62l10,24.61H612.17ZM607.26,279h30l10.2,25.11-4.94,12.3h-20Zm51,.77,21.39,52.64H649.71l-6.33-15.57Zm12.47,28h19.61l10,24.6H680.74Zm29.62,25.6-9.55,23.78-9.66-23.78Zm-8.93-25.6h19.21l-9.55,23.77Zm20,.77,6.07,14.92h0l15.33,37.72H713.19l-11.53-28.37Zm7.27,15.23h30l10.2,25.11-4.94,12.3h-20Zm31,0h19.2l-9.54,23.77ZM760,298.17h19.21l-9.55,23.77Zm20,.77,3.22,7.92,18.17,44.72H781.76l-11.53-28.37Zm7.27,15.23h30l10.2,25.11-4.94,12.3h-20Zm31,0h19.2L828,337.94Zm10.28-25.61h19.21l-.75,1.86-8.8,21.91ZM839,313.17l9.58-23.84,6.06,14.93h0L869.94,342H850.33L838.8,313.6l.17-.43Zm16.85-8.6h30l10.2,25.1-3.4,8.47L891,342H871Zm51,.77L928.22,358h-30l-6.33-15.57Zm12.48,28h19.61l10,24.61H929.3Zm5.08-38.4h30l10.2,25.1-4.94,12.3h-20Zm41.28,25,9.73-24.23,21.39,52.65H966.84l-6.33-15.57Zm22.21,3.81h19.61l10,24.61H997.87ZM993,285.36h30l10.2,25.11-3.12,7.77-1.82,4.53h-20Zm51,.77,21.39,52.65h-29.95l-6.33-15.57Zm12.48,28h19.61l10,24.61h-19.62Zm5.08-38.41h30l10.21,25.11-4.94,12.3h-20Zm51,.77,21.39,52.64h-30l-.49-1.19-5.84-14.38Zm12.47,28h19.62l10,24.6H1135Zm29.62,25.6-9.55,23.77-9.66-23.77Zm-8.92-25.6h19.2l-9.55,23.77Zm20,.77,6.07,14.92h0L1187.07,358h-19.61l-11.53-28.37Zm7.27,15.23h30l10.2,25.11-3.82,9.52-1.12,2.78h-20Zm31,0h19.21l-9.55,23.77Zm10.29-25.6h19.2l-9.55,23.77Zm-16-39.41-3-7.3-3.36-8.27,14.89-37.08,21.39,52.65Zm8.53-55.25-9.65-23.77h19.2Zm-10.06-24.77-15.2-37.41h30l10.21,25.11-5,12.3Zm15.83-37.41h19.21l-9.55,23.77Zm19.21-1h-19.61l-10-24.61h19.61Zm-8.92-24.61h19.21l-9.55,23.78Zm-11.77,24.61h-30l-6.33-15.57,14.9-37.07Zm-31.71-29.64-9.66-23.77h19.21Zm-.54,1.33-4.94,12.31h-20l-15.2-37.41h30Zm-15.63,37.91h-19.61l-10-24.6h19.61Zm-20.69,0h-30l-6.32-15.57,14.89-37.07Zm-31.71-29.64-9.66-23.77h19.21Zm-.54,1.34-4.94,12.3h-20l-15.2-37.41h30Zm-15.63,37.9H1075l-10-24.6h19.61Zm-20.69,0h-30l-6.32-15.56,14.89-37.08Zm-31.71-29.64-9.66-23.77h19.21Zm-.54,1.34-4.94,12.3h-20l-15.21-37.41h30Zm-15.63,37.91h-19.61l-10-24.61h19.61Zm-20.69,0h-30l-.48-1.19-5.84-14.38L984,113.29Zm-29-36.52-2.76,6.88L964,112.52h19.21Zm-3.3,8.21-4.94,12.3h-20L933,112.52h30Zm-26,12.3H927.47L916,121.56l9.74-24.27,6.07,14.92h0Zm-31.71-29.64-9.66-23.77h19.21Zm-.74.84H895L885,96.52h19.61Zm-20.7,0H864l-6.33-15.57,14.89-37.08Zm-30.75.68h0l15.33,37.73H858.9l-11.52-28.38,9.75-24.27Zm-16.38,8.08-9.66-23.77h19.21Zm-.74.84H826.45l-10-24.61h19.61Zm-20.69,0h-30l-.48-1.19-5.85-14.38L804,78.09Zm-30.76.69h0L810,169.14H790.34l-11.53-28.37,9.75-24.28Zm-16.38,8.08-9.66-23.77h19.2Zm-.74.83H757.89l-10-24.6H767.5Zm-20.69,0h-30l-6.33-15.57,14.89-37.07ZM725.1,110.69l-9.66-23.77h19.2Zm-.54,1.34-4.94,12.3h-20L684.4,86.92h30Zm-15.63,37.9H689.32l-10-24.6h19.61Zm-20.69,0h-30L652,134.36l5.74-14.29,9.16-22.78Zm-31.71-29.64-9.66-23.77h19.21Zm-.54,1.34-4.94,12.3H631l-15.2-37.41h30Zm-15.63,37.91H620.75l-10-24.61h19.61Zm-20.69,0h-30L583.38,144l14.89-37.08ZM588,129.89l-9.66-23.77h19.21Zm-.54,1.34-4.94,12.3h-20l-15.2-37.41h30Zm-15.63,37.91H552.18l-10-24.61h19.61Zm-20.69,0h-30l-6.33-15.57,14.9-37.08ZM519.39,139.5l-9.66-23.77h19.21Zm-.54,1.33-4.94,12.3h-20l-15.2-37.4h30Zm-26,12.3H473.2l-11.53-28.37,9.75-24.27,3.54,8.7ZM461.1,123.49l-9.66-23.77h19.21Zm-.74.84H440.75l-10-24.61h19.62Zm-20.69,0H409.72l-6.33-15.57,8.55-21.29,6.34-15.79Zm-30.63,1h0l15.2,37.41H404.63L393.1,134.36l9.75-24.27Zm-16.51,7.77-9.66-23.78h19.21Zm-.74.83H372.18l-10-24.61H381.8Zm-20.69,0h-30L339,128.66l-4.18-10.3,11.64-29,3.25-8.1Zm-31.71-29.64-9.66-23.77h19.21Zm-.53,1.33-4.95,12.31h-20L298.7,80.52h29.95Zm-15.64,37.91H303.61l-10-24.6h19.62Zm-20.69,0H272.58L266.25,128l14.89-37.07Zm-31.71-29.64-9.66-23.77h19.21Zm-.53,1.34-5,12.3h-20l-15.2-37.41h30Zm-15.63,37.9H235l-10-24.6h19.62Zm-20.7,0H204l-6.33-15.57,14.89-37.07Zm-31.71-29.64-9.66-23.77H211.8Zm-.53,1.34-4.94,12.3h-20l-15.2-37.41h30Zm-15.63,37.91H166.47l-10-24.61h19.62Zm-20.7,0H135.44l-6.33-15.57L144,110.09ZM133.68,133.1,124,109.32h19.21Zm-.53,1.33-4.94,12.3h-20L93,109.32h30Zm-26,12.3H87.5L76,118.36l9.75-24.27,5.61,13.81.58,1.42ZM75.4,117.09,65.74,93.32H85Zm0,2.61,21.39,52.64H66.87l-6.33-15.57Zm-10.32,23-9.66-23.77H74.66Zm32.12,30.64,10.2,25.1-4.94,12.31h-20l-15.2-37.41Zm4.86,38.41-9.55,23.77-9.66-23.77Zm-9.52,26.37L114,290.76H84L77.68,275.2Zm-10.32,23-9.66-23.78H91.8Zm16.69,69,10,24.61H89.33l-10-24.61Zm-.08,50.72-4.58,11.4h0l-.36.9h-20L58.7,355.78h30Zm-9.13-25.11h19.21l-9.55,23.77ZM100,330.17h19.21l-9.55,23.77Zm11.81,21.12L120,330.94l6.19,15.24h0l15.2,37.41H121.78l-11.53-28.38Zm15.44-5.11h30l10.2,25.1-4.94,12.31h-20Zm31,0h19.21L168,370Zm10.29-25.61H187.8l-9.55,23.77Zm20,.77,5.61,13.81.58,1.42L210,374H190.35l-11.53-28.37Zm7.27,15.23h30L236,361.68,231.06,374H211Zm51,.77L268.24,390h-30L232,374.42Zm12.47,28h19.62l10,24.61H269.32ZM288.94,391l-9.55,23.77L269.73,391ZM280,365.38h19.2l-9.55,23.77Zm20,.77,6.19,15.23h0l15.21,37.41H301.77l-11.53-28.37Zm.54-1.33,3.25-8.09,11.64-29,21.39,52.64H306.86Zm27.36-9h19.62l10,24.6H337.89Zm29.62,25.6L354.06,390l-6.1,15.2-9.66-23.78Zm-8.92-25.6h19.2l-9.55,23.77Zm20,.77L390,409.19H370.34l-11.53-28.37Zm3.43,5.79-2.89-7.13,3.15-7.85L384,318.14l21.39,52.64H375.43Zm24.47-16.16h19.62l10,24.6H406.46Zm29.62,25.6-9.55,23.77-9.66-23.77Zm-8.93-25.6h19.21L426.81,370Zm20,.77,6.19,15.23h0l15.2,37.41H438.91l-11.53-28.37Zm7.27,15.23h30l10.2,25.11-4.94,12.3h-20Zm31,0h19.21L485.1,386Zm10.28-25.6h19.21l-9.55,23.77Zm20,.76,6.07,14.93h0L527.09,390H507.48L496,361.61ZM513,352.58h30l10.2,25.11L548.19,390h-20Zm31,0h19.21L555.84,371l-2.17,5.4ZM554.29,327H573.5L564,350.74Zm20,.77,6.07,14.92h0l15.33,37.72H576.05L564.52,352ZM581.54,343h30l10.2,25.1-4.94,12.3h-20Zm31,0h19.21l-9.55,23.77Zm10.28-25.61h19.21l-9.55,23.77Zm20,.77,3.22,7.93,18.17,44.71H644.62l-11.53-28.37Zm7.27,15.23h30l10.2,25.11-4.94,12.3h-20Zm51,.77,21.4,52.65h-30l-.67-1.66-5.66-13.91Zm12.48,28h19.61l10,24.61H723.6Zm29.61,25.61-9.55,23.77L724,387.79Zm-8.92-25.61H753.5L744,386Zm20,.77,6.06,14.92h0l15.33,37.72H756.05l-11.53-28.37Zm.53-1.34,14.89-37.07,21.4,52.64h-30Zm27.37-9h19.61l10,24.6H792.17Zm29.61,25.6L802.23,402l-9.66-23.77Zm-8.92-25.6h19.21l-2,5-7.55,18.8Zm20,.77,3.22,7.92L844.23,406H824.61l-11.52-28.37Zm.53-1.34,14.89-37.07,21.4,52.64h-30Zm27.37-9h19.61l10,24.6H860.73Zm29.61,25.6-9.55,23.77-9.66-23.77ZM871.43,343h19.21l-9.55,23.77Zm10.4,24.6,9.57-23.84,6.07,14.93h0l15.33,37.72H893.18L881.66,368l.17-.44Zm16.85-8.6h30l10.2,25.11-4.94,12.3h-20Zm31,0h19.21l-9.55,23.77ZM940,333.37h19.2l-9.54,23.77Zm20,.77L966,349.07h0l15.33,37.72H961.75l-11.53-28.38Zm7.27,15.24h30l10.2,25.1-4.94,12.31h-20Zm31,0h19.21l-9.55,23.77Zm10.29-25.61h19.2l-9.54,23.77Zm20,.77,6.07,14.92h0l15.33,37.72h-19.62l-11.53-28.37Zm7.27,15.24h30l10.2,25.1-3.12,7.78-1.82,4.52h-20Zm31,0h19.21l-9.55,23.77Zm10.29-25.61h19.2l-9.55,23.77Zm20,.77,6.07,14.92h0l15.33,37.72h-19.62l-11.53-28.37Zm7.27,15.23h30l10.2,25.11-4.94,12.3h-20Zm51,.77,21.39,52.65h-30l-2.82-7-3.5-8.62Zm12.47,28h19.61l10,24.61h-19.61Zm29.61,25.61-9.55,23.77-9.66-23.77ZM1188.56,359h19.21l-9.55,23.77Zm20,.77,6.06,14.92h0l15.33,37.72h-19.61L1198.79,384Zm.53-1.34,14.9-37.07L1245.36,374h-30Zm27-10L1224.5,320l9.75-24.28,6.07,14.93h0l.12.31h0l15.21,37.41Zm2.12-45.71-3.36-8.27,14.89-37.07L1271.07,310h-30Zm11.5-48L1240,231h19.21Zm-.74.84H1229.3l-10-24.61h19.61Zm-30-25.61-11.53-28.37.18-.44,9.57-23.83,6.07,14.92h0L1238.5,230Zm-1.24-54,14.89-37.07,21.39,52.64h-30Zm27.36-9h19.62l10,24.6H1255Zm-.4-1-11.53-28.37,9.75-24.28,3.53,8.7,17.86,44Zm-23.25-54.42h-19.61l-11.53-28.37L1200,58.88l3.54,8.7Zm-31.71-29.64L1180,58.11h19.2Zm-.73.84H1169.3l-10-24.61h19.62Zm-51.45.69h0l15.33,37.72h-19.62l-11.53-28.38.18-.43,9.57-23.84Zm-16.39,8.08-9.65-23.77h19.2Zm-.73.83h-19.62l-10-24.6h19.61Zm-54-5.53,17.86,43.94h-19.62l-11.53-28.37,9.75-24.27Zm-13.85,14.3-9.66-23.77h19.2Zm-.74.83h-19.62l-10-24.6h19.61Zm-51.45.69h0l15.33,37.72H996L984.51,112l9.75-24.27ZM984,110.69l-9.66-23.77h19.2Zm-.74.83H963.59l-10-24.6h19.61Zm-20.7,0h-30l-.49-1.19L926.23,96l13.71-34.11,1.18-3ZM930.8,81.88l-9.66-23.77h19.21Zm-.53,1.34-4.94,12.3h-20l-15.2-37.41h30Zm-26,12.3H884.62L873.09,67.15l9.75-24.27L888.9,57.8h0l.13.31h0ZM872.52,65.88l-9.66-23.77h19.21Zm-9.58,23.84-.7,1.77-9.66-23.78h19.2Zm-1.24,3.1-4.94,12.3h-20l-15.2-37.41h30ZM804,75.48l-9.66-23.77H813.5Zm-10.28,25.61L784,77.32h19.2Zm-.54,1.33-4.94,12.31h-20L753,77.32h30Zm-26,12.31H747.48L736,86.35l9.75-24.27L751.76,77h0ZM735.38,85.08l-9.66-23.77h19.21Zm-.74.84H715L705,61.31h19.61Zm-51.44.69h0l15.33,37.72H678.91L667.38,96l9.75-24.27Zm-7.59-13.84-8.8,21.92-9.66-23.77h19.21Zm-9.54,22.75H646.46l-10-24.6h19.61ZM612.1,90,630,133.93H610.34l-11.53-28.37,9.75-24.27Zm-13.86,14.3-9.66-23.77h19.21Zm-.74.83H577.89l-10-24.6h19.62Zm-51.44.69h0l15.32,37.72H541.77l-11.53-28.37.18-.43h0L540,90.89ZM538.48,92l-8.81,21.91L520,90.12h19.21Zm-9.55,22.75H509.32l-10-24.61h19.62Zm-20.69,0H478.29L472,99.16l14.89-37.08ZM476.53,85.08l-9.66-23.77h19.21ZM476,86.42l-4.95,12.3H451l-15.2-37.41h30Zm-26,12.3H430.35L418.82,70.35l9.75-24.27,1.92,4.73,4.27,10.5h0ZM418.25,69.08l-9.66-23.77H427.8ZM408,94.69,398.3,70.92h19.21ZM407.43,96l-4.95,12.3h-20l-15.2-37.4h30Zm-26,12.3H361.78L350.25,80,360,55.68l6.19,15.24h0ZM349.68,78.68,340,54.91h19.21Zm-.74.84H329.33l-10-24.61h19.61ZM297,79.09l.58,1.43,15.2,37.41H293.21L281.68,89.55l9.75-24.27Zm-15.93,9.2-9.66-23.78h19.21Zm-.74.83H260.76l-10-24.61h19.61Zm-51.32,1h0l15.2,37.41H224.64L213.11,99.16l9.75-24.27Zm-16.51,7.77-9.66-23.77h19.21Zm-.74.83H192.19l-10-24.6H201.8Zm-51.9-.42.58,1.42,15.2,37.41H156.07l-11.53-28.37,9.75-24.27ZM144,107.49l-9.66-23.77h19.21Zm-.74.83H123.62l-10-24.6h19.61Zm-20.69,0h-30l-2.14-5.27-4.18-10.3,14.89-37.07ZM90.83,78.68,81.17,54.91h19.21ZM90.29,80l-4.94,12.3h-20L50.13,54.91h30ZM64.66,93.32l10,24.61H55.05l-10-24.61ZM64.58,144l-4.94,12.3h-20l-15.2-37.4h30Zm-5.35,13.3-9.54,23.78L40,157.33Zm.77.77,6.2,15.24h0l15.2,37.41H61.78L50.25,182.38Zm21.8,53.65,10,24.6H72.19l-10-24.6Zm-.08,50.71-4.94,12.3h-20l-15.2-37.41h30ZM66.09,300.37H46.47l-10-24.61H56.09Zm0,1-9.55,23.77-9.66-23.77Zm.77.77,21.39,52.64h-30l-.17-.42L52,339.21Zm6.37,92.05,10,24.6H63.61l-10-24.6Zm10,25.6-.14.34-9.41,23.44L64,419.79Zm-8.92-25.6h19.2L84,418Zm20,.77L97,401.72l3.45,8.47h0l15.2,37.41H96.06L84.53,419.23Zm.54-1.34,8.05-20.05,6.84-17,21.39,52.64H101.15Zm27.36-9H141.8l10,24.6H132.18Zm29.62,25.6L142.25,434l-9.66-23.77Zm-8.92-25.6h19.2l-9.54,23.77Zm20,.76L169,400.59h0L184.25,438H164.63L153.1,409.63Zm.54-1.33L178.28,347l21.39,52.64H169.72Zm27.36-9h19.62l10,24.61H200.75Zm29.62,25.61-9.55,23.77-9.66-23.77ZM211.45,375h19.2l-9.55,23.77Zm20,.77,3.3,8.1,2.89,7.14h0l15.21,37.41H233.2L221.67,400ZM238.69,391h30l10.2,25.1-4.94,12.31h-20Zm51,.77L311.1,444.4h-30l-6.33-15.57Zm12.47,28h19.61l10,24.61H312.18Zm5.08-38.41h30l10.2,25.11-4.94,12.3h-20Zm39.37,29.76,11.65-29,21.39,52.65h-30l-6.33-15.57Zm24.12-.95h19.61l10,24.61H380.75Zm5.08-38.41h30L416,396.89l-4.94,12.3H391Zm51,.77,21.39,52.64h-30l-3.43-8.44-2.9-7.13Zm12.47,28h19.61l10,24.6H449.32Zm29.61,25.6L459.38,450l-9.66-23.78ZM460,400.59h19.21l-9.55,23.77Zm20,.77,6.06,14.92h0L501.38,454H481.77l-11.53-28.37Zm.53-1.34L495.42,363l21.39,52.64h-30Zm27.37-9H527.5l10,24.6H517.89Zm29.61,25.6L528,440.36l-9.66-23.77ZM528.58,391h19.21l-9.55,23.77Zm20,.77,6.06,14.92h0L570,444.4H550.34L538.81,416Zm.53-1.34L564,353.35,585.38,406h-30Zm27.37-9h19.61l10,24.61H586.46ZM606.07,407l-4.33,10.78-5.22,13L586.86,407Zm-8.92-25.61h19.21l-9.55,23.77Zm20,.77,6.06,14.93h0l15.33,37.72H618.91l-11.53-28.38Zm.53-1.33,14.9-37.07L654,396.39H624Zm27.37-9h19.61l10,24.61H655Zm29.61,25.61-9.55,23.77-9.66-23.77Zm-8.92-25.61h19.21l-9.55,23.77Zm20,.77,6.06,14.92h0l15.33,37.73H687.48L676,396.82ZM693,387.79h29.95l10.2,25.1-4.94,12.31h-20Zm47.1,10.5,3.91-9.73,21.39,52.64h-30l-.67-1.66-5.65-13.91Zm16.38,18.3h19.61l10,24.61H766.45Zm5.09-38.41h30l10.2,25.11-4.94,12.3h-20Zm51,.77,21.39,52.65H804L797.66,416ZM825,407h19.61l10,24.61H835Zm5.08-38.41h30l10.2,25.11L865.32,406h-20Zm51,.77L902.51,422h-30l-6.32-15.57Zm12.47,28H913.2l10,24.6H903.59ZM923.2,423l-9.55,23.77L904,423Zm-8.92-25.6h19.21l-9.55,23.77Zm10.4,24.6,9.58-23.83,6.06,14.92h0l15.33,37.72H936l-11.53-28.37Zm10.12-25.17,14.89-37.07,21.39,52.64h-30Zm27.36-9h19.61l10,24.6H972.16Zm29.61,25.6-9.55,23.77-9.65-23.77Zm-8.92-25.6h19.21l-9.55,23.77Zm20,.77,6.06,14.92,15.33,37.72h-19.61l-11.53-28.37Zm.54-1.34,7.81-19.44,7.08-17.63,21.39,52.64h-30Zm27.36-9h19.61l10,24.61h-19.61Zm29.61,25.61-9.55,23.77-9.66-23.77Zm-8.92-25.61h19.21L1061.08,402Zm20,.77,6.06,14.92h0l15.33,37.73h-19.61l-11.53-28.38Zm.54-1.33,14.89-37.08,21.39,52.65h-30Zm27.36-9h19.61l10,24.61H1109.3Zm29.61,25.61L1119.36,418l-9.66-23.77ZM1120,368.58h19.21l-9.55,23.77Zm20,.77,6.06,14.92h0l.13.32h0l15.2,37.4h-19.61l-11.53-28.37Zm7.27,15.24h30l10.21,25.1-5,12.3h-20Zm51,.77L1219.64,438h-30l-2.83-7-3.5-8.61Zm12.47,28h19.62l10,24.61h-19.61Zm5.09-38.41h30L1256,400.09l-3.83,9.52-1.11,2.78h-20Zm51-1.83-9.66-23.77h19.21Zm10-24.77h-20L1241.52,311h30l10.2,25.11Zm5.48-13.64L1272.56,311h19.21Zm9.54-24.77h-19.61l-10-24.61h19.62ZM1266,246.64h0l15.33,37.72h-19.61L1250.22,256l.17-.43,9.58-23.84ZM1259.6,230h-20l-15.2-37.41h30l10.2,25.11Zm5.48-13.64-9.66-23.77h19.21Zm10.28-25.6-9.66-23.77h19.21Zm14.9-37.07-5,12.3h-20l-15.2-37.41h30Zm-10.61-26.11h-30L1243.36,112l14.9-37.08Zm-31.08-79h19.2l-.16.41-9.39,23.36Zm26,15.69h0l15.32,37.72h-19.61l-11.53-28.37.18-.43h0l9.57-23.84Zm8.59-54.1-9.55,23.77L1264,10.1Zm-50.24,0h30l10.21,25.11-4.95,12.3h-20Zm14.53,38.41,10,24.61h-19.61l-10-24.61Zm-32.09-28,21.39,52.65h-30l-6.33-15.57Zm-.77-.77-9.55,23.78-9.66-23.78Zm-20.29,0,10.21,25.11-5,12.3h-20l-15.2-37.41ZM1157.12,4.47l3.53,8.7,17.86,43.94H1158.9l-11.53-28.37Zm-.77-.77-9.55,23.77L1137.14,3.7Zm-39.9,0h19.61l10,24.61h-19.61Zm9.33,25.61,10.2,25.1L1131,66.72h-20l-15.2-37.41Zm-37.23-15.24L1094.61,29h0l15.33,37.73h-19.61L1078.8,38.34l.17-.43Zm-.77-.77-9.55,23.77-9.66-23.77Zm-39.9,0h19.61l10,24.61h-19.61Zm9.33,25.61L1067.41,64l-4.94,12.3h-20l-15.2-37.41ZM1020,23.67l3.53,8.7,17.86,43.95h-19.61L1010.23,48Zm-.77-.76-9.55,23.77L1000,22.91Zm-39.9,0h19.61l10,24.6H989.31Zm9.33,25.6,10.2,25.11-4.94,12.3h-20l-15.2-37.41ZM951.41,33.28l6.06,14.92h0L972.8,85.92H953.19L941.66,57.55Zm-.77-.77-9.55,23.77-9.66-23.77Zm-20.29,0,10,24.6H920.74l-10-24.6Zm-32.08-28,21.39,52.64h-30l-3-7.3-3.36-8.27Zm-.77-.77L888,27.47,878.29,3.7Zm-50.25,0h30l10.2,25.11-4.94,12.3h-20Zm14.53,38.41,10,24.6H852.17l-10-24.6Zm-32.08-28,21.39,52.64h-30l-6.32-15.56Zm-.77-.77-8.84,22-.71,1.76L809.72,13.3Zm-50.24,0h29.95l10.2,25.11-4.94,12.3h-20Zm14.52,38.41,10,24.61H783.6l-10-24.61Zm-32.08-28,21.39,52.65h-30l-.48-1.19-5.84-14.38Zm-.77-.76-9.55,23.77-9.66-23.77Zm-20.29,0L750.27,48l-4.94,12.3h-20l-15.2-37.4ZM702.85,7.67l6.06,14.92h0l15.33,37.72H704.63L693.1,31.94Zm-.77-.77-9.55,23.77L682.87,6.9Zm-39.9,0h19.61l10,24.61H672.18Zm9.32,25.61,10.2,25.1-4.94,12.31h-20l-15.2-37.41ZM634.28,17.27l6.06,14.92h0l15.33,37.73H636.06L624.53,41.54Zm-.77-.77-.75,1.86L624,40.27,614.3,16.5Zm-39.9,0h19.61l10,24.61H603.61Zm9.32,25.61,10.2,25.11-4.94,12.3h-20L573,42.11ZM565.71,26.87l6.06,14.93h0L587.1,79.52H567.49L556,51.15Zm-.77-.76-9.55,23.77-9.66-23.77Zm-39.9,0h19.61l10,24.6H535Zm9.32,25.6,10.21,25.11-5,12.3h-20l-15.2-37.41ZM497.14,36.48,503.2,51.4h0l15.33,37.72H498.92L487.39,60.75l.17-.44h0Zm-.77-.77-.75,1.86-8.8,21.91-9.66-23.77Zm-20.29,0,10,24.6H466.47l-10-24.6ZM444,7.67l21.39,52.64h-30L429.1,44.74Zm-.77-.77-9.55,23.77L424,6.9ZM393,6.9h30L433.14,32l-4.94,12.3h-20Zm14.53,38.41,10,24.61H397.9l-10-24.61Zm-32.08-28,21.39,52.65h-30l-6.33-15.57,8.56-21.29Zm-.77-.77-9.55,23.78L355.45,16.5Zm-20.29,0,10.2,25.11-4.94,12.3h-20L324.41,16.5Zm-31,0h0l15.21,37.41H318.92L307.39,25.54l9.75-24.27Zm-7-16-9.55,23.77L297.16.5Zm-39.9,0h19.62l10,24.61H286.47Zm9.33,25.61L296,51.21l-4.94,12.3H271l-15.2-37.4ZM248.57,10.87l5.61,13.81.58,1.43L270,63.51H250.35L238.82,35.14Zm-.77-.77-9.55,23.77L228.6,10.1Zm-39.9,0h19.62l10,24.61H217.9Zm9.33,25.61,10.2,25.1-4.94,12.31h-20l-15.2-37.41ZM180,20.47l6.19,15.24h0l15.2,37.41H181.78L170.25,44.74Zm-.77-.77-9.55,23.78L160,19.7Zm-39.9,0H159l10,24.61H149.33Zm9.33,25.61,10.2,25.11-4.94,12.3h-20L118.7,45.31ZM111.43,30.08l6.19,15.23h0l15.2,37.41H113.21L101.68,54.35Zm-.77-.77-9.54,23.77L91.46,29.31Zm-20.28,0,10,24.6H80.76l-10-24.6Zm-10.7,24.6h-30l-2.14-5.27L43.4,38.34,58.29,1.27ZM57.52.5,48,24.27,38.31.5ZM7.28.5h30l10.2,25.11L42.5,37.91h-20ZM2.2,38.91H21.81l10,24.6H12.19Zm10.4,25.6H31.81L22.26,88.29Zm20,.77L54,117.93H24l-6.32-15.57ZM7.4,128l9.75-24.27,6.19,15.24h0l15.2,37.4H18.93Zm11.94,29.37H39l10,24.61H29.33Zm10.4,25.61H49L39.4,206.71Zm20,.77,21.39,52.64h-30l-6.32-15.57ZM34.29,222.12,37,228.79l3.48,8.56h0l15.2,37.41H36.07L24.54,246.39Zm-20-.77H33.52L24,245.12ZM4,247H23.23l-9.55,23.77ZM9.11,284.8l4.67-11.62L24,247.72l21.39,52.65H15.44Zm6.73,16.57h30L56,326.47l-4.94,12.31H31Zm-5.08,38.41H30.37l10,24.6H20.76Zm10.4,25.6H40.37l-9.55,23.77Zm20,.77,21.39,52.64H32.58l-6.33-15.57ZM25.71,404.56l6.2,15.23h0l15.2,37.41H27.49L16,428.83Zm-20-.77h19.2L15.4,427.56Zm1.12,79-5-12.37-1.3-3.2,14.89-37.08,21.39,52.65Zm31,0-10-24.61H47.51l10,24.61ZM58.25,482,48.59,458.2H67.8Zm10-24.77h-20L33,419.79h30l10.2,25.11Zm7.23,16-6.32-15.57,3.24-8.09,11.65-29,21.39,52.65Zm31,0-10-24.61h19.61l10,24.61Zm20.35-.84-9.66-23.77h19.21Zm10.31-25.67h0l-.36.9h-20l-15.2-37.41h30l10.2,25.11ZM144,463.6,137.68,448l5.86-14.59,9-22.48L174,463.6Zm31,0L165,439h19.61l10,24.6Zm20.35-.83L185.73,439h19.21Zm10-24.77h-20l-15.2-37.41h30l10.2,25.11Zm7.23,16-6.32-15.57,14.89-37.07L242.53,454Zm21-24.6h19.61l10,24.6H243.61Zm20.06,49.37L244,455h19.21ZM264,453.17,254.3,429.4h19.21Zm12.1,29.64-11.53-28.37,9.75-24.28,3.29,8.11,2.9,7.13h0l15.2,37.41Zm40.71,0h-20l-15.2-37.41H311.5l10.21,25.11Zm5.47-13.64-9.66-23.77h19.21Zm10.29-25.61-9.66-23.77h19.21Zm12.1,29.65L333.1,444.83l9.75-24.27L349,435.8h0l15.2,37.41Zm40.7,0h-20l-15.2-37.41h29.95l10.21,25.1Zm5.48-13.64-9.66-23.77h19.21ZM401.1,434l-9.66-23.77h19.21Zm12.1,29.64-11.53-28.37L411.42,411l21.39,52.64Zm40.7,0h-20l-15.2-37.41h29.95l10.21,25.11Zm7.24,16-3.44-8.45L454.81,464,469.7,427l21.39,52.65Zm31,0-10-24.61h19.61l10,24.61Zm20.35-.84L502.86,455h19.21Zm10-24.77h-20l-15.2-37.41h30l10.21,25.11Zm7.23,16-6.32-15.57,14.89-37.07L559.66,470Zm31,0-10-24.6h19.61l10,24.6Zm20.35-.83-9.66-23.77h19.21ZM591,444.4H571L555.83,407h29.95L596,432.1Zm7.23,16L592,444.83l14.89-37.07,21.39,52.64Zm31,0-10-24.6h19.61l10,24.6Zm20.35-.83L640,435.8h19.21Zm10-24.77h-20l-15.2-37.41h30l10.2,25.11Zm7.23,16-6.32-15.57,14.89-37.07L696.8,450.8Zm21-24.6h19.61l10,24.6H697.88Zm22.81,42.53L708,475.57l-9.66-23.77H717.5ZM718.23,450l-9.66-23.77h19.21Zm12.1,29.64L718.8,451.23,728.55,427l6.06,14.93h0l15.33,37.72Zm40.71,0H751l-15.2-37.41h30L776,467.31ZM776.52,466l-9.66-23.77h19.2Zm10.28-25.61-9.66-23.77h19.21ZM798.9,470l-11.53-28.37,9.75-24.27,6.07,14.92h0L818.51,470Zm40.71,0h-20l-15.2-37.4h30l10.2,25.1Zm5.48-13.63-9.66-23.77h19.2Zm10.28-25.61L845.71,407h19.21Zm12.1,29.64L855.94,432l9.75-24.27,5.22,12.84,16.17,39.8Zm40.71,0h-20L873,423h30l10.2,25.11Zm7.23,16-6.33-15.57L924,423.76l21.4,52.65Zm31,0-10-24.61h19.61l10,24.61Zm20.36-.84-9.66-23.77h19.2Zm10-24.77h-20l-15.2-37.41h30l10.2,25.11Zm7.23,16-6.33-15.57,14.89-37.07,21.39,52.64Zm31,0-10-24.6h19.62l10,24.6Zm20.36-.83-9.66-23.77h19.2Zm10-24.77h-20l-15.2-37.41h30l10.2,25.11Zm7.23,16-6.33-15.57,6.9-17.17,8-19.9,21.39,52.64Zm21-24.6h19.61l10,24.6h-19.62ZM1093.65,482,1084,458.2h19.21Zm10.29-25.6-9.66-23.77h19.2Zm10-24.77h-20l-15.2-37.41h30l10.2,25.1-3.13,7.78Zm7.23,16L1114.79,432,1129.68,395l21.39,52.64Zm21-24.61h19.62l10,24.61h-19.62Zm20.07,49.38-9.66-23.77h19.21Zm10.28-25.61L1162.85,423h19.2Zm12.1,29.65L1173.07,448l9.75-24.27,6.07,14.93h0l.12.31,15.21,37.41Zm40.71,0h-20L1190.09,439h30l10.2,25.1Zm5.48-13.64L1221.13,439h19.21Zm10.28-25.61-9.66-23.77h19.21Zm12.1,29.64-11.53-28.37,9.75-24.27,6.07,14.92h0l15.32,37.72Z" transform="translate(0)"/></svg>