<svg xmlns="http://www.w3.org/2000/svg" xmlns:xlink="http://www.w3.org/1999/xlink" width="496.22" height="155.07" viewBox="0 0 496.22 155.07" preserveAspectRatio="xMidYMid meet"><title>Triangles</title><defs><clipPath id="a"><rect y="516.22" width="496.22" height="434.19" fill="none"/></clipPath><clipPath id="b"><rect width="496.22" height="155.07" fill="none"/></clipPath></defs><g clip-path="url(#a)"><polygon points="483.74 92.83 514.78 92.83 499.17 54.44 483.74 92.83" fill="#908e8f" opacity="0.5"/><polygon points="460.61 150.36 476.22 188.74 522.75 188.74 499.35 131.21 468.31 131.21 460.61 150.36" fill="#fdfdfd" opacity="0"/><polygon points="468.31 131.21 499.35 131.21 483.74 92.83 468.31 131.21" fill="#dcdadb" opacity="0.4"/><polygon points="483.74 92.83 499.35 131.21 530.4 131.21 514.78 92.83 483.74 92.83" fill="#908e8f" opacity="0.5"/><polygon points="445.18 188.74 476.22 188.74 460.61 150.36 445.18 188.74" fill="#908e8f" opacity="0.5"/><polygon points="445.18 188.74 476.22 188.74 460.61 150.36 445.18 188.74" fill="#908e8f" opacity="0.5"/><polygon points="506.87 35.29 497.06 11.17 450.53 11.17 483.74 92.83 506.87 35.29" fill="#fff" opacity="0.4"/><polygon points="434.92 -27.21 450.53 11.17 497.06 11.17 473.66 -46.37 442.62 -46.37 434.92 -27.21" fill="#fdfdfd" opacity="0"/><polygon points="506.88 35.29 522.31 -3.09 504.7 -46.37 473.66 -46.37 506.88 35.29" fill="#22739d"/><polygon points="419.49 11.17 450.53 11.17 434.92 -27.21 419.49 11.17" fill="#908e8f" opacity="0.5"/><polygon points="468.31 131.21 458.5 107.09 411.97 107.09 445.18 188.74 468.31 131.21" fill="#fff" opacity="0.4"/><polygon points="396.35 68.7 411.97 107.09 458.5 107.09 435.1 49.55 404.06 49.55 396.35 68.7" fill="#fdfdfd" opacity="0"/><polygon points="404.06 49.55 435.1 49.55 419.49 11.17 404.06 49.55" fill="#dcdadb" opacity="0.4"/><polygon points="468.31 131.21 483.74 92.83 466.14 49.55 435.1 49.55 468.31 131.21" fill="#22739d"/><polygon points="419.49 11.17 435.1 49.55 466.14 49.55 450.53 11.17 419.49 11.17" fill="#908e8f" opacity="0.5"/><polygon points="380.92 107.09 411.97 107.09 396.36 68.7 380.92 107.09" fill="#908e8f" opacity="0.5"/><polygon points="357.79 164.62 373.4 203 419.94 203 396.53 145.47 365.49 145.47 357.79 164.62" fill="#fdfdfd" opacity="0"/><polygon points="365.49 145.47 396.53 145.47 380.92 107.09 365.49 145.47" fill="#dcdadb" opacity="0.4"/><polygon points="429.75 227.12 445.18 188.74 427.58 145.47 396.53 145.47 429.75 227.12" fill="#22739d"/><polygon points="380.92 107.09 396.53 145.47 427.58 145.47 411.97 107.09 380.92 107.09" fill="#908e8f" opacity="0.5"/><polygon points="442.62 -46.37 432.81 -70.48 386.27 -70.48 419.49 11.17 442.62 -46.37" fill="#fff" opacity="0.4"/><polygon points="442.62 -46.37 432.81 -70.48 386.27 -70.48 419.49 11.17 442.62 -46.37" fill="#fff" opacity="0.4"/><polygon points="404.06 49.55 394.25 25.43 347.71 25.43 380.92 107.09 404.06 49.55" fill="#fff" opacity="0.4"/><polygon points="332.1 -12.95 347.71 25.43 394.25 25.43 370.84 -32.1 339.8 -32.1 332.1 -12.95" fill="#fdfdfd" opacity="0"/><polygon points="404.06 49.55 419.49 11.17 401.89 -32.1 370.84 -32.1 404.06 49.55" fill="#22739d"/><polygon points="316.67 25.43 347.71 25.43 332.1 -12.95 316.67 25.43" fill="#908e8f" opacity="0.5"/><polygon points="365.49 145.47 355.68 121.35 309.15 121.35 342.36 203 365.49 145.47" fill="#fff" opacity="0.4"/><polygon points="293.54 82.97 309.15 121.35 355.68 121.35 332.28 63.81 301.24 63.81 293.54 82.97" fill="#fdfdfd" opacity="0"/><polygon points="301.24 63.81 332.28 63.81 316.67 25.43 301.24 63.81" fill="#dcdadb" opacity="0.4"/><polygon points="365.49 145.47 380.92 107.09 363.32 63.81 332.28 63.81 365.49 145.47" fill="#22739d"/><polygon points="316.67 25.43 332.28 63.81 363.32 63.81 347.71 25.43 316.67 25.43" fill="#908e8f" opacity="0.5"/><polygon points="278.1 121.35 309.15 121.35 293.54 82.97 278.1 121.35" fill="#908e8f" opacity="0.5"/><polygon points="262.67 159.73 293.71 159.73 278.1 121.35 262.67 159.73" fill="#dcdadb" opacity="0.4"/><polygon points="278.1 121.35 293.71 159.73 324.76 159.73 309.15 121.35 278.1 121.35" fill="#908e8f" opacity="0.5"/><polygon points="339.8 -32.1 329.99 -56.22 283.46 -56.22 316.67 25.43 339.8 -32.1" fill="#fff" opacity="0.4"/><polygon points="339.8 -32.1 329.99 -56.22 283.46 -56.22 316.67 25.43 339.8 -32.1" fill="#fff" opacity="0.4"/><polygon points="301.24 63.81 291.43 39.69 244.89 39.69 278.1 121.35 301.24 63.81" fill="#fff" opacity="0.4"/><polygon points="229.28 1.31 244.89 39.69 291.43 39.69 268.02 -17.84 236.98 -17.84 229.28 1.31" fill="#fdfdfd" opacity="0"/><polygon points="301.24 63.81 316.67 25.43 299.07 -17.84 268.02 -17.84 301.24 63.81" fill="#22739d"/><polygon points="213.85 39.69 244.89 39.69 229.28 1.31 213.85 39.69" fill="#908e8f" opacity="0.5"/><polygon points="262.67 159.73 252.86 135.61 206.33 135.61 239.54 217.26 262.67 159.73" fill="#fff" opacity="0.4"/><polygon points="190.72 97.23 206.33 135.61 252.86 135.61 229.46 78.07 198.42 78.07 190.72 97.23" fill="#fdfdfd" opacity="0"/><polygon points="198.42 78.07 229.46 78.07 213.85 39.69 198.42 78.07" fill="#dcdadb" opacity="0.4"/><polygon points="262.67 159.73 278.1 121.35 260.5 78.07 229.46 78.07 262.67 159.73" fill="#22739d"/><polygon points="213.85 39.69 229.46 78.07 260.5 78.07 244.89 39.69 213.85 39.69" fill="#908e8f" opacity="0.5"/><polygon points="175.28 135.61 206.33 135.61 190.72 97.23 175.28 135.61" fill="#908e8f" opacity="0.5"/><polygon points="159.85 173.99 190.9 173.99 175.28 135.61 159.85 173.99" fill="#dcdadb" opacity="0.4"/><polygon points="175.28 135.61 190.9 173.99 221.94 173.99 206.33 135.61 175.28 135.61" fill="#908e8f" opacity="0.5"/><polygon points="236.98 -17.84 227.17 -41.96 180.64 -41.96 213.85 39.69 236.98 -17.84" fill="#fff" opacity="0.4"/><polygon points="236.98 -17.84 227.17 -41.96 180.64 -41.96 213.85 39.69 236.98 -17.84" fill="#fff" opacity="0.4"/><polygon points="198.42 78.07 188.61 53.95 142.07 53.95 175.28 135.61 198.42 78.07" fill="#fff" opacity="0.4"/><polygon points="126.46 15.57 142.07 53.95 188.61 53.95 165.21 -3.58 134.16 -3.58 126.46 15.57" fill="#fdfdfd" opacity="0"/><polygon points="198.42 78.07 213.85 39.69 196.25 -3.58 165.21 -3.58 198.42 78.07" fill="#22739d"/><polygon points="111.03 53.95 142.07 53.95 126.46 15.57 111.03 53.95" fill="#908e8f" opacity="0.5"/><polygon points="159.85 173.99 150.04 149.87 103.51 149.87 136.72 231.53 159.85 173.99" fill="#fff" opacity="0.4"/><polygon points="87.9 111.49 103.51 149.87 150.04 149.87 126.64 92.33 95.6 92.33 87.9 111.49" fill="#fdfdfd" opacity="0"/><polygon points="95.6 92.33 126.64 92.33 111.03 53.95 95.6 92.33" fill="#dcdadb" opacity="0.4"/><polygon points="159.85 173.99 175.28 135.61 157.68 92.33 126.64 92.33 159.85 173.99" fill="#22739d"/><polygon points="111.03 53.95 126.64 92.33 157.68 92.33 142.07 53.95 111.03 53.95" fill="#908e8f" opacity="0.5"/><polygon points="72.47 149.87 103.51 149.87 87.9 111.49 72.47 149.87" fill="#908e8f" opacity="0.5"/><polygon points="57.03 188.25 88.08 188.25 72.47 149.87 57.03 188.25" fill="#dcdadb" opacity="0.4"/><polygon points="72.47 149.87 88.08 188.25 119.12 188.25 103.51 149.87 72.47 149.87" fill="#908e8f" opacity="0.5"/><polygon points="134.16 -3.58 124.35 -27.7 77.82 -27.7 111.03 53.95 134.16 -3.58" fill="#fff" opacity="0.4"/><polygon points="134.16 -3.58 124.35 -27.7 77.82 -27.7 111.03 53.95 134.16 -3.58" fill="#fff" opacity="0.4"/><polygon points="95.6 92.33 85.79 68.22 39.25 68.22 72.47 149.87 95.6 92.33" fill="#fff" opacity="0.4"/><polygon points="23.64 29.83 39.25 68.22 85.79 68.22 62.39 10.68 31.34 10.68 23.64 29.83" fill="#fdfdfd" opacity="0"/><polygon points="31.34 10.68 62.39 10.68 46.77 -27.7 31.34 10.68" fill="#dcdadb" opacity="0.4"/><polygon points="95.6 92.33 111.03 53.95 93.43 10.68 62.39 10.68 95.6 92.33" fill="#22739d"/><polygon points="46.77 -27.7 62.39 10.68 93.43 10.68 77.82 -27.7 46.77 -27.7" fill="#908e8f" opacity="0.5"/><polygon points="8.21 68.22 39.25 68.22 23.64 29.83 8.21 68.22" fill="#908e8f" opacity="0.5"/><polygon points="-7.22 106.6 23.82 106.6 8.21 68.22 -7.22 106.6" fill="#dcdadb" opacity="0.4"/><polygon points="57.03 188.25 72.47 149.87 54.87 106.6 23.82 106.6 57.03 188.25" fill="#22739d"/><polygon points="8.21 68.22 23.82 106.6 54.87 106.6 39.25 68.22 8.21 68.22" fill="#908e8f" opacity="0.5"/><polygon points="31.34 10.68 21.53 -13.44 -25 -13.44 8.21 68.22 31.34 10.68" fill="#fff" opacity="0.4"/><polygon points="31.34 10.68 46.78 -27.7 29.18 -70.97 -1.87 -70.97 31.34 10.68" fill="#22739d"/><polygon points="31.34 10.68 21.53 -13.44 -25 -13.44 8.21 68.22 31.34 10.68" fill="#fff" opacity="0.4"/><polygon points="31.34 10.68 46.78 -27.7 29.18 -70.97 -1.87 -70.97 31.34 10.68" fill="#22739d"/><polygon points="-7.22 106.6 8.21 68.22 -9.39 24.94 -40.43 24.94 -7.22 106.6" fill="#22739d"/></g><g clip-path="url(#b)"><polygon points="3.38 102.25 -17.31 102.25 -6.91 127.83 3.38 102.25" fill="#908e8f" opacity="0.5"/><polygon points="-29.17 22.22 -22.63 38.3 8.4 38.3 -13.75 -16.13 -29.17 22.22" fill="#fff" opacity="0.4"/><polygon points="18.8 63.89 8.4 38.3 -22.63 38.3 -7.03 76.66 13.67 76.66 18.8 63.89" fill="#fdfdfd" opacity="0"/><polygon points="13.67 76.66 -7.03 76.66 3.38 102.25 13.67 76.66" fill="#dcdadb" opacity="0.4"/><polygon points="3.38 102.25 -7.03 76.66 -27.72 76.66 -17.31 102.25 3.38 102.25" fill="#908e8f" opacity="0.5"/><polygon points="29.09 38.3 8.4 38.3 18.8 63.89 29.09 38.3" fill="#908e8f" opacity="0.5"/><polygon points="39.38 12.72 18.68 12.72 29.09 38.3 39.38 12.72" fill="#dcdadb" opacity="0.4"/><polygon points="-3.46 -41.72 -13.75 -16.13 -2.01 12.72 18.68 12.72 -3.46 -41.72" fill="#22739d"/><polygon points="29.09 38.3 18.68 12.72 -2.01 12.72 8.4 38.3 29.09 38.3" fill="#908e8f" opacity="0.5"/><polygon points="3.38 102.25 -17.31 102.25 -6.91 127.83 3.38 102.25" fill="#908e8f" opacity="0.5"/><polygon points="-29.17 22.22 -22.63 38.3 8.4 38.3 -13.75 -16.13 -29.17 22.22" fill="#fff" opacity="0.4"/><polygon points="18.8 63.89 8.4 38.3 -22.63 38.3 -7.03 76.66 13.67 76.66 18.8 63.89" fill="#fdfdfd" opacity="0"/><polygon points="13.67 76.66 -7.03 76.66 3.38 102.25 13.67 76.66" fill="#dcdadb" opacity="0.4"/><polygon points="3.38 102.25 -7.03 76.66 -27.72 76.66 -17.31 102.25 3.38 102.25" fill="#908e8f" opacity="0.5"/><polygon points="29.09 38.3 8.4 38.3 18.8 63.89 29.09 38.3" fill="#908e8f" opacity="0.5"/><polygon points="39.38 12.72 18.68 12.72 29.09 38.3 39.38 12.72" fill="#dcdadb" opacity="0.4"/><polygon points="-3.46 -41.72 -13.75 -16.13 -2.01 12.72 18.68 12.72 -3.46 -41.72" fill="#22739d"/><polygon points="29.09 38.3 18.68 12.72 -2.01 12.72 8.4 38.3 29.09 38.3" fill="#908e8f" opacity="0.5"/><polygon points="-12.04 140.6 -5.5 156.68 25.52 156.68 3.38 102.25 -12.04 140.6" fill="#fff" opacity="0.4"/><polygon points="-12.04 140.6 -22.33 166.19 -10.59 195.04 10.1 195.04 -12.04 140.6" fill="#22739d"/><polygon points="13.67 76.66 20.21 92.74 51.23 92.74 29.09 38.3 13.67 76.66" fill="#fff" opacity="0.4"/><polygon points="61.64 118.33 51.23 92.74 20.21 92.74 35.81 131.1 56.51 131.1 61.64 118.33" fill="#fdfdfd" opacity="0"/><polygon points="56.51 131.1 35.81 131.1 46.22 156.68 56.51 131.1" fill="#dcdadb" opacity="0.4"/><polygon points="13.67 76.66 3.38 102.25 15.12 131.1 35.81 131.1 13.67 76.66" fill="#22739d"/><polygon points="46.22 156.68 35.81 131.1 15.12 131.1 25.52 156.68 46.22 156.68" fill="#908e8f" opacity="0.5"/><polygon points="71.93 92.74 51.23 92.74 61.64 118.33 71.93 92.74" fill="#908e8f" opacity="0.5"/><polygon points="82.22 67.15 61.52 67.15 71.93 92.74 82.22 67.15" fill="#dcdadb" opacity="0.4"/><polygon points="39.38 12.72 29.09 38.3 40.83 67.15 61.52 67.15 39.38 12.72" fill="#22739d"/><polygon points="71.93 92.74 61.52 67.15 40.83 67.15 51.23 92.74 71.93 92.74" fill="#908e8f" opacity="0.5"/><polygon points="71.93 92.74 51.23 92.74 61.64 118.33 71.93 92.74" fill="#908e8f" opacity="0.5"/><polygon points="82.22 67.15 61.52 67.15 71.93 92.74 82.22 67.15" fill="#dcdadb" opacity="0.4"/><polygon points="39.38 12.72 29.09 38.3 40.83 67.15 61.52 67.15 39.38 12.72" fill="#22739d"/><polygon points="71.93 92.74 61.52 67.15 40.83 67.15 51.23 92.74 71.93 92.74" fill="#908e8f" opacity="0.5"/><polygon points="56.51 131.1 63.05 147.18 94.07 147.18 71.93 92.74 56.51 131.1" fill="#fff" opacity="0.4"/><polygon points="104.48 172.76 94.07 147.18 63.05 147.18 78.65 185.53 99.34 185.53 104.48 172.76" fill="#fdfdfd" opacity="0"/><polygon points="56.51 131.1 46.22 156.69 57.95 185.53 78.65 185.53 56.51 131.1" fill="#22739d"/><polygon points="114.76 147.18 94.07 147.18 104.48 172.76 114.76 147.18" fill="#908e8f" opacity="0.5"/><polygon points="125.05 121.59 104.36 121.59 114.76 147.18 125.05 121.59" fill="#dcdadb" opacity="0.4"/><polygon points="82.22 67.15 71.93 92.74 83.66 121.59 104.36 121.59 82.22 67.15" fill="#22739d"/><polygon points="114.76 147.18 104.36 121.59 83.66 121.59 94.07 147.18 114.76 147.18" fill="#908e8f" opacity="0.5"/><polygon points="99.34 185.53 105.88 201.61 136.91 201.61 114.76 147.18 99.34 185.53" fill="#fff" opacity="0.4"/><polygon points="125.05 121.59 114.76 147.18 126.5 176.03 147.19 176.03 125.05 121.59" fill="#22739d"/><polygon points="495.16 115.02 515.85 115.02 505.45 89.43 495.16 115.02" fill="#908e8f" opacity="0.5"/><polygon points="484.87 140.6 505.57 140.6 495.16 115.02 484.87 140.6" fill="#dcdadb" opacity="0.4"/><polygon points="495.16 115.02 505.57 140.6 526.26 140.6 515.85 115.02 495.16 115.02" fill="#908e8f" opacity="0.5"/><polygon points="495.16 115.02 515.85 115.02 505.45 89.43 495.16 115.02" fill="#908e8f" opacity="0.5"/><polygon points="484.87 140.6 505.57 140.6 495.16 115.02 484.87 140.6" fill="#dcdadb" opacity="0.4"/><polygon points="495.16 115.02 505.57 140.6 526.26 140.6 515.85 115.02 495.16 115.02" fill="#908e8f" opacity="0.5"/><polygon points="510.58 76.66 504.04 60.58 473.02 60.58 495.16 115.02 510.58 76.66" fill="#fff" opacity="0.4"/><polygon points="462.61 34.99 473.02 60.58 504.04 60.58 488.44 22.22 467.74 22.22 462.61 34.99" fill="#fdfdfd" opacity="0"/><polygon points="467.74 22.22 488.44 22.22 478.03 -3.36 467.74 22.22" fill="#dcdadb" opacity="0.4"/><polygon points="510.58 76.66 520.87 51.07 509.13 22.22 488.44 22.22 510.58 76.66" fill="#22739d"/><polygon points="478.03 -3.36 488.44 22.22 509.13 22.22 498.73 -3.36 478.03 -3.36" fill="#908e8f" opacity="0.5"/><polygon points="452.32 60.58 473.02 60.58 462.61 34.99 452.32 60.58" fill="#908e8f" opacity="0.5"/><polygon points="442.03 86.17 462.73 86.17 452.32 60.58 442.03 86.17" fill="#dcdadb" opacity="0.4"/><polygon points="484.87 140.6 495.16 115.02 483.43 86.17 462.73 86.17 484.87 140.6" fill="#22739d"/><polygon points="452.32 60.58 462.73 86.17 483.43 86.17 473.02 60.58 452.32 60.58" fill="#908e8f" opacity="0.5"/><polygon points="467.74 22.22 461.2 6.14 430.18 6.14 452.32 60.58 467.74 22.22" fill="#fff" opacity="0.4"/><polygon points="419.77 -19.44 430.18 6.14 461.2 6.14 445.6 -32.21 424.91 -32.21 419.77 -19.44" fill="#fdfdfd" opacity="0"/><polygon points="467.74 22.22 478.03 -3.36 466.3 -32.21 445.6 -32.21 467.74 22.22" fill="#22739d"/><polygon points="409.49 6.14 430.18 6.14 419.77 -19.44 409.49 6.14" fill="#908e8f" opacity="0.5"/><polygon points="399.2 31.73 419.89 31.73 409.49 6.14 399.2 31.73" fill="#dcdadb" opacity="0.4"/><polygon points="442.03 86.17 452.32 60.58 440.59 31.73 419.89 31.73 442.03 86.17" fill="#22739d"/><polygon points="409.49 6.14 419.89 31.73 440.59 31.73 430.18 6.14 409.49 6.14" fill="#908e8f" opacity="0.5"/><polygon points="424.91 -32.21 418.37 -48.29 387.34 -48.29 409.49 6.14 424.91 -32.21" fill="#fff" opacity="0.4"/><polygon points="424.91 -32.21 418.37 -48.29 387.34 -48.29 409.49 6.14 424.91 -32.21" fill="#fff" opacity="0.4"/><polygon points="399.2 31.73 409.49 6.14 397.75 -22.71 377.06 -22.71 399.2 31.73" fill="#22739d"/></g></svg>