<svg xmlns="http://www.w3.org/2000/svg" xmlns:xlink="http://www.w3.org/1999/xlink" width="496.22" height="279.12" viewBox="0 0 496.22 279.12" preserveAspectRatio="xMidYMid meet"><title>Triangles</title><defs><clipPath id="a"><rect width="496.22" height="279.12" fill="none"/></clipPath></defs><g clip-path="url(#a)"><polygon points="3.38 143.28 -17.31 143.28 -6.91 168.86 3.38 143.28" fill="#908e8f" opacity="0.5"/><polygon points="-29.17 63.25 -22.63 79.33 8.4 79.33 -13.75 24.89 -29.17 63.25" fill="#fff" opacity="0.4"/><polygon points="18.8 104.92 8.4 79.33 -22.63 79.33 -7.03 117.69 13.67 117.69 18.8 104.92" fill="#fdfdfd" opacity="0"/><polygon points="13.67 117.69 -7.03 117.69 3.38 143.28 13.67 117.69" fill="#dcdadb" opacity="0.4"/><polygon points="3.38 143.28 -7.03 117.69 -27.72 117.69 -17.31 143.28 3.38 143.28" fill="#908e8f" opacity="0.5"/><polygon points="29.09 79.33 8.4 79.33 18.8 104.92 29.09 79.33" fill="#908e8f" opacity="0.5"/><polygon points="39.38 53.74 18.68 53.74 29.09 79.33 39.38 53.74" fill="#dcdadb" opacity="0.4"/><polygon points="-3.46 -0.69 -13.75 24.89 -2.01 53.74 18.68 53.74 -3.46 -0.69" fill="#22739d"/><polygon points="29.09 79.33 18.68 53.74 -2.01 53.74 8.4 79.33 29.09 79.33" fill="#908e8f" opacity="0.5"/><polygon points="3.38 143.28 -17.31 143.28 -6.91 168.86 3.38 143.28" fill="#908e8f" opacity="0.5"/><polygon points="-29.17 63.25 -22.63 79.33 8.4 79.33 -13.75 24.89 -29.17 63.25" fill="#fff" opacity="0.4"/><polygon points="18.8 104.92 8.4 79.33 -22.63 79.33 -7.03 117.69 13.67 117.69 18.8 104.92" fill="#fdfdfd" opacity="0"/><polygon points="13.67 117.69 -7.03 117.69 3.38 143.28 13.67 117.69" fill="#dcdadb" opacity="0.4"/><polygon points="3.38 143.28 -7.03 117.69 -27.72 117.69 -17.31 143.28 3.38 143.28" fill="#908e8f" opacity="0.5"/><polygon points="29.09 79.33 8.4 79.33 18.8 104.92 29.09 79.33" fill="#908e8f" opacity="0.5"/><polygon points="39.38 53.74 18.68 53.74 29.09 79.33 39.38 53.74" fill="#dcdadb" opacity="0.4"/><polygon points="-3.46 -0.69 -13.75 24.89 -2.01 53.74 18.68 53.74 -3.46 -0.69" fill="#22739d"/><polygon points="29.09 79.33 18.68 53.74 -2.01 53.74 8.4 79.33 29.09 79.33" fill="#908e8f" opacity="0.5"/><polygon points="10.22 287.24 -0.19 261.66 -31.21 261.66 -15.61 300.01 5.09 300.01 10.22 287.24" fill="#fdfdfd" opacity="0"/><polygon points="20.51 261.66 -0.19 261.66 10.22 287.24 20.51 261.66" fill="#908e8f" opacity="0.5"/><polygon points="-12.04 181.63 -5.5 197.71 25.52 197.71 3.38 143.28 -12.04 181.63" fill="#fff" opacity="0.4"/><polygon points="35.93 223.3 25.52 197.71 -5.5 197.71 10.1 236.07 30.8 236.07 35.93 223.3" fill="#fdfdfd" opacity="0"/><polygon points="30.8 236.07 10.1 236.07 20.51 261.66 30.8 236.07" fill="#dcdadb" opacity="0.4"/><polygon points="-12.04 181.63 -22.33 207.22 -10.59 236.07 10.1 236.07 -12.04 181.63" fill="#22739d"/><polygon points="20.51 261.66 10.1 236.07 -10.59 236.07 -0.19 261.66 20.51 261.66" fill="#908e8f" opacity="0.5"/><polygon points="46.22 197.71 25.52 197.71 35.93 223.3 46.22 197.71" fill="#908e8f" opacity="0.5"/><polygon points="13.67 117.69 20.21 133.77 51.23 133.77 29.09 79.33 13.67 117.69" fill="#fff" opacity="0.4"/><polygon points="61.64 159.35 51.23 133.77 20.21 133.77 35.81 172.12 56.51 172.12 61.64 159.35" fill="#fdfdfd" opacity="0"/><polygon points="56.51 172.12 35.81 172.12 46.22 197.71 56.51 172.12" fill="#dcdadb" opacity="0.4"/><polygon points="13.67 117.69 3.38 143.28 15.12 172.12 35.81 172.12 13.67 117.69" fill="#22739d"/><polygon points="46.22 197.71 35.81 172.12 15.12 172.12 25.52 197.71 46.22 197.71" fill="#908e8f" opacity="0.5"/><polygon points="71.93 133.77 51.23 133.77 61.64 159.35 71.93 133.77" fill="#908e8f" opacity="0.5"/><polygon points="82.22 108.18 61.52 108.18 71.93 133.77 82.22 108.18" fill="#dcdadb" opacity="0.4"/><polygon points="39.38 53.74 29.09 79.33 40.83 108.18 61.52 108.18 39.38 53.74" fill="#22739d"/><polygon points="71.93 133.77 61.52 108.18 40.83 108.18 51.23 133.77 71.93 133.77" fill="#908e8f" opacity="0.5"/><polygon points="71.93 133.77 51.23 133.77 61.64 159.35 71.93 133.77" fill="#908e8f" opacity="0.5"/><polygon points="82.22 108.18 61.52 108.18 71.93 133.77 82.22 108.18" fill="#dcdadb" opacity="0.4"/><polygon points="39.38 53.74 29.09 79.33 40.83 108.18 61.52 108.18 39.38 53.74" fill="#22739d"/><polygon points="71.93 133.77 61.52 108.18 40.83 108.18 51.23 133.77 71.93 133.77" fill="#908e8f" opacity="0.5"/><polygon points="5.09 300.01 11.63 316.09 42.65 316.09 20.51 261.66 5.09 300.01" fill="#fff" opacity="0.4"/><polygon points="5.09 300.01 11.63 316.09 42.65 316.09 20.51 261.66 5.09 300.01" fill="#fff" opacity="0.4"/><polygon points="30.8 236.07 37.34 252.15 68.36 252.15 46.22 197.71 30.8 236.07" fill="#fff" opacity="0.4"/><polygon points="78.77 277.74 68.36 252.15 37.34 252.15 52.94 290.5 73.63 290.5 78.77 277.74" fill="#fdfdfd" opacity="0"/><polygon points="30.8 236.07 20.51 261.66 32.24 290.5 52.94 290.5 30.8 236.07" fill="#22739d"/><polygon points="89.05 252.15 68.36 252.15 78.77 277.74 89.05 252.15" fill="#908e8f" opacity="0.5"/><polygon points="56.51 172.12 63.05 188.2 94.07 188.2 71.93 133.77 56.51 172.12" fill="#fff" opacity="0.4"/><polygon points="104.48 213.79 94.07 188.2 63.05 188.2 78.65 226.56 99.34 226.56 104.48 213.79" fill="#fdfdfd" opacity="0"/><polygon points="99.34 226.56 78.65 226.56 89.05 252.15 99.34 226.56" fill="#dcdadb" opacity="0.4"/><polygon points="56.51 172.12 46.22 197.71 57.95 226.56 78.65 226.56 56.51 172.12" fill="#22739d"/><polygon points="89.05 252.15 78.65 226.56 57.95 226.56 68.36 252.15 89.05 252.15" fill="#908e8f" opacity="0.5"/><polygon points="114.76 188.2 94.07 188.2 104.48 213.79 114.76 188.2" fill="#908e8f" opacity="0.5"/><polygon points="125.05 162.62 104.36 162.62 114.76 188.2 125.05 162.62" fill="#dcdadb" opacity="0.4"/><polygon points="82.22 108.18 71.93 133.77 83.66 162.62 104.36 162.62 82.22 108.18" fill="#22739d"/><polygon points="114.76 188.2 104.36 162.62 83.66 162.62 94.07 188.2 114.76 188.2" fill="#908e8f" opacity="0.5"/><polygon points="73.63 290.5 80.17 306.58 111.2 306.58 89.05 252.15 73.63 290.5" fill="#fff" opacity="0.4"/><polygon points="73.63 290.5 80.17 306.58 111.2 306.58 89.05 252.15 73.63 290.5" fill="#fff" opacity="0.4"/><polygon points="99.34 226.56 105.88 242.64 136.91 242.64 114.76 188.2 99.34 226.56" fill="#fff" opacity="0.4"/><polygon points="147.31 268.23 136.91 242.64 105.88 242.64 121.48 281 142.18 281 147.31 268.23" fill="#fdfdfd" opacity="0"/><polygon points="99.34 226.56 89.05 252.15 100.79 281 121.48 281 99.34 226.56" fill="#22739d"/><polygon points="157.6 242.64 136.91 242.64 147.31 268.23 157.6 242.64" fill="#908e8f" opacity="0.5"/><polygon points="167.89 217.05 147.19 217.05 157.6 242.64 167.89 217.05" fill="#dcdadb" opacity="0.4"/><polygon points="125.05 162.62 114.76 188.2 126.5 217.05 147.19 217.05 125.05 162.62" fill="#22739d"/><polygon points="157.6 242.64 147.19 217.05 126.5 217.05 136.91 242.64 157.6 242.64" fill="#908e8f" opacity="0.5"/><polygon points="142.18 281 148.72 297.08 179.74 297.08 157.6 242.64 142.18 281" fill="#fff" opacity="0.4"/><polygon points="142.18 281 148.72 297.08 179.74 297.08 157.6 242.64 142.18 281" fill="#fff" opacity="0.4"/><polygon points="210.72 271.49 190.03 271.49 200.44 297.08 210.72 271.49" fill="#dcdadb" opacity="0.4"/><polygon points="167.89 217.05 157.6 242.64 169.33 271.49 190.03 271.49 167.89 217.05" fill="#22739d"/><polygon points="200.44 297.08 190.03 271.49 169.33 271.49 179.74 297.08 200.44 297.08" fill="#908e8f" opacity="0.5"/><polygon points="210.72 271.49 200.44 297.08 212.17 325.93 232.87 325.93 210.72 271.49" fill="#22739d"/><polygon points="210.72 271.49 200.44 297.08 212.17 325.93 232.87 325.93 210.72 271.49" fill="#22739d"/><polygon points="495.16 156.04 515.85 156.04 505.45 130.46 495.16 156.04" fill="#908e8f" opacity="0.5"/><polygon points="484.87 181.63 505.57 181.63 495.16 156.04 484.87 181.63" fill="#dcdadb" opacity="0.4"/><polygon points="495.16 156.04 505.57 181.63 526.26 181.63 515.85 156.04 495.16 156.04" fill="#908e8f" opacity="0.5"/><polygon points="495.16 156.04 515.85 156.04 505.45 130.46 495.16 156.04" fill="#908e8f" opacity="0.5"/><polygon points="484.87 181.63 505.57 181.63 495.16 156.04 484.87 181.63" fill="#dcdadb" opacity="0.4"/><polygon points="495.16 156.04 505.57 181.63 526.26 181.63 515.85 156.04 495.16 156.04" fill="#908e8f" opacity="0.5"/><polygon points="488.32 12.07 498.73 37.66 529.75 37.66 514.15 -0.69 493.45 -0.69 488.32 12.07" fill="#fdfdfd" opacity="0"/><polygon points="478.03 37.66 498.73 37.66 488.32 12.07 478.03 37.66" fill="#908e8f" opacity="0.5"/><polygon points="510.58 117.69 504.04 101.61 473.02 101.61 495.16 156.04 510.58 117.69" fill="#fff" opacity="0.4"/><polygon points="462.61 76.02 473.02 101.61 504.04 101.61 488.44 63.25 467.74 63.25 462.61 76.02" fill="#fdfdfd" opacity="0"/><polygon points="467.74 63.25 488.44 63.25 478.03 37.66 467.74 63.25" fill="#dcdadb" opacity="0.4"/><polygon points="510.58 117.69 520.87 92.1 509.13 63.25 488.44 63.25 510.58 117.69" fill="#22739d"/><polygon points="478.03 37.66 488.44 63.25 509.13 63.25 498.73 37.66 478.03 37.66" fill="#908e8f" opacity="0.5"/><polygon points="452.32 101.61 473.02 101.61 462.61 76.02 452.32 101.61" fill="#908e8f" opacity="0.5"/><polygon points="442.03 127.19 462.73 127.19 452.32 101.61 442.03 127.19" fill="#dcdadb" opacity="0.4"/><polygon points="484.87 181.63 495.16 156.04 483.43 127.19 462.73 127.19 484.87 181.63" fill="#22739d"/><polygon points="452.32 101.61 462.73 127.19 483.43 127.19 473.02 101.61 452.32 101.61" fill="#908e8f" opacity="0.5"/><polygon points="493.45 -0.69 486.91 -16.77 455.89 -16.77 478.03 37.66 493.45 -0.69" fill="#fff" opacity="0.4"/><polygon points="493.45 -0.69 486.91 -16.77 455.89 -16.77 478.03 37.66 493.45 -0.69" fill="#fff" opacity="0.4"/><polygon points="467.74 63.25 461.2 47.17 430.18 47.17 452.32 101.61 467.74 63.25" fill="#fff" opacity="0.4"/><polygon points="419.77 21.58 430.18 47.17 461.2 47.17 445.6 8.81 424.91 8.81 419.77 21.58" fill="#fdfdfd" opacity="0"/><polygon points="424.91 8.81 445.6 8.81 435.19 -16.77 424.91 8.81" fill="#dcdadb" opacity="0.4"/><polygon points="467.74 63.25 478.03 37.66 466.3 8.81 445.6 8.81 467.74 63.25" fill="#22739d"/><polygon points="435.19 -16.77 445.6 8.81 466.3 8.81 455.89 -16.77 435.19 -16.77" fill="#908e8f" opacity="0.5"/><polygon points="409.49 47.17 430.18 47.17 419.77 21.58 409.49 47.17" fill="#908e8f" opacity="0.5"/><polygon points="399.2 72.76 419.89 72.76 409.49 47.17 399.2 72.76" fill="#dcdadb" opacity="0.4"/><polygon points="442.03 127.19 452.32 101.61 440.59 72.76 419.89 72.76 442.03 127.19" fill="#22739d"/><polygon points="409.49 47.17 419.89 72.76 440.59 72.76 430.18 47.17 409.49 47.17" fill="#908e8f" opacity="0.5"/><polygon points="424.91 8.81 418.37 -7.27 387.34 -7.27 409.49 47.17 424.91 8.81" fill="#fff" opacity="0.4"/><polygon points="424.91 8.81 435.19 -16.77 423.46 -45.62 402.77 -45.62 424.91 8.81" fill="#22739d"/><polygon points="424.91 8.81 418.37 -7.27 387.34 -7.27 409.49 47.17 424.91 8.81" fill="#fff" opacity="0.4"/><polygon points="424.91 8.81 435.19 -16.77 423.46 -45.62 402.77 -45.62 424.91 8.81" fill="#22739d"/><polygon points="356.36 18.32 377.06 18.32 366.65 -7.27 356.36 18.32" fill="#dcdadb" opacity="0.4"/><polygon points="399.2 72.76 409.49 47.17 397.75 18.32 377.06 18.32 399.2 72.76" fill="#22739d"/><polygon points="366.65 -7.27 377.06 18.32 397.75 18.32 387.34 -7.27 366.65 -7.27" fill="#908e8f" opacity="0.5"/><polygon points="356.36 18.32 366.65 -7.27 354.92 -36.12 334.22 -36.12 356.36 18.32" fill="#22739d"/><polygon points="356.36 18.32 366.65 -7.27 354.92 -36.12 334.22 -36.12 356.36 18.32" fill="#22739d"/></g></svg>