<svg xmlns="http://www.w3.org/2000/svg" width="204.15" height="36.56" viewBox="0 0 204.15 36.56"><title>Harvey and Bernice Jones Eye Institute</title><path d="M.9,2.86H3.1V8.07h6V2.86h2.21V15.4H9.08V10.12h-6V15.4H.9Z" transform="translate(-0.9 -2.43)"/><path d="M19.74,15.4V14.24a3.81,3.81,0,0,1-3.06,1.36c-1.8,0-3.37-1-3.37-2.92v0c0-2.1,1.63-3.1,3.83-3.1a7.8,7.8,0,0,1,2.62.4V9.76c0-1.31-.83-2-2.33-2a6.57,6.57,0,0,0-2.71.59l-.59-1.73a8.05,8.05,0,0,1,3.6-.79c2.8,0,4.16,1.47,4.16,4V15.4Zm.05-4a6.24,6.24,0,0,0-2.16-.38c-1.37,0-2.17.56-2.17,1.47v0c0,.9.8,1.4,1.83,1.4,1.43,0,2.5-.81,2.5-2Z" transform="translate(-0.9 -2.43)"/><path d="M24.45,5.94h2.17V8.07A3.37,3.37,0,0,1,30,5.76v2.3h-.12c-1.9,0-3.23,1.23-3.23,3.74v3.6H24.45Z" transform="translate(-0.9 -2.43)"/><path d="M31.19,5.94h2.33l2.54,7,2.57-6.95H40.9L37,15.47h-2Z" transform="translate(-0.9 -2.43)"/><path d="M41.64,10.71v0a4.7,4.7,0,0,1,4.62-4.93c3,0,4.54,2.37,4.54,5.09,0,.2,0,.4,0,.61H43.81a2.63,2.63,0,0,0,2.72,2.4,3.4,3.4,0,0,0,2.56-1.13l1.28,1.13a4.79,4.79,0,0,1-3.87,1.78A4.72,4.72,0,0,1,41.64,10.71Zm7-.7a2.46,2.46,0,0,0-2.4-2.49A2.56,2.56,0,0,0,43.79,10Z" transform="translate(-0.9 -2.43)"/><path d="M52.1,17.75l.74-1.61a2.69,2.69,0,0,0,1.27.35c.61,0,1-.27,1.34-1.09L51.51,5.94h2.31l2.69,7,2.46-7h2.25l-3.76,9.73c-.75,1.93-1.59,2.65-3.12,2.65A4.43,4.43,0,0,1,52.1,17.75Z" transform="translate(-0.9 -2.43)"/><path d="M74.5,14a5.54,5.54,0,0,1-3.85,1.63c-2.33,0-4.09-1.42-4.09-3.58v0a3.76,3.76,0,0,1,2.67-3.51,4,4,0,0,1-1-2.62v0a3.28,3.28,0,0,1,3.6-3.16,3.1,3.1,0,0,1,3.34,3v0c0,1.65-1.1,2.63-2.76,3.26l2.15,2.18a18.25,18.25,0,0,0,1.34-2.41l1.67.87a20,20,0,0,1-1.71,2.87l2,2-1.63,1.16Zm-1.26-1.29L70.45,9.81a2.32,2.32,0,0,0-1.67,2.08v0a1.91,1.91,0,0,0,2.1,1.83A3.43,3.43,0,0,0,73.24,12.66Zm-.07-6.83v0a1.36,1.36,0,0,0-1.43-1.42,1.43,1.43,0,0,0-1.49,1.51v0a2.66,2.66,0,0,0,1,1.87C72.49,7.32,73.17,6.73,73.17,5.83Z" transform="translate(-0.9 -2.43)"/><path d="M84.08,2.86h5.63A4.53,4.53,0,0,1,93,4a2.84,2.84,0,0,1,.84,2.08v0A3,3,0,0,1,92,8.88c1.47.5,2.49,1.34,2.49,3v0c0,2.24-1.85,3.44-4.64,3.44H84.08Zm5.18,5.28c1.42,0,2.37-.55,2.37-1.7v0c0-1-.79-1.6-2.21-1.6H86.25V8.14Zm.65,5.31c1.5,0,2.41-.59,2.41-1.72v0c0-1-.84-1.68-2.58-1.68H86.25v3.44Z" transform="translate(-0.9 -2.43)"/><path d="M95.93,10.71v0a4.7,4.7,0,0,1,4.62-4.93c3,0,4.53,2.37,4.53,5.09,0,.2,0,.4,0,.61h-7a2.63,2.63,0,0,0,2.72,2.4,3.4,3.4,0,0,0,2.56-1.13l1.27,1.13a4.93,4.93,0,0,1-8.72-3.13Zm7-.7a2.45,2.45,0,0,0-2.4-2.49A2.56,2.56,0,0,0,98.08,10Z" transform="translate(-0.9 -2.43)"/><path d="M107.21,5.94h2.17V8.07a3.37,3.37,0,0,1,3.35-2.31v2.3h-.12c-1.9,0-3.23,1.23-3.23,3.74v3.6h-2.17Z" transform="translate(-0.9 -2.43)"/><path d="M114.4,5.94h2.17V7.41a3.39,3.39,0,0,1,3-1.67c2.14,0,3.37,1.44,3.37,3.64v6h-2.17V10c0-1.47-.73-2.32-2-2.32a2.11,2.11,0,0,0-2.13,2.35V15.4H114.4Z" transform="translate(-0.9 -2.43)"/><path d="M125.42,2.43h2.33V4.49h-2.33Zm.09,3.51h2.17V15.4h-2.17Z" transform="translate(-0.9 -2.43)"/><path d="M129.83,10.72v0a4.87,4.87,0,0,1,4.9-4.95,4.72,4.72,0,0,1,3.78,1.63l-1.34,1.45a3.2,3.2,0,0,0-2.45-1.18,2.84,2.84,0,0,0-2.73,3v0a2.88,2.88,0,0,0,2.83,3,3.32,3.32,0,0,0,2.46-1.18l1.31,1.29a5,5,0,0,1-8.76-3.12Z" transform="translate(-0.9 -2.43)"/><path d="M139.7,10.71v0a4.69,4.69,0,0,1,4.62-4.93c3,0,4.53,2.37,4.53,5.09,0,.2,0,.4,0,.61h-6.95a2.63,2.63,0,0,0,2.72,2.4,3.4,3.4,0,0,0,2.56-1.13l1.27,1.13a4.93,4.93,0,0,1-8.72-3.13Zm7-.7a2.45,2.45,0,0,0-2.4-2.49A2.56,2.56,0,0,0,141.85,10Z" transform="translate(-0.9 -2.43)"/><path d="M154.19,13.56l1.45-1.49a3.13,3.13,0,0,0,2.53,1.47c1.18,0,2-.79,2-2.46V2.86h2.25v8.28a4.54,4.54,0,0,1-1.16,3.33,4.19,4.19,0,0,1-3,1.11A4.76,4.76,0,0,1,154.19,13.56Z" transform="translate(-0.9 -2.43)"/><path d="M164.32,10.72v0a5,5,0,0,1,10.09,0v0a5,5,0,0,1-10.09,0Zm7.92,0v0a2.92,2.92,0,0,0-2.9-3,2.84,2.84,0,0,0-2.85,3v0a2.93,2.93,0,0,0,2.89,3A2.85,2.85,0,0,0,172.24,10.72Z" transform="translate(-0.9 -2.43)"/><path d="M176.52,5.94h2.17V7.41a3.4,3.4,0,0,1,3-1.67c2.13,0,3.37,1.44,3.37,3.64v6h-2.17V10c0-1.47-.74-2.32-2-2.32a2.11,2.11,0,0,0-2.13,2.35V15.4h-2.17Z" transform="translate(-0.9 -2.43)"/><path d="M187.07,10.71v0a4.7,4.7,0,0,1,4.62-4.93c3,0,4.53,2.37,4.53,5.09,0,.2,0,.4,0,.61h-6.95a2.63,2.63,0,0,0,2.72,2.4,3.4,3.4,0,0,0,2.56-1.13l1.28,1.13a4.8,4.8,0,0,1-3.88,1.78A4.72,4.72,0,0,1,187.07,10.71Zm7-.7a2.46,2.46,0,0,0-2.41-2.49A2.56,2.56,0,0,0,189.22,10Z" transform="translate(-0.9 -2.43)"/><path d="M197.52,14.16l1-1.46a5.3,5.3,0,0,0,3.1,1.16c.93,0,1.47-.39,1.47-1v0c0-.73-1-1-2.11-1.32-1.4-.4-3-1-3-2.78v0c0-1.79,1.49-2.88,3.37-2.88a6.62,6.62,0,0,1,3.48,1.07L204,8.4a5.5,5.5,0,0,0-2.67-.9c-.85,0-1.33.39-1.33.95v0c0,.69,1,1,2.13,1.33,1.38.43,2.94,1.06,2.94,2.76v0c0,2-1.54,3-3.51,3A6.64,6.64,0,0,1,197.52,14.16Z" transform="translate(-0.9 -2.43)"/><path d="M.9,23.53h9.3v2H3.1v3.26H9.39v2H3.1V34.1h7.18v2H.9Z" transform="translate(-0.9 -2.43)"/><path d="M11.68,38.42l.73-1.61a2.77,2.77,0,0,0,1.28.36c.61,0,1-.27,1.34-1.1l-3.94-9.46H13.4l2.69,7,2.45-7H20.8L17,36.34c-.76,1.94-1.6,2.65-3.12,2.65A4.4,4.4,0,0,1,11.68,38.42Z" transform="translate(-0.9 -2.43)"/><path d="M21.56,31.38v0a4.69,4.69,0,0,1,4.62-4.92c3,0,4.54,2.36,4.54,5.08,0,.2,0,.4,0,.61H23.73a2.63,2.63,0,0,0,2.72,2.4A3.43,3.43,0,0,0,29,33.39l1.28,1.12a4.79,4.79,0,0,1-3.87,1.78A4.72,4.72,0,0,1,21.56,31.38Zm7-.7a2.46,2.46,0,0,0-2.41-2.49,2.56,2.56,0,0,0-2.45,2.49Z" transform="translate(-0.9 -2.43)"/><path d="M37.42,23.53h2.2V36.07h-2.2Z" transform="translate(-0.9 -2.43)"/><path d="M42.28,26.61h2.17v1.47a3.42,3.42,0,0,1,3-1.66c2.13,0,3.36,1.43,3.36,3.63v6H48.61V30.7c0-1.47-.74-2.31-2-2.31a2.1,2.1,0,0,0-2.13,2.34v5.34H42.28Z" transform="translate(-0.9 -2.43)"/><path d="M52.56,34.84l1-1.47a5.3,5.3,0,0,0,3.1,1.16c.93,0,1.47-.39,1.47-1v0c0-.74-1-1-2.12-1.33-1.4-.39-2.95-1-2.95-2.78v0c0-1.8,1.48-2.89,3.36-2.89a6.49,6.49,0,0,1,3.48,1.08L59,29.07a5.44,5.44,0,0,0-2.67-.9c-.84,0-1.33.4-1.33.95v0c0,.68,1,1,2.14,1.32,1.38.43,2.94,1.06,2.94,2.76v0c0,2-1.55,3-3.52,3A6.64,6.64,0,0,1,52.56,34.84Z" transform="translate(-0.9 -2.43)"/><path d="M62.64,33.46v-5h-1.2V26.61h1.2V24h2.17v2.59h2.54v1.87H64.81v4.64A1,1,0,0,0,66,34.3,3,3,0,0,0,67.31,34v1.77a3.7,3.7,0,0,1-2,.48C63.77,36.23,62.64,35.54,62.64,33.46Z" transform="translate(-0.9 -2.43)"/><path d="M69.35,23.1h2.33v2.06H69.35Zm.09,3.51h2.17v9.46H69.44Z" transform="translate(-0.9 -2.43)"/><path d="M74.69,33.46v-5h-1.2V26.61h1.2V24h2.16v2.59H79.4v1.87H76.85v4.64A1,1,0,0,0,78,34.3,3,3,0,0,0,79.36,34v1.77a3.7,3.7,0,0,1-2,.48C75.82,36.23,74.69,35.54,74.69,33.46Z" transform="translate(-0.9 -2.43)"/><path d="M81.29,32.63v-6h2.17V32c0,1.47.74,2.31,2,2.31A2.11,2.11,0,0,0,87.62,32V26.61h2.17v9.46H87.62V34.6a3.4,3.4,0,0,1-3,1.67C82.53,36.27,81.29,34.84,81.29,32.63Z" transform="translate(-0.9 -2.43)"/><path d="M92.87,33.46v-5h-1.2V26.61h1.2V24H95v2.59h2.55v1.87H95v4.64A1,1,0,0,0,96.2,34.3,3,3,0,0,0,97.54,34v1.77a3.75,3.75,0,0,1-2,.48C94,36.23,92.87,35.54,92.87,33.46Z" transform="translate(-0.9 -2.43)"/><path d="M98.89,31.38v0a4.69,4.69,0,0,1,4.62-4.92c3,0,4.54,2.36,4.54,5.08,0,.2,0,.4,0,.61h-7a2.64,2.64,0,0,0,2.72,2.4,3.43,3.43,0,0,0,2.56-1.12l1.28,1.12a4.79,4.79,0,0,1-3.87,1.78A4.73,4.73,0,0,1,98.89,31.38Zm7-.7a2.46,2.46,0,0,0-2.4-2.49A2.56,2.56,0,0,0,101,30.68Z" transform="translate(-0.9 -2.43)"/></svg>