<svg xmlns="http://www.w3.org/2000/svg" viewBox="0 0 296.29 35.67" width="4.12in" height="48" preserveAspectRatio="xMidYMid meet"><title>UAMS Institute for Community Health Innovation Logo</title><path fill="none" d="M0 0H299.71V36H0z"/><path d="M28.53,21.13c0,3.59.1,6.94-2.55,9.84-2.24,2.45-5.75,3.55-9.04,3.65h-3.22c-3.29-.1-6.79-1.14-9.03-3.59-2.64-2.89-2.54-6.24-2.54-9.83V7.87C2.14,5.62,2.49,1.97-.06,1.03v-.15h9.49v.15c-2.5.95-2.2,4.59-2.2,6.84v13.33c0,6.64,2.8,9.73,7.94,9.73,2.79,0,5.64-1.15,7.28-3.5,1.1-1.5,1.05-2.74,1.05-4.54V7.87c0-2.25.3-5.89-2.2-6.84v-.15h9.48l.05.15c-2.55.95-2.25,4.59-2.25,6.89l-.06,13.21" fill="#fff"/><path d="M43.46,5.12l-6.23,16.27-2.6,7.04c-1.05,2.79-1.4,4.24,1,5.14v.15h-9.18v-.15c2.89-1.45,3.74-4.24,4.84-7.09l8.33-20.81c.7-1.8,1.65-3.89-.75-4.64v-.15h7.89l10.38,25.6c1.15,2.85,2.05,5.64,4.89,7.09v.15h-10.23v-.15c2.45-1.1,2.05-1.65.7-5.14l-2.7-7.04-6.34-16.27" fill="#fff"/><path d="M90.93,4.02c.4-1.05.75-2.05.75-3.09v-.05h8.63v.15c-1.2.35-1.55,1.8-1.55,2.94l3.29,24.51c.3,2.35.55,3.69,2.54,5.09v.15h-9.63v-.15c1.75-.55,2.04-2.05,2.04-3.74l-2.84-24.06-11.18,28.6c-2.5-1.9-3.2-3.24-4.4-6.04l-9.48-22.51-2.84,21.46c-.4,3.05-.75,5.24,1.6,6.29v.15h-8.14v-.15c2.1-1.85,2.4-4.29,2.8-6.99l2.85-20.91c.2-1.4.75-3.39-1.55-4.64v-.15h8.74v.05c0,.8.4,1.55.7,2.25l9.39,22.01,8.28-21.16" fill="#fff"/><path d="M124.41,6.82c-1.95-2-5.04-3.15-7.84-3.15s-6.44,1.1-6.44,4.55c0,6.84,17.17,6.74,17.17,15.97,0,5.34-5.59,10.33-13.38,10.33-3.04,0-6.09-.45-8.93-1.5l-1.45-6.24c2.95,2.55,7.04,4.14,10.93,4.14,2.84,0,7.14-1.69,7.14-5.19,0-7.78-17.17-6.39-17.17-16.97C104.45,2.48,110.89.08,116.98.08c2.5,0,5.04.35,7.44,1.1v5.64" fill="#fff"/><path d="M43.54,27.94c2.31,0,4.18-1.87,4.18-4.18s-1.87-4.18-4.18-4.18-4.18,1.87-4.18,4.18,1.88,4.18,4.18,4.18" fill="#fff"/><path fill="#fff" d="M138.2 0H139.15V34.41H138.2z"/><path d="M129.79,31.59c0-.56-.42-.81-.99-.81h-1.15v2.46h.6v-.77h.38l.53.77h.72l-.62-.88c.33-.11.54-.37.54-.76M128.76,31.97h-.52v-.68h.52c.26,0,.42.12.42.34,0,.2-.15.34-.42.34Z" fill="#fff"/><path d="M128.62,29.54c-1.39,0-2.51,1.12-2.51,2.51s1.12,2.51,2.51,2.51,2.51-1.12,2.51-2.51-1.12-2.51-2.51-2.51M130.71,32.03h0c0,1.17-.91,2.13-2.09,2.13s-2.09-.95-2.09-2.1h0c0-1.17.91-2.13,2.09-2.13s2.09.95,2.09,2.1Z" fill="#fff"/><path d="M148.24,6.02h1.53v8.68h-1.53V6.02Z" fill="#fff"/><path d="M151.9,8.16h1.51v1c.42-.61,1.03-1.14,2.05-1.14,1.48,0,2.33.99,2.33,2.51v4.18h-1.5v-3.72c0-1.02-.51-1.6-1.4-1.6s-1.48.61-1.48,1.62v3.7h-1.51v-6.55Z" fill="#fff"/><path d="M159.07,13.85l.67-1.02c.72.53,1.48.81,2.15.81s1.02-.27,1.02-.71v-.02c0-.51-.69-.68-1.46-.92-.97-.27-2.05-.67-2.05-1.91v-.02c0-1.25,1.03-2.01,2.33-2.01.82,0,1.71.29,2.41.74l-.6,1.07c-.63-.38-1.3-.62-1.85-.62-.58,0-.92.29-.92.65v.02c0,.48.71.68,1.48.93.96.3,2.04.73,2.04,1.91v.02c0,1.38-1.07,2.06-2.43,2.06-.93,0-1.96-.32-2.78-.98Z" fill="#fff"/><path d="M166.01,12.89v-3.45h-.83v-1.29h.83v-1.8h1.5v1.8h1.76v1.29h-1.76v3.21c0,.58.3.82.81.82.33,0,.63-.07.93-.22v1.23c-.37.21-.78.33-1.35.33-1.1,0-1.89-.48-1.89-1.92Z" fill="#fff"/><path d="M170.83,5.72h1.61v1.43h-1.61v-1.43ZM170.88,8.16h1.51v6.55h-1.51v-6.55Z" fill="#fff"/><path d="M174.66,12.89v-3.45h-.83v-1.29h.83v-1.8h1.5v1.8h1.76v1.29h-1.76v3.21c0,.58.3.82.81.82.33,0,.63-.07.93-.22v1.23c-.37.21-.78.33-1.35.33-1.1,0-1.89-.48-1.89-1.92Z" fill="#fff"/><path d="M179.37,12.32v-4.17h1.5v3.72c0,1.02.51,1.59,1.4,1.59s1.48-.6,1.48-1.61v-3.7h1.51v6.55h-1.51v-1.02c-.42.62-1.03,1.15-2.05,1.15-1.48,0-2.33-.99-2.33-2.52Z" fill="#fff"/><path d="M187.45,12.89v-3.45h-.83v-1.29h.83v-1.8h1.5v1.8h1.76v1.29h-1.76v3.21c0,.58.3.82.81.82.33,0,.63-.07.93-.22v1.23c-.37.21-.78.33-1.35.33-1.1,0-1.89-.48-1.89-1.92Z" fill="#fff"/><path d="M191.7,11.46v-.02c0-1.87,1.33-3.41,3.2-3.41,2.08,0,3.14,1.64,3.14,3.52,0,.14-.01.27-.02.42h-4.81c.16,1.07.92,1.66,1.89,1.66.73,0,1.25-.27,1.77-.78l.88.78c-.62.74-1.48,1.23-2.68,1.23-1.9,0-3.36-1.38-3.36-3.4ZM196.55,10.97c-.1-.97-.67-1.72-1.66-1.72-.92,0-1.56.71-1.7,1.72h3.36Z" fill="#fff"/><path d="M203.61,9.45h-.83v-1.25h.83v-.48c0-.72.19-1.27.53-1.61.35-.35.83-.52,1.46-.52.53,0,.89.07,1.23.17v1.27c-.3-.1-.56-.16-.88-.16-.57,0-.87.32-.87.99v.36h1.74v1.24h-1.71v5.26h-1.5v-5.26Z" fill="#fff"/><path d="M207.47,11.47v-.02c0-1.87,1.49-3.42,3.5-3.42s3.49,1.53,3.49,3.4v.02c0,1.86-1.49,3.41-3.51,3.41s-3.47-1.53-3.47-3.39ZM212.95,11.47v-.02c0-1.15-.83-2.11-2.01-2.11s-1.97.94-1.97,2.08v.02c0,1.14.83,2.1,2,2.1s1.99-.94,1.99-2.07Z" fill="#fff"/><path d="M215.96,8.16h1.51v1.48c.41-.98,1.17-1.65,2.32-1.6v1.59h-.09c-1.31,0-2.23.86-2.23,2.59v2.49h-1.51v-6.55Z" fill="#fff"/><path d="M224.61,10.39v-.02c0-2.47,1.85-4.49,4.47-4.49,1.61,0,2.58.56,3.41,1.35l-.98,1.13c-.71-.65-1.44-1.07-2.44-1.07-1.64,0-2.85,1.35-2.85,3.05v.02c0,1.7,1.2,3.08,2.87,3.08,1.07,0,1.75-.42,2.49-1.12l.98.99c-.91.94-1.9,1.54-3.52,1.54-2.54,0-4.42-1.97-4.42-4.47Z" fill="#fff"/><path d="M233.51,11.47v-.02c0-1.87,1.49-3.42,3.5-3.42s3.49,1.53,3.49,3.4v.02c0,1.86-1.49,3.41-3.51,3.41s-3.47-1.53-3.47-3.39ZM239,11.47v-.02c0-1.15-.83-2.11-2.01-2.11s-1.97.94-1.97,2.08v.02c0,1.14.83,2.1,2,2.1s1.99-.94,1.99-2.07Z" fill="#fff"/><path d="M242.01,8.16h1.51v.99c.42-.58.99-1.13,2-1.13.94,0,1.61.46,1.96,1.15.52-.69,1.22-1.15,2.21-1.15,1.43,0,2.29.91,2.29,2.51v4.18h-1.5v-3.72c0-1.04-.48-1.6-1.33-1.6s-1.4.57-1.4,1.62v3.7h-1.5v-3.73c0-1.02-.5-1.59-1.33-1.59s-1.4.62-1.4,1.62v3.7h-1.51v-6.55Z" fill="#fff"/><path d="M253.78,8.16h1.51v.99c.42-.58.99-1.13,2-1.13.94,0,1.61.46,1.96,1.15.52-.69,1.22-1.15,2.21-1.15,1.43,0,2.29.91,2.29,2.51v4.18h-1.5v-3.72c0-1.04-.48-1.6-1.33-1.6s-1.4.57-1.4,1.62v3.7h-1.5v-3.73c0-1.02-.5-1.59-1.33-1.59s-1.4.62-1.4,1.62v3.7h-1.51v-6.55Z" fill="#fff"/><path d="M265.49,12.32v-4.17h1.5v3.72c0,1.02.51,1.59,1.4,1.59s1.48-.6,1.48-1.61v-3.7h1.51v6.55h-1.51v-1.02c-.42.62-1.03,1.15-2.05,1.15-1.48,0-2.33-.99-2.33-2.52Z" fill="#fff"/><path d="M273.24,8.16h1.51v1c.42-.61,1.03-1.14,2.05-1.14,1.48,0,2.33.99,2.33,2.51v4.18h-1.5v-3.72c0-1.02-.51-1.6-1.4-1.6s-1.48.61-1.48,1.62v3.7h-1.51v-6.55Z" fill="#fff"/><path d="M280.97,5.72h1.61v1.43h-1.61v-1.43ZM281.02,8.16h1.51v6.55h-1.51v-6.55Z" fill="#fff"/><path d="M284.8,12.89v-3.45h-.83v-1.29h.83v-1.8h1.5v1.8h1.76v1.29h-1.76v3.21c0,.58.3.82.81.82.33,0,.63-.07.93-.22v1.23c-.37.21-.78.33-1.35.33-1.1,0-1.89-.48-1.89-1.92Z" fill="#fff"/><path d="M294.13,8.16h1.56l-2.6,6.72c-.52,1.35-1.1,1.85-2.16,1.85-.62,0-1.09-.15-1.55-.41l.51-1.1c.27.15.57.25.88.25.42,0,.68-.19.93-.74l-2.73-6.56h1.61l1.84,4.86,1.71-4.86Z" fill="#fff"/><path d="M148.15,20.33h1.53v3.61h4.14v-3.61h1.53v8.68h-1.53v-3.66h-4.14v3.66h-1.53v-8.68Z" fill="#fff"/><path d="M157.05,25.77v-.03c0-1.87,1.33-3.41,3.2-3.41,2.08,0,3.14,1.64,3.14,3.52,0,.14-.01.27-.03.42h-4.81c.16,1.07.92,1.66,1.89,1.66.73,0,1.25-.27,1.77-.78l.88.78c-.62.74-1.48,1.23-2.68,1.23-1.9,0-3.36-1.38-3.36-3.4ZM161.9,25.28c-.1-.97-.67-1.72-1.66-1.72-.92,0-1.56.71-1.7,1.72h3.36Z" fill="#fff"/><path d="M164.45,27.13v-.02c0-1.41,1.12-2.11,2.72-2.11.73,0,1.25.11,1.76.27v-.16c0-.93-.57-1.43-1.62-1.43-.73,0-1.28.16-1.87.41l-.41-1.18c.73-.32,1.44-.53,2.48-.53.98,0,1.71.26,2.17.73.48.47.71,1.17.71,2.02v3.88h-1.46v-.82c-.45.53-1.13.96-2.13.96-1.23,0-2.33-.71-2.33-2.02ZM168.95,26.66v-.45c-.38-.15-.89-.26-1.49-.26-.97,0-1.54.41-1.54,1.09v.03c0,.63.56.99,1.28.99.99,0,1.75-.57,1.75-1.4Z" fill="#fff"/><path d="M172.25,19.96h1.51v9.06h-1.51v-9.06Z" fill="#fff"/><path d="M176.04,27.21v-3.45h-.83v-1.29h.83v-1.8h1.5v1.8h1.76v1.29h-1.76v3.21c0,.58.3.82.81.82.33,0,.63-.07.93-.22v1.23c-.37.21-.78.33-1.35.33-1.1,0-1.89-.48-1.89-1.92Z" fill="#fff"/><path d="M180.81,19.96h1.51v3.51c.42-.61,1.03-1.14,2.05-1.14,1.48,0,2.33.99,2.33,2.51v4.18h-1.5v-3.72c0-1.02-.51-1.6-1.4-1.6s-1.48.61-1.48,1.62v3.7h-1.51v-9.06Z" fill="#fff"/><path d="M192.5,20.33h1.53v8.68h-1.53v-8.68Z" fill="#fff"/><path d="M196.15,22.47h1.51v1c.42-.61,1.03-1.14,2.05-1.14,1.48,0,2.33.99,2.33,2.51v4.18h-1.5v-3.72c0-1.02-.51-1.6-1.4-1.6s-1.48.61-1.48,1.62v3.7h-1.51v-6.55Z" fill="#fff"/><path d="M203.84,22.47h1.51v1c.42-.61,1.03-1.14,2.05-1.14,1.48,0,2.33.99,2.33,2.51v4.18h-1.5v-3.72c0-1.02-.51-1.6-1.4-1.6s-1.48.61-1.48,1.62v3.7h-1.51v-6.55Z" fill="#fff"/><path d="M211.19,25.78v-.02c0-1.87,1.49-3.42,3.5-3.42s3.49,1.53,3.49,3.4v.02c0,1.86-1.49,3.41-3.51,3.41s-3.47-1.53-3.47-3.39ZM216.67,25.78v-.02c0-1.15-.83-2.11-2.01-2.11s-1.97.94-1.97,2.08v.02c0,1.14.83,2.1,2,2.1s1.99-.94,1.99-2.07Z" fill="#fff"/><path d="M218.72,22.47h1.61l1.76,4.81,1.77-4.81h1.58l-2.68,6.6h-1.35l-2.69-6.6Z" fill="#fff"/><path d="M225.97,27.13v-.02c0-1.41,1.12-2.11,2.72-2.11.73,0,1.25.11,1.76.27v-.16c0-.93-.57-1.43-1.62-1.43-.73,0-1.28.16-1.87.41l-.41-1.18c.73-.32,1.44-.53,2.48-.53.98,0,1.71.26,2.17.73.48.47.71,1.17.71,2.02v3.88h-1.46v-.82c-.45.53-1.13.96-2.13.96-1.23,0-2.33-.71-2.33-2.02ZM230.48,26.66v-.45c-.38-.15-.89-.26-1.49-.26-.97,0-1.54.41-1.54,1.09v.03c0,.63.56.99,1.28.99.99,0,1.75-.57,1.75-1.4Z" fill="#fff"/><path d="M233.96,27.21v-3.45h-.83v-1.29h.83v-1.8h1.5v1.8h1.76v1.29h-1.76v3.21c0,.58.3.82.81.82.33,0,.63-.07.93-.22v1.23c-.37.21-.78.33-1.35.33-1.1,0-1.89-.48-1.89-1.92Z" fill="#fff"/><path d="M238.77,20.04h1.61v1.43h-1.61v-1.43ZM238.82,22.47h1.51v6.55h-1.51v-6.55Z" fill="#fff"/><path d="M241.94,25.78v-.02c0-1.87,1.49-3.42,3.5-3.42s3.49,1.53,3.49,3.4v.02c0,1.86-1.49,3.41-3.51,3.41s-3.47-1.53-3.47-3.39ZM247.42,25.78v-.02c0-1.15-.83-2.11-2.01-2.11s-1.97.94-1.97,2.08v.02c0,1.14.83,2.1,2,2.1s1.99-.94,1.99-2.07Z" fill="#fff"/><path d="M250.43,22.47h1.51v1c.42-.61,1.03-1.14,2.05-1.14,1.48,0,2.33.99,2.33,2.51v4.18h-1.5v-3.72c0-1.02-.51-1.6-1.4-1.6s-1.48.61-1.48,1.62v3.7h-1.51v-6.55Z" fill="#fff"/></svg>