<svg xmlns="http://www.w3.org/2000/svg" width="157.23" height="33.97" viewBox="0 0 157.23 33.97"><title>Translational Research Institute</title><path d="M4,4.9H0v-2H10.18v2h-4V15.4H4Z" transform="translate(0 -2.32)"/><path d="M10.74,5.94h2.17V8.07a3.36,3.36,0,0,1,3.35-2.31v2.3h-.13c-1.9,0-3.22,1.23-3.22,3.74v3.6H10.74Z" transform="translate(0 -2.32)"/><path d="M23.62,15.4V14.24a3.81,3.81,0,0,1-3.06,1.36c-1.79,0-3.37-1-3.37-2.92v0c0-2.1,1.63-3.1,3.83-3.1a7.76,7.76,0,0,1,2.62.4V9.76c0-1.31-.82-2-2.33-2a6.52,6.52,0,0,0-2.7.59L18,6.59a8.1,8.1,0,0,1,3.61-.79c2.79,0,4.15,1.47,4.15,4V15.4Zm.06-4a6.35,6.35,0,0,0-2.17-.38c-1.36,0-2.17.56-2.17,1.47v0c0,.9.81,1.4,1.83,1.4,1.43,0,2.51-.81,2.51-2Z" transform="translate(0 -2.32)"/><path d="M28.33,5.94H30.5V7.41a3.4,3.4,0,0,1,3-1.67c2.13,0,3.37,1.44,3.37,3.64v6H34.66V10c0-1.47-.73-2.32-2-2.32a2.11,2.11,0,0,0-2.13,2.35V15.4H28.33Z" transform="translate(0 -2.32)"/><path d="M38.61,14.16l1-1.46a5.3,5.3,0,0,0,3.1,1.16c.93,0,1.47-.39,1.47-1v0c0-.73-1-1-2.11-1.32-1.4-.4-3-1-3-2.78v0c0-1.79,1.49-2.88,3.37-2.88a6.56,6.56,0,0,1,3.47,1.07L45.06,8.4a5.44,5.44,0,0,0-2.67-.9c-.84,0-1.32.39-1.32.95v0c0,.69,1,1,2.13,1.33,1.38.43,2.94,1.06,2.94,2.76v0c0,2-1.54,3-3.51,3A6.62,6.62,0,0,1,38.61,14.16Z" transform="translate(0 -2.32)"/><path d="M48.36,2.32h2.17V15.4H48.36Z" transform="translate(0 -2.32)"/><path d="M59,15.4V14.24A3.81,3.81,0,0,1,56,15.6c-1.8,0-3.37-1-3.37-2.92v0c0-2.1,1.63-3.1,3.83-3.1a7.8,7.8,0,0,1,2.62.4V9.76c0-1.31-.83-2-2.33-2A6.57,6.57,0,0,0,54,8.32l-.59-1.73A8.05,8.05,0,0,1,57,5.8c2.8,0,4.16,1.47,4.16,4V15.4Zm0-4a6.24,6.24,0,0,0-2.16-.38c-1.37,0-2.17.56-2.17,1.47v0c0,.9.8,1.4,1.83,1.4,1.43,0,2.5-.81,2.5-2Z" transform="translate(0 -2.32)"/><path d="M64,12.78v-5h-1.2V5.94H64V3.34h2.17v2.6H68.7V7.8H66.15v4.64a1,1,0,0,0,1.17,1.19,2.86,2.86,0,0,0,1.34-.33v1.78a3.85,3.85,0,0,1-2,.48C65.11,15.56,64,14.86,64,12.78Z" transform="translate(0 -2.32)"/><path d="M70.69,2.43H73V4.49H70.69Zm.09,3.51H73V15.4H70.78Z" transform="translate(0 -2.32)"/><path d="M75.09,10.72v0a5,5,0,0,1,10.09,0v0a5,5,0,0,1-10.09,0Zm7.92,0v0a2.92,2.92,0,0,0-2.9-3,2.84,2.84,0,0,0-2.85,3v0a2.93,2.93,0,0,0,2.89,3A2.85,2.85,0,0,0,83,10.72Z" transform="translate(0 -2.32)"/><path d="M87.29,5.94h2.17V7.41a3.4,3.4,0,0,1,3-1.67c2.13,0,3.37,1.44,3.37,3.64v6H93.62V10c0-1.47-.74-2.32-2-2.32a2.11,2.11,0,0,0-2.13,2.35V15.4H87.29Z" transform="translate(0 -2.32)"/><path d="M104.14,15.4V14.24a3.81,3.81,0,0,1-3.06,1.36c-1.79,0-3.37-1-3.37-2.92v0c0-2.1,1.63-3.1,3.83-3.1a7.76,7.76,0,0,1,2.62.4V9.76c0-1.31-.82-2-2.33-2a6.52,6.52,0,0,0-2.7.59l-.6-1.73a8.1,8.1,0,0,1,3.61-.79c2.79,0,4.15,1.47,4.15,4V15.4Zm.06-4a6.35,6.35,0,0,0-2.17-.38c-1.36,0-2.17.56-2.17,1.47v0c0,.9.81,1.4,1.83,1.4,1.43,0,2.51-.81,2.51-2Z" transform="translate(0 -2.32)"/><path d="M108.92,2.32h2.17V15.4h-2.17Z" transform="translate(0 -2.32)"/><path d="M.9,23.53H6.49a5.07,5.07,0,0,1,3.62,1.26,3.79,3.79,0,0,1,1,2.7v0a3.75,3.75,0,0,1-3,3.79l3.39,4.75H8.94L5.86,31.7H3.1v4.37H.9Zm5.43,6.22c1.57,0,2.58-.83,2.58-2.1v0c0-1.35-1-2.08-2.6-2.08H3.1v4.21Z" transform="translate(0 -2.32)"/><path d="M12.54,31.38v0a4.69,4.69,0,0,1,4.62-4.92c3,0,4.53,2.36,4.53,5.08,0,.2,0,.4,0,.61H14.71a2.63,2.63,0,0,0,2.72,2.4A3.43,3.43,0,0,0,20,33.39l1.27,1.12a4.76,4.76,0,0,1-3.87,1.78A4.72,4.72,0,0,1,12.54,31.38Zm7-.7a2.45,2.45,0,0,0-2.4-2.49,2.55,2.55,0,0,0-2.45,2.49Z" transform="translate(0 -2.32)"/><path d="M23,34.84l1-1.47a5.3,5.3,0,0,0,3.1,1.16c.93,0,1.47-.39,1.47-1v0c0-.74-1-1-2.11-1.33-1.4-.39-3-1-3-2.78v0c0-1.8,1.49-2.89,3.37-2.89a6.48,6.48,0,0,1,3.47,1.08l-.86,1.54a5.44,5.44,0,0,0-2.67-.9c-.84,0-1.32.4-1.32.95v0c0,.68,1,1,2.13,1.32,1.38.43,2.94,1.06,2.94,2.76v0c0,2-1.54,3-3.51,3A6.67,6.67,0,0,1,23,34.84Z" transform="translate(0 -2.32)"/><path d="M32.05,31.38v0a4.69,4.69,0,0,1,4.62-4.92c3,0,4.53,2.36,4.53,5.08,0,.2,0,.4,0,.61h-7a2.63,2.63,0,0,0,2.72,2.4,3.43,3.43,0,0,0,2.56-1.12l1.27,1.12a4.93,4.93,0,0,1-8.72-3.13Zm7-.7a2.45,2.45,0,0,0-2.4-2.49,2.55,2.55,0,0,0-2.45,2.49Z" transform="translate(0 -2.32)"/><path d="M49.07,36.07V34.91A3.83,3.83,0,0,1,46,36.27c-1.8,0-3.37-1-3.37-2.92v0c0-2.09,1.63-3.1,3.83-3.1a8.06,8.06,0,0,1,2.62.4v-.18c0-1.31-.83-2-2.33-2a6.57,6.57,0,0,0-2.71.6l-.59-1.74a8.05,8.05,0,0,1,3.6-.79c2.8,0,4.16,1.47,4.16,4v5.61Zm0-4A6.26,6.26,0,0,0,47,31.74c-1.37,0-2.17.55-2.17,1.47v0c0,.9.8,1.4,1.82,1.4,1.44,0,2.51-.81,2.51-2Z" transform="translate(0 -2.32)"/><path d="M53.78,26.61H56v2.13a3.36,3.36,0,0,1,3.35-2.31v2.3h-.12C57.28,28.73,56,30,56,32.47v3.6H53.78Z" transform="translate(0 -2.32)"/><path d="M60.4,31.4v0a4.87,4.87,0,0,1,4.91-4.94,4.71,4.71,0,0,1,3.78,1.63L67.75,29.5a3.17,3.17,0,0,0-2.46-1.18,2.84,2.84,0,0,0-2.72,3v0a2.89,2.89,0,0,0,2.83,3,3.34,3.34,0,0,0,2.46-1.19l1.3,1.29a4.78,4.78,0,0,1-3.87,1.78A4.83,4.83,0,0,1,60.4,31.4Z" transform="translate(0 -2.32)"/><path d="M71,23h2.17v5.09a3.42,3.42,0,0,1,3-1.66c2.13,0,3.36,1.43,3.36,3.63v6H77.31V30.7c0-1.47-.74-2.31-2-2.31a2.1,2.1,0,0,0-2.13,2.34v5.34H71Z" transform="translate(0 -2.32)"/><path d="M86.6,23.53h2.21V36.07H86.6Z" transform="translate(0 -2.32)"/><path d="M91.47,26.61h2.17v1.47a3.4,3.4,0,0,1,3-1.66c2.14,0,3.37,1.43,3.37,3.63v6H97.79V30.7c0-1.47-.73-2.31-2-2.31a2.1,2.1,0,0,0-2.13,2.34v5.34H91.47Z" transform="translate(0 -2.32)"/><path d="M101.75,34.84l1-1.47a5.3,5.3,0,0,0,3.1,1.16c.93,0,1.47-.39,1.47-1v0c0-.74-1-1-2.12-1.33-1.4-.39-3-1-3-2.78v0c0-1.8,1.49-2.89,3.37-2.89a6.49,6.49,0,0,1,3.48,1.08l-.86,1.54a5.44,5.44,0,0,0-2.67-.9c-.84,0-1.33.4-1.33.95v0c0,.68,1,1,2.14,1.32,1.37.43,2.93,1.06,2.93,2.76v0c0,2-1.54,3-3.51,3A6.64,6.64,0,0,1,101.75,34.84Z" transform="translate(0 -2.32)"/><path d="M111.83,33.46v-5h-1.2V26.61h1.2V24H114v2.59h2.55v1.87H114v4.64a1,1,0,0,0,1.17,1.18A3,3,0,0,0,116.5,34v1.77a3.73,3.73,0,0,1-2,.48C113,36.23,111.83,35.54,111.83,33.46Z" transform="translate(0 -2.32)"/><path d="M118.54,23.1h2.33v2.06h-2.33Zm.09,3.51h2.17v9.46h-2.17Z" transform="translate(0 -2.32)"/><path d="M123.88,33.46v-5h-1.2V26.61h1.2V24H126v2.59h2.55v1.87H126v4.64a1,1,0,0,0,1.17,1.18,3,3,0,0,0,1.34-.32v1.77a3.7,3.7,0,0,1-2,.48C125,36.23,123.88,35.54,123.88,33.46Z" transform="translate(0 -2.32)"/><path d="M130.48,32.63v-6h2.17V32c0,1.47.73,2.31,2,2.31A2.1,2.1,0,0,0,136.8,32V26.61H139v9.46H136.8V34.6a3.37,3.37,0,0,1-3,1.67C131.72,36.27,130.48,34.84,130.48,32.63Z" transform="translate(0 -2.32)"/><path d="M142.06,33.46v-5h-1.21V26.61h1.21V24h2.16v2.59h2.55v1.87h-2.55v4.64a1,1,0,0,0,1.17,1.18,3,3,0,0,0,1.34-.32v1.77a3.75,3.75,0,0,1-1.95.48C143.18,36.23,142.06,35.54,142.06,33.46Z" transform="translate(0 -2.32)"/><path d="M148.08,31.38v0a4.69,4.69,0,0,1,4.62-4.92c3,0,4.53,2.36,4.53,5.08,0,.2,0,.4,0,.61h-6.95a2.63,2.63,0,0,0,2.72,2.4,3.43,3.43,0,0,0,2.56-1.12l1.27,1.12a4.93,4.93,0,0,1-8.72-3.13Zm7-.7a2.45,2.45,0,0,0-2.4-2.49,2.56,2.56,0,0,0-2.45,2.49Z" transform="translate(0 -2.32)"/></svg>