<svg xmlns="http://www.w3.org/2000/svg" width="144.37" height="13.29" viewBox="0 0 144.37 13.29"><title>Graduate School</title><path d="M.3,19.38v0a6.39,6.39,0,0,1,6.47-6.49,6.78,6.78,0,0,1,4.82,1.7l-1.4,1.67a4.88,4.88,0,0,0-3.51-1.35,4.25,4.25,0,0,0-4.07,4.43v0a4.19,4.19,0,0,0,4.27,4.47,5.09,5.09,0,0,0,3-.95V20.53H6.7V18.61H12v5.27a8,8,0,0,1-5.23,1.95A6.22,6.22,0,0,1,.3,19.38Z" transform="translate(-0.3 -12.54)"/><path d="M14.43,16.16H16.6v2.13A3.34,3.34,0,0,1,20,16v2.29h-.13c-1.9,0-3.22,1.24-3.22,3.74v3.61H14.43Z" transform="translate(-0.3 -12.54)"/><path d="M27.31,25.62V24.45a3.81,3.81,0,0,1-3.06,1.36c-1.79,0-3.37-1-3.37-2.92v0c0-2.1,1.63-3.1,3.83-3.1a8,8,0,0,1,2.62.39V20c0-1.31-.82-2-2.33-2a6.52,6.52,0,0,0-2.7.59l-.6-1.74A8.24,8.24,0,0,1,25.31,16c2.79,0,4.15,1.47,4.15,4v5.61Zm.06-4a6.12,6.12,0,0,0-2.17-.38c-1.36,0-2.17.56-2.17,1.47v0c0,.89.81,1.39,1.83,1.39,1.43,0,2.51-.8,2.51-2Z" transform="translate(-0.3 -12.54)"/><path d="M31.52,20.9v0c0-3.14,2.13-4.91,4.39-4.91a3.91,3.91,0,0,1,3.22,1.67V12.54H41.3V25.62H39.13V24a3.77,3.77,0,0,1-3.22,1.77C33.68,25.81,31.52,24,31.52,20.9Zm7.65,0v0a2.84,2.84,0,0,0-2.74-3,2.78,2.78,0,0,0-2.73,3v0a2.82,2.82,0,0,0,2.73,3A2.85,2.85,0,0,0,39.17,20.9Z" transform="translate(-0.3 -12.54)"/><path d="M43.88,22.18v-6h2.17v5.37c0,1.47.73,2.31,2,2.31A2.1,2.1,0,0,0,50.2,21.5V16.16h2.17v9.46H50.2V24.15a3.39,3.39,0,0,1-3,1.66C45.12,25.81,43.88,24.38,43.88,22.18Z" transform="translate(-0.3 -12.54)"/><path d="M60.85,25.62V24.45a3.83,3.83,0,0,1-3.06,1.36c-1.8,0-3.37-1-3.37-2.92v0c0-2.1,1.63-3.1,3.83-3.1a8.09,8.09,0,0,1,2.62.39V20c0-1.31-.83-2-2.33-2a6.57,6.57,0,0,0-2.71.59l-.59-1.74a8.19,8.19,0,0,1,3.6-.79c2.8,0,4.16,1.47,4.16,4v5.61Zm0-4a6,6,0,0,0-2.16-.38c-1.37,0-2.17.56-2.17,1.47v0c0,.89.8,1.39,1.83,1.39,1.43,0,2.5-.8,2.5-2Z" transform="translate(-0.3 -12.54)"/><path d="M65.8,23V18H64.6V16.16h1.2v-2.6H68v2.6h2.55V18H68v4.64a1,1,0,0,0,1.17,1.18,3,3,0,0,0,1.34-.32v1.77a3.75,3.75,0,0,1-2,.49C66.93,25.78,65.8,25.08,65.8,23Z" transform="translate(-0.3 -12.54)"/><path d="M71.83,20.92v0A4.69,4.69,0,0,1,76.45,16c3,0,4.53,2.36,4.53,5.09,0,.19,0,.39,0,.61H74a2.65,2.65,0,0,0,2.73,2.4,3.46,3.46,0,0,0,2.56-1.13l1.27,1.13a4.79,4.79,0,0,1-3.87,1.77A4.72,4.72,0,0,1,71.83,20.92Zm7-.7a2.46,2.46,0,0,0-2.4-2.49A2.55,2.55,0,0,0,74,20.22Z" transform="translate(-0.3 -12.54)"/><path d="M86.72,23.79,88,22.21a5.77,5.77,0,0,0,4,1.63c1.36,0,2.22-.62,2.22-1.57v0c0-.9-.5-1.38-2.83-1.92-2.67-.64-4.17-1.43-4.17-3.74v0c0-2.15,1.79-3.63,4.28-3.63a6.94,6.94,0,0,1,4.55,1.57l-1.18,1.67a5.72,5.72,0,0,0-3.41-1.29c-1.29,0-2,.66-2,1.49v0c0,1,.57,1.4,3,2,2.66.65,4,1.6,4,3.67v0c0,2.35-1.85,3.75-4.48,3.75A7.73,7.73,0,0,1,86.72,23.79Z" transform="translate(-0.3 -12.54)"/><path d="M97.81,20.94v0A4.88,4.88,0,0,1,102.72,16a4.72,4.72,0,0,1,3.78,1.63L105.16,19a3.19,3.19,0,0,0-2.46-1.18,2.84,2.84,0,0,0-2.72,3v0A2.88,2.88,0,0,0,102.81,24a3.33,3.33,0,0,0,2.46-1.18l1.3,1.29a4.77,4.77,0,0,1-3.87,1.77A4.83,4.83,0,0,1,97.81,20.94Z" transform="translate(-0.3 -12.54)"/><path d="M108.39,12.54h2.17v5.09a3.39,3.39,0,0,1,3-1.67c2.14,0,3.37,1.43,3.37,3.64v6h-2.17V20.24c0-1.47-.73-2.31-2-2.31a2.11,2.11,0,0,0-2.13,2.35v5.34h-2.17Z" transform="translate(-0.3 -12.54)"/><path d="M118.54,20.94v0A5,5,0,0,1,123.6,16a4.9,4.9,0,0,1,5,4.91v0a5,5,0,0,1-5.07,4.93A4.9,4.9,0,0,1,118.54,20.94Zm7.92,0v0a2.92,2.92,0,0,0-2.9-3,2.84,2.84,0,0,0-2.85,3v0A2.93,2.93,0,0,0,123.6,24,2.85,2.85,0,0,0,126.46,20.94Z" transform="translate(-0.3 -12.54)"/><path d="M130.22,20.94v0a5,5,0,0,1,10.09,0v0a5,5,0,0,1-5.08,4.93A4.89,4.89,0,0,1,130.22,20.94Zm7.92,0v0a2.92,2.92,0,0,0-2.91-3,2.84,2.84,0,0,0-2.85,3v0A2.94,2.94,0,0,0,135.27,24,2.85,2.85,0,0,0,138.14,20.94Z" transform="translate(-0.3 -12.54)"/><path d="M142.5,12.54h2.17V25.62H142.5Z" transform="translate(-0.3 -12.54)"/></svg>