<svg xmlns="http://www.w3.org/2000/svg" width="174.03" height="34.11" viewBox="0 0 174.03 34.11"><title>Institute for Digital Health and Innovation</title><path d="M2.38,3.29h2.2V15.83H2.38Z" transform="translate(-2.25 -2.65)"/><path d="M7.66,6.37H9.85V7.82a3.44,3.44,0,0,1,3-1.65c2.14,0,3.37,1.44,3.37,3.62v6H14V10.46c0-1.47-.73-2.31-2-2.31a2.1,2.1,0,0,0-2.13,2.34v5.34H7.66Z" transform="translate(-2.25 -2.65)"/><path d="M18,14.6l1-1.47a5.37,5.37,0,0,0,3.1,1.16c.94,0,1.47-.39,1.47-1v0c0-.73-1-1-2.11-1.32-1.4-.4-3-1-3-2.76v0c0-1.81,1.49-2.9,3.37-2.9a6.54,6.54,0,0,1,3.48,1.08l-.86,1.54a5.47,5.47,0,0,0-2.67-.9c-.85,0-1.33.41-1.33.93v0c0,.7,1,1,2.13,1.34,1.38.43,2.94,1.06,2.94,2.76v0c0,2-1.54,3-3.51,3A6.52,6.52,0,0,1,18,14.6Z" transform="translate(-2.25 -2.65)"/><path d="M28,13.22v-5h-1.2V6.37H28V3.77H30.2v2.6h2.54V8.24H30.2v4.64a1,1,0,0,0,1.16,1.18,3,3,0,0,0,1.35-.32v1.77a3.81,3.81,0,0,1-2,.48C29.16,16,28,15.29,28,13.22Z" transform="translate(-2.25 -2.65)"/><path d="M35,2.86h2.33V4.92H35Zm.07,3.51h2.19v9.46H35.05Z" transform="translate(-2.25 -2.65)"/><path d="M40.52,13.22v-5h-1.2V6.37h1.2V3.77h2.17v2.6h2.54V8.24H42.69v4.64a1,1,0,0,0,1.16,1.18,3,3,0,0,0,1.34-.32v1.77a3.75,3.75,0,0,1-1.95.48C41.65,16,40.52,15.29,40.52,13.22Z" transform="translate(-2.25 -2.65)"/><path d="M47.33,12.39v-6h2.16v5.38c0,1.47.74,2.29,2,2.29a2.09,2.09,0,0,0,2.13-2.33V6.37h2.19v9.46H53.65V14.36a3.4,3.4,0,0,1-3,1.67C48.56,16,47.33,14.6,47.33,12.39Z" transform="translate(-2.25 -2.65)"/><path d="M59,13.22v-5h-1.2V6.37H59V3.77h2.17v2.6H63.7V8.24H61.16v4.64a1,1,0,0,0,1.16,1.18,3,3,0,0,0,1.34-.32v1.77a3.75,3.75,0,0,1-1.95.48C60.12,16,59,15.29,59,13.22Z" transform="translate(-2.25 -2.65)"/><path d="M65.12,11.14v0a4.7,4.7,0,0,1,4.62-4.93c3,0,4.53,2.37,4.53,5.09,0,.2,0,.4,0,.61h-7A2.65,2.65,0,0,0,70,14.27a3.42,3.42,0,0,0,2.56-1.13l1.27,1.13a4.93,4.93,0,0,1-8.72-3.13Zm7-.7A2.45,2.45,0,0,0,69.72,8a2.55,2.55,0,0,0-2.45,2.49Z" transform="translate(-2.25 -2.65)"/><path d="M82.31,8.24h-1.2V6.43h1.2v-.7a3.16,3.16,0,0,1,.78-2.33,2.85,2.85,0,0,1,2.11-.75A5.6,5.6,0,0,1,87,2.9V4.72a3.86,3.86,0,0,0-1.27-.23c-.82,0-1.25.47-1.25,1.43v.52H87v1.8H84.48v7.59H82.31Z" transform="translate(-2.25 -2.65)"/><path d="M87.87,11.16v0a5,5,0,0,1,10.08,0v0a5,5,0,0,1-5.07,4.93A4.89,4.89,0,0,1,87.87,11.16Zm7.92,0v0a2.93,2.93,0,0,0-2.91-3,2.84,2.84,0,0,0-2.84,3v0a2.92,2.92,0,0,0,2.88,3A2.84,2.84,0,0,0,95.79,11.16Z" transform="translate(-2.25 -2.65)"/><path d="M100.14,6.37h2.19V8.5a3.36,3.36,0,0,1,3.35-2.31v2.3h-.13c-1.9,0-3.22,1.23-3.22,3.74v3.6h-2.19Z" transform="translate(-2.25 -2.65)"/><path d="M113.18,3.29h4.68c3.94,0,6.66,2.71,6.66,6.24v0c0,3.53-2.72,6.27-6.66,6.27h-4.68Zm2.21,2v8.53h2.47a4.09,4.09,0,0,0,4.35-4.23v0a4.11,4.11,0,0,0-4.35-4.26Z" transform="translate(-2.25 -2.65)"/><path d="M127,2.86h2.33V4.92H127Zm.07,3.51h2.19v9.46h-2.19Z" transform="translate(-2.25 -2.65)"/><path d="M132.05,17.61l.8-1.63a6.27,6.27,0,0,0,3.37,1c1.94,0,3-1,3-2.88v-.72a4,4,0,0,1-3.33,1.72,4.24,4.24,0,0,1-4.3-4.43v0a4.27,4.27,0,0,1,4.3-4.45,4.09,4.09,0,0,1,3.32,1.62V6.37h2.17V13.9a4.83,4.83,0,0,1-1.21,3.56,5.31,5.31,0,0,1-3.88,1.27A8.2,8.2,0,0,1,132.05,17.61Zm7.18-7v0A2.63,2.63,0,0,0,136.46,8a2.54,2.54,0,0,0-2.69,2.58v0a2.57,2.57,0,0,0,2.69,2.59A2.63,2.63,0,0,0,139.23,10.64Z" transform="translate(-2.25 -2.65)"/><path d="M144.12,2.86h2.33V4.92h-2.33Zm.08,3.51h2.18v9.46H144.2Z" transform="translate(-2.25 -2.65)"/><path d="M149.66,13.22v-5h-1.2V6.37h1.2V3.77h2.17v2.6h2.54V8.24h-2.54v4.64A1,1,0,0,0,153,14.06a2.94,2.94,0,0,0,1.34-.32v1.77a3.75,3.75,0,0,1-2,.48C150.79,16,149.66,15.29,149.66,13.22Z" transform="translate(-2.25 -2.65)"/><path d="M155.93,13.11v0c0-2,1.61-3,3.92-3a8,8,0,0,1,2.55.39v-.23c0-1.35-.83-2.06-2.35-2.06a6.57,6.57,0,0,0-2.71.59L156.75,7a8.18,8.18,0,0,1,3.59-.77,4.23,4.23,0,0,1,3.13,1,3.93,3.93,0,0,1,1,2.92v5.61h-2.11V14.65A3.85,3.85,0,0,1,159.3,16C157.52,16,155.93,15,155.93,13.11Zm6.5-.68v-.65a6.11,6.11,0,0,0-2.15-.37c-1.39,0-2.22.59-2.22,1.57v0c0,.91.81,1.43,1.85,1.43C161.34,14.45,162.43,13.63,162.43,12.43Z" transform="translate(-2.25 -2.65)"/><path d="M167.2,2.75h2.18V15.83H167.2Z" transform="translate(-2.25 -2.65)"/><path d="M2.25,24H4.46v5.22h6V24h2.2V36.5h-2.2V31.22h-6V36.5H2.25Z" transform="translate(-2.25 -2.65)"/><path d="M15.1,31.81v0a4.69,4.69,0,0,1,4.62-4.92c3,0,4.53,2.36,4.53,5.09,0,.19,0,.39,0,.6h-7A2.65,2.65,0,0,0,20,35a3.44,3.44,0,0,0,2.56-1.13L23.82,35A4.79,4.79,0,0,1,20,36.72,4.72,4.72,0,0,1,15.1,31.81Zm7-.7a2.45,2.45,0,0,0-2.4-2.49,2.55,2.55,0,0,0-2.45,2.49Z" transform="translate(-2.25 -2.65)"/><path d="M25.79,33.78v0c0-2.05,1.61-3.05,3.93-3.05a8,8,0,0,1,2.54.39v-.23c0-1.34-.82-2.06-2.35-2.06a6.56,6.56,0,0,0-2.7.59l-.59-1.7a8.1,8.1,0,0,1,3.58-.77A4.26,4.26,0,0,1,33.34,28a4,4,0,0,1,1,2.92v5.6H32.24V35.32a3.84,3.84,0,0,1-3.08,1.38C27.39,36.7,25.79,35.68,25.79,33.78Zm6.51-.68v-.64a5.92,5.92,0,0,0-2.15-.38c-1.4,0-2.23.59-2.23,1.58v0c0,.91.81,1.43,1.85,1.43C31.2,35.12,32.3,34.3,32.3,33.1Z" transform="translate(-2.25 -2.65)"/><path d="M37.06,23.43h2.19V36.5H37.06Z" transform="translate(-2.25 -2.65)"/><path d="M42.53,33.89v-5H41.32V27h1.21V24.45h2.16V27h2.55v1.87H44.69v4.64a1,1,0,0,0,1.17,1.18,3,3,0,0,0,1.34-.32v1.77a3.7,3.7,0,0,1-2,.49C43.65,36.67,42.53,36,42.53,33.89Z" transform="translate(-2.25 -2.65)"/><path d="M49.42,23.43h2.19V28.5a3.43,3.43,0,0,1,3-1.65c2.14,0,3.37,1.43,3.37,3.62v6H55.76V31.13c0-1.47-.73-2.31-2-2.31a2.11,2.11,0,0,0-2.13,2.35V36.5H49.42Z" transform="translate(-2.25 -2.65)"/><path d="M73.2,35.05a5.49,5.49,0,0,1-3.84,1.63c-2.34,0-4.12-1.41-4.12-3.58v0c0-1.61,1-2.77,2.69-3.49a4.08,4.08,0,0,1-1-2.62v0a3.28,3.28,0,0,1,3.6-3.17,3.09,3.09,0,0,1,3.33,3v0c0,1.65-1.09,2.64-2.76,3.26l2.15,2.19a19.64,19.64,0,0,0,1.35-2.42l1.66.88a18.34,18.34,0,0,1-1.7,2.85l2,2-1.65,1.18Zm-1.26-1.29-2.79-2.85A2.34,2.34,0,0,0,67.48,33v0a1.91,1.91,0,0,0,2.1,1.83A3.45,3.45,0,0,0,71.94,33.76Zm-.07-6.82v0a1.35,1.35,0,0,0-1.41-1.41A1.45,1.45,0,0,0,69,27v0a2.66,2.66,0,0,0,1,1.86C71.19,28.42,71.87,27.83,71.87,26.94Z" transform="translate(-2.25 -2.65)"/><path d="M84.14,24h2.21V36.5H84.14Z" transform="translate(-2.25 -2.65)"/><path d="M89.43,27h2.18V28.5a3.43,3.43,0,0,1,3-1.65c2.13,0,3.37,1.43,3.37,3.62v6H95.77V31.13c0-1.47-.74-2.31-2-2.31a2.11,2.11,0,0,0-2.14,2.35V36.5H89.43Z" transform="translate(-2.25 -2.65)"/><path d="M100.54,27h2.18V28.5a3.43,3.43,0,0,1,3-1.65c2.13,0,3.37,1.43,3.37,3.62v6h-2.17V31.13c0-1.47-.74-2.31-2-2.31a2.11,2.11,0,0,0-2.13,2.35V36.5h-2.18Z" transform="translate(-2.25 -2.65)"/><path d="M111.14,31.83v0a5,5,0,0,1,10.09,0v0a5,5,0,0,1-5.07,4.93A4.89,4.89,0,0,1,111.14,31.83Zm7.92,0v0a2.92,2.92,0,0,0-2.9-3,2.84,2.84,0,0,0-2.85,3v0a2.92,2.92,0,0,0,2.88,3A2.84,2.84,0,0,0,119.06,31.83Z" transform="translate(-2.25 -2.65)"/><path d="M122,27h2.33l2.54,7,2.56-7h2.28l-3.87,9.54h-2Z" transform="translate(-2.25 -2.65)"/><path d="M132.46,33.78v0c0-2.05,1.61-3.05,3.93-3.05a8,8,0,0,1,2.54.39v-.23c0-1.34-.82-2.06-2.35-2.06a6.52,6.52,0,0,0-2.7.59l-.59-1.7a8.1,8.1,0,0,1,3.58-.77A4.23,4.23,0,0,1,140,28a3.92,3.92,0,0,1,1,2.92v5.6h-2.12V35.32a3.84,3.84,0,0,1-3.08,1.38C134.06,36.7,132.46,35.68,132.46,33.78ZM139,33.1v-.64a6,6,0,0,0-2.16-.38c-1.39,0-2.22.59-2.22,1.58v0c0,.91.81,1.43,1.85,1.43C137.87,35.12,139,34.3,139,33.1Z" transform="translate(-2.25 -2.65)"/><path d="M144,33.89v-5h-1.2V27H144V24.45h2.17V27h2.54v1.87h-2.54v4.64a1,1,0,0,0,1.17,1.18,3,3,0,0,0,1.34-.32v1.77a3.7,3.7,0,0,1-1.95.49C145.11,36.67,144,36,144,33.89Z" transform="translate(-2.25 -2.65)"/><path d="M150.93,23.53h2.33v2.06h-2.33ZM151,27h2.18V36.5H151Z" transform="translate(-2.25 -2.65)"/><path d="M155.5,31.83v0a5,5,0,0,1,10.09,0v0a5,5,0,0,1-5.07,4.93A4.89,4.89,0,0,1,155.5,31.83Zm7.92,0v0a2.92,2.92,0,0,0-2.9-3,2.84,2.84,0,0,0-2.85,3v0a2.92,2.92,0,0,0,2.88,3A2.84,2.84,0,0,0,163.42,31.83Z" transform="translate(-2.25 -2.65)"/><path d="M167.77,27H170V28.5a3.43,3.43,0,0,1,3-1.65c2.13,0,3.36,1.43,3.36,3.62v6h-2.16V31.13c0-1.47-.74-2.31-2-2.31A2.11,2.11,0,0,0,170,31.17V36.5h-2.19Z" transform="translate(-2.25 -2.65)"/></svg>