<svg xmlns="http://www.w3.org/2000/svg" width="4.45in" height="0.5in" viewBox="0 0 320.44 36.28"><title>University of Arkansas for Medical Sciences Jackson T. Stephens Spine and Neurosciences Institute Logo</title><path d="M30,22.14c0,3.77.1,7.28-2.67,10.31-2.35,2.57-6,3.73-9.47,3.83H14.44C11,36.18,7.32,35.08,5,32.51,2.2,29.48,2.3,26,2.3,22.21v-14c0-2.35.37-6.17-2.3-7.16V.92H9.94v.16c-2.62,1-2.3,4.81-2.3,7.16v14c0,7,2.93,10.2,8.32,10.2a9.25,9.25,0,0,0,7.63-3.66c1.15-1.57,1.1-2.88,1.1-4.76V8.24c0-2.35.31-6.17-2.3-7.16V.92h9.94l.05.16C29.71,2.07,30,5.89,30,8.3L30,22.14Z" transform="translate(0 0)" fill="#fff"/><path d="M45.61,5.37,39.08,22.42l-2.73,7.37c-1.1,2.93-1.46,4.45,1,5.39v.16H27.78v-.16c3-1.51,3.92-4.44,5.07-7.43L41.58,5.94c.74-1.88,1.73-4.08-.78-4.86V.92h8.26L59.94,27.75c1.2,3,2.15,5.92,5.13,7.43v.16H54.34v-.16c2.57-1.15,2.15-1.72.74-5.39l-2.83-7.37-6.64-17Z" transform="translate(0 0)" fill="#fff"/><path d="M95.36,4.21A9.09,9.09,0,0,0,96.14,1v0h9v.16c-1.26.36-1.62,1.88-1.62,3.08L107,29.85c.31,2.46.58,3.87,2.67,5.33v.16H99.59v-.16c1.84-.57,2.15-2.14,2.15-3.92L98.76,6,87,36c-2.62-2-3.35-3.4-4.61-6.33L72.5,6.1l-3,22.49c-.42,3.19-.79,5.49,1.67,6.59v.16H62.66v-.16c2.2-1.93,2.51-4.5,2.93-7.32l3-21.92c.21-1.46.79-3.55-1.62-4.86V.92h9.16V1a6.25,6.25,0,0,0,.73,2.36l9.83,23.06L95.36,4.21Z" transform="translate(0 0)" fill="#fff"/><path d="M130.45,7.15a11.87,11.87,0,0,0-8.21-3.3c-3,0-6.75,1.15-6.75,4.76,0,7.17,18,7.06,18,16.74,0,5.6-5.85,10.83-14,10.83a27,27,0,0,1-9.36-1.57l-1.52-6.54A18.09,18.09,0,0,0,120,32.41c3,0,7.48-1.78,7.48-5.44,0-8.16-18-6.7-18-17.79,0-6.58,6.76-9.1,13.14-9.1a26.44,26.44,0,0,1,7.79,1.15V7.15Z" transform="translate(0 0)" fill="#fff"/><path d="M45.69,29.28a4.38,4.38,0,1,0-4.38-4.38,4.39,4.39,0,0,0,4.38,4.38Z" transform="translate(0 0)" fill="#fff"/><rect x="144.9" width="1" height="36.07" fill="#fff"/><path d="M153.87,13.84l1-1.08a2.26,2.26,0,0,0,1.83,1.07c.86,0,1.45-.58,1.45-1.78v-6h1.64v6A3.31,3.31,0,0,1,159,14.5a3,3,0,0,1-2.21.81A3.43,3.43,0,0,1,153.87,13.84Z" transform="translate(0 0)" fill="#fff"/><path d="M165.79,15.18v-.85a2.79,2.79,0,0,1-2.23,1,2.19,2.19,0,0,1-2.44-2.12v0c0-1.53,1.18-2.25,2.78-2.25a5.78,5.78,0,0,1,1.9.28v-.13c0-.95-.6-1.47-1.69-1.47a4.74,4.74,0,0,0-2,.43l-.43-1.26a5.83,5.83,0,0,1,2.61-.57c2,0,3,1.07,3,2.9v4.07Zm0-2.87a4.47,4.47,0,0,0-1.58-.28c-1,0-1.57.41-1.57,1.07v0c0,.65.59,1,1.33,1,1,0,1.82-.59,1.82-1.45Z" transform="translate(0 0)" fill="#fff"/><path d="M168.8,11.78v0a3.54,3.54,0,0,1,3.56-3.59,3.45,3.45,0,0,1,2.75,1.18l-1,1.06a2.3,2.3,0,0,0-1.78-.86,2.07,2.07,0,0,0-2,2.18v0A2.09,2.09,0,0,0,172.43,14a2.4,2.4,0,0,0,1.78-.86l.95.94a3.6,3.6,0,0,1-6.36-2.27Z" transform="translate(0 0)" fill="#fff"/><path d="M176.48,5.69h1.57v5.67l2.85-3h1.91l-2.73,2.8,2.82,4.07h-1.82l-2.07-3-1,1v2h-1.57Z" transform="translate(0 0)" fill="#fff"/><path d="M183.5,14.28l.71-1.06a3.88,3.88,0,0,0,2.24.84c.68,0,1.07-.29,1.07-.74v0c0-.53-.73-.71-1.53-1-1-.28-2.15-.7-2.15-2v0a2.19,2.19,0,0,1,2.45-2.09,4.79,4.79,0,0,1,2.52.78l-.63,1.12a3.91,3.91,0,0,0-1.93-.66c-.61,0-1,.29-1,.69v0c0,.49.75.7,1.55,1,1,.31,2.13.77,2.13,2v0c0,1.44-1.11,2.16-2.54,2.16A4.82,4.82,0,0,1,183.5,14.28Z" transform="translate(0 0)" fill="#fff"/><path d="M190.05,11.78v0a3.66,3.66,0,0,1,7.32,0v0a3.66,3.66,0,0,1-7.32,0Zm5.75,0v0a2.13,2.13,0,0,0-2.11-2.21,2.06,2.06,0,0,0-2.07,2.18v0a2.13,2.13,0,0,0,2.1,2.21A2.07,2.07,0,0,0,195.8,11.78Z" transform="translate(0 0)" fill="#fff"/><path d="M198.9,8.31h1.58V9.38a2.45,2.45,0,0,1,2.14-1.21,2.35,2.35,0,0,1,2.44,2.64v4.37h-1.57v-3.9c0-1.07-.53-1.68-1.47-1.68a1.52,1.52,0,0,0-1.54,1.7v3.88H198.9Z" transform="translate(0 0)" fill="#fff"/><path d="M212.38,7.56H209.5V6.08h7.38V7.56H214v7.62h-1.62Z" transform="translate(0 0)" fill="#fff"/><path d="M216.22,13.4H218v1.78h-1.73Z" transform="translate(0 0)" fill="#fff"/><path d="M222.39,13.85l1-1.14a4.24,4.24,0,0,0,2.88,1.18c1,0,1.61-.45,1.61-1.14v0c0-.65-.36-1-2.05-1.39-1.94-.47-3-1-3-2.72v0c0-1.56,1.3-2.64,3.1-2.64a5.07,5.07,0,0,1,3.31,1.14l-.86,1.21a4.15,4.15,0,0,0-2.47-.94c-.94,0-1.48.49-1.48,1.08v0c0,.7.41,1,2.15,1.43,1.93.47,2.93,1.16,2.93,2.66v0c0,1.7-1.34,2.72-3.25,2.72A5.59,5.59,0,0,1,222.39,13.85Z" transform="translate(0 0)" fill="#fff"/><path d="M231.27,13.28V9.67h-.87V8.31h.87V6.43h1.57V8.31h1.85V9.67h-1.85V13a.76.76,0,0,0,.85.86,2.16,2.16,0,0,0,1-.23v1.28a2.66,2.66,0,0,1-1.41.36A1.76,1.76,0,0,1,231.27,13.28Z" transform="translate(0 0)" fill="#fff"/><path d="M235.64,11.77v0A3.41,3.41,0,0,1,239,8.17c2.18,0,3.29,1.72,3.29,3.69,0,.15,0,.29,0,.45h-5a1.92,1.92,0,0,0,2,1.74,2.49,2.49,0,0,0,1.86-.82l.92.82a3.58,3.58,0,0,1-6.33-2.28Zm5.09-.5A1.79,1.79,0,0,0,239,9.46a1.86,1.86,0,0,0-1.78,1.81Z" transform="translate(0 0)" fill="#fff"/><path d="M243.83,8.31h1.57V9.46a2.75,2.75,0,0,1,2.33-1.29,3.29,3.29,0,0,1,3.2,3.56v0a3.29,3.29,0,0,1-3.2,3.56,2.81,2.81,0,0,1-2.33-1.21v3.15h-1.57Zm5.5,3.45v0a2,2,0,0,0-2-2.19,2.06,2.06,0,0,0-2,2.19v0a2.06,2.06,0,0,0,2,2.2A2,2,0,0,0,249.33,11.76Z" transform="translate(0 0)" fill="#fff"/><path d="M252.52,5.69h1.57V9.38a2.47,2.47,0,0,1,2.14-1.21,2.36,2.36,0,0,1,2.45,2.64v4.37h-1.57v-3.9c0-1.07-.54-1.68-1.47-1.68a1.53,1.53,0,0,0-1.55,1.7v3.88h-1.57Z" transform="translate(0 0)" fill="#fff"/><path d="M260.17,11.77v0a3.41,3.41,0,0,1,3.35-3.58c2.19,0,3.29,1.72,3.29,3.69,0,.15,0,.29,0,.45h-5.05a1.92,1.92,0,0,0,2,1.74,2.52,2.52,0,0,0,1.86-.82l.92.82a3.47,3.47,0,0,1-2.81,1.28A3.42,3.42,0,0,1,260.17,11.77Zm5.08-.5a1.78,1.78,0,0,0-1.74-1.81,1.86,1.86,0,0,0-1.78,1.81Z" transform="translate(0 0)" fill="#fff"/><path d="M268.36,8.31h1.57V9.38a2.47,2.47,0,0,1,2.15-1.21,2.36,2.36,0,0,1,2.44,2.64v4.37H273v-3.9c0-1.07-.54-1.68-1.47-1.68a1.53,1.53,0,0,0-1.55,1.7v3.88h-1.57Z" transform="translate(0 0)" fill="#fff"/><path d="M275.82,14.28l.7-1.06a3.91,3.91,0,0,0,2.25.84c.68,0,1.07-.29,1.07-.74v0c0-.53-.73-.71-1.54-1-1-.28-2.14-.7-2.14-2v0A2.18,2.18,0,0,1,278.6,8.2a4.76,4.76,0,0,1,2.52.78l-.62,1.12a3.94,3.94,0,0,0-1.94-.66c-.61,0-1,.29-1,.69v0c0,.49.74.7,1.55,1,1,.31,2.13.77,2.13,2v0c0,1.44-1.12,2.16-2.55,2.16A4.81,4.81,0,0,1,275.82,14.28Z" transform="translate(0 0)" fill="#fff"/><path d="M285.45,13.85l1-1.14a4.2,4.2,0,0,0,2.88,1.18c1,0,1.61-.45,1.61-1.14v0c0-.65-.37-1-2.06-1.39-1.93-.47-3-1-3-2.72v0c0-1.56,1.3-2.64,3.11-2.64a5,5,0,0,1,3.3,1.14l-.85,1.21a4.15,4.15,0,0,0-2.47-.94c-.94,0-1.49.49-1.49,1.08v0c0,.7.42,1,2.16,1.43,1.93.47,2.93,1.16,2.93,2.66v0c0,1.7-1.34,2.72-3.25,2.72A5.59,5.59,0,0,1,285.45,13.85Z" transform="translate(0 0)" fill="#fff"/><path d="M293.92,8.31h1.57V9.46a2.75,2.75,0,0,1,2.33-1.29,3.29,3.29,0,0,1,3.2,3.56v0a3.29,3.29,0,0,1-3.2,3.56,2.81,2.81,0,0,1-2.33-1.21v3.15h-1.57Zm5.5,3.45v0a2,2,0,0,0-2-2.19,2.06,2.06,0,0,0-2,2.19v0a2.06,2.06,0,0,0,2,2.2A2,2,0,0,0,299.42,11.76Z" transform="translate(0 0)" fill="#fff"/><path d="M302.55,5.77h1.69V7.26h-1.69Zm.06,2.54h1.58v6.87h-1.58Z" transform="translate(0 0)" fill="#fff"/><path d="M306.14,8.31h1.58V9.38a2.47,2.47,0,0,1,2.14-1.21,2.36,2.36,0,0,1,2.45,2.64v4.37h-1.58v-3.9c0-1.07-.53-1.68-1.47-1.68a1.52,1.52,0,0,0-1.54,1.7v3.88h-1.58Z" transform="translate(0 0)" fill="#fff"/><path d="M313.8,11.77v0a3.41,3.41,0,0,1,3.35-3.58c2.18,0,3.29,1.72,3.29,3.69a3.52,3.52,0,0,1,0,.45h-5a1.92,1.92,0,0,0,2,1.74,2.49,2.49,0,0,0,1.85-.82l.93.82a3.47,3.47,0,0,1-2.81,1.28A3.42,3.42,0,0,1,313.8,11.77Zm5.08-.5a1.78,1.78,0,0,0-1.74-1.81,1.86,1.86,0,0,0-1.78,1.81Z" transform="translate(0 0)" fill="#fff"/><path d="M159.86,29.13a4,4,0,0,1-2.79,1.18,2.69,2.69,0,0,1-3-2.6v0A2.74,2.74,0,0,1,156,25.13a2.93,2.93,0,0,1-.75-1.89v0a2.38,2.38,0,0,1,2.61-2.29,2.25,2.25,0,0,1,2.42,2.2v0c0,1.19-.8,1.91-2,2.36l1.56,1.59a12.22,12.22,0,0,0,1-1.76l1.21.64a14.83,14.83,0,0,1-1.24,2.08l1.43,1.46-1.18.84Zm-.91-.94-2-2.07a1.71,1.71,0,0,0-1.21,1.51v0A1.39,1.39,0,0,0,157.24,29,2.52,2.52,0,0,0,159,28.19Zm0-5v0a1,1,0,0,0-1-1,1,1,0,0,0-1.08,1.09v0a1.91,1.91,0,0,0,.69,1.35C158.41,24.31,158.9,23.89,158.9,23.24Z" transform="translate(0 0)" fill="#fff"/><path d="M166.82,21.08h1.48l4.87,6.29V21.08h1.58v9.1h-1.34l-5-6.48v6.48h-1.57Z" transform="translate(0 0)" fill="#fff"/><path d="M176.28,26.77v0a3.41,3.41,0,0,1,3.35-3.58c2.19,0,3.29,1.72,3.29,3.69,0,.15,0,.29,0,.45h-5.05a1.92,1.92,0,0,0,2,1.74,2.51,2.51,0,0,0,1.86-.82l.92.82a3.47,3.47,0,0,1-2.81,1.28A3.42,3.42,0,0,1,176.28,26.77Zm5.08-.5a1.78,1.78,0,0,0-1.74-1.81,1.86,1.86,0,0,0-1.78,1.81Z" transform="translate(0 0)" fill="#fff"/><path d="M184.38,27.68V23.31H186v3.9c0,1.07.53,1.68,1.46,1.68a1.53,1.53,0,0,0,1.55-1.7V23.31h1.57v6.87H189V29.11a2.47,2.47,0,0,1-2.14,1.21A2.36,2.36,0,0,1,184.38,27.68Z" transform="translate(0 0)" fill="#fff"/><path d="M192.47,23.31h1.58v1.55a2.43,2.43,0,0,1,2.43-1.68v1.67h-.09c-1.38,0-2.34.89-2.34,2.71v2.62h-1.58Z" transform="translate(0 0)" fill="#fff"/><path d="M197.27,26.78v0a3.66,3.66,0,0,1,7.32,0v0a3.66,3.66,0,0,1-7.32,0Zm5.75,0v0a2.12,2.12,0,0,0-2.11-2.21,2.06,2.06,0,0,0-2.07,2.18v0a2.13,2.13,0,0,0,2.1,2.21A2.07,2.07,0,0,0,203,26.78Z" transform="translate(0 0)" fill="#fff"/><path d="M205.51,29.28l.7-1.06a3.91,3.91,0,0,0,2.25.84c.68,0,1.07-.29,1.07-.74v0c0-.53-.73-.71-1.54-1-1-.28-2.14-.7-2.14-2v0a2.19,2.19,0,0,1,2.44-2.09,4.76,4.76,0,0,1,2.52.78l-.62,1.12a3.94,3.94,0,0,0-1.94-.66c-.61,0-1,.29-1,.69v0c0,.49.74.7,1.55,1,1,.31,2.13.77,2.13,2v0c0,1.44-1.12,2.16-2.55,2.16A4.81,4.81,0,0,1,205.51,29.28Z" transform="translate(0 0)" fill="#fff"/><path d="M212.05,26.78v0a3.54,3.54,0,0,1,3.57-3.59,3.43,3.43,0,0,1,2.74,1.18l-1,1.06a2.29,2.29,0,0,0-1.78-.86,2.06,2.06,0,0,0-2,2.18v0A2.09,2.09,0,0,0,215.68,29a2.4,2.4,0,0,0,1.78-.86l.95.94a3.6,3.6,0,0,1-6.36-2.27Z" transform="translate(0 0)" fill="#fff"/><path d="M219.68,20.77h1.69v1.49h-1.69Zm.06,2.54h1.58v6.87h-1.58Z" transform="translate(0 0)" fill="#fff"/><path d="M222.87,26.77v0a3.41,3.41,0,0,1,3.36-3.58c2.18,0,3.29,1.72,3.29,3.69,0,.15,0,.29,0,.45h-5a1.92,1.92,0,0,0,2,1.74,2.49,2.49,0,0,0,1.86-.82l.92.82a3.58,3.58,0,0,1-6.33-2.28Zm5.09-.5a1.79,1.79,0,0,0-1.75-1.81,1.86,1.86,0,0,0-1.78,1.81Z" transform="translate(0 0)" fill="#fff"/><path d="M231.06,23.31h1.58v1.07a2.45,2.45,0,0,1,2.14-1.21,2.35,2.35,0,0,1,2.44,2.64v4.37h-1.57v-3.9c0-1.07-.53-1.68-1.47-1.68a1.52,1.52,0,0,0-1.54,1.7v3.88h-1.58Z" transform="translate(0 0)" fill="#fff"/><path d="M238.69,26.78v0a3.54,3.54,0,0,1,3.56-3.59A3.45,3.45,0,0,1,245,24.35l-1,1.06a2.3,2.3,0,0,0-1.78-.86,2.07,2.07,0,0,0-2,2.18v0A2.09,2.09,0,0,0,242.32,29a2.42,2.42,0,0,0,1.78-.86l1,.94a3.6,3.6,0,0,1-6.36-2.27Z" transform="translate(0 0)" fill="#fff"/><path d="M245.85,26.77v0a3.41,3.41,0,0,1,3.36-3.58c2.18,0,3.29,1.72,3.29,3.69,0,.15,0,.29,0,.45h-5a1.92,1.92,0,0,0,2,1.74,2.49,2.49,0,0,0,1.86-.82l.93.82a3.47,3.47,0,0,1-2.81,1.28A3.43,3.43,0,0,1,245.85,26.77Zm5.09-.5a1.78,1.78,0,0,0-1.74-1.81,1.86,1.86,0,0,0-1.79,1.81Z" transform="translate(0 0)" fill="#fff"/><path d="M253.44,29.28l.7-1.06a3.91,3.91,0,0,0,2.25.84c.68,0,1.07-.29,1.07-.74v0c0-.53-.73-.71-1.54-1-1-.28-2.14-.7-2.14-2v0a2.19,2.19,0,0,1,2.44-2.09,4.79,4.79,0,0,1,2.53.78l-.63,1.12a3.91,3.91,0,0,0-1.94-.66c-.61,0-1,.29-1,.69v0c0,.49.74.7,1.55,1,1,.31,2.13.77,2.13,2v0c0,1.44-1.12,2.16-2.55,2.16A4.81,4.81,0,0,1,253.44,29.28Z" transform="translate(0 0)" fill="#fff"/><path d="M263.78,21.08h1.6v9.1h-1.6Z" transform="translate(0 0)" fill="#fff"/><path d="M267.31,23.31h1.57v1.07A2.47,2.47,0,0,1,271,23.17a2.36,2.36,0,0,1,2.44,2.64v4.37H271.9v-3.9c0-1.07-.54-1.68-1.47-1.68a1.53,1.53,0,0,0-1.55,1.7v3.88h-1.57Z" transform="translate(0 0)" fill="#fff"/><path d="M274.77,29.28l.7-1.06a3.89,3.89,0,0,0,2.25.84c.67,0,1.06-.29,1.06-.74v0c0-.53-.73-.71-1.53-1-1-.28-2.15-.7-2.15-2v0a2.19,2.19,0,0,1,2.45-2.09,4.76,4.76,0,0,1,2.52.78l-.62,1.12a4,4,0,0,0-1.94-.66c-.61,0-1,.29-1,.69v0c0,.49.74.7,1.54,1,1,.31,2.14.77,2.14,2v0c0,1.44-1.12,2.16-2.55,2.16A4.77,4.77,0,0,1,274.77,29.28Z" transform="translate(0 0)" fill="#fff"/><path d="M282.08,28.28V24.67h-.87V23.31h.87V21.43h1.57v1.88h1.85v1.36h-1.85V28a.75.75,0,0,0,.85.86,2.16,2.16,0,0,0,1-.23v1.28a2.67,2.67,0,0,1-1.42.36A1.76,1.76,0,0,1,282.08,28.28Z" transform="translate(0 0)" fill="#fff"/><path d="M287,20.77h1.69v1.49H287Zm.06,2.54h1.58v6.87H287Z" transform="translate(0 0)" fill="#fff"/><path d="M290.82,28.28V24.67H290V23.31h.87V21.43h1.57v1.88h1.85v1.36h-1.85V28a.76.76,0,0,0,.85.86,2.16,2.16,0,0,0,1-.23v1.28a2.66,2.66,0,0,1-1.41.36A1.76,1.76,0,0,1,290.82,28.28Z" transform="translate(0 0)" fill="#fff"/><path d="M295.61,27.68V23.31h1.58v3.9c0,1.07.53,1.68,1.47,1.68a1.52,1.52,0,0,0,1.54-1.7V23.31h1.58v6.87H300.2V29.11a2.47,2.47,0,0,1-2.14,1.21A2.36,2.36,0,0,1,295.61,27.68Z" transform="translate(0 0)" fill="#fff"/><path d="M304,28.28V24.67h-.87V23.31H304V21.43h1.58v1.88h1.84v1.36h-1.84V28a.75.75,0,0,0,.84.86,2.24,2.24,0,0,0,1-.23v1.28a2.69,2.69,0,0,1-1.42.36A1.76,1.76,0,0,1,304,28.28Z" transform="translate(0 0)" fill="#fff"/><path d="M308.38,26.77v0a3.41,3.41,0,0,1,3.36-3.58c2.18,0,3.29,1.72,3.29,3.69,0,.15,0,.29,0,.45h-5a1.92,1.92,0,0,0,2,1.74,2.49,2.49,0,0,0,1.86-.82l.93.82a3.49,3.49,0,0,1-2.81,1.28A3.43,3.43,0,0,1,308.38,26.77Zm5.09-.5a1.78,1.78,0,0,0-1.74-1.81,1.86,1.86,0,0,0-1.79,1.81Z" transform="translate(0 0)" fill="#fff"/><path d="M136.09,33.1c0-.58-.44-.85-1-.85h-1.21v2.57h.63V34h.39l.56.81h.75l-.65-.92A.81.81,0,0,0,136.09,33.1Zm-1.08.4h-.54v-.71H135c.27,0,.44.13.44.35S135.29,33.5,135,33.5Z" transform="translate(0 0)" fill="#fff"/><path d="M134.86,31a2.63,2.63,0,1,0,2.63,2.62A2.62,2.62,0,0,0,134.86,31Zm2.19,2.61v0a2.19,2.19,0,1,1-4.38,0h0a2.2,2.2,0,0,1,2.19-2.22A2.17,2.17,0,0,1,137.05,33.57Z" transform="translate(0 0)" fill="#fff"/></svg>