<svg xmlns="http://www.w3.org/2000/svg" width="195.41" height="36.05" viewBox="0 0 195.41 36.05"><title>College of Public Health</title><path d="M.89,2.8h9.19v2h-7V8.15H9.28v2H3.05v5H.89Z" transform="translate(-0.89 -2.77)"/><path d="M10.25,12.47v0c0-2,1.59-3,3.86-3a7.83,7.83,0,0,1,2.51.39V9.59c0-1.32-.81-2-2.31-2a6.42,6.42,0,0,0-2.67.59l-.58-1.68a8.08,8.08,0,0,1,3.53-.76,4.2,4.2,0,0,1,3.09,1,3.9,3.9,0,0,1,1,2.88v5.52H16.6V14a3.83,3.83,0,0,1-3,1.36C11.82,15.35,10.25,14.34,10.25,12.47Zm6.4-.67v-.64a5.91,5.91,0,0,0-2.11-.37c-1.38,0-2.19.58-2.19,1.56v0c0,.9.79,1.41,1.82,1.41C15.58,13.79,16.65,13,16.65,11.8Z" transform="translate(-0.89 -2.77)"/><path d="M26.46,5.84h2.22L25,15.4C24.23,17.32,23.4,18,21.9,18a4.22,4.22,0,0,1-2.2-.59l.72-1.57a2.55,2.55,0,0,0,1.26.36c.59,0,1-.27,1.32-1.06L19.12,5.84h2.29L24,12.75Z" transform="translate(-0.89 -2.77)"/><path d="M34,2.8h2.34L39.33,12l3-9.19H44.2l3,9.19,3-9.16h2.27L48.17,15.24H46.28l-3-8.88-3,8.88H38.32Z" transform="translate(-0.89 -2.77)"/><path d="M52,12.72h2.34v2.43H52Z" transform="translate(-0.89 -2.77)"/><path d="M61.35,2.8h5.54a4.45,4.45,0,0,1,3.23,1.1,2.76,2.76,0,0,1,.83,2V6a2.94,2.94,0,0,1-1.77,2.75c1.45.49,2.46,1.32,2.46,3v0c0,2.21-1.82,3.39-4.57,3.39H61.35Zm7.43,3.49c0-1-.78-1.57-2.17-1.57H63.49V8h3c1.39,0,2.33-.55,2.33-1.68ZM66.93,9.84H63.49v3.39h3.59c1.47,0,2.39-.58,2.39-1.7v0C69.47,10.46,68.64,9.84,66.93,9.84Z" transform="translate(-0.89 -2.77)"/><path d="M72.79,10.55v0a5,5,0,0,1,9.94,0v0a4.87,4.87,0,0,1-5,4.85A4.82,4.82,0,0,1,72.79,10.55Zm7.8,0v0a2.88,2.88,0,0,0-2.86-3,2.79,2.79,0,0,0-2.8,3v0a2.87,2.87,0,0,0,2.84,3A2.79,2.79,0,0,0,80.59,10.55Z" transform="translate(-0.89 -2.77)"/><path d="M83.85,10.55v0a4.88,4.88,0,0,1,5-4.87,4.83,4.83,0,0,1,5,4.84v0a5,5,0,0,1-9.93,0Zm7.8,0v0a2.88,2.88,0,0,0-2.86-3,2.79,2.79,0,0,0-2.8,3v0a2.87,2.87,0,0,0,2.84,3A2.79,2.79,0,0,0,91.65,10.55Z" transform="translate(-0.89 -2.77)"/><path d="M94.29,13.69l5.38-6.11H94.48V5.84h7.91V7.3L97,13.4h5.38v1.75h-8.1Z" transform="translate(-0.89 -2.77)"/><path d="M104,5.84h2.15V7.25A3.34,3.34,0,0,1,109,5.64a2.94,2.94,0,0,1,2.79,1.64A3.74,3.74,0,0,1,115,5.64c2,0,3.27,1.29,3.27,3.57v5.94h-2.14V9.86c0-1.48-.69-2.28-1.89-2.28s-2,.81-2,2.31v5.26h-2.13V9.84c0-1.45-.71-2.26-1.89-2.26a2,2,0,0,0-2,2.31v5.26H104Z" transform="translate(-0.89 -2.77)"/><path d="M119.28,12.47v0c0-2,1.58-3,3.86-3a7.83,7.83,0,0,1,2.51.39V9.59c0-1.32-.82-2-2.32-2a6.37,6.37,0,0,0-2.66.59l-.58-1.68a8.08,8.08,0,0,1,3.53-.76,4.16,4.16,0,0,1,3.08,1,3.87,3.87,0,0,1,1,2.88v5.52h-2.08V14a3.83,3.83,0,0,1-3,1.36C120.85,15.35,119.28,14.34,119.28,12.47Zm6.4-.67v-.64a6,6,0,0,0-2.12-.37c-1.37,0-2.18.58-2.18,1.56v0c0,.9.79,1.41,1.81,1.41C124.6,13.79,125.68,13,125.68,11.8Z" transform="translate(-0.89 -2.77)"/><path d="M129.36,5.84h2.16V7.27a3.36,3.36,0,0,1,2.91-1.63c2.1,0,3.31,1.41,3.31,3.57v5.94h-2.13V9.86c0-1.45-.72-2.28-2-2.28a2.07,2.07,0,0,0-2.09,2.31v5.26h-2.16Z" transform="translate(-0.89 -2.77)"/><path d="M.89,29.81v0a6.24,6.24,0,0,1,6.35-6.39,6.45,6.45,0,0,1,4.85,1.93l-1.4,1.6A4.9,4.9,0,0,0,7.22,25.4a4.14,4.14,0,0,0-4.06,4.34v0a4.15,4.15,0,0,0,4.08,4.37,4.85,4.85,0,0,0,3.54-1.58L12.18,34a6.39,6.39,0,0,1-5,2.19A6.2,6.2,0,0,1,.89,29.81Z" transform="translate(-0.89 -2.77)"/><path d="M12.65,31.35v0a4.87,4.87,0,0,1,5-4.87,4.83,4.83,0,0,1,5,4.84v0a4.88,4.88,0,0,1-5,4.86A4.82,4.82,0,0,1,12.65,31.35Zm7.79,0v0a2.88,2.88,0,0,0-2.85-3,2.8,2.8,0,0,0-2.81,3v0a2.87,2.87,0,0,0,2.84,3A2.8,2.8,0,0,0,20.44,31.35Z" transform="translate(-0.89 -2.77)"/><path d="M23.62,23.08h2.15V36H23.62Z" transform="translate(-0.89 -2.77)"/><path d="M28.13,23.08h2.15V36H28.13Z" transform="translate(-0.89 -2.77)"/><path d="M31.67,31.33v0a4.63,4.63,0,0,1,4.55-4.86c3,0,4.47,2.33,4.47,5,0,.19,0,.38,0,.6H33.81a2.6,2.6,0,0,0,2.68,2.36A3.39,3.39,0,0,0,39,33.31l1.25,1.11a4.71,4.71,0,0,1-3.81,1.75A4.65,4.65,0,0,1,31.67,31.33Zm6.9-.69a2.42,2.42,0,0,0-2.36-2.45,2.52,2.52,0,0,0-2.42,2.45Z" transform="translate(-0.89 -2.77)"/><path d="M41.94,37.7l.79-1.6a6.17,6.17,0,0,0,3.32,1c1.9,0,2.94-1,2.94-2.83v-.71a3.91,3.91,0,0,1-3.28,1.69,4.17,4.17,0,0,1-4.23-4.35v0a4.2,4.2,0,0,1,4.23-4.38A4,4,0,0,1,49,28V26.64h2.14v7.41a4.8,4.8,0,0,1-1.18,3.51,5.25,5.25,0,0,1-3.83,1.25A8,8,0,0,1,41.94,37.7ZM49,30.84v0a2.59,2.59,0,0,0-2.73-2.54,2.5,2.5,0,0,0-2.65,2.54v0a2.54,2.54,0,0,0,2.65,2.56A2.6,2.6,0,0,0,49,30.84Z" transform="translate(-0.89 -2.77)"/><path d="M52.39,31.33v0a4.63,4.63,0,0,1,4.55-4.86c3,0,4.47,2.33,4.47,5,0,.19,0,.38,0,.6H54.53a2.6,2.6,0,0,0,2.68,2.36,3.39,3.39,0,0,0,2.52-1.11L61,34.42a4.71,4.71,0,0,1-3.81,1.75A4.65,4.65,0,0,1,52.39,31.33Zm6.9-.69a2.42,2.42,0,0,0-2.36-2.45,2.52,2.52,0,0,0-2.42,2.45Z" transform="translate(-0.89 -2.77)"/><path d="M66.92,31.35v0a5,5,0,0,1,9.93,0v0a4.87,4.87,0,0,1-5,4.86A4.82,4.82,0,0,1,66.92,31.35Zm7.8,0v0a2.88,2.88,0,0,0-2.86-3,2.8,2.8,0,0,0-2.8,3v0a2.87,2.87,0,0,0,2.84,3A2.8,2.8,0,0,0,74.72,31.35Z" transform="translate(-0.89 -2.77)"/><path d="M78.61,28.47H77.43V26.69h1.18V26a3.16,3.16,0,0,1,.76-2.29A2.83,2.83,0,0,1,81.45,23a5.81,5.81,0,0,1,1.75.25V25A3.74,3.74,0,0,0,82,24.79c-.81,0-1.24.46-1.24,1.41v.51h2.47v1.76H80.75V36H78.61Z" transform="translate(-0.89 -2.77)"/><path d="M89.25,23.6h4.86c2.9,0,4.7,1.65,4.7,4.13v0c0,2.77-2.23,4.21-4.94,4.21H91.41v4H89.25ZM93.94,30c1.64,0,2.66-.92,2.66-2.21v0c0-1.45-1-2.21-2.66-2.21H91.41V30Z" transform="translate(-0.89 -2.77)"/><path d="M100.16,32.57V26.64h2.13v5.29c0,1.45.73,2.26,2,2.26a2.06,2.06,0,0,0,2.1-2.29V26.64h2.15V36h-2.15V34.51a3.36,3.36,0,0,1-2.91,1.64C101.38,36.15,100.16,34.74,100.16,32.57Z" transform="translate(-0.89 -2.77)"/><path d="M112.8,34.51V36h-2.15V23.08h2.15v5.11A3.74,3.74,0,0,1,116,26.44c2.19,0,4.32,1.73,4.32,4.84v0c0,3.09-2.11,4.84-4.32,4.84A3.84,3.84,0,0,1,112.8,34.51Zm5.33-3.2v0a2.76,2.76,0,0,0-2.66-3,2.81,2.81,0,0,0-2.72,3v0a2.81,2.81,0,0,0,2.72,3A2.73,2.73,0,0,0,118.13,31.31Z" transform="translate(-0.89 -2.77)"/><path d="M121.37,23.08h2.16V36h-2.16Z" transform="translate(-0.89 -2.77)"/><path d="M125.82,23.18h2.29v2h-2.29Zm.07,3.46H128V36h-2.15Z" transform="translate(-0.89 -2.77)"/><path d="M129.43,31.35v0a4.81,4.81,0,0,1,4.85-4.87A4.69,4.69,0,0,1,138,28.05l-1.34,1.43a3.18,3.18,0,0,0-2.4-1.17,2.82,2.82,0,0,0-2.7,3v0a2.83,2.83,0,0,0,2.79,3,3.29,3.29,0,0,0,2.42-1.15l1.29,1.27a4.88,4.88,0,0,1-8.63-3.07Z" transform="translate(-0.89 -2.77)"/><path d="M144.49,23.6h2.17v5.14h5.89V23.6h2.17V36h-2.17v-5.2h-5.89V36h-2.17Z" transform="translate(-0.89 -2.77)"/><path d="M156.25,31.33v0a4.63,4.63,0,0,1,4.55-4.86c3,0,4.47,2.33,4.47,5,0,.19,0,.38,0,.6h-6.84a2.6,2.6,0,0,0,2.68,2.36,3.39,3.39,0,0,0,2.52-1.11l1.25,1.11a4.86,4.86,0,0,1-8.59-3.09Zm6.9-.69a2.42,2.42,0,0,0-2.36-2.45,2.53,2.53,0,0,0-2.42,2.45Z" transform="translate(-0.89 -2.77)"/><path d="M166.25,33.27v0c0-2,1.59-3,3.87-3a7.76,7.76,0,0,1,2.5.39V30.4c0-1.33-.81-2-2.31-2a6.57,6.57,0,0,0-2.67.58l-.58-1.68a8.23,8.23,0,0,1,3.53-.75,4.2,4.2,0,0,1,3.09,1,3.85,3.85,0,0,1,1,2.87V36H172.6V34.79a3.76,3.76,0,0,1-3,1.36C167.82,36.15,166.25,35.14,166.25,33.27Zm6.4-.67V32a5.87,5.87,0,0,0-2.11-.37c-1.38,0-2.19.58-2.19,1.55v0c0,.9.79,1.42,1.82,1.42C171.58,34.6,172.65,33.78,172.65,32.6Z" transform="translate(-0.89 -2.77)"/><path d="M176.46,23.08h2.15V36h-2.15Z" transform="translate(-0.89 -2.77)"/><path d="M181.66,33.38V28.47h-1.18V26.64h1.18V24.08h2.13v2.56h2.51v1.83h-2.51V33a1,1,0,0,0,1.15,1.17,2.93,2.93,0,0,0,1.33-.32v1.75a3.7,3.7,0,0,1-1.93.47C182.77,36.11,181.66,35.42,181.66,33.38Z" transform="translate(-0.89 -2.77)"/><path d="M187.92,23.08h2.15v5A3.38,3.38,0,0,1,193,26.44c2.1,0,3.32,1.42,3.32,3.57V36h-2.13V30.66c0-1.44-.73-2.27-2-2.27a2.07,2.07,0,0,0-2.1,2.31V36h-2.15Z" transform="translate(-0.89 -2.77)"/></svg>