<svg xmlns="http://www.w3.org/2000/svg" width="3.59in" height="0.5in" viewBox="0 0 258.5 36.28" preserveAspectRatio="xMidYMid meet"><title>University of Arkansas for Medical Sciences Graduate School Logo</title><path d="M30,22.14c0,3.77.1,7.28-2.67,10.31-2.35,2.57-6,3.73-9.47,3.83H14.44C11,36.18,7.32,35.08,5,32.51,2.2,29.48,2.3,26,2.3,22.21v-14c0-2.35.37-6.17-2.3-7.16V.92H9.94v.16c-2.62,1-2.3,4.81-2.3,7.16v14c0,7,2.93,10.2,8.32,10.2a9.25,9.25,0,0,0,7.63-3.66c1.15-1.57,1.1-2.88,1.1-4.76V8.24c0-2.35.31-6.17-2.3-7.16V.92h9.94l.05.16C29.71,2.07,30,5.89,30,8.3L30,22.14Z" transform="translate(0 0)" fill="#fff"/><path d="M45.61,5.37,39.08,22.42l-2.73,7.37c-1.1,2.93-1.46,4.45,1,5.39v.16H27.78v-.16c3-1.51,3.92-4.44,5.07-7.43L41.58,5.94c.74-1.88,1.73-4.08-.78-4.86V.92h8.26L59.94,27.75c1.2,3,2.15,5.92,5.13,7.43v.16H54.34v-.16c2.57-1.15,2.15-1.72.74-5.39l-2.83-7.37-6.64-17Z" transform="translate(0 0)" fill="#fff"/><path d="M95.36,4.21A9.09,9.09,0,0,0,96.14,1v0h9v.16c-1.26.36-1.62,1.88-1.62,3.08L107,29.85c.31,2.46.58,3.87,2.67,5.33v.16H99.59v-.16c1.84-.57,2.15-2.14,2.15-3.92L98.76,6,87,36c-2.62-2-3.35-3.4-4.61-6.33L72.5,6.1l-3,22.49c-.42,3.19-.79,5.49,1.67,6.59v.16H62.66v-.16c2.2-1.93,2.51-4.5,2.93-7.32l3-21.92c.21-1.46.79-3.55-1.62-4.86V.92h9.16V1a6.25,6.25,0,0,0,.73,2.36l9.83,23.06L95.36,4.21Z" transform="translate(0 0)" fill="#fff"/><path d="M130.45,7.15a11.87,11.87,0,0,0-8.21-3.3c-3,0-6.75,1.15-6.75,4.76,0,7.17,18,7.06,18,16.74,0,5.6-5.85,10.83-14,10.83a27,27,0,0,1-9.36-1.57l-1.52-6.54A18.09,18.09,0,0,0,120,32.41c3,0,7.48-1.78,7.48-5.44,0-8.16-18-6.7-18-17.79,0-6.58,6.76-9.1,13.14-9.1a26.44,26.44,0,0,1,7.79,1.15V7.15Z" transform="translate(0 0)" fill="#fff"/><path d="M45.69,29.28a4.38,4.38,0,1,0-4.38-4.38,4.39,4.39,0,0,0,4.38,4.38Z" transform="translate(0 0)" fill="#9d2235"/><path d="M153.75,18.07v0a4.64,4.64,0,0,1,4.69-4.71,5,5,0,0,1,3.5,1.24l-1,1.21a3.56,3.56,0,0,0-2.55-1,3.08,3.08,0,0,0-3,3.21v0a3,3,0,0,0,3.1,3.25,3.69,3.69,0,0,0,2.19-.69V18.9h-2.32V17.51h3.87v3.82a5.79,5.79,0,0,1-3.8,1.42A4.51,4.51,0,0,1,153.75,18.07Z" transform="translate(0 0)" fill="#fff"/><path d="M164,15.73h1.57v1.54A2.43,2.43,0,0,1,168,15.6v1.66h-.09c-1.38,0-2.34.9-2.34,2.72v2.61H164Z" transform="translate(0 0)" fill="#fff"/><path d="M173.34,22.59v-.84a2.78,2.78,0,0,1-2.22,1,2.19,2.19,0,0,1-2.44-2.11v0c0-1.52,1.18-2.25,2.78-2.25a5.79,5.79,0,0,1,1.9.29V18.5c0-.95-.6-1.47-1.69-1.47a4.82,4.82,0,0,0-2,.43l-.42-1.27a6,6,0,0,1,2.61-.57c2,0,3,1.07,3,2.9v4.07Zm0-2.87a4.37,4.37,0,0,0-1.57-.28c-1,0-1.57.41-1.57,1.07v0c0,.65.58,1,1.32,1,1,0,1.82-.58,1.82-1.44Z" transform="translate(0 0)" fill="#fff"/><path d="M176.39,19.17v0a3.28,3.28,0,0,1,3.19-3.57,2.85,2.85,0,0,1,2.34,1.21V13.1h1.57v9.49h-1.57V21.45a2.75,2.75,0,0,1-2.34,1.28A3.29,3.29,0,0,1,176.39,19.17Zm5.56,0v0a2.06,2.06,0,0,0-2-2.2,2,2,0,0,0-2,2.2v0a2,2,0,0,0,2,2.2A2.07,2.07,0,0,0,182,19.17Z" transform="translate(0 0)" fill="#fff"/><path d="M185.37,20.09V15.73h1.57v3.9c0,1.06.53,1.67,1.47,1.67A1.52,1.52,0,0,0,190,19.6V15.73h1.57v6.86H190V21.52a2.48,2.48,0,0,1-2.15,1.21A2.35,2.35,0,0,1,185.37,20.09Z" transform="translate(0 0)" fill="#fff"/><path d="M197.68,22.59v-.84a2.79,2.79,0,0,1-2.22,1A2.2,2.2,0,0,1,193,20.62v0c0-1.52,1.19-2.25,2.78-2.25a5.7,5.7,0,0,1,1.9.29V18.5c0-.95-.6-1.47-1.69-1.47a4.78,4.78,0,0,0-2,.43l-.43-1.27a6,6,0,0,1,2.61-.57c2,0,3,1.07,3,2.9v4.07Zm0-2.87a4.37,4.37,0,0,0-1.57-.28c-1,0-1.58.41-1.58,1.07v0c0,.65.59,1,1.33,1,1,0,1.82-.58,1.82-1.44Z" transform="translate(0 0)" fill="#fff"/><path d="M201.27,20.69V17.08h-.87V15.73h.87V13.84h1.58v1.89h1.84v1.35h-1.84v3.37a.74.74,0,0,0,.84.85,2.08,2.08,0,0,0,1-.23v1.29a2.79,2.79,0,0,1-1.42.35A1.76,1.76,0,0,1,201.27,20.69Z" transform="translate(0 0)" fill="#fff"/><path d="M205.65,19.18v0A3.41,3.41,0,0,1,209,15.58c2.18,0,3.29,1.72,3.29,3.7a3.49,3.49,0,0,1,0,.44h-5a1.91,1.91,0,0,0,2,1.74,2.49,2.49,0,0,0,1.86-.82l.93.82a3.48,3.48,0,0,1-2.81,1.29A3.43,3.43,0,0,1,205.65,19.18Zm5.08-.5A1.78,1.78,0,0,0,209,16.87a1.85,1.85,0,0,0-1.78,1.81Z" transform="translate(0 0)" fill="#fff"/><path d="M216.45,21.26l1-1.14a4.2,4.2,0,0,0,2.87,1.18c1,0,1.62-.45,1.62-1.14v0c0-.65-.37-1-2.06-1.39-1.94-.47-3-1-3-2.71v0c0-1.56,1.3-2.64,3.11-2.64a5,5,0,0,1,3.3,1.14l-.86,1.21a4.11,4.11,0,0,0-2.47-.93c-.93,0-1.48.48-1.48,1.08v0c0,.7.42,1,2.16,1.43,1.92.47,2.93,1.16,2.93,2.67v0c0,1.71-1.34,2.72-3.25,2.72A5.58,5.58,0,0,1,216.45,21.26Z" transform="translate(0 0)" fill="#fff"/><path d="M224.5,19.2v0a3.54,3.54,0,0,1,3.56-3.59,3.43,3.43,0,0,1,2.75,1.19l-1,1.05a2.3,2.3,0,0,0-1.78-.86,2.07,2.07,0,0,0-2,2.19v0a2.09,2.09,0,0,0,2.06,2.21,2.42,2.42,0,0,0,1.78-.86l1,.94a3.6,3.6,0,0,1-6.36-2.26Z" transform="translate(0 0)" fill="#fff"/><path d="M232.18,13.1h1.57v3.69a2.47,2.47,0,0,1,2.14-1.21,2.36,2.36,0,0,1,2.45,2.64v4.37h-1.58v-3.9c0-1.07-.53-1.68-1.46-1.68a1.53,1.53,0,0,0-1.55,1.71v3.87h-1.57Z" transform="translate(0 0)" fill="#fff"/><path d="M239.54,19.2v0a3.59,3.59,0,0,1,3.67-3.59,3.55,3.55,0,0,1,3.65,3.57v0a3.59,3.59,0,0,1-3.68,3.58A3.55,3.55,0,0,1,239.54,19.2Zm5.75,0v0A2.12,2.12,0,0,0,243.18,17a2.06,2.06,0,0,0-2.06,2.19v0a2.12,2.12,0,0,0,2.09,2.21A2.07,2.07,0,0,0,245.29,19.2Z" transform="translate(0 0)" fill="#fff"/><path d="M248,19.2v0a3.59,3.59,0,0,1,3.67-3.59,3.55,3.55,0,0,1,3.65,3.57v0a3.59,3.59,0,0,1-3.68,3.58A3.55,3.55,0,0,1,248,19.2Zm5.75,0v0A2.12,2.12,0,0,0,251.65,17a2.06,2.06,0,0,0-2.06,2.19v0a2.12,2.12,0,0,0,2.09,2.21A2.07,2.07,0,0,0,253.76,19.2Z" transform="translate(0 0)" fill="#fff"/><path d="M256.93,13.1h1.57v9.49h-1.57Z" transform="translate(0 0)" fill="#fff"/><rect x="144.9" width="1" height="36.07" fill="#9d2235"/><path d="M136.08,33.09c0-.59-.45-.86-1-.86h-1.21v2.58h.62V34h.4l.56.81h.75l-.65-.93A.78.78,0,0,0,136.08,33.09Zm-1.09.39h-.54v-.71H135c.28,0,.45.13.45.36S135.28,33.48,135,33.48Z" transform="translate(0 0)" fill="#fff"/><path d="M134.85,30.94a2.63,2.63,0,1,0,2.63,2.63A2.63,2.63,0,0,0,134.85,30.94ZM137,33.56h0a2.19,2.19,0,1,1-4.38,0h0a2.19,2.19,0,1,1,4.38,0Z" transform="translate(0 0)" fill="#fff"/></svg>