<svg xmlns="http://www.w3.org/2000/svg" width="174.72" height="36.65" viewBox="0 0 174.72 36.65"><title>Donald W. Reynolds Institute on Aging</title><path d="M.9,2.86H5.57c3.94,0,6.67,2.7,6.67,6.23v0c0,3.53-2.73,6.27-6.67,6.27H.9ZM5.57,13.39A4.09,4.09,0,0,0,9.93,9.16v0A4.12,4.12,0,0,0,5.57,4.86H3.1v8.53Z" transform="translate(-0.9 -2.32)"/><path d="M14.05,10.72v0A5,5,0,0,1,19.1,5.74a4.9,4.9,0,0,1,5,4.91v0a5,5,0,0,1-5.07,4.93A4.9,4.9,0,0,1,14.05,10.72Zm7.92,0v0a2.93,2.93,0,0,0-2.91-3,2.84,2.84,0,0,0-2.85,3v0a2.93,2.93,0,0,0,2.89,3A2.86,2.86,0,0,0,22,10.72Z" transform="translate(-0.9 -2.32)"/><path d="M26.25,5.94h2.16V7.41a3.4,3.4,0,0,1,3-1.67c2.13,0,3.37,1.44,3.37,3.64v6H32.57V10c0-1.46-.73-2.31-2-2.31a2.11,2.11,0,0,0-2.14,2.35V15.4H26.25Z" transform="translate(-0.9 -2.32)"/><path d="M43.09,15.4V14.24A3.8,3.8,0,0,1,40,15.6c-1.79,0-3.37-1-3.37-2.92v0c0-2.1,1.63-3.1,3.84-3.1a7.74,7.74,0,0,1,2.61.4V9.76c0-1.31-.82-2-2.33-2a6.56,6.56,0,0,0-2.7.59l-.59-1.74a8.2,8.2,0,0,1,3.6-.78c2.79,0,4.15,1.47,4.15,4V15.4Zm.06-4A6.35,6.35,0,0,0,41,11.06c-1.36,0-2.17.56-2.17,1.47v0c0,.89.81,1.4,1.83,1.4,1.43,0,2.51-.81,2.51-2Z" transform="translate(-0.9 -2.32)"/><path d="M47.88,2.32H50V15.4H47.88Z" transform="translate(-0.9 -2.32)"/><path d="M52.28,10.69v0c0-3.13,2.14-4.91,4.39-4.91A3.92,3.92,0,0,1,59.9,7.41V2.32h2.17V15.4H59.9V13.82a3.79,3.79,0,0,1-3.23,1.78C54.45,15.6,52.28,13.82,52.28,10.69Zm7.65,0v0a2.84,2.84,0,0,0-2.74-3,2.78,2.78,0,0,0-2.72,3v0a2.81,2.81,0,0,0,2.72,3A2.85,2.85,0,0,0,59.93,10.69Z" transform="translate(-0.9 -2.32)"/><path d="M68.19,2.86h2.38l3,9.3,3.08-9.34h1.86l3.08,9.34,3-9.3H86.9L82.52,15.49H80.63l-3.09-9-3.08,9h-1.9Z" transform="translate(-0.9 -2.32)"/><path d="M86.57,13H89V15.4H86.57Z" transform="translate(-0.9 -2.32)"/><path d="M95.92,2.86h5.59a5,5,0,0,1,3.62,1.25,3.78,3.78,0,0,1,1,2.71v0a3.76,3.76,0,0,1-3,3.8l3.39,4.75H104L100.89,11H98.13V15.4H95.92Zm5.43,6.22c1.58,0,2.58-.83,2.58-2.1v0c0-1.34-1-2.08-2.6-2.08h-3.2V9.08Z" transform="translate(-0.9 -2.32)"/><path d="M107.92,10.71v0a4.7,4.7,0,0,1,4.63-4.93c3,0,4.53,2.37,4.53,5.09,0,.2,0,.4,0,.61h-7a2.65,2.65,0,0,0,2.73,2.4,3.42,3.42,0,0,0,2.56-1.13l1.27,1.13a4.78,4.78,0,0,1-3.87,1.78A4.73,4.73,0,0,1,107.92,10.71Zm7-.7a2.45,2.45,0,0,0-2.4-2.49A2.56,2.56,0,0,0,110.07,10Z" transform="translate(-0.9 -2.32)"/><path d="M118.39,17.75l.73-1.61a2.75,2.75,0,0,0,1.27.35c.61,0,1-.27,1.35-1.09L117.8,5.94h2.31l2.68,7,2.46-7h2.26l-3.77,9.73c-.75,1.93-1.59,2.65-3.11,2.65A4.38,4.38,0,0,1,118.39,17.75Z" transform="translate(-0.9 -2.32)"/><path d="M129.18,5.94h2.17V7.41a3.4,3.4,0,0,1,3-1.67c2.13,0,3.37,1.44,3.37,3.64v6h-2.17V10c0-1.46-.74-2.31-2-2.31a2.11,2.11,0,0,0-2.13,2.35V15.4h-2.17Z" transform="translate(-0.9 -2.32)"/><path d="M139.7,10.72v0a5,5,0,0,1,10.08,0v0a5,5,0,0,1-5.07,4.93A4.9,4.9,0,0,1,139.7,10.72Zm7.91,0v0a2.92,2.92,0,0,0-2.9-3,2.84,2.84,0,0,0-2.85,3v0a2.93,2.93,0,0,0,2.89,3A2.85,2.85,0,0,0,147.61,10.72Z" transform="translate(-0.9 -2.32)"/><path d="M152,2.32h2.17V15.4H152Z" transform="translate(-0.9 -2.32)"/><path d="M156.39,10.69v0c0-3.13,2.13-4.91,4.39-4.91A3.9,3.9,0,0,1,164,7.41V2.32h2.17V15.4H164V13.82a3.78,3.78,0,0,1-3.22,1.78C158.56,15.6,156.39,13.82,156.39,10.69Zm7.65,0v0a2.84,2.84,0,0,0-2.74-3,2.78,2.78,0,0,0-2.73,3v0a2.82,2.82,0,0,0,2.73,3A2.85,2.85,0,0,0,164,10.69Z" transform="translate(-0.9 -2.32)"/><path d="M168.09,14.16l1-1.46a5.41,5.41,0,0,0,3.1,1.16c.94,0,1.47-.4,1.47-1v0c0-.73-1-1-2.11-1.32-1.4-.4-3-1-3-2.78v0c0-1.79,1.49-2.88,3.37-2.88a6.62,6.62,0,0,1,3.48,1.07l-.86,1.55a5.47,5.47,0,0,0-2.67-.9c-.84,0-1.33.39-1.33.95v0c0,.68,1,1,2.13,1.33,1.38.43,2.94,1.06,2.94,2.76v0c0,2-1.54,3-3.51,3A6.59,6.59,0,0,1,168.09,14.16Z" transform="translate(-0.9 -2.32)"/><path d="M.91,23.53h2.2V36.07H.91Z" transform="translate(-0.9 -2.32)"/><path d="M6.13,26.61H8.3v1.47a3.42,3.42,0,0,1,3-1.66c2.13,0,3.37,1.43,3.37,3.63v6H12.46V30.7c0-1.47-.74-2.31-2-2.31A2.1,2.1,0,0,0,8.3,30.73v5.34H6.13Z" transform="translate(-0.9 -2.32)"/><path d="M16.41,34.84l1-1.47a5.3,5.3,0,0,0,3.1,1.16c.93,0,1.47-.39,1.47-1v0c0-.73-1-1-2.12-1.32-1.39-.4-2.95-1-2.95-2.78v0c0-1.8,1.48-2.89,3.36-2.89a6.49,6.49,0,0,1,3.48,1.08l-.86,1.54a5.44,5.44,0,0,0-2.67-.9c-.84,0-1.32.4-1.32.95v0c0,.68,1,1,2.13,1.32,1.38.43,2.94,1.06,2.94,2.76v0c0,2-1.55,3-3.52,3A6.64,6.64,0,0,1,16.41,34.84Z" transform="translate(-0.9 -2.32)"/><path d="M26.49,33.46v-5h-1.2V26.61h1.2V24h2.17v2.6H31.2v1.86H28.66v4.65a1,1,0,0,0,1.16,1.18A3,3,0,0,0,31.16,34v1.77a3.8,3.8,0,0,1-1.95.48C27.62,36.23,26.49,35.54,26.49,33.46Z" transform="translate(-0.9 -2.32)"/><path d="M33.2,23.1h2.33v2.06H33.2Zm.09,3.51h2.17v9.46H33.29Z" transform="translate(-0.9 -2.32)"/><path d="M38.54,33.46v-5h-1.2V26.61h1.2V24h2.17v2.6h2.54v1.86H40.71v4.65a1,1,0,0,0,1.16,1.18A3,3,0,0,0,43.21,34v1.77a3.8,3.8,0,0,1-2,.48C39.67,36.23,38.54,35.54,38.54,33.46Z" transform="translate(-0.9 -2.32)"/><path d="M45.14,32.63v-6h2.17V32c0,1.47.74,2.31,2,2.31A2.11,2.11,0,0,0,51.47,32V26.61h2.17v9.46H51.47V34.6a3.4,3.4,0,0,1-3,1.67C46.38,36.27,45.14,34.84,45.14,32.63Z" transform="translate(-0.9 -2.32)"/><path d="M56.72,33.46v-5h-1.2V26.61h1.2V24h2.16v2.6h2.55v1.86H58.88v4.65a1,1,0,0,0,1.17,1.18A3,3,0,0,0,61.39,34v1.77a3.8,3.8,0,0,1-2,.48C57.85,36.23,56.72,35.54,56.72,33.46Z" transform="translate(-0.9 -2.32)"/><path d="M62.74,31.38v0a4.69,4.69,0,0,1,4.62-4.92c3,0,4.54,2.36,4.54,5.08,0,.2,0,.4,0,.61h-7a2.63,2.63,0,0,0,2.72,2.4,3.4,3.4,0,0,0,2.56-1.13l1.28,1.13a4.79,4.79,0,0,1-3.87,1.78A4.73,4.73,0,0,1,62.74,31.38Zm7-.7a2.46,2.46,0,0,0-2.4-2.49,2.56,2.56,0,0,0-2.46,2.49Z" transform="translate(-0.9 -2.32)"/><path d="M77.7,31.4v0a5,5,0,0,1,10.09,0v0a5,5,0,0,1-5.07,4.93A4.9,4.9,0,0,1,77.7,31.4Zm7.92,0v0a2.92,2.92,0,0,0-2.9-3.05,2.84,2.84,0,0,0-2.85,3v0a2.93,2.93,0,0,0,2.88,3A2.85,2.85,0,0,0,85.62,31.4Z" transform="translate(-0.9 -2.32)"/><path d="M89.9,26.61h2.17v1.47a3.41,3.41,0,0,1,3-1.66c2.14,0,3.37,1.43,3.37,3.63v6H96.23V30.7c0-1.47-.74-2.31-2-2.31a2.1,2.1,0,0,0-2.13,2.34v5.34H89.9Z" transform="translate(-0.9 -2.32)"/><path d="M109.84,23.44h2l5.52,12.63h-2.33l-1.27-3h-5.93l-1.29,3h-2.26ZM113,31.09l-2.16-5-2.15,5Z" transform="translate(-0.9 -2.32)"/><path d="M118.37,37.85l.8-1.63a6.24,6.24,0,0,0,3.37,1c1.94,0,3-1,3-2.9v-.74a4,4,0,0,1-3.33,1.74,4.25,4.25,0,0,1-4.3-4.43v0a4.26,4.26,0,0,1,4.3-4.44A4.07,4.07,0,0,1,125.51,28V26.61h2.17v7.53a4.83,4.83,0,0,1-1.2,3.56A5.32,5.32,0,0,1,122.59,39,8.19,8.19,0,0,1,118.37,37.85Zm7.18-7v0a2.65,2.65,0,0,0-2.78-2.62,2.55,2.55,0,0,0-2.68,2.6v0a2.57,2.57,0,0,0,2.68,2.61A2.65,2.65,0,0,0,125.55,30.89Z" transform="translate(-0.9 -2.32)"/><path d="M130.31,23.1h2.33v2.06h-2.33Zm.09,3.51h2.17v9.46H130.4Z" transform="translate(-0.9 -2.32)"/><path d="M135.27,26.61h2.16v1.47a3.42,3.42,0,0,1,3-1.66c2.13,0,3.37,1.43,3.37,3.63v6h-2.17V30.7c0-1.47-.73-2.31-2-2.31a2.1,2.1,0,0,0-2.14,2.34v5.34h-2.16Z" transform="translate(-0.9 -2.32)"/><path d="M146.26,37.85l.81-1.63a6.21,6.21,0,0,0,3.37,1c1.93,0,3-1,3-2.9v-.74a4,4,0,0,1-3.33,1.74,4.25,4.25,0,0,1-4.3-4.43v0a4.26,4.26,0,0,1,4.3-4.44A4.07,4.07,0,0,1,153.41,28V26.61h2.17v7.53a4.83,4.83,0,0,1-1.2,3.56A5.32,5.32,0,0,1,150.49,39,8.23,8.23,0,0,1,146.26,37.85Zm7.19-7v0a2.65,2.65,0,0,0-2.78-2.62,2.56,2.56,0,0,0-2.69,2.6v0a2.58,2.58,0,0,0,2.69,2.61A2.65,2.65,0,0,0,153.45,30.89Z" transform="translate(-0.9 -2.32)"/></svg>