<svg xmlns="http://www.w3.org/2000/svg" width="4.11in" height="0.5in" viewBox="0 0 295.96 36.28" preserveAspectRatio="xMidYMid meet"><title>University of Arkansas for Medical Sciences College of Public Health Logo</title><path d="M30,22.14c0,3.77.1,7.28-2.67,10.31-2.35,2.57-6,3.73-9.47,3.83H14.44C11,36.18,7.32,35.08,5,32.51,2.2,29.48,2.3,26,2.3,22.21v-14c0-2.35.37-6.17-2.3-7.16V.92H9.94v.16c-2.62,1-2.3,4.81-2.3,7.16v14c0,7,2.93,10.2,8.32,10.2a9.25,9.25,0,0,0,7.63-3.66c1.15-1.57,1.1-2.88,1.1-4.76V8.24c0-2.35.31-6.17-2.3-7.16V.92h9.94l.05.16C29.71,2.07,30,5.89,30,8.3L30,22.14Z" fill="#fff"/><path d="M45.61,5.37,39.08,22.42,36.35,29.8c-1.1,2.92-1.46,4.44,1,5.38v.16H27.78v-.16c3-1.51,3.92-4.44,5.07-7.43L41.58,5.94c.74-1.88,1.73-4.08-.78-4.86V.92h8.26L59.94,27.75c1.2,3,2.15,5.92,5.13,7.43v.16H54.35v-.16c2.56-1.15,2.14-1.72.73-5.38l-2.83-7.38-6.64-17Z" fill="#fff"/><path d="M95.36,4.21A9.09,9.09,0,0,0,96.14,1v0h9v.16c-1.26.36-1.62,1.88-1.62,3.08L107,29.85c.31,2.46.58,3.87,2.67,5.33v.16H99.6v-.16c1.83-.57,2.14-2.14,2.14-3.92l-3-25.21L87,36c-2.62-2-3.35-3.4-4.61-6.33L72.5,6.1l-3,22.49c-.42,3.19-.79,5.49,1.67,6.59v.16H62.66v-.16c2.2-1.93,2.51-4.5,2.93-7.32l3-21.92c.21-1.46.79-3.55-1.62-4.86V.92h9.16V1a6.25,6.25,0,0,0,.73,2.36L86.67,26.4,95.36,4.21Z" fill="#fff"/><path d="M130.45,7.15a11.87,11.87,0,0,0-8.21-3.3c-3,0-6.75,1.15-6.75,4.76,0,7.17,18,7.06,18,16.74,0,5.6-5.85,10.83-14,10.83a27,27,0,0,1-9.36-1.57l-1.52-6.54A18.09,18.09,0,0,0,120,32.41c3,0,7.48-1.78,7.48-5.44,0-8.16-18-6.7-18-17.79,0-6.58,6.76-9.1,13.14-9.1a26.44,26.44,0,0,1,7.79,1.15V7.15Z" fill="#fff"/><path d="M45.69,29.28a4.38,4.38,0,1,0-4.38-4.38,4.38,4.38,0,0,0,4.38,4.38Z" fill="#9d2235"/><rect x="144.9" width="1" height="36.07" fill="#9d2235"/><path d="M136.13,33.06c0-.58-.45-.85-1-.85h-1.21v2.57h.62V34h.4l.56.81h.75l-.65-.92A.79.79,0,0,0,136.13,33.06Zm-1.08.4h-.55v-.71h.55c.27,0,.44.13.44.36S135.33,33.46,135.05,33.46Z" fill="#fff"/><path d="M134.9,30.92a2.63,2.63,0,1,0,2.63,2.63A2.63,2.63,0,0,0,134.9,30.92Zm2.19,2.61v0a2.19,2.19,0,1,1-4.38,0h0a2.2,2.2,0,0,1,2.19-2.22A2.17,2.17,0,0,1,137.09,33.53Z" fill="#fff"/><path d="M154.17,6h6.67V7.47h-5.1V9.92h4.52v1.43h-4.52V15h-1.57Z" fill="#fff"/><path d="M161,13.05v0c0-1.46,1.15-2.18,2.81-2.18a5.5,5.5,0,0,1,1.81.28V11c0-1-.59-1.47-1.67-1.47a4.68,4.68,0,0,0-1.94.43l-.42-1.22a5.94,5.94,0,0,1,2.56-.55,3.05,3.05,0,0,1,2.24.75,2.82,2.82,0,0,1,.73,2.09v4h-1.51v-.85a2.76,2.76,0,0,1-2.2,1A2.17,2.17,0,0,1,161,13.05Zm4.65-.49V12.1a4.4,4.4,0,0,0-1.54-.26c-1,0-1.59.42-1.59,1.12v0c0,.65.58,1,1.32,1C164.83,14,165.61,13.42,165.61,12.56Z" fill="#fff"/><path d="M172.72,8.24h1.62l-2.69,6.94c-.54,1.39-1.14,1.9-2.23,1.9a3,3,0,0,1-1.6-.42l.52-1.14a1.87,1.87,0,0,0,.91.26c.44,0,.71-.19,1-.77L167.4,8.24h1.66l1.9,5Z" fill="#fff"/><path d="M178.22,6h1.7l2.14,6.64L184.26,6h1.34l2.2,6.67L189.93,6h1.66l-3.11,9h-1.37L184.9,8.62l-2.2,6.44h-1.37Z" fill="#fff"/><path d="M191.25,13.23H193V15h-1.7Z" fill="#fff"/><path d="M198,6h4a3.22,3.22,0,0,1,2.34.79A2,2,0,0,1,205,8.31v0a2.15,2.15,0,0,1-1.28,2,2.2,2.2,0,0,1,1.78,2.17v0c0,1.6-1.32,2.46-3.32,2.46H198Zm5.39,2.53c0-.7-.56-1.14-1.57-1.14h-2.27V9.81h2.15c1,0,1.69-.39,1.69-1.21Zm-1.34,2.57h-2.5V13.6h2.61c1.07,0,1.73-.42,1.73-1.23v0C203.93,11.59,203.33,11.14,202.09,11.14Z" fill="#fff"/><path d="M206.35,11.66v0A3.53,3.53,0,0,1,210,8.1a3.49,3.49,0,0,1,3.59,3.5v0a3.53,3.53,0,0,1-3.62,3.52A3.49,3.49,0,0,1,206.35,11.66Zm5.65,0v0a2.09,2.09,0,0,0-2.07-2.18,2,2,0,0,0-2,2.15v0A2.08,2.08,0,0,0,210,13.79,2,2,0,0,0,212,11.66Z" fill="#fff"/><path d="M214.37,11.66v0a3.61,3.61,0,0,1,7.21,0v0A3.54,3.54,0,0,1,218,15.15,3.49,3.49,0,0,1,214.37,11.66Zm5.66,0v0A2.1,2.1,0,0,0,218,9.45a2,2,0,0,0-2,2.15v0A2.08,2.08,0,0,0,218,13.79,2,2,0,0,0,220,11.66Z" fill="#fff"/><path d="M221.94,13.93l3.91-4.42h-3.77V8.24h5.74V9.3l-3.91,4.43h3.91V15h-5.88Z" fill="#fff"/><path d="M229,8.24h1.56v1a2.42,2.42,0,0,1,2.06-1.16,2.12,2.12,0,0,1,2,1.19,2.72,2.72,0,0,1,2.28-1.19,2.27,2.27,0,0,1,2.37,2.58V15h-1.55V11.16c0-1.08-.5-1.65-1.37-1.65s-1.44.58-1.44,1.67V15H233.4V11.14c0-1.05-.51-1.63-1.37-1.63a1.47,1.47,0,0,0-1.45,1.67V15H229Z" fill="#fff"/><path d="M240.07,13.05v0c0-1.46,1.16-2.18,2.81-2.18a5.61,5.61,0,0,1,1.82.28V11c0-1-.59-1.47-1.68-1.47a4.6,4.6,0,0,0-1.93.43l-.43-1.22a5.94,5.94,0,0,1,2.56-.55,3.05,3.05,0,0,1,2.24.75,2.82,2.82,0,0,1,.73,2.09v4h-1.51v-.85a2.74,2.74,0,0,1-2.2,1A2.17,2.17,0,0,1,240.07,13.05Zm4.65-.49V12.1a4.39,4.39,0,0,0-1.53-.26c-1,0-1.59.42-1.59,1.12v0c0,.65.57,1,1.32,1C243.94,14,244.72,13.42,244.72,12.56Z" fill="#fff"/><path d="M247.39,8.24H249v1a2.47,2.47,0,0,1,2.12-1.18,2.31,2.31,0,0,1,2.4,2.58V15h-1.54V11.16c0-1.05-.53-1.65-1.45-1.65A1.5,1.5,0,0,0,249,11.18V15h-1.56Z" fill="#fff"/><path d="M154.17,25.64v0A4.52,4.52,0,0,1,158.78,21a4.69,4.69,0,0,1,3.52,1.39l-1,1.17a3.54,3.54,0,0,0-2.52-1.1,3,3,0,0,0-2.94,3.15v0a3,3,0,0,0,3,3.18,3.49,3.49,0,0,0,2.57-1.16l1,1a4.63,4.63,0,0,1-3.64,1.59A4.5,4.5,0,0,1,154.17,25.64Z" fill="#fff"/><path d="M162.7,26.75v0a3.61,3.61,0,0,1,7.21,0v0a3.54,3.54,0,0,1-3.62,3.52A3.5,3.5,0,0,1,162.7,26.75Zm5.66,0v0a2.09,2.09,0,0,0-2.07-2.18,2,2,0,0,0-2,2.15v0a2.09,2.09,0,0,0,2.06,2.16A2,2,0,0,0,168.36,26.75Z" fill="#fff"/><path d="M170.66,20.75h1.56v9.34h-1.56Z" fill="#fff"/><path d="M173.94,20.75h1.56v9.34h-1.56Z" fill="#fff"/><path d="M176.51,26.74v0a3.36,3.36,0,0,1,3.3-3.52c2.15,0,3.24,1.69,3.24,3.64a3.22,3.22,0,0,1,0,.43h-5A1.88,1.88,0,0,0,180,29a2.43,2.43,0,0,0,1.83-.81l.91.81A3.41,3.41,0,0,1,180,30.25,3.37,3.37,0,0,1,176.51,26.74Zm5-.5a1.75,1.75,0,0,0-1.71-1.78A1.83,1.83,0,0,0,178,26.24Z" fill="#fff"/><path d="M184,31.36l.58-1.17a4.4,4.4,0,0,0,2.41.71,1.89,1.89,0,0,0,2.14-2.06v-.51a2.88,2.88,0,0,1-2.39,1.22,3,3,0,0,1-3.07-3.16v0a3.05,3.05,0,0,1,3.07-3.18,2.93,2.93,0,0,1,2.37,1.15v-1h1.55v5.38a3.45,3.45,0,0,1-.86,2.55,3.81,3.81,0,0,1-2.77.91A5.89,5.89,0,0,1,184,31.36Zm5.14-5v0a1.88,1.88,0,0,0-2-1.84,1.82,1.82,0,0,0-1.92,1.84v0a1.85,1.85,0,0,0,1.92,1.86A1.89,1.89,0,0,0,189.09,26.38Z" fill="#fff"/><path d="M191.54,26.74v0a3.36,3.36,0,0,1,3.3-3.52c2.16,0,3.24,1.69,3.24,3.64,0,.14,0,.28,0,.43h-5A1.9,1.9,0,0,0,195,29a2.45,2.45,0,0,0,1.83-.81l.91.81A3.43,3.43,0,0,1,195,30.25,3.37,3.37,0,0,1,191.54,26.74Zm5-.5a1.76,1.76,0,0,0-1.72-1.78,1.82,1.82,0,0,0-1.75,1.78Z" fill="#fff"/><path d="M202.08,26.75v0a3.61,3.61,0,0,1,7.21,0v0a3.61,3.61,0,0,1-7.21,0Zm5.66,0v0a2.09,2.09,0,0,0-2.07-2.18,2,2,0,0,0-2,2.15v0a2.09,2.09,0,0,0,2.06,2.16A2,2,0,0,0,207.74,26.75Z" fill="#fff"/><path d="M210.57,24.66h-.86V23.37h.86v-.5a2.27,2.27,0,0,1,.55-1.66,2,2,0,0,1,1.51-.54,4.29,4.29,0,0,1,1.27.18v1.31A2.58,2.58,0,0,0,213,22c-.59,0-.9.33-.9,1v.37h1.79v1.28h-1.76v5.43h-1.55Z" fill="#fff"/><path d="M218.28,21.13h3.54c2.1,0,3.4,1.19,3.4,3v0c0,2-1.61,3.06-3.58,3.06h-1.78v2.88h-1.58Zm3.41,4.66c1.19,0,1.93-.66,1.93-1.6v0c0-1.05-.75-1.61-1.93-1.61h-1.83v3.23Z" fill="#fff"/><path d="M226.2,27.63v-4.3h1.55v3.84c0,1,.53,1.64,1.45,1.64a1.49,1.49,0,0,0,1.52-1.66V23.33h1.56v6.76h-1.56V29a2.42,2.42,0,0,1-2.11,1.19A2.32,2.32,0,0,1,226.2,27.63Z" fill="#fff"/><path d="M235.38,29v1.05h-1.56V20.75h1.56v3.71a2.71,2.71,0,0,1,2.3-1.27,3.24,3.24,0,0,1,3.14,3.51v0a3.23,3.23,0,0,1-3.14,3.5A2.75,2.75,0,0,1,235.38,29Zm3.86-2.31v0a2,2,0,0,0-1.93-2.16,2,2,0,0,0-2,2.16v0a2,2,0,0,0,2,2.16A2,2,0,0,0,239.24,26.73Z" fill="#fff"/><path d="M241.6,20.75h1.56v9.34H241.6Z" fill="#fff"/><path d="M244.82,20.82h1.66V22.3h-1.66Zm.05,2.51h1.56v6.76h-1.56Z" fill="#fff"/><path d="M247.44,26.75v0A3.5,3.5,0,0,1,251,23.19a3.4,3.4,0,0,1,2.7,1.17l-1,1a2.32,2.32,0,0,0-1.74-.84,2,2,0,0,0-2,2.15v0a2,2,0,0,0,2,2.16,2.4,2.4,0,0,0,1.76-.83l.93.92a3.41,3.41,0,0,1-2.76,1.27A3.46,3.46,0,0,1,247.44,26.75Z" fill="#fff"/><path d="M258.37,21.13h1.57v3.73h4.28V21.13h1.57v9h-1.57V26.32h-4.28v3.77h-1.57Z" fill="#fff"/><path d="M266.9,26.74v0a3.36,3.36,0,0,1,3.31-3.52c2.15,0,3.24,1.69,3.24,3.64,0,.14,0,.28,0,.43h-5A1.9,1.9,0,0,0,270.4,29a2.45,2.45,0,0,0,1.83-.81l.91.81a3.41,3.41,0,0,1-2.77,1.27A3.37,3.37,0,0,1,266.9,26.74Zm5-.5a1.75,1.75,0,0,0-1.72-1.78,1.83,1.83,0,0,0-1.75,1.78Z" fill="#fff"/><path d="M274.16,28.15v0c0-1.46,1.15-2.18,2.8-2.18a5.5,5.5,0,0,1,1.82.29v-.17c0-1-.59-1.47-1.68-1.47a4.63,4.63,0,0,0-1.93.42l-.42-1.22a5.87,5.87,0,0,1,2.56-.55,3,3,0,0,1,2.24.76,2.81,2.81,0,0,1,.73,2.09v4h-1.51v-.84a2.76,2.76,0,0,1-2.21,1A2.17,2.17,0,0,1,274.16,28.15Zm4.65-.49V27.2a4.39,4.39,0,0,0-1.54-.27c-1,0-1.59.42-1.59,1.13v0c0,.66.58,1,1.32,1C278,29.11,278.81,28.52,278.81,27.66Z" fill="#fff"/><path d="M281.57,20.75h1.56v9.34h-1.56Z" fill="#fff"/><path d="M285.34,28.22V24.66h-.86V23.33h.86V21.48h1.55v1.85h1.82v1.33h-1.82V28a.74.74,0,0,0,.83.85,2.09,2.09,0,0,0,1-.23v1.26a2.62,2.62,0,0,1-1.39.35A1.74,1.74,0,0,1,285.34,28.22Z" fill="#fff"/><path d="M289.88,20.75h1.57v3.62a2.43,2.43,0,0,1,2.11-1.18,2.32,2.32,0,0,1,2.4,2.59v4.31h-1.54V26.25c0-1.05-.53-1.65-1.45-1.65a1.5,1.5,0,0,0-1.52,1.68v3.81h-1.57Z" fill="#fff"/></svg>