<svg xmlns="http://www.w3.org/2000/svg" width="162.06" height="34.07" viewBox="0 0 162.06 34.07"><title>College of Health Professions</title><path d="M.32,9.17v0A6.35,6.35,0,0,1,6.79,2.64a6.53,6.53,0,0,1,4.91,2L10.29,6.23A5,5,0,0,0,6.77,4.67,4.2,4.2,0,0,0,2.64,9.09v0a4.24,4.24,0,0,0,4.13,4.46A4.94,4.94,0,0,0,10.38,12l1.41,1.43A6.45,6.45,0,0,1,6.7,15.62,6.31,6.31,0,0,1,.32,9.17Z" transform="translate(-0.32 -2.21)"/><path d="M13.11,10.72v0a5,5,0,0,1,5.05-4.95,4.9,4.9,0,0,1,5,4.91v0a5,5,0,0,1-5.07,4.93A4.9,4.9,0,0,1,13.11,10.72Zm7.92,0v0a2.93,2.93,0,0,0-2.91-3,2.84,2.84,0,0,0-2.85,3v0a2.93,2.93,0,0,0,2.89,3A2.85,2.85,0,0,0,21,10.72Z" transform="translate(-0.32 -2.21)"/><path d="M25.39,2.32h2.17V15.4H25.39Z" transform="translate(-0.32 -2.21)"/><path d="M30.31,2.32h2.17V15.4H30.31Z" transform="translate(-0.32 -2.21)"/><path d="M34.67,10.71v0A4.7,4.7,0,0,1,39.3,5.74c3,0,4.53,2.37,4.53,5.09,0,.2,0,.4,0,.61H36.84a2.64,2.64,0,0,0,2.73,2.4,3.44,3.44,0,0,0,2.56-1.13l1.27,1.13a4.78,4.78,0,0,1-3.87,1.78A4.73,4.73,0,0,1,34.67,10.71Zm7-.7a2.45,2.45,0,0,0-2.4-2.49A2.56,2.56,0,0,0,36.82,10Z" transform="translate(-0.32 -2.21)"/><path d="M45.88,17.17l.81-1.63a6.1,6.1,0,0,0,3.36,1c1.94,0,3-1,3-2.91v-.73a4,4,0,0,1-3.34,1.74,4.25,4.25,0,0,1-4.3-4.43v0a4.27,4.27,0,0,1,4.3-4.45A4.09,4.09,0,0,1,53,7.36V5.94H55.2v7.53A4.87,4.87,0,0,1,54,17a5.33,5.33,0,0,1-3.89,1.27A8.11,8.11,0,0,1,45.88,17.17Zm7.18-7v0a2.64,2.64,0,0,0-2.77-2.62,2.56,2.56,0,0,0-2.69,2.6v0a2.58,2.58,0,0,0,2.69,2.62A2.65,2.65,0,0,0,53.06,10.22Z" transform="translate(-0.32 -2.21)"/><path d="M57.34,10.71v0A4.69,4.69,0,0,1,62,5.74c3,0,4.53,2.37,4.53,5.09,0,.2,0,.4,0,.61h-7a2.65,2.65,0,0,0,2.73,2.4,3.42,3.42,0,0,0,2.56-1.13l1.27,1.13a4.93,4.93,0,0,1-8.72-3.13Zm7-.7a2.45,2.45,0,0,0-2.4-2.49A2.56,2.56,0,0,0,59.48,10Z" transform="translate(-0.32 -2.21)"/><path d="M72.29,10.72v0a5,5,0,0,1,10.09,0v0a5,5,0,0,1-10.09,0Zm7.92,0v0a2.92,2.92,0,0,0-2.9-3,2.84,2.84,0,0,0-2.85,3v0a2.93,2.93,0,0,0,2.89,3A2.85,2.85,0,0,0,80.21,10.72Z" transform="translate(-0.32 -2.21)"/><path d="M84.77,7.8h-1.2V6h1.2V5.31A3.21,3.21,0,0,1,85.54,3a2.83,2.83,0,0,1,2.13-.76,5.86,5.86,0,0,1,1.75.25V4.29a3.81,3.81,0,0,0-1.27-.23c-.82,0-1.25.45-1.25,1.43V6h2.51V7.8H86.94v7.6H84.77Z" transform="translate(-0.32 -2.21)"/><path d="M.88,23.53h2.2v5.21h6V23.53h2.2V36.07H9.07V30.79h-6v5.28H.88Z" transform="translate(-0.32 -2.21)"/><path d="M13.38,31.38v0A4.7,4.7,0,0,1,18,26.42c3,0,4.53,2.36,4.53,5.08,0,.2,0,.4,0,.61H15.55a2.65,2.65,0,0,0,2.73,2.4,3.45,3.45,0,0,0,2.56-1.12l1.27,1.12a4.78,4.78,0,0,1-3.87,1.78A4.73,4.73,0,0,1,13.38,31.38Zm7-.7A2.45,2.45,0,0,0,18,28.19a2.56,2.56,0,0,0-2.46,2.49Z" transform="translate(-0.32 -2.21)"/><path d="M30.41,36.07V34.91a3.83,3.83,0,0,1-3.07,1.36c-1.79,0-3.37-1-3.37-2.92v0c0-2.09,1.63-3.1,3.84-3.1a8,8,0,0,1,2.61.4v-.18c0-1.31-.82-2-2.32-2a6.57,6.57,0,0,0-2.71.6l-.59-1.74a8.05,8.05,0,0,1,3.6-.79c2.79,0,4.16,1.47,4.16,4v5.61Zm.05-4a6.36,6.36,0,0,0-2.17-.37c-1.36,0-2.17.55-2.17,1.47v0c0,.9.81,1.4,1.83,1.4,1.44,0,2.51-.81,2.51-2Z" transform="translate(-0.32 -2.21)"/><path d="M35.19,23h2.17V36.07H35.19Z" transform="translate(-0.32 -2.21)"/><path d="M40.51,33.46v-5h-1.2V26.61h1.2V24h2.16v2.59h2.55v1.87H42.67v4.64a1,1,0,0,0,1.17,1.18A3,3,0,0,0,45.18,34v1.77a3.7,3.7,0,0,1-2,.48C41.64,36.23,40.51,35.54,40.51,33.46Z" transform="translate(-0.32 -2.21)"/><path d="M47.32,23h2.16v5.09a3.42,3.42,0,0,1,3-1.66c2.13,0,3.37,1.43,3.37,3.63v6H53.64V30.7c0-1.47-.74-2.31-2-2.31a2.1,2.1,0,0,0-2.14,2.34v5.34H47.32Z" transform="translate(-0.32 -2.21)"/><path d="M62.81,23.53h5c2.92,0,4.76,1.67,4.76,4.19v0c0,2.81-2.26,4.28-5,4.28H65v4h-2.2Zm4.77,6.52c1.66,0,2.7-.93,2.7-2.24v0c0-1.47-1-2.24-2.7-2.24H65v4.51Z" transform="translate(-0.32 -2.21)"/><path d="M74.37,26.61h2.17v2.13a3.37,3.37,0,0,1,3.35-2.31v2.3h-.12c-1.9,0-3.23,1.23-3.23,3.74v3.6H74.37Z" transform="translate(-0.32 -2.21)"/><path d="M81,31.4v0A4.94,4.94,0,0,1,86,26.42a4.89,4.89,0,0,1,5,4.9v0A5,5,0,0,1,86,36.29,4.89,4.89,0,0,1,81,31.4Zm7.92,0v0a2.92,2.92,0,0,0-2.91-3,2.84,2.84,0,0,0-2.85,3v0a2.93,2.93,0,0,0,2.89,3A2.86,2.86,0,0,0,88.91,31.4Z" transform="translate(-0.32 -2.21)"/><path d="M93.46,28.48h-1.2V26.67h1.2V26a3.22,3.22,0,0,1,.77-2.35,2.87,2.87,0,0,1,2.13-.75,5.67,5.67,0,0,1,1.76.25V25a3.92,3.92,0,0,0-1.28-.23c-.82,0-1.25.45-1.25,1.43v.52H98.1v1.8H95.63v7.59H93.46Z" transform="translate(-0.32 -2.21)"/><path d="M99.05,31.38v0a4.69,4.69,0,0,1,4.62-4.92c3,0,4.53,2.36,4.53,5.08,0,.2,0,.4,0,.61h-7a2.63,2.63,0,0,0,2.72,2.4,3.43,3.43,0,0,0,2.56-1.12l1.28,1.12a4.8,4.8,0,0,1-3.88,1.78A4.72,4.72,0,0,1,99.05,31.38Zm7-.7a2.46,2.46,0,0,0-2.41-2.49,2.56,2.56,0,0,0-2.45,2.49Z" transform="translate(-0.32 -2.21)"/><path d="M109.5,34.84l1-1.47a5.3,5.3,0,0,0,3.1,1.16c.93,0,1.47-.39,1.47-1v0c0-.74-1-1-2.11-1.33-1.4-.39-3-1-3-2.78v0c0-1.8,1.49-2.89,3.37-2.89a6.54,6.54,0,0,1,3.48,1.08L116,29.07a5.5,5.5,0,0,0-2.67-.9c-.85,0-1.33.4-1.33.95v0c0,.68,1,1,2.13,1.32,1.38.43,2.94,1.06,2.94,2.76v0c0,2-1.54,3-3.51,3A6.67,6.67,0,0,1,109.5,34.84Z" transform="translate(-0.32 -2.21)"/><path d="M118.36,34.84l1-1.47a5.3,5.3,0,0,0,3.1,1.16c.93,0,1.47-.39,1.47-1v0c0-.74-1-1-2.11-1.33-1.4-.39-3-1-3-2.78v0c0-1.8,1.49-2.89,3.37-2.89a6.48,6.48,0,0,1,3.47,1.08l-.86,1.54a5.44,5.44,0,0,0-2.67-.9c-.84,0-1.32.4-1.32.95v0c0,.68,1,1,2.13,1.32,1.38.43,2.94,1.06,2.94,2.76v0c0,2-1.54,3-3.51,3A6.67,6.67,0,0,1,118.36,34.84Z" transform="translate(-0.32 -2.21)"/><path d="M128,23.1h2.33v2.06H128Zm.09,3.51h2.17v9.46h-2.17Z" transform="translate(-0.32 -2.21)"/><path d="M132.38,31.4v0a5,5,0,0,1,10.09,0v0a5,5,0,0,1-5.07,4.93A4.9,4.9,0,0,1,132.38,31.4Zm7.92,0v0a2.92,2.92,0,0,0-2.9-3,2.84,2.84,0,0,0-2.85,3v0a2.93,2.93,0,0,0,2.88,3A2.85,2.85,0,0,0,140.3,31.4Z" transform="translate(-0.32 -2.21)"/><path d="M144.58,26.61h2.17v1.47a3.42,3.42,0,0,1,3-1.66c2.13,0,3.36,1.43,3.36,3.63v6h-2.16V30.7c0-1.47-.74-2.31-2-2.31a2.1,2.1,0,0,0-2.13,2.34v5.34h-2.17Z" transform="translate(-0.32 -2.21)"/><path d="M154.86,34.84l1-1.47a5.3,5.3,0,0,0,3.1,1.16c.93,0,1.47-.39,1.47-1v0c0-.74-1-1-2.12-1.33-1.39-.39-2.95-1-2.95-2.78v0c0-1.8,1.48-2.89,3.36-2.89a6.49,6.49,0,0,1,3.48,1.08l-.86,1.54a5.44,5.44,0,0,0-2.67-.9c-.84,0-1.32.4-1.32.95v0c0,.68,1,1,2.13,1.32,1.38.43,2.94,1.06,2.94,2.76v0c0,2-1.54,3-3.52,3A6.64,6.64,0,0,1,154.86,34.84Z" transform="translate(-0.32 -2.21)"/></svg>