<svg xmlns="http://www.w3.org/2000/svg" width="152.92" height="40.26" viewBox="0 0 152.92 40.26" preserveAspectRatio="xMidYMid meet"><title>UAMS-Logo_Dark</title><path d="M33.33,24.54c0,4.19.11,8.09-3,11.46-2.62,2.86-6.7,4.15-10.54,4.26H16.06c-3.84-.11-7.91-1.33-10.53-4.19-3.08-3.37-3-7.27-3-11.46V9.08c0-2.62.41-6.87-2.56-8V.93H11.06v.18c-2.91,1.1-2.57,5.35-2.57,8V24.61C8.49,32.35,11.75,36,17.75,36a10.28,10.28,0,0,0,8.49-4.08c1.28-1.74,1.22-3.19,1.22-5.29V9.08c0-2.62.35-6.87-2.56-8V.93H36l.06.18c-3,1.1-2.62,5.35-2.62,8l-.07,15.4Z"/><path d="M50.73,5.88l-7.27,19-3,8.21c-1.23,3.26-1.63,4.94,1.16,6v.18H30.89V39c3.38-1.68,4.37-4.94,5.65-8.26L46.25,6.52c.82-2.1,1.92-4.54-.87-5.41V.93h9.19l12.1,29.85C68,34.1,69.06,37.36,72.37,39v.18H60.45V39c2.85-1.28,2.38-1.92.81-6l-3.14-8.21-7.39-19Z"/><path d="M106.06,4.6A10.16,10.16,0,0,0,106.94,1V.93H117v.18c-1.39.41-1.8,2.09-1.8,3.43L119,33.11c.35,2.74.64,4.3,3,5.93v.18H110.78V39c2-.64,2.38-2.38,2.38-4.36l-3.31-28L96.82,40c-2.92-2.21-3.73-3.78-5.13-7l-11-26.24-3.32,25c-.46,3.55-.87,6.11,1.86,7.33v.18H69.7V39c2.44-2.15,2.79-5,3.26-8.14L76.27,6.52c.24-1.63.87-3.95-1.8-5.41V.93H84.65V1a6.86,6.86,0,0,0,.82,2.62L96.41,29.27,106.06,4.6Z"/><path d="M145.1,7.86A13.25,13.25,0,0,0,136,4.19c-3.31,0-7.5,1.28-7.5,5.3,0,8,20,7.85,20,18.61,0,6.23-6.51,12-15.59,12a29.88,29.88,0,0,1-10.41-1.75l-1.69-7.27A20.11,20.11,0,0,0,133.52,36c3.32,0,8.32-2,8.32-6.05,0-9.08-20-7.45-20-19.79C121.82,2.8,129.33,0,136.43,0a29.32,29.32,0,0,1,8.67,1.28V7.86Z"/><path d="M50.82,32.48A4.88,4.88,0,1,0,46,27.6a4.87,4.87,0,0,0,4.87,4.88Z" fill="#9d2235"/><path d="M151.35,36.72c0-.65-.49-.95-1.15-.95h-1.35v2.86h.7v-.9H150l.62.9h.84l-.73-1A.88.88,0,0,0,151.35,36.72Zm-1.2.44h-.6v-.79h.6c.3,0,.49.14.49.39S150.47,37.16,150.15,37.16Z"/><path d="M150,34.33a2.93,2.93,0,1,0,2.93,2.92A2.92,2.92,0,0,0,150,34.33Zm2.44,2.91h0A2.44,2.44,0,0,1,150,39.72a2.42,2.42,0,0,1-2.43-2.45v0A2.44,2.44,0,0,1,150,34.79,2.41,2.41,0,0,1,152.43,37.24Z"/></svg>