<svg xmlns="http://www.w3.org/2000/svg" width="205.87" height="34.07" viewBox="0 0 205.87 34.07"><title>Winthrop P. Rockefeller Cancer Institute</title><path d="M.74,2.86H3.12l3,9.3L9.2,2.82h1.86l3.08,9.34,3-9.3h2.32L15.07,15.49h-1.9l-3.08-9L7,15.49H5.11Z" transform="translate(-0.74 -2.21)"/><path d="M21.34,2.43h2.33V4.49H21.34Zm.09,3.51H23.6V15.4H21.43Z" transform="translate(-0.74 -2.21)"/><path d="M26.29,5.94h2.17V7.41a3.4,3.4,0,0,1,3-1.67c2.13,0,3.37,1.44,3.37,3.64v6H32.62V10c0-1.46-.73-2.31-2-2.31a2.11,2.11,0,0,0-2.13,2.35V15.4H26.29Z" transform="translate(-0.74 -2.21)"/><path d="M37.65,12.78v-5h-1.2V5.94h1.2V3.34h2.17v2.6h2.55V7.8H39.82v4.64A1,1,0,0,0,41,13.63a2.86,2.86,0,0,0,1.34-.33v1.78a3.85,3.85,0,0,1-1.95.48C38.78,15.56,37.65,14.86,37.65,12.78Z" transform="translate(-0.74 -2.21)"/><path d="M44.46,2.32h2.17V7.41a3.4,3.4,0,0,1,3-1.67C51.72,5.74,53,7.18,53,9.38v6H50.79V10c0-1.46-.74-2.31-2-2.31a2.11,2.11,0,0,0-2.13,2.35V15.4H44.46Z" transform="translate(-0.74 -2.21)"/><path d="M55.54,5.94h2.17V8.07a3.37,3.37,0,0,1,3.35-2.31V8.05h-.12c-1.9,0-3.23,1.24-3.23,3.75v3.6H55.54Z" transform="translate(-0.74 -2.21)"/><path d="M62.16,10.72v0a5,5,0,0,1,10.08,0v0a5,5,0,0,1-5.07,4.93A4.9,4.9,0,0,1,62.16,10.72Zm7.91,0v0a2.92,2.92,0,0,0-2.9-3,2.84,2.84,0,0,0-2.85,3v0a2.93,2.93,0,0,0,2.89,3A2.85,2.85,0,0,0,70.07,10.72Z" transform="translate(-0.74 -2.21)"/><path d="M74.36,5.94h2.17V7.52a3.75,3.75,0,0,1,3.2-1.78c2.24,0,4.41,1.78,4.41,4.91v0c0,3.13-2.15,4.91-4.41,4.91a3.83,3.83,0,0,1-3.2-1.67v4.34H74.36Zm7.58,4.75v0a2.8,2.8,0,0,0-2.71-3,2.85,2.85,0,0,0-2.76,3v0a2.84,2.84,0,0,0,2.76,3A2.78,2.78,0,0,0,81.94,10.69Z" transform="translate(-0.74 -2.21)"/><path d="M90.75,2.86h4.94c2.92,0,4.77,1.66,4.77,4.19v0c0,2.81-2.26,4.28-5,4.28H93v4h-2.2Zm4.76,6.52c1.67,0,2.71-.93,2.71-2.24v0c0-1.46-1.06-2.24-2.71-2.24H93V9.38Z" transform="translate(-0.74 -2.21)"/><path d="M99.06,13h2.38V15.4H99.06Z" transform="translate(-0.74 -2.21)"/><path d="M108.41,2.86H114a5,5,0,0,1,3.62,1.25,3.82,3.82,0,0,1,1,2.71v0a3.77,3.77,0,0,1-3,3.8l3.38,4.75h-2.59L113.38,11h-2.76V15.4h-2.21Zm5.43,6.22c1.58,0,2.58-.83,2.58-2.1v0c0-1.34-1-2.08-2.6-2.08h-3.2V9.08Z" transform="translate(-0.74 -2.21)"/><path d="M120.35,10.72v0a5,5,0,0,1,10.09,0v0a5,5,0,0,1-10.09,0Zm7.92,0v0a2.92,2.92,0,0,0-2.9-3,2.84,2.84,0,0,0-2.85,3v0a2.93,2.93,0,0,0,2.89,3A2.85,2.85,0,0,0,128.27,10.72Z" transform="translate(-0.74 -2.21)"/><path d="M132,10.72v0a4.88,4.88,0,0,1,4.91-4.95,4.75,4.75,0,0,1,3.78,1.63l-1.35,1.45a3.2,3.2,0,0,0-2.45-1.18,2.83,2.83,0,0,0-2.72,3v0a2.87,2.87,0,0,0,2.83,3,3.31,3.31,0,0,0,2.45-1.18l1.31,1.29A5,5,0,0,1,132,10.72Z" transform="translate(-0.74 -2.21)"/><path d="M142.6,2.32h2.17v7.81l3.93-4.19h2.63l-3.76,3.85,3.88,5.61H149l-2.85-4.08-1.33,1.38v2.7H142.6Z" transform="translate(-0.74 -2.21)"/><path d="M152,10.71v0a4.7,4.7,0,0,1,4.62-4.93c3,0,4.54,2.37,4.54,5.09,0,.2,0,.4,0,.61h-7a2.64,2.64,0,0,0,2.72,2.4,3.4,3.4,0,0,0,2.56-1.13l1.28,1.13a4.79,4.79,0,0,1-3.87,1.78A4.73,4.73,0,0,1,152,10.71Zm7-.7a2.46,2.46,0,0,0-2.4-2.49A2.56,2.56,0,0,0,154.14,10Z" transform="translate(-0.74 -2.21)"/><path d="M163.57,7.8h-1.2V6h1.2V5.31A3.21,3.21,0,0,1,164.34,3a2.83,2.83,0,0,1,2.13-.76,6,6,0,0,1,1.76.25V4.29A3.92,3.92,0,0,0,167,4.06c-.82,0-1.25.45-1.25,1.43V6h2.51V7.8h-2.47v7.6h-2.17Z" transform="translate(-0.74 -2.21)"/><path d="M169.16,10.71v0a4.7,4.7,0,0,1,4.62-4.93c3,0,4.53,2.37,4.53,5.09,0,.2,0,.4,0,.61h-6.95a2.63,2.63,0,0,0,2.72,2.4,3.4,3.4,0,0,0,2.56-1.13l1.28,1.13A4.8,4.8,0,0,1,174,15.62,4.72,4.72,0,0,1,169.16,10.71Zm7-.7a2.46,2.46,0,0,0-2.41-2.49A2.56,2.56,0,0,0,171.31,10Z" transform="translate(-0.74 -2.21)"/><path d="M180.53,2.32h2.17V15.4h-2.17Z" transform="translate(-0.74 -2.21)"/><path d="M185.45,2.32h2.16V15.4h-2.16Z" transform="translate(-0.74 -2.21)"/><path d="M189.81,10.71v0a4.7,4.7,0,0,1,4.62-4.93c3,0,4.53,2.37,4.53,5.09,0,.2,0,.4,0,.61h-7a2.63,2.63,0,0,0,2.72,2.4,3.4,3.4,0,0,0,2.56-1.13l1.27,1.13a4.93,4.93,0,0,1-8.72-3.13Zm7-.7a2.45,2.45,0,0,0-2.4-2.49A2.56,2.56,0,0,0,192,10Z" transform="translate(-0.74 -2.21)"/><path d="M201.09,5.94h2.17V8.07a3.36,3.36,0,0,1,3.35-2.31V8.05h-.12c-1.9,0-3.23,1.24-3.23,3.75v3.6h-2.17Z" transform="translate(-0.74 -2.21)"/><path d="M1.15,29.84v0a6.35,6.35,0,0,1,6.47-6.49,6.53,6.53,0,0,1,4.91,2L11.11,26.9A5,5,0,0,0,7.6,25.34a4.21,4.21,0,0,0-4.14,4.43v0A4.24,4.24,0,0,0,7.6,34.26a4.92,4.92,0,0,0,3.6-1.63l1.42,1.44a6.48,6.48,0,0,1-5.09,2.22A6.31,6.31,0,0,1,1.15,29.84Z" transform="translate(-0.74 -2.21)"/><path d="M20.6,36.07V34.91a3.83,3.83,0,0,1-3.07,1.36c-1.79,0-3.36-1-3.36-2.92v0c0-2.09,1.63-3.1,3.83-3.1a8.06,8.06,0,0,1,2.62.4v-.18c0-1.31-.83-2-2.33-2a6.57,6.57,0,0,0-2.71.6L15,27.26a8.05,8.05,0,0,1,3.6-.79c2.8,0,4.16,1.47,4.16,4v5.61Zm0-4a6.27,6.27,0,0,0-2.17-.37c-1.36,0-2.16.55-2.16,1.47v0c0,.9.8,1.4,1.82,1.4,1.44,0,2.51-.81,2.51-2Z" transform="translate(-0.74 -2.21)"/><path d="M25.31,26.61h2.17v1.47a3.42,3.42,0,0,1,3-1.66c2.13,0,3.36,1.43,3.36,3.63v6H31.64V30.7c0-1.47-.74-2.31-2-2.31a2.1,2.1,0,0,0-2.13,2.34v5.34H25.31Z" transform="translate(-0.74 -2.21)"/><path d="M35.82,31.4v0a4.87,4.87,0,0,1,4.91-4.94,4.71,4.71,0,0,1,3.78,1.63L43.17,29.5a3.18,3.18,0,0,0-2.45-1.19,2.85,2.85,0,0,0-2.73,3v0a2.89,2.89,0,0,0,2.83,3,3.34,3.34,0,0,0,2.46-1.19l1.31,1.29a5,5,0,0,1-8.77-3.11Z" transform="translate(-0.74 -2.21)"/><path d="M45.7,31.38v0a4.69,4.69,0,0,1,4.62-4.92c3,0,4.53,2.36,4.53,5.08,0,.2,0,.4,0,.61h-7a2.63,2.63,0,0,0,2.72,2.4,3.4,3.4,0,0,0,2.56-1.13l1.27,1.13a4.93,4.93,0,0,1-8.72-3.13Zm7-.7a2.45,2.45,0,0,0-2.4-2.49,2.55,2.55,0,0,0-2.45,2.49Z" transform="translate(-0.74 -2.21)"/><path d="M57,26.61h2.17v2.13a3.36,3.36,0,0,1,3.35-2.31v2.3h-.12c-1.9,0-3.23,1.23-3.23,3.74v3.6H57Z" transform="translate(-0.74 -2.21)"/><path d="M68.9,23.53h2.2V36.07H68.9Z" transform="translate(-0.74 -2.21)"/><path d="M74.12,26.61h2.17v1.47a3.42,3.42,0,0,1,3-1.66c2.13,0,3.36,1.43,3.36,3.63v6H80.45V30.7c0-1.47-.74-2.31-2-2.31a2.1,2.1,0,0,0-2.13,2.34v5.34H74.12Z" transform="translate(-0.74 -2.21)"/><path d="M84.4,34.84l1-1.47a5.3,5.3,0,0,0,3.1,1.16c.93,0,1.47-.39,1.47-1v0c0-.73-1-1-2.12-1.32-1.4-.4-3-1-3-2.78v0c0-1.8,1.49-2.89,3.37-2.89a6.51,6.51,0,0,1,3.48,1.08l-.86,1.54a5.44,5.44,0,0,0-2.67-.9c-.84,0-1.33.4-1.33.95v0c0,.68,1,1,2.13,1.32,1.38.43,2.94,1.06,2.94,2.76v0c0,2-1.54,3-3.51,3A6.64,6.64,0,0,1,84.4,34.84Z" transform="translate(-0.74 -2.21)"/><path d="M94.48,33.46v-5h-1.2V26.61h1.2V24h2.16v2.6h2.55v1.86H96.64v4.65a1,1,0,0,0,1.17,1.18A3,3,0,0,0,99.15,34v1.77a3.8,3.8,0,0,1-2,.48C95.61,36.23,94.48,35.54,94.48,33.46Z" transform="translate(-0.74 -2.21)"/><path d="M101.19,23.1h2.33v2.06h-2.33Zm.09,3.51h2.17v9.46h-2.17Z" transform="translate(-0.74 -2.21)"/><path d="M106.53,33.46v-5h-1.2V26.61h1.2V24h2.16v2.6h2.55v1.86h-2.55v4.65a1,1,0,0,0,1.17,1.18A3,3,0,0,0,111.2,34v1.77a3.83,3.83,0,0,1-2,.48C107.65,36.23,106.53,35.54,106.53,33.46Z" transform="translate(-0.74 -2.21)"/><path d="M113.13,32.63v-6h2.17V32c0,1.47.73,2.31,2,2.31A2.11,2.11,0,0,0,119.46,32V26.61h2.16v9.46h-2.16V34.6a3.4,3.4,0,0,1-3,1.67C114.37,36.27,113.13,34.84,113.13,32.63Z" transform="translate(-0.74 -2.21)"/><path d="M124.7,33.46v-5h-1.2V26.61h1.2V24h2.17v2.6h2.55v1.86h-2.55v4.65A1,1,0,0,0,128,34.3a3,3,0,0,0,1.34-.32v1.77a3.85,3.85,0,0,1-1.95.48C125.83,36.23,124.7,35.54,124.7,33.46Z" transform="translate(-0.74 -2.21)"/><path d="M130.73,31.38v0a4.69,4.69,0,0,1,4.62-4.92c3,0,4.53,2.36,4.53,5.08,0,.2,0,.4,0,.61H132.9a2.63,2.63,0,0,0,2.72,2.4,3.4,3.4,0,0,0,2.56-1.13l1.28,1.13a4.8,4.8,0,0,1-3.88,1.78A4.72,4.72,0,0,1,130.73,31.38Zm7-.7a2.45,2.45,0,0,0-2.4-2.49,2.56,2.56,0,0,0-2.45,2.49Z" transform="translate(-0.74 -2.21)"/></svg>