<svg xmlns="http://www.w3.org/2000/svg" width="3.9in" height="0.5in" viewBox="0 0 280.95 36.28" preserveAspectRatio="xMidYMid meet"><title>University of Arkansas for Medical Sciences Donald W. Reynolds Institute on Aging Logo</title><path d="M30,22.14c0,3.77.1,7.28-2.67,10.31-2.35,2.57-6,3.73-9.47,3.83H14.44C11,36.18,7.32,35.08,5,32.51,2.2,29.48,2.3,26,2.3,22.21v-14c0-2.35.37-6.17-2.3-7.16V.92H9.94v.16c-2.62,1-2.3,4.81-2.3,7.16v14c0,7,2.93,10.2,8.32,10.2a9.25,9.25,0,0,0,7.63-3.66c1.15-1.57,1.1-2.88,1.1-4.76V8.24c0-2.35.31-6.17-2.3-7.16V.92h9.94l.05.16C29.71,2.07,30,5.89,30,8.3L30,22.14Z" transform="translate(0 0)" fill="#fff"/><path d="M45.61,5.37,39.08,22.42l-2.73,7.37c-1.1,2.93-1.46,4.45,1,5.39v.16H27.78v-.16c3-1.51,3.92-4.44,5.07-7.43L41.58,5.94c.74-1.88,1.73-4.08-.78-4.86V.92h8.26L59.94,27.75c1.2,3,2.15,5.92,5.13,7.43v.16H54.34v-.16c2.57-1.15,2.15-1.72.74-5.39l-2.83-7.37-6.64-17Z" transform="translate(0 0)" fill="#fff"/><path d="M95.36,4.21A9.09,9.09,0,0,0,96.14,1v0h9v.16c-1.26.36-1.62,1.88-1.62,3.08L107,29.85c.31,2.46.58,3.87,2.67,5.33v.16H99.59v-.16c1.84-.57,2.15-2.14,2.15-3.92L98.76,6,87,36c-2.62-2-3.35-3.4-4.61-6.33L72.5,6.1l-3,22.49c-.42,3.19-.79,5.49,1.67,6.59v.16H62.66v-.16c2.2-1.93,2.51-4.5,2.93-7.32l3-21.92c.21-1.46.79-3.55-1.62-4.86V.92h9.16V1a6.25,6.25,0,0,0,.73,2.36l9.83,23.06L95.36,4.21Z" transform="translate(0 0)" fill="#fff"/><path d="M130.45,7.15a11.87,11.87,0,0,0-8.21-3.3c-3,0-6.75,1.15-6.75,4.76,0,7.17,18,7.06,18,16.74,0,5.6-5.85,10.83-14,10.83a27,27,0,0,1-9.36-1.57l-1.52-6.54A18.09,18.09,0,0,0,120,32.41c3,0,7.48-1.78,7.48-5.44,0-8.16-18-6.7-18-17.79,0-6.58,6.76-9.1,13.14-9.1a26.44,26.44,0,0,1,7.79,1.15V7.15Z" transform="translate(0 0)" fill="#fff"/><path d="M45.69,29.28a4.38,4.38,0,1,0-4.38-4.38,4.39,4.39,0,0,0,4.38,4.38Z" transform="translate(0 0)" fill="#9d2235"/><rect x="144.9" width="1" height="36.07" fill="#9d2235"/><path d="M154.18,6.08h3.39a4.54,4.54,0,0,1,4.84,4.52v0a4.56,4.56,0,0,1-4.84,4.55h-3.39Zm3.39,7.64a3,3,0,0,0,3.16-3.07v0a3,3,0,0,0-3.16-3.1h-1.79v6.19Z" transform="translate(0 0)" fill="#fff"/><path d="M163.72,11.78v0a3.66,3.66,0,0,1,7.32,0v0a3.66,3.66,0,0,1-7.32,0Zm5.74,0v0a2.12,2.12,0,0,0-2.1-2.21,2.06,2.06,0,0,0-2.07,2.18v0A2.12,2.12,0,0,0,167.38,14,2.07,2.07,0,0,0,169.46,11.78Z" transform="translate(0 0)" fill="#fff"/><path d="M172.57,8.31h1.57V9.38a2.48,2.48,0,0,1,2.15-1.21,2.35,2.35,0,0,1,2.44,2.64v4.37h-1.57v-3.9c0-1.07-.53-1.68-1.47-1.68a1.53,1.53,0,0,0-1.55,1.7v3.88h-1.57Z" transform="translate(0 0)" fill="#fff"/><path d="M184.8,15.18v-.85a2.79,2.79,0,0,1-2.23,1,2.19,2.19,0,0,1-2.44-2.12v0c0-1.53,1.18-2.25,2.78-2.25a5.78,5.78,0,0,1,1.9.28v-.13c0-.95-.6-1.47-1.69-1.47a4.74,4.74,0,0,0-2,.43l-.43-1.26a5.83,5.83,0,0,1,2.61-.57c2,0,3,1.07,3,2.9v4.07Zm0-2.87a4.47,4.47,0,0,0-1.58-.28c-1,0-1.57.41-1.57,1.07v0c0,.65.58,1,1.33,1,1,0,1.82-.59,1.82-1.45Z" transform="translate(0 0)" fill="#fff"/><path d="M188.27,5.69h1.57v9.49h-1.57Z" transform="translate(0 0)" fill="#fff"/><path d="M191.46,11.76v0a3.28,3.28,0,0,1,3.19-3.56A2.84,2.84,0,0,1,197,9.38V5.69h1.57v9.49H197V14a2.74,2.74,0,0,1-2.34,1.29A3.3,3.3,0,0,1,191.46,11.76Zm5.56,0v0a2.06,2.06,0,0,0-2-2.19,2,2,0,0,0-2,2.19v0a2,2,0,0,0,2,2.2A2.07,2.07,0,0,0,197,11.76Z" transform="translate(0 0)" fill="#fff"/><path d="M203,6.08h1.73l2.17,6.74,2.23-6.77h1.36l2.23,6.77,2.17-6.74h1.68l-3.17,9.16H212L209.79,8.7l-2.23,6.54h-1.38Z" transform="translate(0 0)" fill="#fff"/><path d="M216.35,13.4h1.72v1.78h-1.72Z" transform="translate(0 0)" fill="#fff"/><path d="M223.13,6.08h4.06a3.66,3.66,0,0,1,2.62.91,2.75,2.75,0,0,1,.76,2V9a2.73,2.73,0,0,1-2.17,2.75l2.45,3.45H229L226.73,12h-2v3.17h-1.6Zm3.94,4.51c1.14,0,1.87-.6,1.87-1.52V9c0-1-.7-1.51-1.88-1.51h-2.33v3.06Z" transform="translate(0 0)" fill="#fff"/><path d="M231.84,11.77v0a3.41,3.41,0,0,1,3.35-3.58c2.19,0,3.29,1.72,3.29,3.69,0,.15,0,.29,0,.45h-5.05a1.92,1.92,0,0,0,2,1.74,2.52,2.52,0,0,0,1.86-.82l.92.82a3.47,3.47,0,0,1-2.81,1.28A3.42,3.42,0,0,1,231.84,11.77Zm5.08-.5a1.78,1.78,0,0,0-1.74-1.81,1.86,1.86,0,0,0-1.78,1.81Z" transform="translate(0 0)" fill="#fff"/><path d="M239.43,16.88l.53-1.17a1.92,1.92,0,0,0,.93.26c.44,0,.71-.19,1-.79L239,8.31h1.68l1.95,5.1,1.78-5.1h1.64l-2.73,7.06c-.55,1.41-1.16,1.93-2.27,1.93A3.19,3.19,0,0,1,239.43,16.88Z" transform="translate(0 0)" fill="#fff"/><path d="M247.26,8.31h1.58V9.38A2.47,2.47,0,0,1,251,8.17a2.36,2.36,0,0,1,2.45,2.64v4.37h-1.58v-3.9c0-1.07-.53-1.68-1.47-1.68a1.52,1.52,0,0,0-1.54,1.7v3.88h-1.58Z" transform="translate(0 0)" fill="#fff"/><path d="M254.89,11.78v0a3.66,3.66,0,0,1,7.32,0v0a3.66,3.66,0,0,1-7.32,0Zm5.75,0v0a2.12,2.12,0,0,0-2.11-2.21,2.06,2.06,0,0,0-2.07,2.18v0a2.13,2.13,0,0,0,2.1,2.21A2.07,2.07,0,0,0,260.64,11.78Z" transform="translate(0 0)" fill="#fff"/><path d="M263.81,5.69h1.57v9.49h-1.57Z" transform="translate(0 0)" fill="#fff"/><path d="M267,11.76v0a3.28,3.28,0,0,1,3.19-3.56,2.83,2.83,0,0,1,2.34,1.21V5.69h1.57v9.49h-1.57V14a2.74,2.74,0,0,1-2.34,1.29A3.3,3.3,0,0,1,267,11.76Zm5.56,0v0a2.06,2.06,0,0,0-2-2.19,2,2,0,0,0-2,2.19v0a2,2,0,0,0,2,2.2A2.07,2.07,0,0,0,272.56,11.76Z" transform="translate(0 0)" fill="#fff"/><path d="M275.49,14.28l.7-1.06a3.94,3.94,0,0,0,2.25.84c.68,0,1.07-.29,1.07-.74v0c0-.53-.73-.71-1.53-1-1-.28-2.15-.7-2.15-2v0a2.19,2.19,0,0,1,2.44-2.09A4.79,4.79,0,0,1,280.8,9l-.63,1.12a3.91,3.91,0,0,0-1.93-.66c-.61,0-1,.29-1,.69v0c0,.49.75.7,1.55,1,1,.31,2.13.77,2.13,2v0c0,1.44-1.11,2.16-2.55,2.16A4.81,4.81,0,0,1,275.49,14.28Z" transform="translate(0 0)" fill="#fff"/><path d="M154.18,21.08h1.6v9.1h-1.6Z" transform="translate(0 0)" fill="#fff"/><path d="M158,23.31h1.57v1.07a2.47,2.47,0,0,1,2.14-1.21,2.36,2.36,0,0,1,2.45,2.64v4.37h-1.58v-3.9c0-1.07-.53-1.68-1.46-1.68a1.53,1.53,0,0,0-1.55,1.7v3.88H158Z" transform="translate(0 0)" fill="#fff"/><path d="M165.43,29.28l.71-1.06a3.89,3.89,0,0,0,2.25.84c.67,0,1.06-.29,1.06-.74v0c0-.53-.73-.71-1.53-1-1-.28-2.15-.7-2.15-2v0a2.19,2.19,0,0,1,2.45-2.09,4.79,4.79,0,0,1,2.52.78l-.63,1.12a3.91,3.91,0,0,0-1.93-.66c-.61,0-1,.29-1,.69v0c0,.49.75.7,1.55,1,1,.31,2.13.77,2.13,2v0c0,1.44-1.11,2.16-2.54,2.16A4.82,4.82,0,0,1,165.43,29.28Z" transform="translate(0 0)" fill="#fff"/><path d="M172.75,28.28V24.67h-.88V23.31h.88V21.43h1.57v1.88h1.85v1.36h-1.85V28a.75.75,0,0,0,.84.86,2.17,2.17,0,0,0,1-.23v1.28a2.67,2.67,0,0,1-1.42.36A1.76,1.76,0,0,1,172.75,28.28Z" transform="translate(0 0)" fill="#fff"/><path d="M177.62,20.77h1.69v1.49h-1.69Zm.06,2.54h1.58v6.87h-1.58Z" transform="translate(0 0)" fill="#fff"/><path d="M181.49,28.28V24.67h-.87V23.31h.87V21.43h1.57v1.88h1.85v1.36h-1.85V28a.75.75,0,0,0,.85.86,2.16,2.16,0,0,0,1-.23v1.28a2.66,2.66,0,0,1-1.41.36A1.76,1.76,0,0,1,181.49,28.28Z" transform="translate(0 0)" fill="#fff"/><path d="M186.28,27.68V23.31h1.58v3.9c0,1.07.53,1.68,1.46,1.68a1.53,1.53,0,0,0,1.55-1.7V23.31h1.57v6.87h-1.57V29.11a2.47,2.47,0,0,1-2.14,1.21A2.36,2.36,0,0,1,186.28,27.68Z" transform="translate(0 0)" fill="#fff"/><path d="M194.68,28.28V24.67h-.87V23.31h.87V21.43h1.57v1.88h1.85v1.36h-1.85V28a.76.76,0,0,0,.85.86,2.16,2.16,0,0,0,1-.23v1.28a2.66,2.66,0,0,1-1.41.36A1.76,1.76,0,0,1,194.68,28.28Z" transform="translate(0 0)" fill="#fff"/><path d="M199.05,26.77v0a3.41,3.41,0,0,1,3.36-3.58c2.18,0,3.29,1.72,3.29,3.69,0,.15,0,.29,0,.45h-5a1.91,1.91,0,0,0,2,1.74,2.51,2.51,0,0,0,1.86-.82l.92.82a3.58,3.58,0,0,1-6.33-2.28Zm5.09-.5a1.79,1.79,0,0,0-1.75-1.81,1.86,1.86,0,0,0-1.78,1.81Z" transform="translate(0 0)" fill="#fff"/><path d="M209.91,26.78v0a3.66,3.66,0,0,1,7.32,0v0a3.58,3.58,0,0,1-3.68,3.57A3.55,3.55,0,0,1,209.91,26.78Zm5.74,0v0a2.12,2.12,0,0,0-2.1-2.21,2.06,2.06,0,0,0-2.07,2.18v0A2.12,2.12,0,0,0,213.57,29,2.07,2.07,0,0,0,215.65,26.78Z" transform="translate(0 0)" fill="#fff"/><path d="M218.76,23.31h1.57v1.07a2.47,2.47,0,0,1,2.15-1.21,2.36,2.36,0,0,1,2.44,2.64v4.37h-1.57v-3.9c0-1.07-.53-1.68-1.47-1.68a1.53,1.53,0,0,0-1.55,1.7v3.88h-1.57Z" transform="translate(0 0)" fill="#fff"/><path d="M233.23,21h1.48l4,9.17H237L236.1,28h-4.3l-.94,2.2h-1.64Zm2.29,5.55-1.58-3.64-1.56,3.64Z" transform="translate(0 0)" fill="#fff"/><path d="M239.41,31.47l.59-1.19a4.43,4.43,0,0,0,2.44.73,1.92,1.92,0,0,0,2.17-2.11v-.53a2.86,2.86,0,0,1-2.41,1.26,3.08,3.08,0,0,1-3.12-3.21v0a3.1,3.1,0,0,1,3.12-3.23,3,3,0,0,1,2.4,1.17v-1h1.58v5.46a3.48,3.48,0,0,1-.88,2.59,3.86,3.86,0,0,1-2.82.92A6,6,0,0,1,239.41,31.47Zm5.22-5v0a1.92,1.92,0,0,0-2-1.9,1.85,1.85,0,0,0-2,1.88v0a1.87,1.87,0,0,0,2,1.9A1.93,1.93,0,0,0,244.63,26.42Z" transform="translate(0 0)" fill="#fff"/><path d="M248.08,20.77h1.69v1.49h-1.69Zm.07,2.54h1.57v6.87h-1.57Z" transform="translate(0 0)" fill="#fff"/><path d="M251.68,23.31h1.57v1.07a2.47,2.47,0,0,1,2.15-1.21,2.36,2.36,0,0,1,2.44,2.64v4.37h-1.57v-3.9c0-1.07-.54-1.68-1.47-1.68a1.53,1.53,0,0,0-1.55,1.7v3.88h-1.57Z" transform="translate(0 0)" fill="#fff"/><path d="M259.66,31.47l.58-1.19a4.44,4.44,0,0,0,2.45.73,1.92,1.92,0,0,0,2.17-2.11v-.53a2.88,2.88,0,0,1-2.42,1.26,3.08,3.08,0,0,1-3.12-3.21v0a3.1,3.1,0,0,1,3.12-3.23,3,3,0,0,1,2.41,1.17v-1h1.57v5.46a3.52,3.52,0,0,1-.87,2.59,3.9,3.9,0,0,1-2.82.92A5.94,5.94,0,0,1,259.66,31.47Zm5.21-5v0a1.91,1.91,0,0,0-2-1.9,1.85,1.85,0,0,0-1.95,1.88v0a1.87,1.87,0,0,0,1.95,1.9A1.92,1.92,0,0,0,264.87,26.42Z" transform="translate(0 0)" fill="#fff"/><path d="M136.13,33.06c0-.58-.44-.85-1-.85h-1.21v2.57h.62V34h.4l.56.81h.75l-.65-.92A.79.79,0,0,0,136.13,33.06Zm-1.08.4h-.55v-.71h.55c.27,0,.44.13.44.36S135.33,33.46,135.05,33.46Z" transform="translate(0 0)" fill="#fff"/><path d="M134.9,30.92a2.63,2.63,0,1,0,2.63,2.63A2.63,2.63,0,0,0,134.9,30.92Zm2.19,2.61v0a2.19,2.19,0,1,1-4.38,0h0a2.2,2.2,0,0,1,2.19-2.22A2.17,2.17,0,0,1,137.09,33.53Z" transform="translate(0 0)" fill="#fff"/></svg>