<svg xmlns="http://www.w3.org/2000/svg" width="189.45" height="49.89" viewBox="0 0 189.45 49.89"><title>UAMS</title><path d="M41.29,30.52c0,5.19.14,10-3.68,14.2-3.24,3.54-8.3,5.14-13.06,5.28H19.9c-4.76-.14-9.81-1.66-13-5.19-3.82-4.18-3.67-9-3.67-14.2V11.36c0-3.25.5-8.51-3.18-9.88V1.27H13.7v.21c-3.61,1.37-3.18,6.63-3.18,9.88V30.61c0,9.59,4,14,11.47,14a12.74,12.74,0,0,0,10.52-5c1.59-2.17,1.52-4,1.52-6.56V11.36c0-3.25.43-8.51-3.18-9.88V1.27h13.7l.08.21c-3.68,1.37-3.25,6.63-3.25,10l-.09,19.09Z" transform="translate(0 -0.11)"/><path d="M62.86,7.4l-9,23.49L50.1,41.06c-1.52,4-2,6.13,1.44,7.43v.21H38.28v-.21c4.18-2.09,5.41-6.13,7-10.25l12-30.05c1-2.6,2.38-5.62-1.08-6.71V1.27H67.62l15,37c1.66,4.12,3,8.16,7.06,10.25v.21H74.89v-.21c3.54-1.59,3-2.38,1-7.43L72,30.89,62.86,7.4Z" transform="translate(0 -0.11)"/><path d="M131.41,5.81a12.62,12.62,0,0,0,1.09-4.47V1.27H145v.21c-1.73.51-2.24,2.6-2.24,4.26l4.76,35.39c.43,3.39.79,5.34,3.67,7.36v.21h-13.9v-.21c2.52-.8,3-3,3-5.41L136.1,8.33,120,49.64c-3.61-2.74-4.62-4.69-6.35-8.72L99.91,8.4l-4.11,31c-.57,4.4-1.08,7.57,2.31,9.09v.21H86.36v-.21c3-2.67,3.46-6.2,4-10.1L94.5,8.19c.29-2,1.08-4.9-2.23-6.71V1.27h12.62v.07a8.79,8.79,0,0,0,1,3.25l13.56,31.79,12-30.57Z" transform="translate(0 -0.11)"/><path d="M179.78,9.85A16.43,16.43,0,0,0,168.46,5.3c-4.11,0-9.3,1.59-9.3,6.57,0,9.87,24.8,9.73,24.8,23.06,0,7.72-8.07,14.93-19.32,14.93a37.12,37.12,0,0,1-12.9-2.17l-2.09-9a24.92,24.92,0,0,0,15.79,6c4.1,0,10.31-2.44,10.31-7.49,0-11.25-24.81-9.23-24.81-24.51,0-9.08,9.3-12.55,18.1-12.55A36.29,36.29,0,0,1,179.78,1.7V9.85Z" transform="translate(0 -0.11)"/><path d="M63,40.35a6,6,0,1,0-6-6,6,6,0,0,0,6,6Z" transform="translate(0 -0.11)" fill="#9d2235"/><path d="M187.51,45.6c0-.8-.61-1.18-1.43-1.18h-1.67V48h.87V46.85h.55l.76,1.12h1l-.9-1.27A1.09,1.09,0,0,0,187.51,45.6Zm-1.49.55h-.74v-1H186c.37,0,.61.18.61.49S186.41,46.15,186,46.15Z" transform="translate(0 -0.11)"/><path d="M185.82,42.64a3.63,3.63,0,1,0,3.63,3.63A3.63,3.63,0,0,0,185.82,42.64Zm3,3.61v0a3,3,0,1,1-6,0v0a3,3,0,0,1,3-3.06A3,3,0,0,1,188.84,46.25Z" transform="translate(0 -0.11)"/></svg>