<svg xmlns="http://www.w3.org/2000/svg" width="130.48" height="13.29" viewBox="0 0 130.48 13.29"><title>Medical Center</title><path d="M.86,13.07H3.2L7,19l3.82-5.94h2.34V25.62H11v-9L7,22.53H7L3,16.66v9H.86Z" transform="translate(-0.86 -12.54)"/><path d="M15.31,20.92v0A4.69,4.69,0,0,1,19.93,16c3,0,4.53,2.36,4.53,5.09,0,.19,0,.39,0,.61h-7a2.65,2.65,0,0,0,2.73,2.4,3.44,3.44,0,0,0,2.56-1.13L24,24.06a4.79,4.79,0,0,1-3.87,1.77A4.72,4.72,0,0,1,15.31,20.92Zm7-.7a2.46,2.46,0,0,0-2.4-2.49,2.55,2.55,0,0,0-2.45,2.49Z" transform="translate(-0.86 -12.54)"/><path d="M26.09,20.9v0c0-3.14,2.14-4.91,4.39-4.91a3.92,3.92,0,0,1,3.23,1.67V12.54h2.17V25.62H33.71V24a3.79,3.79,0,0,1-3.23,1.77C28.26,25.81,26.09,24,26.09,20.9Zm7.65,0v0a2.84,2.84,0,0,0-2.74-3,2.78,2.78,0,0,0-2.72,3v0a2.81,2.81,0,0,0,2.72,3A2.85,2.85,0,0,0,33.74,20.9Z" transform="translate(-0.86 -12.54)"/><path d="M38.51,12.65h2.32v2.06H38.51Zm.08,3.51h2.17v9.46H38.59Z" transform="translate(-0.86 -12.54)"/><path d="M42.91,20.94v0A4.88,4.88,0,0,1,47.82,16a4.72,4.72,0,0,1,3.78,1.63L50.25,19a3.17,3.17,0,0,0-2.45-1.18,2.83,2.83,0,0,0-2.72,3v0A2.88,2.88,0,0,0,47.91,24a3.31,3.31,0,0,0,2.45-1.18l1.31,1.29a5,5,0,0,1-8.76-3.12Z" transform="translate(-0.86 -12.54)"/><path d="M59.45,25.62V24.45a3.85,3.85,0,0,1-3.07,1.36c-1.79,0-3.37-1-3.37-2.92v0c0-2.1,1.63-3.1,3.84-3.1a8,8,0,0,1,2.61.39V20c0-1.31-.82-2-2.33-2a6.56,6.56,0,0,0-2.7.59l-.59-1.74a8.19,8.19,0,0,1,3.6-.79c2.79,0,4.16,1.47,4.16,4v5.61Zm0-4a6.12,6.12,0,0,0-2.17-.38c-1.36,0-2.17.56-2.17,1.47v0c0,.89.81,1.39,1.83,1.39,1.43,0,2.51-.8,2.51-2Z" transform="translate(-0.86 -12.54)"/><path d="M64.23,12.54h2.16V25.62H64.23Z" transform="translate(-0.86 -12.54)"/><path d="M73.06,19.38v0a6.35,6.35,0,0,1,6.47-6.49,6.58,6.58,0,0,1,4.91,2L83,16.44a5,5,0,0,0-3.51-1.56,4.21,4.21,0,0,0-4.14,4.43v0a4.24,4.24,0,0,0,4.14,4.46,4.94,4.94,0,0,0,3.6-1.63l1.41,1.43a6.46,6.46,0,0,1-5.08,2.22A6.31,6.31,0,0,1,73.06,19.38Z" transform="translate(-0.86 -12.54)"/><path d="M85.87,20.92v0A4.69,4.69,0,0,1,90.49,16c3,0,4.53,2.36,4.53,5.09,0,.19,0,.39,0,.61H88a2.65,2.65,0,0,0,2.73,2.4,3.46,3.46,0,0,0,2.56-1.13l1.27,1.13a4.8,4.8,0,0,1-3.87,1.77A4.72,4.72,0,0,1,85.87,20.92Zm7-.7a2.46,2.46,0,0,0-2.4-2.49A2.55,2.55,0,0,0,88,20.22Z" transform="translate(-0.86 -12.54)"/><path d="M97.15,16.16h2.17v1.47a3.4,3.4,0,0,1,3-1.67c2.14,0,3.37,1.43,3.37,3.64v6h-2.17V20.24c0-1.47-.73-2.31-2-2.31a2.11,2.11,0,0,0-2.13,2.35v5.34H97.15Z" transform="translate(-0.86 -12.54)"/><path d="M108.51,23V18h-1.2V16.16h1.2v-2.6h2.17v2.6h2.54V18h-2.54v4.64a1,1,0,0,0,1.16,1.18,3,3,0,0,0,1.35-.32v1.77a3.77,3.77,0,0,1-2,.49C109.64,25.78,108.51,25.08,108.51,23Z" transform="translate(-0.86 -12.54)"/><path d="M114.54,20.92v0A4.69,4.69,0,0,1,119.16,16c3,0,4.53,2.36,4.53,5.09,0,.19,0,.39,0,.61h-7a2.65,2.65,0,0,0,2.73,2.4A3.46,3.46,0,0,0,122,22.93l1.27,1.13a4.8,4.8,0,0,1-3.87,1.77A4.72,4.72,0,0,1,114.54,20.92Zm7-.7a2.46,2.46,0,0,0-2.4-2.49,2.55,2.55,0,0,0-2.45,2.49Z" transform="translate(-0.86 -12.54)"/><path d="M125.82,16.16H128v2.13A3.34,3.34,0,0,1,131.34,16v2.29h-.13c-1.9,0-3.22,1.24-3.22,3.74v3.61h-2.17Z" transform="translate(-0.86 -12.54)"/></svg>