<svg xmlns="http://www.w3.org/2000/svg" width="181.46" height="16.11" viewBox="0 0 181.46 16.11"><title>College of Pharmacy</title><path d="M.3,19.38v0a6.35,6.35,0,0,1,6.47-6.49,6.56,6.56,0,0,1,4.91,2l-1.42,1.63a5,5,0,0,0-3.51-1.56,4.21,4.21,0,0,0-4.14,4.43v0a4.24,4.24,0,0,0,4.14,4.46,4.92,4.92,0,0,0,3.6-1.63l1.42,1.43a6.48,6.48,0,0,1-5.09,2.22A6.31,6.31,0,0,1,.3,19.38Z" transform="translate(-0.3 -12.43)"/><path d="M13.08,20.94v0A5,5,0,0,1,18.14,16a4.9,4.9,0,0,1,5,4.91v0a5,5,0,0,1-5.07,4.93A4.9,4.9,0,0,1,13.08,20.94Zm7.92,0v0a2.92,2.92,0,0,0-2.9-3,2.84,2.84,0,0,0-2.85,3v0A2.93,2.93,0,0,0,18.14,24,2.85,2.85,0,0,0,21,20.94Z" transform="translate(-0.3 -12.43)"/><path d="M25.37,12.54h2.17V25.62H25.37Z" transform="translate(-0.3 -12.43)"/><path d="M30.29,12.54h2.17V25.62H30.29Z" transform="translate(-0.3 -12.43)"/><path d="M34.65,20.92v0A4.7,4.7,0,0,1,39.27,16c3,0,4.54,2.36,4.54,5.09,0,.19,0,.39,0,.61h-7a2.64,2.64,0,0,0,2.72,2.4,3.44,3.44,0,0,0,2.56-1.13l1.28,1.13a4.81,4.81,0,0,1-3.87,1.77A4.73,4.73,0,0,1,34.65,20.92Zm7-.7a2.47,2.47,0,0,0-2.4-2.49,2.56,2.56,0,0,0-2.46,2.49Z" transform="translate(-0.3 -12.43)"/><path d="M45.86,27.39l.8-1.63a6.15,6.15,0,0,0,3.37,1c1.94,0,3-1,3-2.9v-.73a3.94,3.94,0,0,1-3.33,1.73,4.25,4.25,0,0,1-4.3-4.42v0A4.27,4.27,0,0,1,49.69,16,4.09,4.09,0,0,1,53,17.57V16.16h2.16v7.52A4.84,4.84,0,0,1,54,27.25a5.31,5.31,0,0,1-3.88,1.27A8.2,8.2,0,0,1,45.86,27.39ZM53,20.44v0a2.64,2.64,0,0,0-2.77-2.61,2.55,2.55,0,0,0-2.69,2.59v0A2.58,2.58,0,0,0,50.27,23,2.65,2.65,0,0,0,53,20.44Z" transform="translate(-0.3 -12.43)"/><path d="M57.31,20.92v0A4.7,4.7,0,0,1,61.94,16c3,0,4.53,2.36,4.53,5.09,0,.19,0,.39,0,.61h-7a2.64,2.64,0,0,0,2.72,2.4,3.48,3.48,0,0,0,2.57-1.13L66,24.06a4.8,4.8,0,0,1-3.87,1.77A4.73,4.73,0,0,1,57.31,20.92Zm7-.7a2.46,2.46,0,0,0-2.4-2.49,2.56,2.56,0,0,0-2.46,2.49Z" transform="translate(-0.3 -12.43)"/><path d="M72.27,20.94v0a5,5,0,0,1,10.09,0v0a5,5,0,0,1-5.07,4.93A4.89,4.89,0,0,1,72.27,20.94Zm7.92,0v0a2.92,2.92,0,0,0-2.9-3,2.84,2.84,0,0,0-2.85,3v0A2.93,2.93,0,0,0,77.32,24,2.85,2.85,0,0,0,80.19,20.94Z" transform="translate(-0.3 -12.43)"/><path d="M84.74,18h-1.2V16.21h1.2v-.68a3.18,3.18,0,0,1,.78-2.35,2.87,2.87,0,0,1,2.13-.75,5.86,5.86,0,0,1,1.75.25v1.83a3.87,3.87,0,0,0-1.27-.24c-.82,0-1.25.45-1.25,1.44v.52h2.51V18H86.91v7.6H84.74Z" transform="translate(-0.3 -12.43)"/><path d="M95.39,13.07h4.94c2.92,0,4.77,1.67,4.77,4.2v0c0,2.82-2.26,4.29-5,4.29H97.59v4h-2.2Zm4.76,6.53c1.67,0,2.71-.94,2.71-2.24v0c0-1.47-1.06-2.24-2.71-2.24H97.59V19.6Z" transform="translate(-0.3 -12.43)"/><path d="M107,12.54h2.17v5.09A3.39,3.39,0,0,1,112.07,16c2.14,0,3.37,1.43,3.37,3.64v6h-2.17V20.24c0-1.47-.73-2.31-2-2.31a2.11,2.11,0,0,0-2.13,2.35v5.34H107Z" transform="translate(-0.3 -12.43)"/><path d="M123.44,25.62V24.45a3.83,3.83,0,0,1-3.07,1.36c-1.79,0-3.36-1-3.36-2.92v0c0-2.1,1.63-3.1,3.83-3.1a8.09,8.09,0,0,1,2.62.39V20c0-1.31-.83-2-2.33-2a6.57,6.57,0,0,0-2.71.59l-.59-1.74a8.19,8.19,0,0,1,3.6-.79c2.8,0,4.16,1.47,4.16,4v5.61Zm0-4a6,6,0,0,0-2.17-.38c-1.36,0-2.16.56-2.16,1.47v0c0,.89.8,1.39,1.82,1.39,1.44,0,2.51-.8,2.51-2Z" transform="translate(-0.3 -12.43)"/><path d="M128.15,16.16h2.17v2.13A3.34,3.34,0,0,1,133.67,16v2.29h-.13c-1.89,0-3.22,1.24-3.22,3.74v3.61h-2.17Z" transform="translate(-0.3 -12.43)"/><path d="M135.34,16.16h2.17v1.43A3.38,3.38,0,0,1,140.39,16a3,3,0,0,1,2.81,1.67A3.86,3.86,0,0,1,146.41,16c2.06,0,3.31,1.31,3.31,3.62v6h-2.16V20.24c0-1.5-.7-2.31-1.92-2.31s-2,.82-2,2.35v5.34h-2.16v-5.4c0-1.47-.72-2.29-1.92-2.29s-2,.9-2,2.36v5.33h-2.17Z" transform="translate(-0.3 -12.43)"/><path d="M158.12,25.62V24.45a3.83,3.83,0,0,1-3.07,1.36c-1.79,0-3.37-1-3.37-2.92v0c0-2.1,1.63-3.1,3.84-3.1a8,8,0,0,1,2.61.39V20c0-1.31-.82-2-2.33-2a6.56,6.56,0,0,0-2.7.59l-.59-1.74a8.19,8.19,0,0,1,3.6-.79c2.79,0,4.16,1.47,4.16,4v5.61Zm0-4a6.12,6.12,0,0,0-2.17-.38c-1.36,0-2.17.56-2.17,1.47v0c0,.89.81,1.39,1.83,1.39,1.43,0,2.51-.8,2.51-2Z" transform="translate(-0.3 -12.43)"/><path d="M162.27,20.94v0A4.88,4.88,0,0,1,167.18,16,4.72,4.72,0,0,1,171,17.59L169.62,19a3.2,3.2,0,0,0-2.46-1.18,2.83,2.83,0,0,0-2.72,3v0A2.88,2.88,0,0,0,167.27,24a3.31,3.31,0,0,0,2.45-1.18L171,24.06a4.77,4.77,0,0,1-3.87,1.77A4.83,4.83,0,0,1,162.27,20.94Z" transform="translate(-0.3 -12.43)"/><path d="M172.64,28l.74-1.61a2.59,2.59,0,0,0,1.27.36c.61,0,1-.27,1.34-1.09l-3.94-9.46h2.31l2.69,7,2.46-7h2.25L178,25.89c-.75,1.93-1.59,2.65-3.12,2.65A4.43,4.43,0,0,1,172.64,28Z" transform="translate(-0.3 -12.43)"/></svg>