<svg xmlns="http://www.w3.org/2000/svg" width="3.91in" height="0.5in" viewBox="0 0 281.62 36.28" preserveAspectRatio="xMidYMid meet"><title>University of Arkansas for Medical Sciences Institute of Digital Health and Innovation Logo</title><path d="M30,22.14c0,3.77.1,7.28-2.67,10.31-2.35,2.57-6,3.73-9.47,3.83H14.44C11,36.18,7.32,35.08,5,32.51,2.2,29.48,2.3,26,2.3,22.21v-14c0-2.35.37-6.17-2.3-7.16V.92H9.94v.16c-2.62,1-2.3,4.81-2.3,7.16v14c0,7,2.93,10.2,8.32,10.2a9.25,9.25,0,0,0,7.63-3.66c1.15-1.57,1.1-2.88,1.1-4.76V8.24c0-2.35.31-6.17-2.3-7.16V.92h9.94l.05.16C29.71,2.07,30,5.89,30,8.3L30,22.14Z" transform="translate(0 0)" fill="#fff"/><path d="M45.61,5.37,39.08,22.42l-2.73,7.37c-1.1,2.93-1.46,4.45,1,5.39v.16H27.78v-.16c3-1.51,3.92-4.44,5.07-7.43L41.58,5.94c.74-1.88,1.73-4.08-.78-4.86V.92h8.26L59.94,27.75c1.2,3,2.15,5.92,5.13,7.43v.16H54.34v-.16c2.57-1.15,2.15-1.72.74-5.39l-2.83-7.37-6.64-17Z" transform="translate(0 0)" fill="#fff"/><path d="M95.36,4.21A9.09,9.09,0,0,0,96.14,1v0h9v.16c-1.26.36-1.62,1.88-1.62,3.08L107,29.85c.31,2.46.58,3.87,2.67,5.33v.16H99.59v-.16c1.84-.57,2.15-2.14,2.15-3.92L98.76,6,87,36c-2.62-2-3.35-3.4-4.61-6.33L72.5,6.1l-3,22.49c-.42,3.19-.79,5.49,1.67,6.59v.16H62.66v-.16c2.2-1.93,2.51-4.5,2.93-7.32l3-21.92c.21-1.46.79-3.55-1.62-4.86V.92h9.16V1a6.25,6.25,0,0,0,.73,2.36l9.83,23.06L95.36,4.21Z" transform="translate(0 0)" fill="#fff"/><path d="M130.45,7.15a11.87,11.87,0,0,0-8.21-3.3c-3,0-6.75,1.15-6.75,4.76,0,7.17,18,7.06,18,16.74,0,5.6-5.85,10.83-14,10.83a27,27,0,0,1-9.36-1.57l-1.52-6.54A18.09,18.09,0,0,0,120,32.41c3,0,7.48-1.78,7.48-5.44,0-8.16-18-6.7-18-17.79,0-6.58,6.76-9.1,13.14-9.1a26.44,26.44,0,0,1,7.79,1.15V7.15Z" transform="translate(0 0)" fill="#fff"/><path d="M45.69,29.28a4.38,4.38,0,1,0-4.38-4.38,4.39,4.39,0,0,0,4.38,4.38Z" transform="translate(0 0)" fill="#fff"/><rect x="144.9" width="1" height="36.07" fill="#fff"/><path d="M136.08,33.1c0-.58-.44-.85-1-.85h-1.21v2.57h.62V34h.4l.55.81h.76l-.66-.92A.78.78,0,0,0,136.08,33.1Zm-1.08.4h-.54v-.71H135c.27,0,.44.13.44.36S135.29,33.5,135,33.5Z" transform="translate(0 0)" fill="#fff"/><path d="M134.86,31a2.63,2.63,0,1,0,2.63,2.63A2.63,2.63,0,0,0,134.86,31Zm2.19,2.61v0a2.19,2.19,0,1,1-4.38,0h0a2.2,2.2,0,0,1,2.19-2.22A2.17,2.17,0,0,1,137.05,33.57Z" transform="translate(0 0)" fill="#fff"/><path d="M155.43,6.39H157v9.1h-1.6Z" transform="translate(0 0)" fill="#fff"/><path d="M159.26,8.63h1.59v1A2.48,2.48,0,0,1,163,8.48a2.36,2.36,0,0,1,2.45,2.63v4.38h-1.58v-3.9c0-1.07-.53-1.68-1.46-1.68a1.53,1.53,0,0,0-1.55,1.71v3.87h-1.59Z" transform="translate(0 0)" fill="#fff"/><path d="M166.78,14.59l.7-1.06a3.87,3.87,0,0,0,2.25.84c.67,0,1.06-.28,1.06-.74v0c0-.54-.72-.72-1.53-1-1-.28-2.15-.7-2.15-2v0a2.19,2.19,0,0,1,2.45-2.11,4.76,4.76,0,0,1,2.52.78l-.62,1.12a4,4,0,0,0-1.94-.65c-.61,0-1,.3-1,.67v0c0,.51.74.72,1.54,1,1,.31,2.14.76,2.14,2v0c0,1.45-1.12,2.16-2.55,2.16A4.71,4.71,0,0,1,166.78,14.59Z" transform="translate(0 0)" fill="#fff"/><path d="M174,13.59V10h-.87V8.63H174V6.74h1.58V8.63h1.84V10h-1.84v3.37a.74.74,0,0,0,.84.85,2.11,2.11,0,0,0,1-.23v1.29a2.74,2.74,0,0,1-1.42.35A1.76,1.76,0,0,1,174,13.59Z" transform="translate(0 0)" fill="#fff"/><path d="M179.09,6.08h1.69V7.57h-1.69Zm0,2.55h1.59v6.86h-1.59Z" transform="translate(0 0)" fill="#fff"/><path d="M183.1,13.59V10h-.87V8.63h.87V6.74h1.58V8.63h1.84V10h-1.84v3.37a.74.74,0,0,0,.84.85,2.08,2.08,0,0,0,1-.23v1.29a2.74,2.74,0,0,1-1.42.35A1.76,1.76,0,0,1,183.1,13.59Z" transform="translate(0 0)" fill="#fff"/><path d="M188,13V8.63h1.58v3.9c0,1.06.53,1.66,1.47,1.66a1.51,1.51,0,0,0,1.54-1.69V8.63h1.59v6.86h-1.59V14.43a2.46,2.46,0,0,1-2.14,1.2A2.36,2.36,0,0,1,188,13Z" transform="translate(0 0)" fill="#fff"/><path d="M196.51,13.59V10h-.87V8.63h.87V6.74h1.57V8.63h1.85V10h-1.85v3.37a.74.74,0,0,0,.84.85,2.05,2.05,0,0,0,1-.23v1.29a2.74,2.74,0,0,1-1.42.35A1.76,1.76,0,0,1,196.51,13.59Z" transform="translate(0 0)" fill="#fff"/><path d="M201,12.08v0a3.41,3.41,0,0,1,3.36-3.58c2.18,0,3.29,1.72,3.29,3.7,0,.14,0,.28,0,.44h-5a1.9,1.9,0,0,0,2,1.74,2.51,2.51,0,0,0,1.86-.82l.92.82A3.58,3.58,0,0,1,201,12.08Zm5.09-.5a1.79,1.79,0,0,0-1.75-1.81,1.86,1.86,0,0,0-1.78,1.81Z" transform="translate(0 0)" fill="#fff"/><path d="M213.43,10h-.87V8.67h.87V8.16A2.32,2.32,0,0,1,214,6.47a2.06,2.06,0,0,1,1.54-.55,4.36,4.36,0,0,1,1.28.18V7.43a2.83,2.83,0,0,0-.92-.17c-.6,0-.91.34-.91,1v.38h1.82V10H215v5.51h-1.58Z" transform="translate(0 0)" fill="#fff"/><path d="M217.46,12.1v0a3.66,3.66,0,0,1,7.32,0v0a3.59,3.59,0,0,1-3.68,3.58A3.55,3.55,0,0,1,217.46,12.1Zm5.75,0v0a2.12,2.12,0,0,0-2.11-2.21A2.06,2.06,0,0,0,219,12.05v0a2.11,2.11,0,0,0,2.09,2.2A2.06,2.06,0,0,0,223.21,12.1Z" transform="translate(0 0)" fill="#fff"/><path d="M226.37,8.63H228v1.54a2.43,2.43,0,0,1,2.43-1.67v1.66h-.09c-1.37,0-2.34.9-2.34,2.72v2.61h-1.58Z" transform="translate(0 0)" fill="#fff"/><path d="M235.83,6.39h3.39a4.54,4.54,0,0,1,4.84,4.52v0a4.56,4.56,0,0,1-4.84,4.55h-3.39Zm1.6,1.46V14h1.79A3,3,0,0,0,242.38,11v0a3,3,0,0,0-3.16-3.09Z" transform="translate(0 0)" fill="#fff"/><path d="M245.84,6.08h1.69V7.57h-1.69Zm0,2.55h1.59v6.86h-1.59Z" transform="translate(0 0)" fill="#fff"/><path d="M249.52,16.78l.58-1.18a4.56,4.56,0,0,0,2.45.71,1.91,1.91,0,0,0,2.17-2.09V13.7A2.9,2.9,0,0,1,252.3,15a3.08,3.08,0,0,1-3.12-3.22v0a3.1,3.1,0,0,1,3.12-3.23,3,3,0,0,1,2.41,1.17v-1h1.57v5.46a3.51,3.51,0,0,1-.87,2.58,3.84,3.84,0,0,1-2.82.93A5.94,5.94,0,0,1,249.52,16.78Zm5.21-5.06v0a1.91,1.91,0,0,0-2-1.87,1.84,1.84,0,0,0-1.95,1.87v0a1.87,1.87,0,0,0,1.95,1.89A1.92,1.92,0,0,0,254.73,11.72Z" transform="translate(0 0)" fill="#fff"/><path d="M258.28,6.08H260V7.57h-1.69Zm.05,2.55h1.59v6.86h-1.59Z" transform="translate(0 0)" fill="#fff"/><path d="M262.3,13.59V10h-.87V8.63h.87V6.74h1.57V8.63h1.85V10h-1.85v3.37a.74.74,0,0,0,.85.85,2,2,0,0,0,1-.23v1.29a2.74,2.74,0,0,1-1.42.35A1.76,1.76,0,0,1,262.3,13.59Z" transform="translate(0 0)" fill="#fff"/><path d="M266.85,13.52v0c0-1.48,1.17-2.21,2.85-2.21a6,6,0,0,1,1.84.28V11.4c0-1-.6-1.5-1.7-1.5a4.74,4.74,0,0,0-2,.43l-.43-1.23a5.88,5.88,0,0,1,2.6-.56,3.09,3.09,0,0,1,2.27.76,2.84,2.84,0,0,1,.74,2.12v4.07h-1.53v-.86a2.79,2.79,0,0,1-2.24,1A2.2,2.2,0,0,1,266.85,13.52Zm4.72-.5v-.47a4.55,4.55,0,0,0-1.56-.27c-1,0-1.61.43-1.61,1.14v0c0,.66.58,1,1.33,1C270.77,14.49,271.57,13.89,271.57,13Z" transform="translate(0 0)" fill="#fff"/><path d="M275,6h1.58v9.49H275Z" transform="translate(0 0)" fill="#fff"/><path d="M155.34,21.39h1.6v3.78h4.34V21.39h1.6v9.1h-1.6V26.66h-4.34v3.83h-1.6Z" transform="translate(0 0)" fill="#fff"/><path d="M164.66,27.08v0A3.41,3.41,0,0,1,168,23.48c2.19,0,3.29,1.72,3.29,3.7a3.49,3.49,0,0,1,0,.44h-5a1.91,1.91,0,0,0,2,1.74,2.52,2.52,0,0,0,1.86-.82l.92.82a3.48,3.48,0,0,1-2.81,1.29A3.43,3.43,0,0,1,164.66,27.08Zm5.08-.5A1.78,1.78,0,0,0,168,24.77a1.86,1.86,0,0,0-1.78,1.81Z" transform="translate(0 0)" fill="#fff"/><path d="M172.42,28.52v0c0-1.48,1.17-2.21,2.85-2.21a6,6,0,0,1,1.84.28V26.4c0-1-.6-1.5-1.7-1.5a4.74,4.74,0,0,0-2,.43L173,24.1a5.88,5.88,0,0,1,2.6-.56,3.09,3.09,0,0,1,2.27.76,2.84,2.84,0,0,1,.74,2.12v4.07H177.1v-.86a2.79,2.79,0,0,1-2.24,1A2.2,2.2,0,0,1,172.42,28.52Zm4.72-.5v-.47a4.55,4.55,0,0,0-1.56-.27c-1,0-1.61.43-1.61,1.14v0c0,.66.58,1,1.34,1C176.35,29.49,177.14,28.89,177.14,28Z" transform="translate(0 0)" fill="#fff"/><path d="M180.6,21h1.58v9.49H180.6Z" transform="translate(0 0)" fill="#fff"/><path d="M184.56,28.59V25h-.87V23.63h.87V21.74h1.57v1.89H188V25h-1.85v3.37a.75.75,0,0,0,.85.85,2,2,0,0,0,1-.23v1.29a2.72,2.72,0,0,1-1.41.35A1.76,1.76,0,0,1,184.56,28.59Z" transform="translate(0 0)" fill="#fff"/><path d="M189.57,21h1.58v3.68a2.49,2.49,0,0,1,2.15-1.2,2.35,2.35,0,0,1,2.44,2.63v4.38h-1.57v-3.9c0-1.07-.54-1.68-1.47-1.68a1.53,1.53,0,0,0-1.55,1.71v3.87h-1.58Z" transform="translate(0 0)" fill="#fff"/><path d="M206.82,29.44A4,4,0,0,1,204,30.62a2.7,2.7,0,0,1-3-2.6v0a2.73,2.73,0,0,1,2-2.54,3,3,0,0,1-.75-1.9v0a2.39,2.39,0,0,1,2.61-2.31,2.25,2.25,0,0,1,2.42,2.2v0c0,1.19-.79,1.91-2,2.36l1.56,1.59a13.24,13.24,0,0,0,1-1.76l1.21.64a13.3,13.3,0,0,1-1.23,2.07l1.44,1.45-1.19.86Zm-.91-.94-2-2.06a1.67,1.67,0,0,0-1.21,1.5v0a1.39,1.39,0,0,0,1.52,1.33A2.51,2.51,0,0,0,205.91,28.5Zm-.06-4.95v0a1,1,0,0,0-1-1,1,1,0,0,0-1.09,1.09v0a2,2,0,0,0,.68,1.36C205.36,24.63,205.85,24.2,205.85,23.55Z" transform="translate(0 0)" fill="#fff"/><path d="M214.76,21.39h1.6v9.1h-1.6Z" transform="translate(0 0)" fill="#fff"/><path d="M218.59,23.63h1.59v1.05a2.48,2.48,0,0,1,2.14-1.2,2.36,2.36,0,0,1,2.45,2.63v4.38H223.2v-3.9c0-1.07-.54-1.68-1.47-1.68a1.53,1.53,0,0,0-1.55,1.71v3.87h-1.59Z" transform="translate(0 0)" fill="#fff"/><path d="M226.65,23.63h1.59v1.05a2.48,2.48,0,0,1,2.14-1.2,2.36,2.36,0,0,1,2.45,2.63v4.38h-1.57v-3.9c0-1.07-.54-1.68-1.47-1.68a1.53,1.53,0,0,0-1.55,1.71v3.87h-1.59Z" transform="translate(0 0)" fill="#fff"/><path d="M234.35,27.1v0a3.66,3.66,0,0,1,7.32,0v0A3.59,3.59,0,0,1,238,30.65,3.55,3.55,0,0,1,234.35,27.1Zm5.75,0v0A2.12,2.12,0,0,0,238,24.86a2.07,2.07,0,0,0-2.07,2.19v0a2.12,2.12,0,0,0,2.1,2.2A2.06,2.06,0,0,0,240.1,27.1Z" transform="translate(0 0)" fill="#fff"/><path d="M242.23,23.63h1.69l1.84,5,1.86-5h1.65l-2.8,6.91h-1.42Z" transform="translate(0 0)" fill="#fff"/><path d="M249.82,28.52v0c0-1.48,1.17-2.21,2.85-2.21a6,6,0,0,1,1.84.28V26.4c0-1-.59-1.5-1.7-1.5a4.74,4.74,0,0,0-2,.43l-.43-1.23a6,6,0,0,1,2.6-.56,3.07,3.07,0,0,1,2.27.76,2.84,2.84,0,0,1,.74,2.12v4.07H254.5v-.86a2.79,2.79,0,0,1-2.24,1A2.2,2.2,0,0,1,249.82,28.52Zm4.72-.5v-.47a4.51,4.51,0,0,0-1.56-.27c-1,0-1.61.43-1.61,1.14v0c0,.66.58,1,1.34,1C253.75,29.49,254.54,28.89,254.54,28Z" transform="translate(0 0)" fill="#fff"/><path d="M258.18,28.59V25h-.87V23.63h.87V21.74h1.57v1.89h1.85V25h-1.85v3.37a.74.74,0,0,0,.85.85,2,2,0,0,0,1-.23v1.29a2.72,2.72,0,0,1-1.41.35A1.76,1.76,0,0,1,258.18,28.59Z" transform="translate(0 0)" fill="#fff"/><path d="M263.22,21.08h1.69v1.49h-1.69Zm.06,2.55h1.58v6.86h-1.58Z" transform="translate(0 0)" fill="#fff"/><path d="M266.54,27.1v0a3.66,3.66,0,0,1,7.32,0v0a3.59,3.59,0,0,1-3.68,3.58A3.55,3.55,0,0,1,266.54,27.1Zm5.74,0v0a2.12,2.12,0,0,0-2.1-2.21,2.07,2.07,0,0,0-2.07,2.19v0a2.11,2.11,0,0,0,2.09,2.2A2.06,2.06,0,0,0,272.28,27.1Z" transform="translate(0 0)" fill="#fff"/><path d="M275.44,23.63H277v1.05a2.48,2.48,0,0,1,2.14-1.2,2.36,2.36,0,0,1,2.45,2.63v4.38h-1.57v-3.9c0-1.07-.54-1.68-1.47-1.68A1.53,1.53,0,0,0,277,26.62v3.87h-1.59Z" transform="translate(0 0)" fill="#fff"/></svg>