<svg xmlns="http://www.w3.org/2000/svg" width="194.36" height="34.07" viewBox="0 0 194.36 34.07"><title>University of Arkansas for Medical Sciences</title><path d="M1.69,10.08V2.86h2.2V10c0,2.33,1.2,3.58,3.17,3.58s3.16-1.18,3.16-3.49V2.86h2.2V10c0,3.75-2.11,5.63-5.39,5.63S1.69,13.72,1.69,10.08Z" transform="translate(-0.92 -2.21)"/><path d="M14.51,5.94h2.17V7.41a3.37,3.37,0,0,1,2.95-1.67C21.76,5.74,23,7.18,23,9.38v6H20.83V10c0-1.46-.73-2.31-2-2.31a2.1,2.1,0,0,0-2.13,2.35V15.4H14.51Z" transform="translate(-0.92 -2.21)"/><path d="M25.53,2.43h2.33V4.49H25.53Zm.09,3.51h2.17V15.4H25.62Z" transform="translate(-0.92 -2.21)"/><path d="M29.47,5.94H31.8l2.55,7,2.56-6.95h2.27l-3.87,9.53h-2Z" transform="translate(-0.92 -2.21)"/><path d="M39.92,10.71v0a4.7,4.7,0,0,1,4.63-4.93c3,0,4.53,2.37,4.53,5.09,0,.2,0,.4,0,.61H42.09a2.64,2.64,0,0,0,2.73,2.4,3.44,3.44,0,0,0,2.56-1.13l1.27,1.13a4.78,4.78,0,0,1-3.87,1.78A4.73,4.73,0,0,1,39.92,10.71Zm7-.7a2.45,2.45,0,0,0-2.4-2.49A2.56,2.56,0,0,0,42.07,10Z" transform="translate(-0.92 -2.21)"/><path d="M51.21,5.94h2.17V8.07a3.36,3.36,0,0,1,3.35-2.31V8.05H56.6c-1.9,0-3.22,1.24-3.22,3.75v3.6H51.21Z" transform="translate(-0.92 -2.21)"/><path d="M57.77,14.16l1-1.46a5.42,5.42,0,0,0,3.11,1.16c.93,0,1.46-.4,1.46-1v0c0-.73-1-1-2.11-1.32-1.4-.4-3-1-3-2.78v0c0-1.79,1.49-2.88,3.37-2.88a6.62,6.62,0,0,1,3.48,1.07L64.22,8.4a5.47,5.47,0,0,0-2.67-.9c-.84,0-1.33.39-1.33.95v0c0,.68,1,1,2.13,1.33,1.38.43,2.94,1.06,2.94,2.76v0c0,2-1.54,3-3.51,3A6.59,6.59,0,0,1,57.77,14.16Z" transform="translate(-0.92 -2.21)"/><path d="M67.38,2.43h2.33V4.49H67.38Zm.09,3.51h2.17V15.4H67.47Z" transform="translate(-0.92 -2.21)"/><path d="M72.72,12.78v-5h-1.2V5.94h1.2V3.34h2.17v2.6h2.54V7.8H74.89v4.64a1,1,0,0,0,1.16,1.19,2.87,2.87,0,0,0,1.35-.33v1.78a3.87,3.87,0,0,1-2,.48C73.85,15.56,72.72,14.86,72.72,12.78Z" transform="translate(-0.92 -2.21)"/><path d="M79.39,17.75l.74-1.61a2.69,2.69,0,0,0,1.27.35c.61,0,1-.27,1.35-1.09l-4-9.46h2.31l2.69,7,2.46-7h2.25l-3.76,9.73c-.75,1.93-1.59,2.65-3.12,2.65A4.43,4.43,0,0,1,79.39,17.75Z" transform="translate(-0.92 -2.21)"/><path d="M94,10.72v0a5,5,0,0,1,10.08,0v0A5,5,0,0,1,99,15.62,4.9,4.9,0,0,1,94,10.72Zm7.92,0v0a2.93,2.93,0,0,0-2.91-3,2.84,2.84,0,0,0-2.85,3v0a2.93,2.93,0,0,0,2.89,3A2.86,2.86,0,0,0,101.92,10.72Z" transform="translate(-0.92 -2.21)"/><path d="M106.47,7.8h-1.2V6h1.2V5.31A3.21,3.21,0,0,1,107.24,3a2.83,2.83,0,0,1,2.13-.76,6,6,0,0,1,1.76.25V4.29a3.92,3.92,0,0,0-1.28-.23c-.82,0-1.25.45-1.25,1.43V6h2.51V7.8h-2.47v7.6h-2.17Z" transform="translate(-0.92 -2.21)"/><path d="M121.55,2.77h2l5.51,12.63h-2.33l-1.27-3h-5.93l-1.29,3H116Zm3.16,7.65-2.17-5-2.15,5Z" transform="translate(-0.92 -2.21)"/><path d="M130.57,5.94h2.16V8.07a3.37,3.37,0,0,1,3.35-2.31V8.05H136c-1.9,0-3.23,1.24-3.23,3.75v3.6h-2.16Z" transform="translate(-0.92 -2.21)"/><path d="M137.75,2.32h2.17v7.81l3.92-4.19h2.64l-3.77,3.85,3.89,5.61h-2.51l-2.84-4.08-1.33,1.38v2.7h-2.17Z" transform="translate(-0.92 -2.21)"/><path d="M153.73,15.4V14.24a3.81,3.81,0,0,1-3.06,1.36c-1.79,0-3.37-1-3.37-2.92v0c0-2.1,1.63-3.1,3.84-3.1a7.74,7.74,0,0,1,2.61.4V9.76c0-1.31-.82-2-2.33-2a6.56,6.56,0,0,0-2.7.59l-.59-1.74a8.2,8.2,0,0,1,3.6-.78c2.79,0,4.15,1.47,4.15,4V15.4Zm.06-4a6.35,6.35,0,0,0-2.17-.38c-1.36,0-2.17.56-2.17,1.47v0c0,.89.81,1.4,1.83,1.4,1.43,0,2.51-.81,2.51-2Z" transform="translate(-0.92 -2.21)"/><path d="M158.09,5.94h2.17V7.41a3.37,3.37,0,0,1,3-1.67c2.13,0,3.37,1.44,3.37,3.64v6h-2.17V10c0-1.46-.73-2.31-2-2.31a2.1,2.1,0,0,0-2.13,2.35V15.4h-2.17Z" transform="translate(-0.92 -2.21)"/><path d="M168.37,14.16l1-1.46a5.41,5.41,0,0,0,3.1,1.16c.94,0,1.47-.4,1.47-1v0c0-.73-1-1-2.11-1.32-1.4-.4-3-1-3-2.78v0c0-1.79,1.49-2.88,3.37-2.88a6.62,6.62,0,0,1,3.48,1.07l-.86,1.55a5.47,5.47,0,0,0-2.67-.9c-.84,0-1.33.39-1.33.95v0c0,.68,1,1,2.13,1.33,1.38.43,2.94,1.06,2.94,2.76v0c0,2-1.54,3-3.51,3A6.59,6.59,0,0,1,168.37,14.16Z" transform="translate(-0.92 -2.21)"/><path d="M183.84,15.4V14.24a3.83,3.83,0,0,1-3.07,1.36c-1.79,0-3.37-1-3.37-2.92v0c0-2.1,1.63-3.1,3.84-3.1a7.74,7.74,0,0,1,2.61.4V9.76c0-1.31-.82-2-2.33-2a6.56,6.56,0,0,0-2.7.59l-.59-1.74a8.2,8.2,0,0,1,3.6-.78c2.79,0,4.16,1.47,4.16,4V15.4Zm0-4a6.35,6.35,0,0,0-2.17-.38c-1.36,0-2.17.56-2.17,1.47v0c0,.89.81,1.4,1.83,1.4,1.44,0,2.51-.81,2.51-2Z" transform="translate(-0.92 -2.21)"/><path d="M187.75,14.16l1-1.46a5.36,5.36,0,0,0,3.1,1.16c.93,0,1.47-.4,1.47-1v0c0-.73-1-1-2.12-1.32-1.39-.4-2.95-1-2.95-2.78v0c0-1.79,1.48-2.88,3.36-2.88a6.56,6.56,0,0,1,3.48,1.07L194.2,8.4a5.44,5.44,0,0,0-2.67-.9c-.84,0-1.32.39-1.32.95v0c0,.68,1,1,2.13,1.33,1.38.43,2.94,1.06,2.94,2.76v0c0,2-1.54,3-3.52,3A6.59,6.59,0,0,1,187.75,14.16Z" transform="translate(-0.92 -2.21)"/><path d="M2.12,28.47H.92v-1.8h1.2V26a3.22,3.22,0,0,1,.77-2.35A2.87,2.87,0,0,1,5,22.89a5.67,5.67,0,0,1,1.76.25V25a3.91,3.91,0,0,0-1.27-.23c-.83,0-1.26.45-1.26,1.43v.52H6.76v1.79H4.29v7.6H2.12Z" transform="translate(-0.92 -2.21)"/><path d="M7.32,31.4v0a4.94,4.94,0,0,1,5-4.94,4.89,4.89,0,0,1,5,4.9v0a5,5,0,0,1-5.07,4.93A4.89,4.89,0,0,1,7.32,31.4Zm7.92,0v0a2.93,2.93,0,0,0-2.91-3.05,2.85,2.85,0,0,0-2.85,3v0a2.93,2.93,0,0,0,2.89,3A2.86,2.86,0,0,0,15.24,31.4Z" transform="translate(-0.92 -2.21)"/><path d="M19.16,26.61h2.17v2.13a3.36,3.36,0,0,1,3.35-2.31v2.3h-.13c-1.9,0-3.22,1.23-3.22,3.74v3.6H19.16Z" transform="translate(-0.92 -2.21)"/><path d="M30.3,23.53h2.35l3.81,5.93,3.82-5.93h2.35V36.07H40.42v-9l-4,5.91h-.07l-3.92-5.88v9H30.3Z" transform="translate(-0.92 -2.21)"/><path d="M44.39,31.38v0A4.69,4.69,0,0,1,49,26.42c3,0,4.54,2.36,4.54,5.08,0,.2,0,.4,0,.61H46.56a2.64,2.64,0,0,0,2.72,2.4,3.4,3.4,0,0,0,2.56-1.13l1.28,1.13a4.78,4.78,0,0,1-3.87,1.78A4.73,4.73,0,0,1,44.39,31.38Zm7-.7A2.46,2.46,0,0,0,49,28.19a2.56,2.56,0,0,0-2.46,2.49Z" transform="translate(-0.92 -2.21)"/><path d="M54.82,31.36v0c0-3.13,2.13-4.9,4.39-4.9a3.93,3.93,0,0,1,3.23,1.66V23H64.6V36.07H62.44V34.5a3.81,3.81,0,0,1-3.23,1.77C57,36.27,54.82,34.5,54.82,31.36Zm7.65,0v0a2.84,2.84,0,0,0-2.74-3,2.76,2.76,0,0,0-2.72,3v0a2.81,2.81,0,0,0,2.72,3A2.85,2.85,0,0,0,62.47,31.36Z" transform="translate(-0.92 -2.21)"/><path d="M66.87,23.1H69.2v2.06H66.87ZM67,26.61h2.17v9.46H67Z" transform="translate(-0.92 -2.21)"/><path d="M70.92,31.4v0a4.87,4.87,0,0,1,4.91-4.94,4.72,4.72,0,0,1,3.78,1.63L78.26,29.5a3.18,3.18,0,0,0-2.45-1.19,2.85,2.85,0,0,0-2.73,3v0a2.89,2.89,0,0,0,2.84,3,3.32,3.32,0,0,0,2.45-1.19l1.31,1.29a5,5,0,0,1-8.76-3.11Z" transform="translate(-0.92 -2.21)"/><path d="M87.1,36.07V34.91A3.83,3.83,0,0,1,84,36.27c-1.79,0-3.37-1-3.37-2.92v0c0-2.09,1.64-3.1,3.84-3.1a8.06,8.06,0,0,1,2.62.4v-.18c0-1.31-.83-2-2.33-2a6.57,6.57,0,0,0-2.71.6l-.59-1.74a8.05,8.05,0,0,1,3.6-.79c2.8,0,4.16,1.47,4.16,4v5.61Zm.05-4A6.32,6.32,0,0,0,85,31.74c-1.36,0-2.16.55-2.16,1.47v0c0,.9.8,1.4,1.82,1.4,1.44,0,2.51-.81,2.51-2Z" transform="translate(-0.92 -2.21)"/><path d="M91.52,23h2.17V36.07H91.52Z" transform="translate(-0.92 -2.21)"/><path d="M99.42,34.24l1.33-1.57a5.77,5.77,0,0,0,4,1.63c1.36,0,2.22-.63,2.22-1.58v0c0-.9-.5-1.38-2.83-1.92-2.67-.65-4.18-1.43-4.18-3.75v0c0-2.15,1.79-3.64,4.28-3.64a7,7,0,0,1,4.55,1.58l-1.18,1.66a5.72,5.72,0,0,0-3.4-1.29c-1.29,0-2,.67-2,1.49v0c0,1,.57,1.39,3,2,2.65.64,4,1.59,4,3.67v0c0,2.34-1.84,3.74-4.48,3.74A7.7,7.7,0,0,1,99.42,34.24Z" transform="translate(-0.92 -2.21)"/><path d="M110.52,31.4v0a4.87,4.87,0,0,1,4.91-4.94,4.72,4.72,0,0,1,3.78,1.63l-1.35,1.45a3.18,3.18,0,0,0-2.45-1.19,2.85,2.85,0,0,0-2.73,3v0a2.89,2.89,0,0,0,2.84,3A3.32,3.32,0,0,0,118,33.22l1.31,1.29a5,5,0,0,1-8.76-3.11Z" transform="translate(-0.92 -2.21)"/><path d="M120.67,23.1H123v2.06h-2.33Zm.09,3.51h2.17v9.46h-2.17Z" transform="translate(-0.92 -2.21)"/><path d="M124.71,31.38v0a4.69,4.69,0,0,1,4.62-4.92c3,0,4.54,2.36,4.54,5.08,0,.2,0,.4,0,.61h-7a2.64,2.64,0,0,0,2.72,2.4,3.44,3.44,0,0,0,2.57-1.13l1.27,1.13a4.78,4.78,0,0,1-3.87,1.78A4.73,4.73,0,0,1,124.71,31.38Zm7-.7a2.46,2.46,0,0,0-2.4-2.49,2.56,2.56,0,0,0-2.46,2.49Z" transform="translate(-0.92 -2.21)"/><path d="M135.64,26.61h2.17v1.47a3.41,3.41,0,0,1,2.95-1.66c2.14,0,3.37,1.43,3.37,3.63v6H142V30.7c0-1.47-.73-2.31-2-2.31a2.1,2.1,0,0,0-2.13,2.34v5.34h-2.17Z" transform="translate(-0.92 -2.21)"/><path d="M145.79,31.4v0a4.87,4.87,0,0,1,4.91-4.94,4.69,4.69,0,0,1,3.78,1.63l-1.34,1.45a3.18,3.18,0,0,0-2.46-1.19,2.85,2.85,0,0,0-2.72,3v0a2.89,2.89,0,0,0,2.83,3,3.34,3.34,0,0,0,2.46-1.19l1.3,1.29a4.78,4.78,0,0,1-3.87,1.78A4.83,4.83,0,0,1,145.79,31.4Z" transform="translate(-0.92 -2.21)"/><path d="M155.31,31.38v0a4.69,4.69,0,0,1,4.62-4.92c3,0,4.53,2.36,4.53,5.08,0,.2,0,.4,0,.61h-7a2.63,2.63,0,0,0,2.72,2.4,3.4,3.4,0,0,0,2.56-1.13L164,34.51a4.93,4.93,0,0,1-8.72-3.13Zm7-.7a2.45,2.45,0,0,0-2.4-2.49,2.56,2.56,0,0,0-2.45,2.49Z" transform="translate(-0.92 -2.21)"/><path d="M165.41,34.84l1-1.47a5.32,5.32,0,0,0,3.1,1.16c.94,0,1.47-.39,1.47-1v0c0-.73-1-1-2.11-1.32-1.4-.4-3-1-3-2.78v0c0-1.8,1.49-2.89,3.37-2.89a6.54,6.54,0,0,1,3.48,1.08l-.86,1.54a5.5,5.5,0,0,0-2.67-.9c-.85,0-1.33.4-1.33.95v0c0,.68,1,1,2.13,1.32,1.38.43,2.94,1.06,2.94,2.76v0c0,2-1.54,3-3.51,3A6.64,6.64,0,0,1,165.41,34.84Z" transform="translate(-0.92 -2.21)"/></svg>