<svg xmlns="http://www.w3.org/2000/svg" width="108.94" height="40.39" viewBox="0 0 108.94 40.39"><title>UAMS: For a Better State of Health</title><path d="M1.83,34.89h4v.86H2.78v1.48H5.51v.86H2.78v2.2H1.83Z"/><path d="M6.49,38.28v0a2.13,2.13,0,0,1,2.18-2.13,2.11,2.11,0,0,1,2.17,2.12h0a2.13,2.13,0,0,1-2.18,2.13A2.11,2.11,0,0,1,6.49,38.28Zm3.42,0v0A1.26,1.26,0,0,0,8.66,37a1.23,1.23,0,0,0-1.23,1.3h0a1.26,1.26,0,0,0,1.24,1.31A1.23,1.23,0,0,0,9.91,38.28Z"/><path d="M11.85,36.21h.93v.92a1.45,1.45,0,0,1,1.45-1v1h-.06c-.81,0-1.39.53-1.39,1.61v1.55h-.93Z"/><path d="M19.32,40.29v-.5a1.65,1.65,0,0,1-1.32.59,1.3,1.3,0,0,1-1.45-1.26v0c0-.9.7-1.33,1.65-1.33a3.45,3.45,0,0,1,1.13.17v-.08c0-.56-.36-.87-1-.87a2.91,2.91,0,0,0-1.17.25l-.26-.75a3.53,3.53,0,0,1,1.56-.34,1.58,1.58,0,0,1,1.79,1.73v2.41Zm0-1.7a2.45,2.45,0,0,0-.93-.17c-.59,0-.93.24-.93.64h0c0,.39.34.6.78.6.62,0,1.08-.34,1.08-.85Z"/><path d="M23.26,34.89h2.42a2,2,0,0,1,1.42.47,1.22,1.22,0,0,1,.36.9v0a1.28,1.28,0,0,1-.77,1.2,1.33,1.33,0,0,1,1.07,1.31v0c0,1-.8,1.48-2,1.48h-2.5Zm2.23,2.27c.61,0,1-.23,1-.73h0c0-.43-.34-.69-1-.69H24.19v1.43Zm.28,2.29c.65,0,1-.25,1-.74v0c0-.45-.36-.72-1.11-.72H24.19v1.48Z"/><path d="M28.54,38.27v0a2,2,0,0,1,2-2.12,2,2,0,0,1,1.95,2.19,2.53,2.53,0,0,1,0,.27h-3a1.14,1.14,0,0,0,1.17,1,1.47,1.47,0,0,0,1.11-.49l.55.49a2.08,2.08,0,0,1-1.67.77A2,2,0,0,1,28.54,38.27Zm3-.3a1.07,1.07,0,0,0-1-1.08A1.11,1.11,0,0,0,29.46,38Z"/><path d="M33.63,39.17V37h-.52v-.81h.52V35.09h.93v1.12h1.1V37h-1.1v2a.45.45,0,0,0,.51.51,1.34,1.34,0,0,0,.58-.14v.76a1.6,1.6,0,0,1-.85.21A1,1,0,0,1,33.63,39.17Z"/><path d="M36.8,39.17V37h-.52v-.81h.52V35.09h.93v1.12h1.1V37h-1.1v2a.45.45,0,0,0,.5.51,1.27,1.27,0,0,0,.58-.14v.76a1.54,1.54,0,0,1-.84.21A1,1,0,0,1,36.8,39.17Z"/><path d="M39.53,38.27v0a2,2,0,0,1,2-2.12,2,2,0,0,1,1.95,2.19,2.53,2.53,0,0,1,0,.27h-3a1.14,1.14,0,0,0,1.18,1,1.46,1.46,0,0,0,1.1-.49l.55.49a2.08,2.08,0,0,1-1.67.77A2,2,0,0,1,39.53,38.27Zm3-.3a1.07,1.07,0,0,0-1-1.08A1.11,1.11,0,0,0,40.45,38Z"/><path d="M44.47,36.21h.94v.92a1.43,1.43,0,0,1,1.44-1v1H46.8c-.82,0-1.39.53-1.39,1.61v1.55h-.94Z"/><path d="M49.19,39.51l.58-.68a2.5,2.5,0,0,0,1.7.7c.59,0,1-.27,1-.68v0c0-.38-.22-.59-1.22-.82s-1.8-.62-1.8-1.62h0a1.65,1.65,0,0,1,1.85-1.57,3,3,0,0,1,2,.68l-.51.72a2.42,2.42,0,0,0-1.47-.56c-.55,0-.88.29-.88.64v0c0,.41.25.6,1.28.85s1.74.68,1.74,1.58v0c0,1-.79,1.61-1.93,1.61A3.38,3.38,0,0,1,49.19,39.51Z"/><path d="M54.56,39.17V37H54v-.81h.52V35.09h.93v1.12h1.1V37h-1.1v2a.45.45,0,0,0,.5.51,1.27,1.27,0,0,0,.58-.14v.76a1.54,1.54,0,0,1-.84.21A1,1,0,0,1,54.56,39.17Z"/><path d="M60.08,40.29v-.5a1.67,1.67,0,0,1-1.32.59,1.31,1.31,0,0,1-1.46-1.26v0c0-.9.71-1.33,1.66-1.33a3.38,3.38,0,0,1,1.12.17v-.08c0-.56-.35-.87-1-.87a2.91,2.91,0,0,0-1.17.25l-.25-.75a3.52,3.52,0,0,1,1.55-.34A1.58,1.58,0,0,1,61,37.88v2.41Zm0-1.7a2.51,2.51,0,0,0-.94-.17c-.58,0-.93.24-.93.64h0c0,.39.35.6.79.6.62,0,1.08-.34,1.08-.85Z"/><path d="M62.29,39.17V37h-.51v-.81h.51V35.09h.94v1.12h1.1V37h-1.1v2a.44.44,0,0,0,.5.51,1.27,1.27,0,0,0,.58-.14v.76a1.54,1.54,0,0,1-.84.21A1,1,0,0,1,62.29,39.17Z"/><path d="M65,38.27v0a2,2,0,0,1,2-2.12,2,2,0,0,1,2,2.19c0,.09,0,.17,0,.27h-3a1.14,1.14,0,0,0,1.17,1,1.49,1.49,0,0,0,1.11-.49l.55.49a2.08,2.08,0,0,1-1.67.77A2,2,0,0,1,65,38.27Zm3-.3a1.07,1.07,0,0,0-1-1.08A1.11,1.11,0,0,0,65.91,38Z"/><path d="M71.44,38.28v0a2.18,2.18,0,0,1,4.35,0h0a2.14,2.14,0,0,1-2.19,2.13A2.11,2.11,0,0,1,71.44,38.28Zm3.41,0v0A1.26,1.26,0,0,0,73.6,37a1.23,1.23,0,0,0-1.23,1.3h0a1.26,1.26,0,0,0,1.25,1.31A1.22,1.22,0,0,0,74.85,38.28Z"/><path d="M76.9,37h-.52v-.78h.52v-.3a1.42,1.42,0,0,1,.33-1,1.27,1.27,0,0,1,.92-.32,2.26,2.26,0,0,1,.76.11v.78a1.72,1.72,0,0,0-.55-.1c-.35,0-.54.2-.54.62v.22H78.9V37H77.84v3.27H76.9Z"/><path d="M81.49,34.89h1v2.24H85V34.89h1v5.4H85V38H82.44v2.28h-1Z"/><path d="M87.06,38.27v0a2,2,0,0,1,2-2.12,2,2,0,0,1,2,2.19c0,.09,0,.17,0,.27H88a1.14,1.14,0,0,0,1.17,1,1.49,1.49,0,0,0,1.11-.49l.55.49a2.08,2.08,0,0,1-1.67.77A2,2,0,0,1,87.06,38.27Zm3-.3a1.06,1.06,0,0,0-1-1.08A1.11,1.11,0,0,0,88,38Z"/><path d="M94.49,40.29v-.5a1.65,1.65,0,0,1-1.32.59,1.3,1.3,0,0,1-1.45-1.26v0c0-.9.7-1.33,1.65-1.33a3.49,3.49,0,0,1,1.13.17v-.08c0-.56-.36-.87-1-.87a2.9,2.9,0,0,0-1.16.25l-.26-.75a3.53,3.53,0,0,1,1.56-.34,1.58,1.58,0,0,1,1.79,1.73v2.41Zm0-1.7a2.49,2.49,0,0,0-.93-.17c-.59,0-.94.24-.94.64h0c0,.39.35.6.79.6.62,0,1.08-.34,1.08-.85Z"/><path d="M96.63,34.65h.94v5.64h-.94Z"/><path d="M99,39.17V37h-.51v-.81H99V35.09h.94v1.12H101V37h-1.1v2a.44.44,0,0,0,.5.51,1.27,1.27,0,0,0,.58-.14v.76a1.54,1.54,0,0,1-.84.21A1,1,0,0,1,99,39.17Z"/><path d="M102,34.65H103v2.2a1.47,1.47,0,0,1,1.28-.72,1.4,1.4,0,0,1,1.45,1.57v2.59h-.94V38c0-.64-.31-1-.87-1a.91.91,0,0,0-.92,1v2.3H102Z"/><path d="M23.74,17.48c0,3,.08,5.76-2.12,8.17a10.62,10.62,0,0,1-7.5,3H11.44a10.56,10.56,0,0,1-7.5-3c-2.2-2.41-2.11-5.18-2.11-8.17V6.47C1.83,4.6,2.12,1.58,0,.79V.66H7.88V.79C5.8,1.58,6.05,4.6,6.05,6.47V17.53c0,5.52,2.32,8.08,6.59,8.08a7.32,7.32,0,0,0,6.05-2.9c.91-1.24.87-2.28.87-3.77V6.47c0-1.87.25-4.89-1.82-5.68V.66h7.87l.05.13c-2.12.79-1.87,3.81-1.87,5.72l-.05,11Z"/><path d="M36.14,4.19,31,17.7,28.8,23.54c-.87,2.32-1.16,3.52.83,4.27v.13H22v-.13c2.4-1.2,3.11-3.52,4-5.89L33,4.64c.58-1.49,1.36-3.23-.63-3.85V.66h6.55l8.62,21.26c.95,2.37,1.7,4.69,4.06,5.89v.13H43.06v-.13c2-.91,1.7-1.37.58-4.27L41.4,17.7,36.14,4.19Z"/><path d="M75.55,3.27A7.23,7.23,0,0,0,76.18.71v0h7.16V.79c-1,.29-1.28,1.49-1.28,2.44l2.73,20.35c.25,2,.46,3.07,2.11,4.23v.13h-8v-.13c1.45-.46,1.7-1.7,1.7-3.11l-2.37-20L69,28.47a10,10,0,0,1-3.65-5L57.44,4.77,55.08,22.59c-.33,2.53-.63,4.35,1.32,5.22v.13H49.65v-.13c1.74-1.53,2-3.56,2.32-5.8L54.33,4.64C54.5,3.48,55,1.83,53.05.79V.66H60.3v0a4.87,4.87,0,0,0,.58,1.86l7.79,18.28L75.55,3.27Z"/><path d="M103.36,5.6A9.45,9.45,0,0,0,96.85,3c-2.36,0-5.35.92-5.35,3.78,0,5.68,14.26,5.59,14.26,13.26,0,4.43-4.64,8.58-11.11,8.58a21.21,21.21,0,0,1-7.41-1.25L86,22.17a14.34,14.34,0,0,0,9.08,3.44c2.36,0,5.93-1.4,5.93-4.31,0-6.46-14.26-5.3-14.26-14.09C86.78,2,92.13,0,97.18,0a20.93,20.93,0,0,1,6.18.91V5.6Z"/><path d="M36.2,23.13a3.47,3.47,0,1,0-3.47-3.47,3.47,3.47,0,0,0,3.47,3.47Z"/><path d="M107.83,26.15c0-.46-.35-.67-.83-.67h-1v2h.49v-.65h.32l.44.65h.59l-.52-.74A.62.62,0,0,0,107.83,26.15Zm-.86.32h-.43v-.56H107c.21,0,.35.1.35.28S107.19,26.47,107,26.47Z"/><path d="M106.86,24.45a2.09,2.09,0,1,0,2.08,2.09A2.1,2.1,0,0,0,106.86,24.45Zm1.73,2.08h0a1.73,1.73,0,0,1-1.73,1.75,1.72,1.72,0,0,1-1.74-1.74h0a1.75,1.75,0,0,1,1.74-1.76A1.72,1.72,0,0,1,108.59,26.53Z"/></svg>