<svg xmlns="http://www.w3.org/2000/svg" width="161.17" height="16.09" viewBox="0 0 161.17 16.09"><title>College of Nursing</title><path d="M.3,19.38v0a6.35,6.35,0,0,1,6.47-6.49,6.56,6.56,0,0,1,4.91,2l-1.42,1.63a5,5,0,0,0-3.51-1.56,4.21,4.21,0,0,0-4.14,4.43v0a4.24,4.24,0,0,0,4.14,4.46,4.92,4.92,0,0,0,3.6-1.63l1.42,1.43a6.48,6.48,0,0,1-5.09,2.22A6.31,6.31,0,0,1,.3,19.38Z" transform="translate(-0.3 -12.43)"/><path d="M13.08,20.94v0A5,5,0,0,1,18.14,16a4.9,4.9,0,0,1,5,4.91v0a5,5,0,0,1-5.07,4.93A4.9,4.9,0,0,1,13.08,20.94Zm7.92,0v0a2.92,2.92,0,0,0-2.9-3,2.84,2.84,0,0,0-2.85,3v0A2.93,2.93,0,0,0,18.14,24,2.85,2.85,0,0,0,21,20.94Z" transform="translate(-0.3 -12.43)"/><path d="M25.37,12.54h2.17V25.62H25.37Z" transform="translate(-0.3 -12.43)"/><path d="M30.29,12.54h2.17V25.62H30.29Z" transform="translate(-0.3 -12.43)"/><path d="M34.65,20.92v0A4.7,4.7,0,0,1,39.27,16c3,0,4.54,2.36,4.54,5.09,0,.19,0,.39,0,.61h-7a2.64,2.64,0,0,0,2.72,2.4,3.44,3.44,0,0,0,2.56-1.13l1.28,1.13a4.81,4.81,0,0,1-3.87,1.77A4.73,4.73,0,0,1,34.65,20.92Zm7-.7a2.47,2.47,0,0,0-2.4-2.49,2.56,2.56,0,0,0-2.46,2.49Z" transform="translate(-0.3 -12.43)"/><path d="M45.86,27.39l.8-1.63a6.15,6.15,0,0,0,3.37,1c1.94,0,3-1,3-2.9v-.73a3.94,3.94,0,0,1-3.33,1.73,4.25,4.25,0,0,1-4.3-4.42v0A4.27,4.27,0,0,1,49.69,16,4.09,4.09,0,0,1,53,17.57V16.16h2.16v7.52A4.84,4.84,0,0,1,54,27.25a5.31,5.31,0,0,1-3.88,1.27A8.2,8.2,0,0,1,45.86,27.39ZM53,20.44v0a2.64,2.64,0,0,0-2.77-2.61,2.55,2.55,0,0,0-2.69,2.59v0A2.58,2.58,0,0,0,50.27,23,2.65,2.65,0,0,0,53,20.44Z" transform="translate(-0.3 -12.43)"/><path d="M57.31,20.92v0A4.7,4.7,0,0,1,61.94,16c3,0,4.53,2.36,4.53,5.09,0,.19,0,.39,0,.61h-7a2.64,2.64,0,0,0,2.72,2.4,3.48,3.48,0,0,0,2.57-1.13L66,24.06a4.8,4.8,0,0,1-3.87,1.77A4.73,4.73,0,0,1,57.31,20.92Zm7-.7a2.46,2.46,0,0,0-2.4-2.49,2.56,2.56,0,0,0-2.46,2.49Z" transform="translate(-0.3 -12.43)"/><path d="M72.27,20.94v0a5,5,0,0,1,10.09,0v0a5,5,0,0,1-5.07,4.93A4.89,4.89,0,0,1,72.27,20.94Zm7.92,0v0a2.92,2.92,0,0,0-2.9-3,2.84,2.84,0,0,0-2.85,3v0A2.93,2.93,0,0,0,77.32,24,2.85,2.85,0,0,0,80.19,20.94Z" transform="translate(-0.3 -12.43)"/><path d="M84.74,18h-1.2V16.21h1.2v-.68a3.18,3.18,0,0,1,.78-2.35,2.87,2.87,0,0,1,2.13-.75,5.86,5.86,0,0,1,1.75.25v1.83a3.87,3.87,0,0,0-1.27-.24c-.82,0-1.25.45-1.25,1.44v.52h2.51V18H86.91v7.6H84.74Z" transform="translate(-0.3 -12.43)"/><path d="M95.39,13.07h2l6.72,8.68V13.07h2.17V25.62h-1.85l-6.92-8.93v8.93H95.39Z" transform="translate(-0.3 -12.43)"/><path d="M108.87,22.18v-6H111v5.37c0,1.47.73,2.31,2,2.31a2.1,2.1,0,0,0,2.13-2.34V16.16h2.17v9.46H115.2V24.15a3.42,3.42,0,0,1-3,1.66C110.11,25.81,108.87,24.38,108.87,22.18Z" transform="translate(-0.3 -12.43)"/><path d="M120,16.16h2.17v2.13A3.34,3.34,0,0,1,125.54,16v2.29h-.13c-1.89,0-3.22,1.24-3.22,3.74v3.61H120Z" transform="translate(-0.3 -12.43)"/><path d="M126.58,24.38l1-1.47a5.31,5.31,0,0,0,3.1,1.17c.93,0,1.47-.4,1.47-1v0c0-.74-1-1-2.11-1.33-1.4-.39-3-1-3-2.77v0c0-1.79,1.49-2.89,3.37-2.89a6.57,6.57,0,0,1,3.47,1.08L133,18.61a5.54,5.54,0,0,0-2.67-.9c-.84,0-1.32.4-1.32.95v0c0,.68,1,1,2.13,1.33,1.38.43,2.94,1,2.94,2.76v0c0,2-1.54,3-3.51,3A6.68,6.68,0,0,1,126.58,24.38Z" transform="translate(-0.3 -12.43)"/><path d="M136.2,12.65h2.33v2.06H136.2Zm.09,3.51h2.17v9.46h-2.17Z" transform="translate(-0.3 -12.43)"/><path d="M141.15,16.16h2.17v1.47a3.4,3.4,0,0,1,3-1.67c2.13,0,3.37,1.43,3.37,3.64v6h-2.17V20.24c0-1.47-.74-2.31-2-2.31a2.11,2.11,0,0,0-2.13,2.35v5.34h-2.17Z" transform="translate(-0.3 -12.43)"/><path d="M152.15,27.39l.81-1.63a6.13,6.13,0,0,0,3.37,1c1.93,0,3-1,3-2.9v-.73A4,4,0,0,1,156,24.86a4.25,4.25,0,0,1-4.3-4.42v0A4.26,4.26,0,0,1,156,16a4.07,4.07,0,0,1,3.31,1.61V16.16h2.17v7.52a4.84,4.84,0,0,1-1.2,3.57,5.33,5.33,0,0,1-3.89,1.27A8.2,8.2,0,0,1,152.15,27.39Zm7.19-6.95v0a2.64,2.64,0,0,0-2.78-2.61,2.56,2.56,0,0,0-2.69,2.59v0A2.58,2.58,0,0,0,156.56,23,2.66,2.66,0,0,0,159.34,20.44Z" transform="translate(-0.3 -12.43)"/></svg>