<svg xmlns="http://www.w3.org/2000/svg" width="172.3" height="16.09" viewBox="0 0 172.3 16.09"><title>College of Medicine</title><path d="M.3,19.38v0a6.35,6.35,0,0,1,6.47-6.49,6.56,6.56,0,0,1,4.91,2l-1.42,1.63a5,5,0,0,0-3.51-1.56,4.21,4.21,0,0,0-4.14,4.43v0a4.24,4.24,0,0,0,4.14,4.46,4.92,4.92,0,0,0,3.6-1.63l1.42,1.43a6.48,6.48,0,0,1-5.09,2.22A6.31,6.31,0,0,1,.3,19.38Z" transform="translate(-0.3 -12.43)"/><path d="M13.08,20.94v0A5,5,0,0,1,18.14,16a4.9,4.9,0,0,1,5,4.91v0a5,5,0,0,1-5.07,4.93A4.9,4.9,0,0,1,13.08,20.94Zm7.92,0v0a2.92,2.92,0,0,0-2.9-3,2.84,2.84,0,0,0-2.85,3v0A2.93,2.93,0,0,0,18.14,24,2.85,2.85,0,0,0,21,20.94Z" transform="translate(-0.3 -12.43)"/><path d="M25.37,12.54h2.17V25.62H25.37Z" transform="translate(-0.3 -12.43)"/><path d="M30.29,12.54h2.17V25.62H30.29Z" transform="translate(-0.3 -12.43)"/><path d="M34.65,20.92v0A4.7,4.7,0,0,1,39.27,16c3,0,4.54,2.36,4.54,5.09,0,.19,0,.39,0,.61h-7a2.64,2.64,0,0,0,2.72,2.4,3.44,3.44,0,0,0,2.56-1.13l1.28,1.13a4.81,4.81,0,0,1-3.87,1.77A4.73,4.73,0,0,1,34.65,20.92Zm7-.7a2.47,2.47,0,0,0-2.4-2.49,2.56,2.56,0,0,0-2.46,2.49Z" transform="translate(-0.3 -12.43)"/><path d="M45.86,27.39l.8-1.63a6.15,6.15,0,0,0,3.37,1c1.94,0,3-1,3-2.9v-.73a3.94,3.94,0,0,1-3.33,1.73,4.25,4.25,0,0,1-4.3-4.42v0A4.27,4.27,0,0,1,49.69,16,4.09,4.09,0,0,1,53,17.57V16.16h2.16v7.52A4.84,4.84,0,0,1,54,27.25a5.31,5.31,0,0,1-3.88,1.27A8.2,8.2,0,0,1,45.86,27.39ZM53,20.44v0a2.64,2.64,0,0,0-2.77-2.61,2.55,2.55,0,0,0-2.69,2.59v0A2.58,2.58,0,0,0,50.27,23,2.65,2.65,0,0,0,53,20.44Z" transform="translate(-0.3 -12.43)"/><path d="M57.31,20.92v0A4.7,4.7,0,0,1,61.94,16c3,0,4.53,2.36,4.53,5.09,0,.19,0,.39,0,.61h-7a2.64,2.64,0,0,0,2.72,2.4,3.48,3.48,0,0,0,2.57-1.13L66,24.06a4.8,4.8,0,0,1-3.87,1.77A4.73,4.73,0,0,1,57.31,20.92Zm7-.7a2.46,2.46,0,0,0-2.4-2.49,2.56,2.56,0,0,0-2.46,2.49Z" transform="translate(-0.3 -12.43)"/><path d="M72.27,20.94v0a5,5,0,0,1,10.09,0v0a5,5,0,0,1-5.07,4.93A4.89,4.89,0,0,1,72.27,20.94Zm7.92,0v0a2.92,2.92,0,0,0-2.9-3,2.84,2.84,0,0,0-2.85,3v0A2.93,2.93,0,0,0,77.32,24,2.85,2.85,0,0,0,80.19,20.94Z" transform="translate(-0.3 -12.43)"/><path d="M84.74,18h-1.2V16.21h1.2v-.68a3.18,3.18,0,0,1,.78-2.35,2.87,2.87,0,0,1,2.13-.75,5.86,5.86,0,0,1,1.75.25v1.83a3.87,3.87,0,0,0-1.27-.24c-.82,0-1.25.45-1.25,1.44v.52h2.51V18H86.91v7.6H84.74Z" transform="translate(-0.3 -12.43)"/><path d="M95.39,13.07h2.34L101.55,19l3.82-5.94h2.34V25.62h-2.2v-9l-4,5.91h-.07l-3.93-5.87v9H95.39Z" transform="translate(-0.3 -12.43)"/><path d="M109.84,20.92v0A4.69,4.69,0,0,1,114.46,16c3,0,4.53,2.36,4.53,5.09,0,.19,0,.39,0,.61h-7a2.65,2.65,0,0,0,2.73,2.4,3.46,3.46,0,0,0,2.56-1.13l1.27,1.13a4.8,4.8,0,0,1-3.87,1.77A4.72,4.72,0,0,1,109.84,20.92Zm7-.7a2.46,2.46,0,0,0-2.4-2.49A2.56,2.56,0,0,0,112,20.22Z" transform="translate(-0.3 -12.43)"/><path d="M120.62,20.9v0c0-3.14,2.13-4.91,4.39-4.91a3.93,3.93,0,0,1,3.23,1.67V12.54h2.16V25.62h-2.16V24A3.79,3.79,0,0,1,125,25.81C122.79,25.81,120.62,24,120.62,20.9Zm7.65,0v0a2.84,2.84,0,0,0-2.74-3,2.77,2.77,0,0,0-2.72,3v0a2.81,2.81,0,0,0,2.72,3A2.85,2.85,0,0,0,128.27,20.9Z" transform="translate(-0.3 -12.43)"/><path d="M133,12.65h2.33v2.06H133Zm.09,3.51h2.17v9.46h-2.17Z" transform="translate(-0.3 -12.43)"/><path d="M137.44,20.94v0a4.87,4.87,0,0,1,4.9-4.94,4.69,4.69,0,0,1,3.78,1.63L144.78,19a3.17,3.17,0,0,0-2.45-1.18,2.84,2.84,0,0,0-2.73,3v0A2.88,2.88,0,0,0,142.43,24a3.32,3.32,0,0,0,2.46-1.18l1.31,1.29a5,5,0,0,1-8.76-3.12Z" transform="translate(-0.3 -12.43)"/><path d="M147.94,12.65h2.33v2.06h-2.33Zm.09,3.51h2.17v9.46H148Z" transform="translate(-0.3 -12.43)"/><path d="M152.9,16.16h2.17v1.47A3.37,3.37,0,0,1,158,16c2.13,0,3.37,1.43,3.37,3.64v6h-2.17V20.24c0-1.47-.73-2.31-2-2.31a2.1,2.1,0,0,0-2.13,2.35v5.34H152.9Z" transform="translate(-0.3 -12.43)"/><path d="M163.45,20.92v0A4.69,4.69,0,0,1,168.07,16c3,0,4.53,2.36,4.53,5.09,0,.19,0,.39,0,.61h-7a2.65,2.65,0,0,0,2.73,2.4,3.46,3.46,0,0,0,2.56-1.13l1.27,1.13a4.8,4.8,0,0,1-3.87,1.77A4.72,4.72,0,0,1,163.45,20.92Zm7-.7a2.46,2.46,0,0,0-2.4-2.49,2.56,2.56,0,0,0-2.46,2.49Z" transform="translate(-0.3 -12.43)"/></svg>