<svg xmlns="http://www.w3.org/2000/svg" width="4.21in" height="0.5in" viewBox="0 0 303.45 36.28"><title>University of Arkansas for Medical Sciences Winthrop P. Rockefeller Cancer Institute Logo</title><path d="M30,22.14c0,3.77.1,7.28-2.67,10.31-2.35,2.57-6,3.73-9.47,3.83H14.44C11,36.18,7.32,35.08,5,32.51,2.2,29.48,2.3,26,2.3,22.21v-14c0-2.35.37-6.17-2.3-7.16V.92H9.94v.16c-2.62,1-2.3,4.81-2.3,7.16v14c0,7,2.93,10.2,8.32,10.2a9.25,9.25,0,0,0,7.63-3.66c1.15-1.57,1.1-2.88,1.1-4.76V8.24c0-2.35.31-6.17-2.3-7.16V.92h9.94l.05.16C29.71,2.07,30,5.89,30,8.3L30,22.14Z" transform="translate(0 0)"/><path d="M45.61,5.37,39.08,22.42l-2.73,7.37c-1.1,2.93-1.46,4.45,1,5.39v.16H27.78v-.16c3-1.51,3.92-4.44,5.07-7.43L41.58,5.94c.74-1.88,1.73-4.08-.78-4.86V.92h8.26L59.94,27.75c1.2,3,2.15,5.92,5.13,7.43v.16H54.34v-.16c2.57-1.15,2.15-1.72.74-5.39l-2.83-7.37-6.64-17Z" transform="translate(0 0)"/><path d="M95.36,4.21A9.09,9.09,0,0,0,96.14,1v0h9v.16c-1.26.36-1.62,1.88-1.62,3.08L107,29.85c.31,2.46.58,3.87,2.67,5.33v.16H99.59v-.16c1.84-.57,2.15-2.14,2.15-3.92L98.76,6,87,36c-2.62-2-3.35-3.4-4.61-6.33L72.5,6.1l-3,22.49c-.42,3.19-.79,5.49,1.67,6.59v.16H62.66v-.16c2.2-1.93,2.51-4.5,2.93-7.32l3-21.92c.21-1.46.79-3.55-1.62-4.86V.92h9.16V1a6.25,6.25,0,0,0,.73,2.36l9.83,23.06L95.36,4.21Z" transform="translate(0 0)"/><path d="M130.45,7.15a11.87,11.87,0,0,0-8.21-3.3c-3,0-6.75,1.15-6.75,4.76,0,7.17,18,7.06,18,16.74,0,5.6-5.85,10.83-14,10.83a27,27,0,0,1-9.36-1.57l-1.52-6.54A18.09,18.09,0,0,0,120,32.41c3,0,7.48-1.78,7.48-5.44,0-8.16-18-6.7-18-17.79,0-6.58,6.76-9.1,13.14-9.1a26.44,26.44,0,0,1,7.79,1.15V7.15Z" transform="translate(0 0)"/><path d="M45.69,29.28a4.38,4.38,0,1,0-4.38-4.38,4.39,4.39,0,0,0,4.38,4.38Z" transform="translate(0 0)" fill="#9d2235"/><rect x="144.9" width="1" height="36.07" fill="#9d2235"/><path d="M154.06,6.08h1.73L158,12.82l2.24-6.77h1.35l2.24,6.77L166,6.08h1.68l-3.18,9.16h-1.37L160.85,8.7l-2.24,6.54h-1.37Z" transform="translate(0 0)"/><path d="M169,5.77h1.69V7.26H169Zm.07,2.54h1.57v6.87h-1.57Z" transform="translate(0 0)"/><path d="M172.61,8.31h1.57V9.38a2.47,2.47,0,0,1,2.14-1.21,2.36,2.36,0,0,1,2.45,2.64v4.37H177.2v-3.9c0-1.07-.54-1.68-1.47-1.68a1.53,1.53,0,0,0-1.55,1.7v3.88h-1.57Z" transform="translate(0 0)"/><path d="M180.85,13.28V9.67H180V8.31h.87V6.43h1.57V8.31h1.85V9.67h-1.85V13a.75.75,0,0,0,.85.86,2.16,2.16,0,0,0,1-.23v1.28a2.66,2.66,0,0,1-1.41.36A1.76,1.76,0,0,1,180.85,13.28Z" transform="translate(0 0)"/><path d="M185.79,5.69h1.57V9.38a2.47,2.47,0,0,1,2.15-1.21A2.36,2.36,0,0,1,192,10.81v4.37h-1.57v-3.9c0-1.07-.53-1.68-1.47-1.68a1.53,1.53,0,0,0-1.55,1.7v3.88h-1.57Z" transform="translate(0 0)"/><path d="M193.83,8.31h1.57V9.86a2.43,2.43,0,0,1,2.43-1.68V9.85h-.09c-1.38,0-2.34.89-2.34,2.71v2.62h-1.57Z" transform="translate(0 0)"/><path d="M198.63,11.78v0a3.66,3.66,0,0,1,7.32,0v0a3.58,3.58,0,0,1-3.68,3.57A3.55,3.55,0,0,1,198.63,11.78Zm5.74,0v0a2.12,2.12,0,0,0-2.1-2.21,2.06,2.06,0,0,0-2.07,2.18v0A2.12,2.12,0,0,0,202.29,14,2.07,2.07,0,0,0,204.37,11.78Z" transform="translate(0 0)"/><path d="M207.48,8.31h1.57V9.46a2.75,2.75,0,0,1,2.33-1.29,3.29,3.29,0,0,1,3.2,3.56v0a3.29,3.29,0,0,1-3.2,3.56,2.8,2.8,0,0,1-2.33-1.21v3.15h-1.57Zm5.5,3.45v0a2,2,0,0,0-2-2.19,2.06,2.06,0,0,0-2,2.19v0a2.06,2.06,0,0,0,2,2.2A2,2,0,0,0,213,11.76Z" transform="translate(0 0)"/><path d="M219.37,6.08H223c2.12,0,3.46,1.21,3.46,3v0c0,2-1.64,3.1-3.64,3.1H221v2.93h-1.6Zm3.46,4.73c1.21,0,2-.68,2-1.62v0c0-1.07-.77-1.63-2-1.63H221v3.28Z" transform="translate(0 0)"/><path d="M225.41,13.4h1.73v1.78h-1.73Z" transform="translate(0 0)"/><path d="M232.19,6.08h4.06a3.66,3.66,0,0,1,2.62.91,2.75,2.75,0,0,1,.76,2V9a2.73,2.73,0,0,1-2.17,2.75l2.45,3.45H238L235.79,12h-2v3.17h-1.6Zm3.94,4.51c1.14,0,1.87-.6,1.87-1.52V9c0-1-.7-1.51-1.88-1.51h-2.33v3.06Z" transform="translate(0 0)"/><path d="M240.86,11.78v0a3.66,3.66,0,0,1,7.32,0v0a3.58,3.58,0,0,1-3.68,3.57A3.55,3.55,0,0,1,240.86,11.78Zm5.74,0v0a2.12,2.12,0,0,0-2.1-2.21,2.06,2.06,0,0,0-2.07,2.18v0A2.12,2.12,0,0,0,244.52,14,2.07,2.07,0,0,0,246.6,11.78Z" transform="translate(0 0)"/><path d="M249.33,11.78v0a3.54,3.54,0,0,1,3.56-3.59,3.42,3.42,0,0,1,2.74,1.18l-1,1.06a2.3,2.3,0,0,0-1.78-.86,2.06,2.06,0,0,0-2,2.18v0A2.09,2.09,0,0,0,253,14a2.42,2.42,0,0,0,1.79-.86l.94.94a3.45,3.45,0,0,1-2.8,1.28A3.51,3.51,0,0,1,249.33,11.78Z" transform="translate(0 0)"/><path d="M257,5.69h1.58v5.67l2.84-3h1.91l-2.73,2.8,2.82,4.07H261.6l-2.06-3-1,1v2H257Z" transform="translate(0 0)"/><path d="M263.81,11.77v0a3.41,3.41,0,0,1,3.36-3.58c2.18,0,3.29,1.72,3.29,3.69,0,.15,0,.29,0,.45h-5a1.92,1.92,0,0,0,2,1.74,2.49,2.49,0,0,0,1.86-.82l.92.82a3.58,3.58,0,0,1-6.33-2.28Zm5.09-.5a1.79,1.79,0,0,0-1.75-1.81,1.86,1.86,0,0,0-1.78,1.81Z" transform="translate(0 0)"/><path d="M272.21,9.67h-.87V8.35h.87V7.86a2.33,2.33,0,0,1,.56-1.7,2.07,2.07,0,0,1,1.55-.55,4.29,4.29,0,0,1,1.27.18V7.12a2.59,2.59,0,0,0-.92-.17c-.6,0-.91.32-.91,1v.38h1.82v1.3h-1.79v5.51h-1.58Z" transform="translate(0 0)"/><path d="M276.27,11.77v0a3.41,3.41,0,0,1,3.36-3.58c2.18,0,3.28,1.72,3.28,3.69,0,.15,0,.29,0,.45h-5.05a1.93,1.93,0,0,0,2,1.74,2.51,2.51,0,0,0,1.86-.82l.92.82a3.58,3.58,0,0,1-6.33-2.28Zm5.08-.5a1.78,1.78,0,0,0-1.74-1.81,1.86,1.86,0,0,0-1.78,1.81Z" transform="translate(0 0)"/><path d="M284.52,5.69h1.57v9.49h-1.57Z" transform="translate(0 0)"/><path d="M288.09,5.69h1.57v9.49h-1.57Z" transform="translate(0 0)"/><path d="M291.26,11.77v0a3.41,3.41,0,0,1,3.35-3.58c2.18,0,3.29,1.72,3.29,3.69a3.52,3.52,0,0,1,0,.45h-5a1.92,1.92,0,0,0,2,1.74,2.49,2.49,0,0,0,1.86-.82l.93.82a3.47,3.47,0,0,1-2.81,1.28A3.42,3.42,0,0,1,291.26,11.77Zm5.08-.5a1.78,1.78,0,0,0-1.74-1.81,1.86,1.86,0,0,0-1.79,1.81Z" transform="translate(0 0)"/><path d="M299.44,8.31H301V9.86a2.43,2.43,0,0,1,2.43-1.68V9.85h-.09c-1.38,0-2.34.89-2.34,2.71v2.62h-1.58Z" transform="translate(0 0)"/><path d="M154.36,25.65v0a4.61,4.61,0,0,1,4.7-4.71,4.76,4.76,0,0,1,3.56,1.42l-1,1.18A3.65,3.65,0,0,0,159,22.39a3.05,3.05,0,0,0-3,3.21v0a3.07,3.07,0,0,0,3,3.23,3.57,3.57,0,0,0,2.62-1.18l1,1A4.69,4.69,0,0,1,159,30.33,4.58,4.58,0,0,1,154.36,25.65Z" transform="translate(0 0)"/><path d="M168.47,30.18v-.85a2.77,2.77,0,0,1-2.22,1,2.19,2.19,0,0,1-2.44-2.12v0c0-1.53,1.18-2.25,2.78-2.25a5.82,5.82,0,0,1,1.9.28v-.13c0-.95-.6-1.47-1.69-1.47a4.82,4.82,0,0,0-2,.43l-.43-1.26a5.9,5.9,0,0,1,2.62-.57c2,0,3,1.07,3,2.9v4.07Zm0-2.87a4.37,4.37,0,0,0-1.57-.28c-1,0-1.57.41-1.57,1.07v0c0,.65.58,1,1.32,1,1,0,1.82-.59,1.82-1.45Z" transform="translate(0 0)"/><path d="M171.89,23.31h1.58v1.07a2.45,2.45,0,0,1,2.14-1.21,2.35,2.35,0,0,1,2.44,2.64v4.37h-1.57v-3.9c0-1.07-.53-1.68-1.47-1.68a1.52,1.52,0,0,0-1.54,1.7v3.88h-1.58Z" transform="translate(0 0)"/><path d="M179.52,26.78v0a3.54,3.54,0,0,1,3.56-3.59,3.45,3.45,0,0,1,2.75,1.18l-1,1.06a2.3,2.3,0,0,0-1.78-.86,2.07,2.07,0,0,0-2,2.18v0A2.09,2.09,0,0,0,183.15,29a2.42,2.42,0,0,0,1.78-.86l.95.94a3.6,3.6,0,0,1-6.36-2.27Z" transform="translate(0 0)"/><path d="M186.68,26.77v0A3.41,3.41,0,0,1,190,23.17c2.18,0,3.29,1.72,3.29,3.69,0,.15,0,.29,0,.45h-5a1.92,1.92,0,0,0,2,1.74,2.49,2.49,0,0,0,1.86-.82l.93.82a3.47,3.47,0,0,1-2.81,1.28A3.43,3.43,0,0,1,186.68,26.77Zm5.09-.5A1.78,1.78,0,0,0,190,24.46a1.86,1.86,0,0,0-1.79,1.81Z" transform="translate(0 0)"/><path d="M194.87,23.31h1.58v1.55a2.43,2.43,0,0,1,2.43-1.68v1.67h-.09c-1.38,0-2.34.89-2.34,2.71v2.62h-1.58Z" transform="translate(0 0)"/><path d="M203.52,21.08h1.6v9.1h-1.6Z" transform="translate(0 0)"/><path d="M207.31,23.31h1.57v1.07A2.47,2.47,0,0,1,211,23.17a2.36,2.36,0,0,1,2.44,2.64v4.37H211.9v-3.9c0-1.07-.53-1.68-1.47-1.68a1.53,1.53,0,0,0-1.55,1.7v3.88h-1.57Z" transform="translate(0 0)"/><path d="M214.77,29.28l.7-1.06a3.91,3.91,0,0,0,2.25.84c.67,0,1.06-.29,1.06-.74v0c0-.53-.72-.71-1.53-1-1-.28-2.15-.7-2.15-2v0a2.19,2.19,0,0,1,2.45-2.09,4.76,4.76,0,0,1,2.52.78l-.62,1.12a4,4,0,0,0-1.94-.66c-.61,0-1,.29-1,.69v0c0,.49.74.7,1.55,1,1,.31,2.13.77,2.13,2v0c0,1.44-1.12,2.16-2.55,2.16A4.79,4.79,0,0,1,214.77,29.28Z" transform="translate(0 0)"/><path d="M222.08,28.28V24.67h-.87V23.31h.87V21.43h1.57v1.88h1.85v1.36h-1.85V28a.76.76,0,0,0,.85.86,2.16,2.16,0,0,0,1-.23v1.28a2.66,2.66,0,0,1-1.41.36A1.76,1.76,0,0,1,222.08,28.28Z" transform="translate(0 0)"/><path d="M227,20.77h1.69v1.49H227Zm.07,2.54h1.57v6.87H227Z" transform="translate(0 0)"/><path d="M230.82,28.28V24.67H230V23.31h.87V21.43h1.58v1.88h1.84v1.36H232.4V28a.75.75,0,0,0,.84.86,2.24,2.24,0,0,0,1-.23v1.28a2.69,2.69,0,0,1-1.42.36A1.76,1.76,0,0,1,230.82,28.28Z" transform="translate(0 0)"/><path d="M235.62,27.68V23.31h1.57v3.9c0,1.07.53,1.68,1.47,1.68a1.53,1.53,0,0,0,1.55-1.7V23.31h1.57v6.87h-1.57V29.11a2.48,2.48,0,0,1-2.15,1.21A2.35,2.35,0,0,1,235.62,27.68Z" transform="translate(0 0)"/><path d="M244,28.28V24.67h-.87V23.31H244V21.43h1.58v1.88h1.84v1.36h-1.84V28a.75.75,0,0,0,.84.86,2.21,2.21,0,0,0,1-.23v1.28a2.69,2.69,0,0,1-1.42.36A1.76,1.76,0,0,1,244,28.28Z" transform="translate(0 0)"/><path d="M248.39,26.77v0a3.41,3.41,0,0,1,3.35-3.58c2.18,0,3.29,1.72,3.29,3.69a3.52,3.52,0,0,1,0,.45h-5a1.92,1.92,0,0,0,2,1.74,2.49,2.49,0,0,0,1.86-.82l.93.82a3.47,3.47,0,0,1-2.81,1.28A3.42,3.42,0,0,1,248.39,26.77Zm5.08-.5a1.78,1.78,0,0,0-1.74-1.81A1.86,1.86,0,0,0,250,26.27Z" transform="translate(0 0)"/><path d="M136.08,33.1c0-.59-.44-.86-1-.86h-1.21v2.58h.63V34h.4l.55.81h.75l-.65-.93A.78.78,0,0,0,136.08,33.1Zm-1.08.4h-.54v-.72H135c.27,0,.44.13.44.36S135.28,33.5,135,33.5Z" transform="translate(0 0)"/><path d="M134.86,31a2.63,2.63,0,1,0,2.62,2.63A2.63,2.63,0,0,0,134.86,31Zm2.19,2.62h0a2.2,2.2,0,0,1-2.19,2.22,2.17,2.17,0,0,1-2.19-2.21h0a2.19,2.19,0,1,1,4.38,0Z" transform="translate(0 0)"/></svg>