<svg xmlns="http://www.w3.org/2000/svg" width="229.56" height="34" viewBox="0 0 229.56 34"><title>Jackson T. Stephens Spine and Neurosciences Institute</title><path d="M.47,13.56l1.45-1.49a3.13,3.13,0,0,0,2.53,1.47c1.18,0,2-.79,2-2.46V2.86H8.7v8.28a4.54,4.54,0,0,1-1.17,3.33,4.2,4.2,0,0,1-3,1.11A4.75,4.75,0,0,1,.47,13.56Z" transform="translate(-0.47 -2.32)"/><path d="M16.9,15.4V14.24a3.83,3.83,0,0,1-3.07,1.36c-1.79,0-3.36-1-3.36-2.92v0c0-2.1,1.63-3.1,3.83-3.1a7.8,7.8,0,0,1,2.62.4V9.76c0-1.31-.83-2-2.33-2a6.57,6.57,0,0,0-2.71.59l-.59-1.73a8.05,8.05,0,0,1,3.6-.79c2.8,0,4.16,1.47,4.16,4V15.4Zm.05-4a6.26,6.26,0,0,0-2.17-.38c-1.36,0-2.16.56-2.16,1.47v0c0,.9.8,1.4,1.82,1.4,1.44,0,2.51-.81,2.51-2Z" transform="translate(-0.47 -2.32)"/><path d="M21.05,10.72v0A4.88,4.88,0,0,1,26,5.74a4.75,4.75,0,0,1,3.78,1.63L28.4,8.82a3.24,3.24,0,0,0-2.46-1.18,2.84,2.84,0,0,0-2.72,3v0a2.87,2.87,0,0,0,2.83,3,3.31,3.31,0,0,0,2.45-1.18l1.31,1.29a4.78,4.78,0,0,1-3.87,1.78A4.84,4.84,0,0,1,21.05,10.72Z" transform="translate(-0.47 -2.32)"/><path d="M31.63,2.32H33.8v7.81l3.92-4.19h2.63L36.59,9.79l3.89,5.61H38l-2.85-4.08L33.8,12.7v2.7H31.63Z" transform="translate(-0.47 -2.32)"/><path d="M41.31,14.16l1-1.46a5.3,5.3,0,0,0,3.1,1.16c.93,0,1.47-.39,1.47-1v0c0-.73-1-1-2.11-1.32-1.4-.4-3-1-3-2.78v0c0-1.79,1.49-2.88,3.37-2.88a6.56,6.56,0,0,1,3.47,1.07L47.76,8.4a5.44,5.44,0,0,0-2.67-.9c-.84,0-1.32.39-1.32.95v0c0,.69,1,1,2.13,1.33,1.38.43,2.94,1.06,2.94,2.76v0c0,2-1.54,3-3.51,3A6.62,6.62,0,0,1,41.31,14.16Z" transform="translate(-0.47 -2.32)"/><path d="M50.33,10.72v0a5,5,0,0,1,10.09,0v0a5,5,0,0,1-10.09,0Zm7.92,0v0a2.92,2.92,0,0,0-2.9-3,2.84,2.84,0,0,0-2.85,3v0a2.93,2.93,0,0,0,2.89,3A2.85,2.85,0,0,0,58.25,10.72Z" transform="translate(-0.47 -2.32)"/><path d="M62.53,5.94H64.7V7.41a3.4,3.4,0,0,1,3-1.67C69.79,5.74,71,7.18,71,9.38v6H68.86V10c0-1.47-.74-2.32-2-2.32a2.11,2.11,0,0,0-2.13,2.35V15.4H62.53Z" transform="translate(-0.47 -2.32)"/><path d="M81.11,4.9h-4v-2H87.31v2h-4V15.4H81.11Z" transform="translate(-0.47 -2.32)"/><path d="M86.4,13h2.38V15.4H86.4Z" transform="translate(-0.47 -2.32)"/><path d="M94.91,13.57,96.23,12a5.77,5.77,0,0,0,4,1.63c1.36,0,2.22-.63,2.22-1.58v0c0-.89-.5-1.37-2.83-1.91-2.67-.65-4.17-1.44-4.17-3.75v0c0-2.15,1.79-3.64,4.28-3.64a7,7,0,0,1,4.55,1.58l-1.18,1.66a5.72,5.72,0,0,0-3.41-1.29c-1.28,0-2,.67-2,1.49v0c0,1,.58,1.39,3,2,2.65.64,4,1.59,4,3.67v0c0,2.34-1.85,3.74-4.48,3.74A7.68,7.68,0,0,1,94.91,13.57Z" transform="translate(-0.47 -2.32)"/><path d="M107.14,12.78v-5h-1.2V5.94h1.2V3.34h2.17v2.6h2.55V7.8h-2.55v4.64a1,1,0,0,0,1.17,1.19,2.86,2.86,0,0,0,1.34-.33v1.78a3.85,3.85,0,0,1-1.95.48C108.27,15.56,107.14,14.86,107.14,12.78Z" transform="translate(-0.47 -2.32)"/><path d="M113.17,10.71v0a4.69,4.69,0,0,1,4.62-4.93c3,0,4.53,2.37,4.53,5.09,0,.2,0,.4,0,.61h-7a2.65,2.65,0,0,0,2.73,2.4,3.4,3.4,0,0,0,2.56-1.13l1.27,1.13a4.93,4.93,0,0,1-8.72-3.13Zm7-.7a2.45,2.45,0,0,0-2.4-2.49A2.56,2.56,0,0,0,115.32,10Z" transform="translate(-0.47 -2.32)"/><path d="M124.45,5.94h2.17V7.52a3.77,3.77,0,0,1,3.21-1.78c2.24,0,4.4,1.78,4.4,4.91v0c0,3.13-2.14,4.91-4.4,4.91a3.85,3.85,0,0,1-3.21-1.67v4.34h-2.17ZM132,10.69v0a2.8,2.8,0,0,0-2.7-3,2.85,2.85,0,0,0-2.76,3v0a2.84,2.84,0,0,0,2.76,3A2.77,2.77,0,0,0,132,10.69Z" transform="translate(-0.47 -2.32)"/><path d="M136.42,2.32h2.17V7.41a3.4,3.4,0,0,1,3-1.67c2.13,0,3.37,1.44,3.37,3.64v6h-2.17V10c0-1.47-.74-2.32-2-2.32a2.11,2.11,0,0,0-2.13,2.35V15.4h-2.17Z" transform="translate(-0.47 -2.32)"/><path d="M147,10.71v0a4.7,4.7,0,0,1,4.62-4.93c3,0,4.53,2.37,4.53,5.09,0,.2,0,.4,0,.61h-7a2.63,2.63,0,0,0,2.72,2.4,3.4,3.4,0,0,0,2.56-1.13l1.27,1.13A4.93,4.93,0,0,1,147,10.71Zm7-.7a2.45,2.45,0,0,0-2.4-2.49A2.56,2.56,0,0,0,149.12,10Z" transform="translate(-0.47 -2.32)"/><path d="M158.25,5.94h2.17V7.41a3.4,3.4,0,0,1,3-1.67c2.13,0,3.37,1.44,3.37,3.64v6h-2.17V10c0-1.47-.74-2.32-2-2.32a2.11,2.11,0,0,0-2.13,2.35V15.4h-2.17Z" transform="translate(-0.47 -2.32)"/><path d="M168.53,14.16l1-1.46a5.3,5.3,0,0,0,3.1,1.16c.93,0,1.47-.39,1.47-1v0c0-.73-1-1-2.11-1.32-1.4-.4-3-1-3-2.78v0c0-1.79,1.49-2.88,3.37-2.88a6.56,6.56,0,0,1,3.47,1.07L175,8.4a5.44,5.44,0,0,0-2.67-.9c-.84,0-1.32.39-1.32.95v0c0,.69,1,1,2.13,1.33,1.38.43,2.94,1.06,2.94,2.76v0c0,2-1.54,3-3.51,3A6.62,6.62,0,0,1,168.53,14.16Z" transform="translate(-0.47 -2.32)"/><path d="M181.81,13.57,183.14,12a5.77,5.77,0,0,0,4,1.63c1.36,0,2.22-.63,2.22-1.58v0c0-.89-.5-1.37-2.83-1.91-2.67-.65-4.18-1.44-4.18-3.75v0c0-2.15,1.79-3.64,4.28-3.64a7,7,0,0,1,4.55,1.58L190,5.92a5.72,5.72,0,0,0-3.4-1.29c-1.29,0-2,.67-2,1.49v0c0,1,.57,1.39,3,2,2.65.64,4,1.59,4,3.67v0c0,2.34-1.84,3.74-4.48,3.74A7.7,7.7,0,0,1,181.81,13.57Z" transform="translate(-0.47 -2.32)"/><path d="M193.48,5.94h2.17V7.52a3.78,3.78,0,0,1,3.21-1.78c2.24,0,4.4,1.78,4.4,4.91v0c0,3.13-2.14,4.91-4.4,4.91a3.85,3.85,0,0,1-3.21-1.67v4.34h-2.17Zm7.58,4.75v0a2.8,2.8,0,0,0-2.7-3,2.85,2.85,0,0,0-2.76,3v0a2.84,2.84,0,0,0,2.76,3A2.77,2.77,0,0,0,201.06,10.69Z" transform="translate(-0.47 -2.32)"/><path d="M205.37,2.43h2.33V4.49h-2.33Zm.09,3.51h2.17V15.4h-2.17Z" transform="translate(-0.47 -2.32)"/><path d="M210.33,5.94h2.16V7.41a3.4,3.4,0,0,1,3-1.67c2.13,0,3.37,1.44,3.37,3.64v6h-2.17V10c0-1.47-.73-2.32-2-2.32a2.11,2.11,0,0,0-2.14,2.35V15.4h-2.16Z" transform="translate(-0.47 -2.32)"/><path d="M220.87,10.71v0a4.7,4.7,0,0,1,4.63-4.93c3,0,4.53,2.37,4.53,5.09,0,.2,0,.4,0,.61h-7a2.64,2.64,0,0,0,2.72,2.4,3.44,3.44,0,0,0,2.57-1.13l1.27,1.13a4.78,4.78,0,0,1-3.87,1.78A4.73,4.73,0,0,1,220.87,10.71Zm7-.7a2.46,2.46,0,0,0-2.4-2.49A2.56,2.56,0,0,0,223,10Z" transform="translate(-0.47 -2.32)"/><path d="M8.73,34.62a5.52,5.52,0,0,1-3.85,1.63c-2.33,0-4.09-1.41-4.09-3.58v0c0-1.61,1-2.77,2.67-3.51a4.09,4.09,0,0,1-1-2.61v0c0-1.68,1.37-3.15,3.61-3.15a3.09,3.09,0,0,1,3.33,3v0C9.36,28,8.27,29,6.6,29.64l2.15,2.19a18.39,18.39,0,0,0,1.34-2.42l1.67.88a20.35,20.35,0,0,1-1.7,2.86l2,2L10.4,36.32ZM7.48,33.33l-2.8-2.85A2.33,2.33,0,0,0,3,32.56v0a1.9,1.9,0,0,0,2.09,1.82A3.47,3.47,0,0,0,7.48,33.33Zm-.07-6.82v0A1.37,1.37,0,0,0,6,25.05a1.43,1.43,0,0,0-1.49,1.51v0a2.7,2.7,0,0,0,.95,1.86C6.72,28,7.41,27.4,7.41,26.51Z" transform="translate(-0.47 -2.32)"/><path d="M18.32,23.53h2l6.72,8.67V23.53h2.16V36.07H27.4l-6.92-8.92v8.92H18.32Z" transform="translate(-0.47 -2.32)"/><path d="M31.36,31.38v0A4.69,4.69,0,0,1,36,26.42c3,0,4.53,2.36,4.53,5.08,0,.2,0,.4,0,.61H33.53a2.63,2.63,0,0,0,2.72,2.4,3.43,3.43,0,0,0,2.56-1.12l1.27,1.12a4.93,4.93,0,0,1-8.72-3.13Zm7-.7A2.45,2.45,0,0,0,36,28.19a2.55,2.55,0,0,0-2.45,2.49Z" transform="translate(-0.47 -2.32)"/><path d="M42.52,32.63v-6h2.17V32c0,1.47.74,2.31,2,2.31A2.11,2.11,0,0,0,48.85,32V26.61H51v9.46H48.85V34.6a3.4,3.4,0,0,1-3,1.67C43.76,36.27,42.52,34.84,42.52,32.63Z" transform="translate(-0.47 -2.32)"/><path d="M53.67,26.61h2.17v2.13a3.37,3.37,0,0,1,3.35-2.31v2.3h-.12c-1.9,0-3.23,1.23-3.23,3.74v3.6H53.67Z" transform="translate(-0.47 -2.32)"/><path d="M60.29,31.4v0a4.94,4.94,0,0,1,5.05-4.94,4.89,4.89,0,0,1,5,4.9v0a5,5,0,0,1-5.07,4.93A4.89,4.89,0,0,1,60.29,31.4Zm7.91,0v0a2.92,2.92,0,0,0-2.9-3,2.84,2.84,0,0,0-2.85,3v0a2.93,2.93,0,0,0,2.89,3A2.85,2.85,0,0,0,68.2,31.4Z" transform="translate(-0.47 -2.32)"/><path d="M71.64,34.84l1-1.47a5.3,5.3,0,0,0,3.1,1.16c.93,0,1.47-.39,1.47-1v0c0-.74-1-1-2.12-1.33-1.4-.39-3-1-3-2.78v0c0-1.8,1.49-2.89,3.37-2.89A6.49,6.49,0,0,1,79,27.53l-.86,1.54a5.44,5.44,0,0,0-2.67-.9c-.84,0-1.33.4-1.33.95v0c0,.68,1,1,2.14,1.32,1.37.43,2.93,1.06,2.93,2.76v0c0,2-1.54,3-3.51,3A6.64,6.64,0,0,1,71.64,34.84Z" transform="translate(-0.47 -2.32)"/><path d="M80.66,31.4v0a4.87,4.87,0,0,1,4.91-4.94,4.72,4.72,0,0,1,3.78,1.63L88,29.5a3.2,3.2,0,0,0-2.46-1.18,2.83,2.83,0,0,0-2.72,3v0a2.88,2.88,0,0,0,2.83,3,3.32,3.32,0,0,0,2.45-1.19l1.31,1.29a4.78,4.78,0,0,1-3.87,1.78A4.83,4.83,0,0,1,80.66,31.4Z" transform="translate(-0.47 -2.32)"/><path d="M91.17,23.1H93.5v2.06H91.17Zm.09,3.51h2.17v9.46H91.26Z" transform="translate(-0.47 -2.32)"/><path d="M95.57,31.38v0a4.69,4.69,0,0,1,4.62-4.92c3,0,4.53,2.36,4.53,5.08,0,.2,0,.4,0,.61h-7a2.63,2.63,0,0,0,2.72,2.4A3.43,3.43,0,0,0,103,33.39l1.28,1.12a4.8,4.8,0,0,1-3.88,1.78A4.72,4.72,0,0,1,95.57,31.38Zm7-.7a2.46,2.46,0,0,0-2.41-2.49,2.56,2.56,0,0,0-2.45,2.49Z" transform="translate(-0.47 -2.32)"/><path d="M106.85,26.61H109v1.47a3.42,3.42,0,0,1,3-1.66c2.13,0,3.37,1.43,3.37,3.63v6h-2.17V30.7c0-1.47-.74-2.31-2-2.31A2.1,2.1,0,0,0,109,30.73v5.34h-2.17Z" transform="translate(-0.47 -2.32)"/><path d="M117.37,31.4v0a4.87,4.87,0,0,1,4.91-4.94,4.72,4.72,0,0,1,3.78,1.63l-1.35,1.45a3.17,3.17,0,0,0-2.45-1.18,2.83,2.83,0,0,0-2.72,3v0a2.88,2.88,0,0,0,2.83,3,3.32,3.32,0,0,0,2.45-1.19l1.31,1.29a5,5,0,0,1-8.76-3.11Z" transform="translate(-0.47 -2.32)"/><path d="M127.24,31.38v0a4.69,4.69,0,0,1,4.62-4.92c3,0,4.54,2.36,4.54,5.08,0,.2,0,.4,0,.61h-7a2.64,2.64,0,0,0,2.72,2.4,3.43,3.43,0,0,0,2.56-1.12L136,34.51a4.79,4.79,0,0,1-3.87,1.78A4.73,4.73,0,0,1,127.24,31.38Zm7-.7a2.46,2.46,0,0,0-2.4-2.49,2.56,2.56,0,0,0-2.46,2.49Z" transform="translate(-0.47 -2.32)"/><path d="M137.7,34.84l1-1.47a5.34,5.34,0,0,0,3.1,1.16c.94,0,1.47-.39,1.47-1v0c0-.74-1-1-2.11-1.33-1.4-.39-3-1-3-2.78v0c0-1.8,1.49-2.89,3.37-2.89A6.54,6.54,0,0,1,145,27.53l-.86,1.54a5.47,5.47,0,0,0-2.67-.9c-.84,0-1.33.4-1.33.95v0c0,.68,1,1,2.13,1.32,1.38.43,2.94,1.06,2.94,2.76v0c0,2-1.54,3-3.51,3A6.64,6.64,0,0,1,137.7,34.84Z" transform="translate(-0.47 -2.32)"/><path d="M151.94,23.53h2.2V36.07h-2.2Z" transform="translate(-0.47 -2.32)"/><path d="M156.81,26.61H159v1.47a3.42,3.42,0,0,1,3-1.66c2.13,0,3.37,1.43,3.37,3.63v6h-2.17V30.7c0-1.47-.73-2.31-2-2.31A2.1,2.1,0,0,0,159,30.73v5.34h-2.16Z" transform="translate(-0.47 -2.32)"/><path d="M167.08,34.84l1-1.47a5.3,5.3,0,0,0,3.1,1.16c.93,0,1.47-.39,1.47-1v0c0-.74-1-1-2.11-1.33-1.4-.39-3-1-3-2.78v0c0-1.8,1.49-2.89,3.37-2.89a6.48,6.48,0,0,1,3.47,1.08l-.86,1.54a5.44,5.44,0,0,0-2.67-.9c-.84,0-1.32.4-1.32.95v0c0,.68,1,1,2.13,1.32,1.38.43,2.94,1.06,2.94,2.76v0c0,2-1.54,3-3.51,3A6.67,6.67,0,0,1,167.08,34.84Z" transform="translate(-0.47 -2.32)"/><path d="M177.16,33.46v-5H176V26.61h1.2V24h2.17v2.59h2.54v1.87h-2.54v4.64a1,1,0,0,0,1.16,1.18,3,3,0,0,0,1.35-.32v1.77a3.75,3.75,0,0,1-2,.48C178.29,36.23,177.16,35.54,177.16,33.46Z" transform="translate(-0.47 -2.32)"/><path d="M183.87,23.1h2.33v2.06h-2.33Zm.09,3.51h2.17v9.46H184Z" transform="translate(-0.47 -2.32)"/><path d="M189.21,33.46v-5H188V26.61h1.2V24h2.17v2.59h2.54v1.87h-2.54v4.64a1,1,0,0,0,1.16,1.18,3,3,0,0,0,1.35-.32v1.77a3.77,3.77,0,0,1-2,.48C190.34,36.23,189.21,35.54,189.21,33.46Z" transform="translate(-0.47 -2.32)"/><path d="M195.82,32.63v-6H198V32c0,1.47.73,2.31,2,2.31A2.11,2.11,0,0,0,202.14,32V26.61h2.17v9.46h-2.17V34.6a3.4,3.4,0,0,1-2.95,1.67C197.05,36.27,195.82,34.84,195.82,32.63Z" transform="translate(-0.47 -2.32)"/><path d="M207.39,33.46v-5h-1.2V26.61h1.2V24h2.17v2.59h2.54v1.87h-2.54v4.64a1,1,0,0,0,1.16,1.18,3,3,0,0,0,1.35-.32v1.77a3.77,3.77,0,0,1-2,.48C208.52,36.23,207.39,35.54,207.39,33.46Z" transform="translate(-0.47 -2.32)"/><path d="M213.42,31.38v0A4.69,4.69,0,0,1,218,26.42c3,0,4.53,2.36,4.53,5.08,0,.2,0,.4,0,.61h-6.95a2.65,2.65,0,0,0,2.73,2.4,3.45,3.45,0,0,0,2.56-1.12l1.27,1.12a4.78,4.78,0,0,1-3.87,1.78A4.72,4.72,0,0,1,213.42,31.38Zm7-.7a2.45,2.45,0,0,0-2.4-2.49,2.56,2.56,0,0,0-2.46,2.49Z" transform="translate(-0.47 -2.32)"/></svg>