<svg xmlns="http://www.w3.org/2000/svg" width="308.93" height="40.26" viewBox="0 0 308.93 40.26" preserveAspectRatio="xMidYMid meet"><title>UAMS-Logo_Qualifier_Horizontal_Red</title><path d="M33.33,24.54c0,4.19.11,8.09-3,11.46-2.62,2.86-6.7,4.15-10.54,4.26H16.06c-3.84-.11-7.91-1.33-10.53-4.19-3.08-3.37-3-7.27-3-11.46V9.08c0-2.62.41-6.87-2.56-8V.93H11.06v.18c-2.91,1.1-2.57,5.35-2.57,8V24.61C8.49,32.35,11.75,36,17.75,36a10.28,10.28,0,0,0,8.49-4.08c1.28-1.74,1.22-3.19,1.22-5.29V9.08c0-2.62.35-6.87-2.56-8V.93H36l.06.18c-3,1.1-2.62,5.35-2.62,8l-.07,15.4Z" fill="#9d2235"/><path d="M50.73,5.88l-7.27,19-3,8.21c-1.23,3.26-1.63,4.94,1.16,6v.18H30.89V39c3.38-1.68,4.37-4.94,5.65-8.26L46.25,6.52c.82-2.1,1.92-4.54-.87-5.41V.93h9.19l12.1,29.85C68,34.1,69.06,37.36,72.37,39v.18H60.45V39c2.85-1.28,2.38-1.92.81-6l-3.14-8.21-7.39-19Z" fill="#9d2235"/><path d="M106.06,4.6A10.16,10.16,0,0,0,106.94,1V.93H117v.18c-1.39.41-1.8,2.09-1.8,3.43L119,33.11c.35,2.74.64,4.3,3,5.93v.18H110.78V39c2-.64,2.38-2.38,2.38-4.36l-3.31-28L96.82,40c-2.92-2.21-3.73-3.78-5.13-7l-11-26.24-3.32,25c-.46,3.55-.87,6.11,1.86,7.33v.18H69.7V39c2.44-2.15,2.79-5,3.26-8.14L76.27,6.52c.24-1.63.87-3.95-1.8-5.41V.93H84.65V1a6.86,6.86,0,0,0,.82,2.62L96.41,29.27,106.06,4.6Z" fill="#9d2235"/><path d="M145.1,7.86A13.25,13.25,0,0,0,136,4.19c-3.31,0-7.5,1.28-7.5,5.3,0,8,20,7.85,20,18.61,0,6.23-6.51,12-15.59,12a29.88,29.88,0,0,1-10.41-1.75l-1.69-7.27A20.11,20.11,0,0,0,133.52,36c3.32,0,8.32-2,8.32-6.05,0-9.08-20-7.45-20-19.79C121.82,2.8,129.33,0,136.43,0a29.32,29.32,0,0,1,8.67,1.28V7.86Z" fill="#9d2235"/><path d="M50.82,32.48A4.88,4.88,0,1,0,46,27.6a4.87,4.87,0,0,0,4.87,4.88Z" fill="#9d2235"/><path d="M151.35,36.72c0-.65-.49-.95-1.15-.95h-1.35v2.86h.7v-.9H150l.62.9h.84l-.73-1A.88.88,0,0,0,151.35,36.72Zm-1.2.44h-.6v-.79h.6c.3,0,.49.14.49.39S150.47,37.16,150.15,37.16Z" fill="#9d2235"/><path d="M150,34.33a2.93,2.93,0,1,0,2.93,2.92A2.92,2.92,0,0,0,150,34.33Zm2.44,2.91h0A2.44,2.44,0,0,1,150,39.72a2.42,2.42,0,0,1-2.43-2.45v0A2.44,2.44,0,0,1,150,34.79,2.41,2.41,0,0,1,152.43,37.24Z" fill="#9d2235"/><rect x="160.76" y="0.03" width="1.16" height="40.08" fill="#9d2235"/><path d="M171.76,12.94V6.7h1.67v6.23c0,1.63.79,2.48,2.09,2.48s2.08-.83,2.08-2.43V6.7h1.66v6.18c0,2.71-1.49,4.07-3.77,4.07S171.76,15.58,171.76,12.94Z" fill="#9d2235"/><path d="M181,9.15h1.63v1.12A2.38,2.38,0,0,1,184.71,9c1.47,0,2.35,1,2.35,2.67v5.12h-1.63V12.13c0-1.06-.5-1.66-1.37-1.66s-1.44.64-1.44,1.69v4.63H181Z" fill="#9d2235"/><path d="M188.86,6.44h1.73V8h-1.73Zm.06,2.71h1.63v7.64h-1.63Z" fill="#9d2235"/><path d="M191.82,9.15h1.71l1.72,5.56L197,9.15h1.69L196,16.85h-1.52Z" fill="#9d2235"/><path d="M199.26,13.06v-.12c0-2.29,1.38-3.94,3.26-3.94,2.07,0,3.17,1.73,3.17,4,0,.1,0,.33,0,.56h-4.79a2,2,0,0,0,1.93,2,2.43,2.43,0,0,0,1.76-.81l.85,1A3.52,3.52,0,0,1,202.75,17C200.79,17,199.26,15.45,199.26,13.06Zm4.84-.6c-.08-1.21-.63-2.09-1.58-2.09s-1.53.8-1.65,2.09Z" fill="#9d2235"/><path d="M207.29,9.15h1.63v1.5A2.26,2.26,0,0,1,211.21,9v1.78h-.07c-1.33,0-2.22.86-2.22,2.61v3.37h-1.63Z" fill="#9d2235"/><path d="M212,15.87l.76-1.17a3.49,3.49,0,0,0,2.11.89c.68,0,1.07-.36,1.07-.83v0c0-.55-.6-.79-1.5-1.18-1.14-.49-2.1-1-2.1-2.26v0A2.3,2.3,0,0,1,214.82,9a4.35,4.35,0,0,1,2.48.82l-.69,1.2a3.44,3.44,0,0,0-1.82-.68c-.61,0-1,.33-1,.75v0c0,.51.61.77,1.5,1.17,1.18.53,2.08,1.08,2.08,2.28h0a2.33,2.33,0,0,1-2.61,2.32A4.53,4.53,0,0,1,212,15.87Z" fill="#9d2235"/><path d="M218.87,6.44h1.73V8h-1.73Zm.06,2.71h1.63v7.64h-1.63Z" fill="#9d2235"/><path d="M222.78,14.94V10.55h-.84V9.15h.84V7.08h1.63V9.15h1.71v1.4h-1.71v4.06a.73.73,0,0,0,.82.84,1.77,1.77,0,0,0,.88-.22v1.34a2.68,2.68,0,0,1-1.36.34A1.74,1.74,0,0,1,222.78,14.94Z" fill="#9d2235"/><path d="M232.3,9.15H234l-2.59,7.76c-.52,1.54-1.14,2.1-2.27,2.1a3.13,3.13,0,0,1-1.54-.4l.47-1.26a1.84,1.84,0,0,0,.88.26c.44,0,.7-.19.93-.8l-2.73-7.66h1.73l1.78,5.55Z" fill="#9d2235"/><path d="M236.94,13.06v-.13A3.65,3.65,0,0,1,240.47,9a3.61,3.61,0,0,1,3.5,3.91V13A3.63,3.63,0,0,1,240.44,17,3.59,3.59,0,0,1,236.94,13.06Zm5.4,0v-.09c0-1.43-.79-2.49-1.9-2.49s-1.87,1.05-1.87,2.48V13c0,1.43.79,2.51,1.9,2.51S242.34,14.45,242.34,13Z" fill="#9d2235"/><path d="M245.75,10.55h-.85V9.19h.85V8.6a2.44,2.44,0,0,1,.56-1.75,2.23,2.23,0,0,1,1.6-.54,3.45,3.45,0,0,1,1.16.16V7.83a3,3,0,0,0-.8-.12c-.59,0-.91.33-.91,1v.43h1.69v1.36h-1.67v6.24h-1.63Z" fill="#9d2235"/><path d="M255.76,6.64h1.62l3.7,10.15h-1.74l-.84-2.38h-3.92l-.84,2.38h-1.69ZM258,12.93l-1.44-4.06-1.44,4.06Z" fill="#9d2235"/><path d="M262.41,9.15H264v1.5A2.28,2.28,0,0,1,266.33,9v1.78h-.07c-1.33,0-2.23.86-2.23,2.61v3.37h-1.62Z" fill="#9d2235"/><path d="M267.56,6.38h1.63v6.13l2.61-3.36h1.94l-2.54,3.11,2.61,4.53h-1.89l-1.85-3.27-.88,1.06v2.21h-1.63Z" fill="#9d2235"/><path d="M274.5,14.6v-.07c0-1.65,1.1-2.46,2.71-2.46a5,5,0,0,1,1.76.31v-.32a1.45,1.45,0,0,0-1.64-1.56,4.34,4.34,0,0,0-1.85.46L275,9.67a5.42,5.42,0,0,1,2.52-.61,3,3,0,0,1,2.25.78,3,3,0,0,1,.77,2.21v4.74H279v-.94a2.44,2.44,0,0,1-2.12,1.08A2.23,2.23,0,0,1,274.5,14.6Zm4.48-.38v-.76a3.61,3.61,0,0,0-1.41-.27c-.94,0-1.48.47-1.48,1.28v0a1.17,1.17,0,0,0,1.24,1.21A1.53,1.53,0,0,0,279,14.22Z" fill="#9d2235"/><path d="M282.4,9.15H284v1.12A2.41,2.41,0,0,1,286.12,9c1.48,0,2.36,1,2.36,2.67v5.12h-1.63V12.13c0-1.06-.51-1.66-1.37-1.66s-1.45.64-1.45,1.69v4.63H282.4Z" fill="#9d2235"/><path d="M289.68,15.87l.76-1.17a3.52,3.52,0,0,0,2.11.89c.68,0,1.07-.36,1.07-.83v0c0-.55-.6-.79-1.5-1.18-1.14-.49-2.1-1-2.1-2.26v0A2.3,2.3,0,0,1,292.55,9a4.35,4.35,0,0,1,2.48.82l-.69,1.2a3.41,3.41,0,0,0-1.82-.68c-.61,0-1,.33-1,.75v0c0,.51.61.77,1.5,1.17,1.19.53,2.08,1.08,2.08,2.28h0a2.33,2.33,0,0,1-2.61,2.32A4.53,4.53,0,0,1,289.68,15.87Z" fill="#9d2235"/><path d="M296.22,14.6v-.07c0-1.65,1.1-2.46,2.72-2.46a5,5,0,0,1,1.76.31v-.32a1.45,1.45,0,0,0-1.65-1.56,4.33,4.33,0,0,0-1.84.46l-.47-1.29a5.46,5.46,0,0,1,2.53-.61,3,3,0,0,1,2.25.78,3,3,0,0,1,.76,2.21v4.74h-1.6v-.94a2.42,2.42,0,0,1-2.12,1.08A2.23,2.23,0,0,1,296.22,14.6Zm4.49-.38v-.76a3.69,3.69,0,0,0-1.41-.27c-.94,0-1.49.47-1.49,1.28v0a1.17,1.17,0,0,0,1.24,1.21A1.53,1.53,0,0,0,300.71,14.22Z" fill="#9d2235"/><path d="M303.48,15.87l.76-1.17a3.49,3.49,0,0,0,2.11.89c.67,0,1.06-.36,1.06-.83v0c0-.55-.59-.79-1.5-1.18-1.14-.49-2.09-1-2.09-2.26v0A2.3,2.3,0,0,1,306.35,9a4.38,4.38,0,0,1,2.48.82l-.7,1.2a3.38,3.38,0,0,0-1.81-.68c-.61,0-1,.33-1,.75v0c0,.51.61.77,1.5,1.17,1.18.53,2.08,1.08,2.08,2.28h0a2.33,2.33,0,0,1-2.61,2.32A4.53,4.53,0,0,1,303.48,15.87Z" fill="#9d2235"/><path d="M172.35,27.21h-.85V25.85h.85v-.59a2.39,2.39,0,0,1,.56-1.74,2.23,2.23,0,0,1,1.6-.55,3.72,3.72,0,0,1,1.16.16V24.5a2.63,2.63,0,0,0-.8-.13c-.59,0-.9.33-.9,1.05v.43h1.68v1.36H174v6.24h-1.63Z" fill="#9d2235"/><path d="M176.36,29.72v-.13a3.54,3.54,0,1,1,7,0v.13a3.54,3.54,0,1,1-7,0Zm5.41,0V29.6c0-1.43-.79-2.49-1.9-2.49S178,28.16,178,29.59v.08c0,1.43.8,2.51,1.91,2.51S181.77,31.12,181.77,29.69Z" fill="#9d2235"/><path d="M185,25.81h1.63v1.5a2.27,2.27,0,0,1,2.29-1.62v1.78h-.07c-1.33,0-2.22.86-2.22,2.61v3.37H185Z" fill="#9d2235"/><path d="M192.8,23.36h1.74l2.6,4.64,2.58-4.64h1.76V33.45h-1.66V26.31L197.14,31h0l-2.66-4.65v7.11H192.8Z" fill="#9d2235"/><path d="M202.79,29.72V29.6c0-2.29,1.39-3.94,3.26-3.94,2.08,0,3.17,1.74,3.17,4,0,.1,0,.33,0,.56h-4.79a2,2,0,0,0,1.93,2,2.43,2.43,0,0,0,1.76-.81l.85,1a3.52,3.52,0,0,1-2.68,1.18C204.32,33.61,202.79,32.11,202.79,29.72Zm4.85-.59c-.09-1.22-.64-2.09-1.59-2.09s-1.53.79-1.64,2.09Z" fill="#9d2235"/><path d="M210.52,29.73v-.19c0-2.58,1.43-3.88,3-3.88a2.65,2.65,0,0,1,2.24,1.3V23h1.63V33.45h-1.63V32.23a2.6,2.6,0,0,1-2.24,1.37C212,33.6,210.52,32.31,210.52,29.73Zm5.24,0v-.14c0-1.5-.84-2.45-1.82-2.45s-1.77.92-1.77,2.46v.12c0,1.53.79,2.47,1.77,2.47S215.76,31.2,215.76,29.7Z" fill="#9d2235"/><path d="M219.25,23.1H221v1.6h-1.73Zm.06,2.71h1.63v7.64h-1.63Z" fill="#9d2235"/><path d="M222.53,29.73v-.14c0-2.28,1.48-3.93,3.48-3.93a3.27,3.27,0,0,1,2.46,1l-.91,1.2a2.06,2.06,0,0,0-1.55-.76c-1.06,0-1.84,1-1.84,2.46v.07c0,1.49.78,2.49,1.89,2.49a2.17,2.17,0,0,0,1.56-.78l.88,1.08A3.2,3.2,0,0,1,226,33.61C224,33.61,222.53,32,222.53,29.73Z" fill="#9d2235"/><path d="M229.45,31.26v-.07c0-1.65,1.1-2.45,2.71-2.45a5.25,5.25,0,0,1,1.76.3v-.32a1.45,1.45,0,0,0-1.64-1.56,4.38,4.38,0,0,0-1.85.47l-.46-1.3a5.46,5.46,0,0,1,2.53-.61,2.7,2.7,0,0,1,3,3v4.74h-1.6v-.94a2.44,2.44,0,0,1-2.12,1.09A2.23,2.23,0,0,1,229.45,31.26Zm4.49-.37v-.77a3.69,3.69,0,0,0-1.41-.27c-.94,0-1.49.47-1.49,1.28v0a1.16,1.16,0,0,0,1.24,1.21A1.52,1.52,0,0,0,233.94,30.89Z" fill="#9d2235"/><path d="M237.41,23H239V33.45h-1.62Z" fill="#9d2235"/><path d="M242.9,32.13l1-1.26a3.91,3.91,0,0,0,2.65,1.2c1,0,1.59-.54,1.59-1.29h0c0-.63-.33-1.05-1.93-1.64-1.92-.73-2.91-1.43-2.91-3.05v0a2.9,2.9,0,0,1,3.2-2.82,4.66,4.66,0,0,1,3.17,1.18l-1,1.28a3.69,3.69,0,0,0-2.27-1c-.9,0-1.47.51-1.47,1.17h0c0,.71.38,1.09,2.09,1.75,1.88.72,2.74,1.5,2.74,3v0c0,1.77-1.38,2.91-3.27,2.91A5.26,5.26,0,0,1,242.9,32.13Z" fill="#9d2235"/><path d="M251,29.73v-.14c0-2.28,1.49-3.93,3.49-3.93a3.23,3.23,0,0,1,2.45,1l-.91,1.2a2,2,0,0,0-1.54-.76c-1.07,0-1.85,1-1.85,2.46v.07c0,1.49.78,2.49,1.89,2.49a2.15,2.15,0,0,0,1.56-.78l.88,1.08a3.18,3.18,0,0,1-2.54,1.15C252.46,33.61,251,32,251,29.73Z" fill="#9d2235"/><path d="M258.25,23.1H260v1.6h-1.73Zm.05,2.71h1.63v7.64H258.3Z" fill="#9d2235"/><path d="M261.52,29.72V29.6c0-2.29,1.38-3.94,3.26-3.94,2.08,0,3.17,1.74,3.17,4,0,.1,0,.33,0,.56h-4.79a2,2,0,0,0,1.93,2,2.43,2.43,0,0,0,1.76-.81l.85,1A3.52,3.52,0,0,1,265,33.61C263.05,33.61,261.52,32.11,261.52,29.72Zm4.85-.59c-.09-1.22-.64-2.09-1.59-2.09s-1.53.79-1.64,2.09Z" fill="#9d2235"/><path d="M269.44,25.81h1.63v1.12a2.4,2.4,0,0,1,2.09-1.27c1.47,0,2.35,1,2.35,2.67v5.12h-1.63V28.79c0-1.06-.51-1.65-1.37-1.65s-1.44.63-1.44,1.68v4.63h-1.63Z" fill="#9d2235"/><path d="M277,29.73v-.14c0-2.28,1.49-3.93,3.49-3.93a3.23,3.23,0,0,1,2.45,1L282,27.9a2,2,0,0,0-1.54-.76c-1.07,0-1.85,1-1.85,2.46v.07c0,1.49.78,2.49,1.89,2.49a2.15,2.15,0,0,0,1.56-.78l.88,1.08a3.18,3.18,0,0,1-2.54,1.15C278.39,33.61,277,32,277,29.73Z" fill="#9d2235"/><path d="M283.71,29.72V29.6c0-2.29,1.39-3.94,3.26-3.94,2.08,0,3.17,1.74,3.17,4,0,.1,0,.33,0,.56h-4.79a2,2,0,0,0,1.93,2,2.41,2.41,0,0,0,1.76-.81l.85,1a3.52,3.52,0,0,1-2.68,1.18C285.24,33.61,283.71,32.11,283.71,29.72Zm4.85-.59c-.09-1.22-.64-2.09-1.59-2.09s-1.53.79-1.64,2.09Z" fill="#9d2235"/><path d="M291,32.53l.77-1.17a3.48,3.48,0,0,0,2.1.9c.68,0,1.07-.36,1.07-.84v0c0-.54-.59-.79-1.5-1.18-1.14-.49-2.09-1-2.09-2.26v0a2.29,2.29,0,0,1,2.52-2.24,4.37,4.37,0,0,1,2.48.83l-.69,1.19a3.4,3.4,0,0,0-1.82-.67c-.6,0-1,.33-1,.75v0c0,.51.6.77,1.5,1.17,1.18.54,2.07,1.08,2.07,2.28h0a2.34,2.34,0,0,1-2.61,2.33A4.56,4.56,0,0,1,291,32.53Z" fill="#9d2235"/></svg>