<svg xmlns="http://www.w3.org/2000/svg" width="151.35" height="74.55" viewBox="0 0 151.35 74.55" preserveAspectRatio="xMidYMid meet"><title>UAMS Health logo</title><path d="M30,22.06c0,3.77.1,7.28-2.67,10.31-2.35,2.57-6,3.73-9.47,3.83H14.44C11,36.1,7.32,35,5,32.43,2.2,29.4,2.3,25.9,2.3,22.13v-14C2.3,5.81,2.67,2,0,1V.84H9.94V1C7.32,2,7.63,5.81,7.63,8.16v14c0,7,2.94,10.2,8.32,10.2a9.25,9.25,0,0,0,7.64-3.66c1.15-1.57,1.1-2.88,1.1-4.76V8.16C24.69,5.81,25,2,22.39,1V.84h9.93l.06.16C29.71,2,30,5.81,30,8.22L30,22.06Z" fill="#fff"/><path d="M45.61,5.29,39.07,22.34l-2.72,7.37c-1.1,2.93-1.46,4.45,1,5.39v.16H27.77V35.1c3-1.51,3.93-4.44,5.08-7.43L41.58,5.86C42.32,4,43.31,1.78,40.8,1V.84h8.26L59.94,27.67c1.2,3,2.15,5.92,5.13,7.43v.16H54.34V35.1c2.57-1.15,2.15-1.72.74-5.39l-2.83-7.37-6.64-17Z" fill="#fff"/><path d="M95.35,4.13A9.11,9.11,0,0,0,96.14.89V.84h9V1c-1.26.36-1.62,1.88-1.62,3.08L107,29.77c.31,2.46.57,3.87,2.66,5.33v.16H99.59V35.1c1.83-.57,2.14-2.14,2.14-3.92L98.75,6,87,35.94c-2.62-2-3.35-3.4-4.61-6.33L72.49,6l-3,22.49c-.41,3.19-.78,5.49,1.68,6.59v.16H62.66V35.1c2.2-1.93,2.51-4.5,2.93-7.32l3-21.92C68.78,4.4,69.35,2.31,67,1V.84H76.1V.89a6.09,6.09,0,0,0,.74,2.36l9.83,23.06L95.35,4.13Z" fill="#fff"/><path d="M130.45,7.07a11.9,11.9,0,0,0-8.22-3.3c-3,0-6.74,1.15-6.74,4.76,0,7.17,18,7.06,18,16.74,0,5.6-5.86,10.83-14,10.83a27,27,0,0,1-9.36-1.57L108.58,28A18.11,18.11,0,0,0,120,32.33c3,0,7.48-1.78,7.48-5.44,0-8.16-18-6.7-18-17.79,0-6.58,6.75-9.1,13.13-9.1a26.45,26.45,0,0,1,7.8,1.15V7.07Z" fill="#fff"/><path d="M45.69,29.2a4.38,4.38,0,1,0-4.38-4.38,4.39,4.39,0,0,0,4.38,4.38Z" fill="#9d2235"/><path d="M25.65,57.85V66.9c0,2.25-.3,5.9,2.2,6.85v.15h-9.5v-.15c2.5-1,2.2-4.6,2.2-6.85V48c0-2.25.35-5.9-2.2-6.85V41h9.5v.15c-2.5,1-2.2,4.6-2.2,6.9v6.2H43.7v-6.2c0-2.3.35-5.95-2.2-6.9V41h9.55v.15c-2.55,1-2.25,4.6-2.25,6.85V66.9c0,2.25-.3,5.9,2.25,6.85v.15H41.5v-.15c2.55-1,2.2-4.6,2.2-6.85V57.85Z" fill="#9d2235"/><path d="M56.35,61.6c.1,6.1,4.35,9.65,10,9.65a13.2,13.2,0,0,0,8.2-2.65h.15l-2.5,4.7a18,18,0,0,1-6.9,1.25C56.8,74.55,51,69.2,51,62.25s5-12,12.5-12c6.8,0,11.45,4.9,11.25,11.35Zm13.1-2.9c-.55-3.5-2.85-5.15-6.45-5.15a6.22,6.22,0,0,0-6.45,5.15Z" fill="#9d2235"/><path d="M97.5,74.55c-3.3-.2-6.6-1.2-6.6-5.2v-7.9A21.57,21.57,0,0,1,86.1,63c-2.4.55-5.1,1.1-5.1,4.15s2.8,4.1,5.45,4.1a13.11,13.11,0,0,0,3.6-.7l-3,3.75a15.26,15.26,0,0,1-2.6.25c-5,0-8.55-3.2-8.55-7.35,0-9.3,15-5,15-10.45,0-2.4-3-3.2-4.8-3.2-2.55,0-4.55,1-6.8,2l3.35-5,3.25-.3c5.4,0,9.5,1.55,9.55,7.6v7.5c0,4,.1,5.45,4.25,5.9Z" fill="#9d2235"/><path d="M103.35,41c1.15,0,2.45,0,3.2-.8h.15V68.35c0,2.3-.35,4.15,1.85,5.4v.15H100.3v-.15c2.15-1.25,1.85-3.1,1.85-5.4V46.55c0-2.3.3-4.15-1.85-5.4V41Z" fill="#9d2235"/><path d="M119,64.2c0,1.9-.6,7,4.75,7a5.61,5.61,0,0,0,2-.5L123.1,74.3a5.63,5.63,0,0,1-1.6.25c-7.75,0-7-8-7-10V54.2h-3.4V52.4c4.7-.8,6-4.3,6-8.95h2V50.9h4.7a3.91,3.91,0,0,0,1.9-.3h.15v4.55h-.15c-.8-1-2.3-.95-3.6-.95h-3Z" fill="#9d2235"/><path d="M130.35,41c1.15,0,2.35,0,3.05-.8h.15V53.4c1.5-2.15,4.9-3.15,7.35-3.15,6.9,0,8.55,4.15,8.55,9v9.1c0,2.3-.3,4.15,1.9,5.4v.15h-8.3v-.15c2.2-1.25,1.85-3.1,1.85-5.4v-7.6c0-4-1.3-7.2-5.6-7.2s-5.75,2.45-5.75,6.9v7.9c0,2.3-.3,4.15,1.9,5.4v.15H127.1v-.15c2.2-1.25,1.9-3.1,1.9-5.4V46.55c0-2.3.3-4.15-1.9-5.4V41Z" fill="#9d2235"/></svg>