<svg xmlns="http://www.w3.org/2000/svg" width="3.96in" height="0.5in" viewBox="0 0 285.42 36.28" preserveAspectRatio="xMidYMid meet"><title>University of Arkansas for Medical Sciences College of Pharmacy Logo</title><path d="M30,22.14c0,3.77.1,7.28-2.67,10.31-2.35,2.57-6,3.73-9.47,3.83H14.44C11,36.18,7.32,35.08,5,32.51,2.2,29.48,2.3,26,2.3,22.21v-14c0-2.35.37-6.17-2.3-7.16V.92H9.94v.16c-2.62,1-2.3,4.81-2.3,7.16v14c0,7,2.93,10.2,8.32,10.2a9.25,9.25,0,0,0,7.63-3.66c1.15-1.57,1.1-2.88,1.1-4.76V8.24c0-2.35.31-6.17-2.3-7.16V.92h9.94l.05.16C29.71,2.07,30,5.89,30,8.3L30,22.14Z" transform="translate(0 0)"/><path d="M45.61,5.37,39.08,22.42l-2.73,7.37c-1.1,2.93-1.46,4.45,1,5.39v.16H27.78v-.16c3-1.51,3.92-4.44,5.07-7.43L41.58,5.94c.74-1.88,1.73-4.08-.78-4.86V.92h8.26L59.94,27.75c1.2,3,2.15,5.92,5.13,7.43v.16H54.34v-.16c2.57-1.15,2.15-1.72.74-5.39l-2.83-7.37-6.64-17Z" transform="translate(0 0)"/><path d="M95.36,4.21A9.09,9.09,0,0,0,96.14,1v0h9v.16c-1.26.36-1.62,1.88-1.62,3.08L107,29.85c.31,2.46.58,3.87,2.67,5.33v.16H99.59v-.16c1.84-.57,2.15-2.14,2.15-3.92L98.76,6,87,36c-2.62-2-3.35-3.4-4.61-6.33L72.5,6.1l-3,22.49c-.42,3.19-.79,5.49,1.67,6.59v.16H62.66v-.16c2.2-1.93,2.51-4.5,2.93-7.32l3-21.92c.21-1.46.79-3.55-1.62-4.86V.92h9.16V1a6.25,6.25,0,0,0,.73,2.36l9.83,23.06L95.36,4.21Z" transform="translate(0 0)"/><path d="M130.45,7.15a11.87,11.87,0,0,0-8.21-3.3c-3,0-6.75,1.15-6.75,4.76,0,7.17,18,7.06,18,16.74,0,5.6-5.85,10.83-14,10.83a27,27,0,0,1-9.36-1.57l-1.52-6.54A18.09,18.09,0,0,0,120,32.41c3,0,7.48-1.78,7.48-5.44,0-8.16-18-6.7-18-17.79,0-6.58,6.76-9.1,13.14-9.1a26.44,26.44,0,0,1,7.79,1.15V7.15Z" transform="translate(0 0)"/><path d="M45.69,29.28a4.38,4.38,0,1,0-4.38-4.38,4.39,4.39,0,0,0,4.38,4.38Z" transform="translate(0 0)" fill="#9d2235"/><path d="M153.75,18.07v0a4.6,4.6,0,0,1,4.69-4.71A4.74,4.74,0,0,1,162,14.75l-1,1.18a3.61,3.61,0,0,0-2.54-1.13,3.06,3.06,0,0,0-3,3.21v0a3.08,3.08,0,0,0,3,3.24A3.57,3.57,0,0,0,161,20.09l1,1a4.7,4.7,0,0,1-3.7,1.62A4.57,4.57,0,0,1,153.75,18.07Z" transform="translate(0 0)"/><path d="M163,19.2v0a3.66,3.66,0,0,1,7.32,0v0a3.59,3.59,0,0,1-3.68,3.58A3.55,3.55,0,0,1,163,19.2Zm5.75,0v0A2.13,2.13,0,0,0,166.66,17a2.07,2.07,0,0,0-2.07,2.19v0a2.13,2.13,0,0,0,2.1,2.21A2.07,2.07,0,0,0,168.77,19.2Z" transform="translate(0 0)"/><path d="M171.93,13.1h1.58v9.49h-1.58Z" transform="translate(0 0)"/><path d="M175.5,13.1h1.58v9.49H175.5Z" transform="translate(0 0)"/><path d="M178.67,19.18v0A3.41,3.41,0,0,1,182,15.58c2.19,0,3.29,1.72,3.29,3.7,0,.14,0,.28,0,.44h-5a1.92,1.92,0,0,0,2,1.74,2.51,2.51,0,0,0,1.86-.82l.92.82a3.48,3.48,0,0,1-2.81,1.29A3.43,3.43,0,0,1,178.67,19.18Zm5.08-.5A1.78,1.78,0,0,0,182,16.87a1.86,1.86,0,0,0-1.78,1.81Z" transform="translate(0 0)"/><path d="M186.8,23.88l.59-1.18a4.46,4.46,0,0,0,2.44.72,1.92,1.92,0,0,0,2.17-2.1v-.54A2.88,2.88,0,0,1,189.58,22a3.08,3.08,0,0,1-3.12-3.21v0a3.1,3.1,0,0,1,3.12-3.23A3,3,0,0,1,192,16.75v-1h1.57v5.46a3.51,3.51,0,0,1-.87,2.58,3.84,3.84,0,0,1-2.82.93A5.94,5.94,0,0,1,186.8,23.88ZM192,18.83v0a1.92,1.92,0,0,0-2-1.9,1.85,1.85,0,0,0-1.95,1.88v0a1.87,1.87,0,0,0,1.95,1.9A1.92,1.92,0,0,0,192,18.83Z" transform="translate(0 0)"/><path d="M195.11,19.18v0a3.41,3.41,0,0,1,3.36-3.58c2.18,0,3.29,1.72,3.29,3.7,0,.14,0,.28,0,.44h-5a1.91,1.91,0,0,0,2,1.74,2.49,2.49,0,0,0,1.86-.82l.92.82a3.58,3.58,0,0,1-6.33-2.28Zm5.09-.5a1.79,1.79,0,0,0-1.75-1.81,1.86,1.86,0,0,0-1.78,1.81Z" transform="translate(0 0)"/><path d="M206,19.2v0a3.66,3.66,0,0,1,7.32,0v0a3.59,3.59,0,0,1-3.68,3.58A3.55,3.55,0,0,1,206,19.2Zm5.74,0v0a2.12,2.12,0,0,0-2.1-2.21,2.07,2.07,0,0,0-2.07,2.19v0a2.12,2.12,0,0,0,2.09,2.21A2.06,2.06,0,0,0,211.71,19.2Z" transform="translate(0 0)"/><path d="M215,17.08h-.87V15.77H215v-.5a2.29,2.29,0,0,1,.56-1.7,2,2,0,0,1,1.54-.55,4.36,4.36,0,0,1,1.28.18v1.33a2.88,2.88,0,0,0-.92-.17c-.6,0-.91.33-.91,1v.38h1.82v1.3h-1.8v5.51H215Z" transform="translate(0 0)"/><path d="M222.74,13.49h3.59c2.12,0,3.46,1.21,3.46,3v0c0,2-1.64,3.11-3.64,3.11h-1.81v2.92h-1.6Zm3.46,4.73c1.21,0,2-.67,2-1.62v0c0-1.06-.77-1.62-2-1.62h-1.86v3.27Z" transform="translate(0 0)"/><path d="M231.13,13.1h1.57v3.69a2.48,2.48,0,0,1,2.15-1.21,2.35,2.35,0,0,1,2.44,2.64v4.37h-1.57v-3.9c0-1.07-.53-1.68-1.47-1.68a1.53,1.53,0,0,0-1.55,1.71v3.87h-1.57Z" transform="translate(0 0)"/><path d="M243.1,22.59v-.84a2.82,2.82,0,0,1-2.23,1,2.19,2.19,0,0,1-2.44-2.11v0c0-1.52,1.18-2.25,2.78-2.25a5.75,5.75,0,0,1,1.9.29V18.5c0-.95-.6-1.47-1.69-1.47a4.74,4.74,0,0,0-2,.43L239,16.19a6,6,0,0,1,2.61-.57c2,0,3,1.07,3,2.9v4.07Zm0-2.87a4.37,4.37,0,0,0-1.57-.28c-1,0-1.57.41-1.57,1.07v0c0,.65.58,1,1.32,1,1,0,1.82-.58,1.82-1.44Z" transform="translate(0 0)"/><path d="M246.52,15.73h1.57v1.54a2.43,2.43,0,0,1,2.43-1.67v1.66h-.09c-1.38,0-2.34.9-2.34,2.72v2.61h-1.57Z" transform="translate(0 0)"/><path d="M251.73,15.73h1.57v1a2.47,2.47,0,0,1,2.1-1.19,2.17,2.17,0,0,1,2,1.21,2.79,2.79,0,0,1,2.32-1.21,2.31,2.31,0,0,1,2.41,2.63v4.38H260.6v-3.9c0-1.09-.51-1.68-1.4-1.68s-1.46.6-1.46,1.71v3.87h-1.58V18.68c0-1.07-.52-1.67-1.39-1.67s-1.47.65-1.47,1.72v3.86h-1.57Z" transform="translate(0 0)"/><path d="M268.26,22.59v-.84a2.82,2.82,0,0,1-2.23,1,2.19,2.19,0,0,1-2.44-2.11v0c0-1.52,1.18-2.25,2.78-2.25a5.75,5.75,0,0,1,1.9.29V18.5c0-.95-.6-1.47-1.69-1.47a4.74,4.74,0,0,0-2,.43l-.43-1.27a6,6,0,0,1,2.61-.57c2,0,3,1.07,3,2.9v4.07Zm0-2.87a4.43,4.43,0,0,0-1.58-.28c-1,0-1.57.41-1.57,1.07v0c0,.65.59,1,1.33,1,1,0,1.82-.58,1.82-1.44Z" transform="translate(0 0)"/><path d="M271.27,19.2v0a3.54,3.54,0,0,1,3.56-3.59,3.43,3.43,0,0,1,2.75,1.19l-1,1.05a2.3,2.3,0,0,0-1.78-.86,2.06,2.06,0,0,0-2,2.19v0a2.09,2.09,0,0,0,2,2.21,2.4,2.4,0,0,0,1.78-.86l.95.94a3.6,3.6,0,0,1-6.36-2.26Z" transform="translate(0 0)"/><path d="M278.8,24.29l.53-1.17a1.92,1.92,0,0,0,.93.26c.44,0,.71-.19,1-.79l-2.86-6.86h1.68L282,20.82l1.78-5.09h1.64l-2.73,7.06c-.55,1.4-1.16,1.92-2.26,1.92A3.2,3.2,0,0,1,278.8,24.29Z" transform="translate(0 0)"/><rect x="144.9" width="1" height="36.07" fill="#9d2235"/><path d="M136.1,33.08c0-.58-.44-.85-1-.85h-1.21V34.8h.63V34h.39l.56.81h.75l-.65-.93A.78.78,0,0,0,136.1,33.08Zm-1.08.4h-.54v-.71H135c.27,0,.44.12.44.35S135.3,33.48,135,33.48Z" transform="translate(0 0)"/><path d="M134.87,30.93a2.63,2.63,0,1,0,2.63,2.63A2.62,2.62,0,0,0,134.87,30.93Zm2.19,2.62h0a2.2,2.2,0,0,1-2.19,2.22,2.17,2.17,0,0,1-2.18-2.2v0a2.19,2.19,0,1,1,4.37,0Z" transform="translate(0 0)"/></svg>