<svg xmlns="http://www.w3.org/2000/svg" width="4.2in" height="0.5in" viewBox="0 0 302.31 36.28" preserveAspectRatio="xMidYMid meet"><title>University of Arkansas for Medical Sciences Harvey and Bernice Jones Eye Institute Logo</title><path d="M30,22.14c0,3.77.1,7.28-2.67,10.31-2.35,2.57-6,3.73-9.47,3.83H14.44C11,36.18,7.32,35.08,5,32.51,2.2,29.48,2.3,26,2.3,22.21v-14c0-2.35.37-6.17-2.3-7.16V.92H9.94v.16c-2.62,1-2.3,4.81-2.3,7.16v14c0,7,2.93,10.2,8.32,10.2a9.25,9.25,0,0,0,7.63-3.66c1.15-1.57,1.1-2.88,1.1-4.76V8.24c0-2.35.31-6.17-2.3-7.16V.92h9.94l.05.16C29.71,2.07,30,5.89,30,8.3L30,22.14Z" transform="translate(0 0)"/><path d="M45.61,5.37,39.08,22.42l-2.73,7.37c-1.1,2.93-1.46,4.45,1,5.39v.16H27.78v-.16c3-1.51,3.92-4.44,5.07-7.43L41.58,5.94c.74-1.88,1.73-4.08-.78-4.86V.92h8.26L59.94,27.75c1.2,3,2.15,5.92,5.13,7.43v.16H54.34v-.16c2.57-1.15,2.15-1.72.74-5.39l-2.83-7.37-6.64-17Z" transform="translate(0 0)"/><path d="M95.36,4.21A9.09,9.09,0,0,0,96.14,1v0h9v.16c-1.26.36-1.62,1.88-1.62,3.08L107,29.85c.31,2.46.58,3.87,2.67,5.33v.16H99.59v-.16c1.84-.57,2.15-2.14,2.15-3.92L98.76,6,87,36c-2.62-2-3.35-3.4-4.61-6.33L72.5,6.1l-3,22.49c-.42,3.19-.79,5.49,1.67,6.59v.16H62.66v-.16c2.2-1.93,2.51-4.5,2.93-7.32l3-21.92c.21-1.46.79-3.55-1.62-4.86V.92h9.16V1a6.25,6.25,0,0,0,.73,2.36l9.83,23.06L95.36,4.21Z" transform="translate(0 0)"/><path d="M130.45,7.15a11.87,11.87,0,0,0-8.21-3.3c-3,0-6.75,1.15-6.75,4.76,0,7.17,18,7.06,18,16.74,0,5.6-5.85,10.83-14,10.83a27,27,0,0,1-9.36-1.57l-1.52-6.54A18.09,18.09,0,0,0,120,32.41c3,0,7.48-1.78,7.48-5.44,0-8.16-18-6.7-18-17.79,0-6.58,6.76-9.1,13.14-9.1a26.44,26.44,0,0,1,7.79,1.15V7.15Z" transform="translate(0 0)"/><path d="M45.69,29.28a4.38,4.38,0,1,0-4.38-4.38,4.39,4.39,0,0,0,4.38,4.38Z" transform="translate(0 0)" fill="#9d2235"/><rect x="144.9" width="1" height="36.07" fill="#9d2235"/><path d="M154.18,6.08h1.6V9.86h4.34V6.08h1.6v9.1h-1.6V11.34h-4.34v3.84h-1.6Z" transform="translate(0 0)"/><path d="M167.85,15.18v-.85a2.77,2.77,0,0,1-2.22,1,2.2,2.2,0,0,1-2.45-2.12v0c0-1.53,1.19-2.25,2.78-2.25a5.73,5.73,0,0,1,1.9.28v-.13c0-.95-.6-1.47-1.69-1.47a4.78,4.78,0,0,0-2,.43l-.43-1.26a5.86,5.86,0,0,1,2.61-.57c2,0,3,1.07,3,2.9v4.07Zm0-2.87a4.37,4.37,0,0,0-1.57-.28c-1,0-1.58.41-1.58,1.07v0c0,.65.59,1,1.33,1,1,0,1.82-.59,1.82-1.45Z" transform="translate(0 0)"/><path d="M171.27,8.31h1.57V9.86a2.43,2.43,0,0,1,2.43-1.68V9.85h-.09c-1.38,0-2.34.89-2.34,2.71v2.62h-1.57Z" transform="translate(0 0)"/><path d="M176.16,8.31h1.69l1.84,5,1.86-5h1.66l-2.81,6.92H179Z" transform="translate(0 0)"/><path d="M183.74,11.77v0a3.41,3.41,0,0,1,3.36-3.58c2.18,0,3.28,1.72,3.28,3.69,0,.15,0,.29,0,.45h-5.05a1.93,1.93,0,0,0,2,1.74,2.51,2.51,0,0,0,1.86-.82l.92.82a3.58,3.58,0,0,1-6.33-2.28Zm5.08-.5a1.78,1.78,0,0,0-1.74-1.81,1.86,1.86,0,0,0-1.78,1.81Z" transform="translate(0 0)"/><path d="M191.33,16.88l.54-1.17a1.85,1.85,0,0,0,.92.26c.44,0,.71-.19,1-.79L190.9,8.31h1.68l1.95,5.1,1.78-5.1H198l-2.73,7.06c-.55,1.41-1.16,1.93-2.26,1.93A3.23,3.23,0,0,1,191.33,16.88Z" transform="translate(0 0)"/><path d="M207.58,14.13a4,4,0,0,1-2.79,1.18,2.69,2.69,0,0,1-3-2.6v0a2.74,2.74,0,0,1,1.94-2.55A2.93,2.93,0,0,1,203,8.24v0a2.38,2.38,0,0,1,2.61-2.29A2.25,2.25,0,0,1,208,8.12v0c0,1.19-.79,1.91-2,2.36l1.56,1.59a13.24,13.24,0,0,0,1-1.76l1.21.64a14.78,14.78,0,0,1-1.23,2.08L210,14.52l-1.19.84Zm-.91-.94-2-2.07a1.7,1.7,0,0,0-1.2,1.51v0A1.38,1.38,0,0,0,205,14,2.52,2.52,0,0,0,206.67,13.19Zm0-4.95v0a1,1,0,0,0-1-1,1,1,0,0,0-1.08,1.09v0a1.91,1.91,0,0,0,.69,1.35C206.13,9.31,206.62,8.89,206.62,8.24Z" transform="translate(0 0)"/><path d="M214.54,6.08h4.08a3.29,3.29,0,0,1,2.38.8,2.07,2.07,0,0,1,.61,1.51v0a2.16,2.16,0,0,1-1.3,2,2.22,2.22,0,0,1,1.81,2.21v0c0,1.63-1.34,2.5-3.37,2.5h-4.21Zm3.75,3.83c1,0,1.72-.4,1.72-1.23v0c0-.71-.57-1.16-1.6-1.16h-2.3V9.91Zm.47,3.85c1.09,0,1.76-.43,1.76-1.25v0c0-.77-.61-1.22-1.87-1.22h-2.54v2.49Z" transform="translate(0 0)"/><path d="M223.13,11.77v0a3.41,3.41,0,0,1,3.36-3.58c2.18,0,3.29,1.72,3.29,3.69,0,.15,0,.29,0,.45h-5a1.92,1.92,0,0,0,2,1.74,2.49,2.49,0,0,0,1.86-.82l.93.82a3.49,3.49,0,0,1-2.81,1.28A3.43,3.43,0,0,1,223.13,11.77Zm5.09-.5a1.78,1.78,0,0,0-1.74-1.81,1.86,1.86,0,0,0-1.79,1.81Z" transform="translate(0 0)"/><path d="M231.32,8.31h1.58V9.86a2.43,2.43,0,0,1,2.43-1.68V9.85h-.09c-1.38,0-2.34.89-2.34,2.71v2.62h-1.58Z" transform="translate(0 0)"/><path d="M236.54,8.31h1.57V9.38a2.47,2.47,0,0,1,2.15-1.21,2.36,2.36,0,0,1,2.44,2.64v4.37h-1.57v-3.9c0-1.07-.54-1.68-1.47-1.68a1.53,1.53,0,0,0-1.55,1.7v3.88h-1.57Z" transform="translate(0 0)"/><path d="M244.54,5.77h1.69V7.26h-1.69Zm.06,2.54h1.57v6.87H244.6Z" transform="translate(0 0)"/><path d="M247.73,11.78v0a3.54,3.54,0,0,1,3.56-3.59A3.42,3.42,0,0,1,254,9.35l-1,1.06a2.3,2.3,0,0,0-1.78-.86,2.06,2.06,0,0,0-2,2.18v0A2.09,2.09,0,0,0,251.36,14a2.42,2.42,0,0,0,1.78-.86l1,.94a3.6,3.6,0,0,1-6.36-2.27Z" transform="translate(0 0)"/><path d="M254.89,11.77v0a3.41,3.41,0,0,1,3.36-3.58c2.18,0,3.29,1.72,3.29,3.69,0,.15,0,.29,0,.45h-5a1.92,1.92,0,0,0,2,1.74,2.49,2.49,0,0,0,1.86-.82l.93.82a3.49,3.49,0,0,1-2.81,1.28A3.43,3.43,0,0,1,254.89,11.77Zm5.09-.5a1.79,1.79,0,0,0-1.75-1.81,1.86,1.86,0,0,0-1.78,1.81Z" transform="translate(0 0)"/><path d="M265.41,13.84l1-1.08a2.27,2.27,0,0,0,1.84,1.07c.85,0,1.44-.58,1.44-1.78v-6h1.64v6a3.27,3.27,0,0,1-.85,2.42,3,3,0,0,1-2.21.81A3.43,3.43,0,0,1,265.41,13.84Z" transform="translate(0 0)"/><path d="M272.76,11.78v0a3.66,3.66,0,0,1,7.32,0v0a3.66,3.66,0,0,1-7.32,0Zm5.75,0v0a2.12,2.12,0,0,0-2.11-2.21,2.06,2.06,0,0,0-2.06,2.18v0A2.12,2.12,0,0,0,276.43,14,2.07,2.07,0,0,0,278.51,11.78Z" transform="translate(0 0)"/><path d="M281.61,8.31h1.58V9.38a2.47,2.47,0,0,1,2.14-1.21,2.36,2.36,0,0,1,2.45,2.64v4.37H286.2v-3.9c0-1.07-.53-1.68-1.47-1.68a1.52,1.52,0,0,0-1.54,1.7v3.88h-1.58Z" transform="translate(0 0)"/><path d="M289.27,11.77v0a3.41,3.41,0,0,1,3.35-3.58c2.19,0,3.29,1.72,3.29,3.69,0,.15,0,.29,0,.45h-5.05a1.92,1.92,0,0,0,2,1.74,2.52,2.52,0,0,0,1.86-.82l.92.82a3.47,3.47,0,0,1-2.81,1.28A3.42,3.42,0,0,1,289.27,11.77Zm5.08-.5a1.78,1.78,0,0,0-1.74-1.81,1.86,1.86,0,0,0-1.78,1.81Z" transform="translate(0 0)"/><path d="M296.85,14.28l.71-1.06a3.89,3.89,0,0,0,2.25.84c.67,0,1.06-.29,1.06-.74v0c0-.53-.73-.71-1.53-1-1-.28-2.15-.7-2.15-2v0a2.19,2.19,0,0,1,2.45-2.09,4.79,4.79,0,0,1,2.52.78l-.63,1.12a3.91,3.91,0,0,0-1.93-.66c-.61,0-1,.29-1,.69v0c0,.49.74.7,1.54,1,1,.31,2.13.77,2.13,2v0c0,1.44-1.11,2.16-2.54,2.16A4.82,4.82,0,0,1,296.85,14.28Z" transform="translate(0 0)"/><path d="M154.18,21.08h6.74v1.43h-5.14v2.36h4.56V26.3h-4.56v2.45H161v1.43h-6.81Z" transform="translate(0 0)"/><path d="M162,31.88l.53-1.17a1.92,1.92,0,0,0,.93.26c.44,0,.71-.19,1-.79l-2.86-6.87h1.68l1.95,5.1,1.78-5.1h1.64l-2.73,7.06c-.55,1.41-1.16,1.93-2.26,1.93A3.2,3.2,0,0,1,162,31.88Z" transform="translate(0 0)"/><path d="M169.17,26.77v0a3.41,3.41,0,0,1,3.35-3.58c2.19,0,3.29,1.72,3.29,3.69,0,.15,0,.29,0,.45h-5a1.93,1.93,0,0,0,2,1.74,2.51,2.51,0,0,0,1.86-.82l.92.82a3.47,3.47,0,0,1-2.81,1.28A3.42,3.42,0,0,1,169.17,26.77Zm5.08-.5a1.78,1.78,0,0,0-1.74-1.81,1.86,1.86,0,0,0-1.78,1.81Z" transform="translate(0 0)"/><path d="M180.68,21.08h1.59v9.1h-1.59Z" transform="translate(0 0)"/><path d="M184.21,23.31h1.57v1.07a2.47,2.47,0,0,1,2.14-1.21,2.36,2.36,0,0,1,2.45,2.64v4.37H188.8v-3.9c0-1.07-.54-1.68-1.47-1.68a1.53,1.53,0,0,0-1.55,1.7v3.88h-1.57Z" transform="translate(0 0)"/><path d="M191.66,29.28l.71-1.06a3.89,3.89,0,0,0,2.25.84c.67,0,1.06-.29,1.06-.74v0c0-.53-.73-.71-1.53-1-1-.28-2.15-.7-2.15-2v0a2.19,2.19,0,0,1,2.45-2.09A4.76,4.76,0,0,1,197,24l-.62,1.12a4,4,0,0,0-1.94-.66c-.61,0-1,.29-1,.69v0c0,.49.74.7,1.54,1,1,.31,2.13.77,2.13,2v0c0,1.44-1.11,2.16-2.54,2.16A4.82,4.82,0,0,1,191.66,29.28Z" transform="translate(0 0)"/><path d="M199,28.28V24.67h-.87V23.31H199V21.43h1.57v1.88h1.85v1.36h-1.85V28a.75.75,0,0,0,.84.86,2.17,2.17,0,0,0,1-.23v1.28a2.67,2.67,0,0,1-1.42.36A1.76,1.76,0,0,1,199,28.28Z" transform="translate(0 0)"/><path d="M203.85,20.77h1.69v1.49h-1.69Zm.06,2.54h1.58v6.87h-1.58Z" transform="translate(0 0)"/><path d="M207.72,28.28V24.67h-.87V23.31h.87V21.43h1.57v1.88h1.85v1.36h-1.85V28a.76.76,0,0,0,.85.86,2.16,2.16,0,0,0,1-.23v1.28a2.66,2.66,0,0,1-1.41.36A1.76,1.76,0,0,1,207.72,28.28Z" transform="translate(0 0)"/><path d="M212.51,27.68V23.31h1.58v3.9c0,1.07.53,1.68,1.47,1.68a1.52,1.52,0,0,0,1.54-1.7V23.31h1.58v6.87H217.1V29.11A2.47,2.47,0,0,1,215,30.32,2.36,2.36,0,0,1,212.51,27.68Z" transform="translate(0 0)"/><path d="M220.91,28.28V24.67H220V23.31h.87V21.43h1.57v1.88h1.85v1.36h-1.85V28a.76.76,0,0,0,.85.86,2.16,2.16,0,0,0,1-.23v1.28a2.66,2.66,0,0,1-1.41.36A1.76,1.76,0,0,1,220.91,28.28Z" transform="translate(0 0)"/><path d="M225.28,26.77v0a3.41,3.41,0,0,1,3.36-3.58c2.18,0,3.29,1.72,3.29,3.69,0,.15,0,.29,0,.45h-5a1.92,1.92,0,0,0,2,1.74,2.49,2.49,0,0,0,1.86-.82l.92.82a3.58,3.58,0,0,1-6.33-2.28Zm5.09-.5a1.79,1.79,0,0,0-1.75-1.81,1.86,1.86,0,0,0-1.78,1.81Z" transform="translate(0 0)"/><path d="M136.08,33.1c0-.58-.44-.85-1-.85h-1.21v2.57h.62V34h.4l.55.81h.76l-.66-.92A.78.78,0,0,0,136.08,33.1Zm-1.08.4h-.54v-.71H135c.27,0,.44.13.44.36S135.29,33.5,135,33.5Z" transform="translate(0 0)"/><path d="M134.86,31a2.63,2.63,0,1,0,2.63,2.63A2.63,2.63,0,0,0,134.86,31Zm2.19,2.61v0a2.19,2.19,0,1,1-4.38,0h0a2.2,2.2,0,0,1,2.19-2.22A2.17,2.17,0,0,1,137.05,33.57Z" transform="translate(0 0)"/></svg>