<svg xmlns="http://www.w3.org/2000/svg" width="108.94" height="28.68" viewBox="0 0 108.94 28.68" preserveAspectRatio="xMidYMid meet"><title>UAMS</title><path d="M23.74,17.48c0,3,.08,5.76-2.12,8.17a10.62,10.62,0,0,1-7.5,3H11.44a10.56,10.56,0,0,1-7.5-3c-2.2-2.41-2.11-5.18-2.11-8.17V6.47C1.83,4.6,2.12,1.58,0,.79V.66H7.88V.79C5.8,1.58,6.05,4.6,6.05,6.47V17.53c0,5.52,2.32,8.08,6.59,8.08a7.32,7.32,0,0,0,6.05-2.9c.91-1.24.87-2.28.87-3.77V6.47c0-1.87.25-4.89-1.82-5.68V.66h7.87l.05.13c-2.12.79-1.87,3.81-1.87,5.72l-.05,11Z" transform="translate(0)" fill="#fff"/><path d="M36.14,4.19,31,17.7,28.8,23.54c-.87,2.32-1.16,3.52.83,4.27v.13H22v-.13c2.4-1.2,3.11-3.52,4-5.89L33,4.64c.58-1.49,1.36-3.23-.63-3.85V.66h6.55l8.62,21.26c1,2.37,1.71,4.69,4.06,5.89v.13H43.06v-.13c2-.91,1.7-1.37.58-4.27L41.4,17.7,36.14,4.19Z" transform="translate(0)" fill="#fff"/><path d="M75.55,3.27A7.23,7.23,0,0,0,76.18.71v0h7.16V.79c-1,.29-1.28,1.49-1.28,2.44l2.73,20.35c.25,2,.46,3.07,2.11,4.23v.13h-8v-.13c1.45-.46,1.7-1.7,1.7-3.11l-2.36-20L69,28.47a10,10,0,0,1-3.65-5L57.44,4.77,55.08,22.59c-.33,2.53-.63,4.35,1.32,5.22v.13H49.65v-.13c1.74-1.53,2-3.56,2.32-5.8L54.33,4.64C54.5,3.48,55,1.83,53.05.79V.66H60.3v0a4.87,4.87,0,0,0,.58,1.86l7.79,18.28L75.55,3.27Z" transform="translate(0)" fill="#fff"/><path d="M103.36,5.6A9.45,9.45,0,0,0,96.85,3c-2.36,0-5.35.92-5.35,3.78,0,5.68,14.26,5.59,14.26,13.26,0,4.43-4.64,8.58-11.11,8.58a21.21,21.21,0,0,1-7.41-1.25L86,22.17a14.34,14.34,0,0,0,9.08,3.44c2.36,0,5.93-1.4,5.93-4.31,0-6.46-14.26-5.3-14.26-14.09C86.78,2,92.13,0,97.18,0a20.93,20.93,0,0,1,6.18.91V5.6Z" transform="translate(0)" fill="#fff"/><path d="M36.2,23.13a3.47,3.47,0,1,0-3.47-3.47,3.47,3.47,0,0,0,3.47,3.47Z" transform="translate(0)" fill="#9d2235"/><path d="M107.83,26.15c0-.46-.35-.67-.83-.67h-1v2h.49v-.65h.32l.44.65h.59l-.51-.74A.62.62,0,0,0,107.83,26.15Zm-.86.32h-.43v-.56H107c.21,0,.35.1.35.28S107.19,26.47,107,26.47Z" transform="translate(0)" fill="#fff"/><path d="M106.86,24.45a2.09,2.09,0,1,0,2.08,2.09A2.1,2.1,0,0,0,106.86,24.45Zm1.73,2.08h0a1.74,1.74,0,1,1-3.47,0h0a1.75,1.75,0,0,1,1.74-1.76A1.72,1.72,0,0,1,108.59,26.53Z" transform="translate(0)" fill="#fff"/></svg>