<svg xmlns="http://www.w3.org/2000/svg" width="3.77in" height="0.5in" viewBox="0 0 271.36 36.28" preserveAspectRatio="xMidYMid meet"><title>University of Arkansas for Medical Sciences College of Health Professions Logo</title><path d="M30,22.14c0,3.77.1,7.28-2.67,10.31-2.35,2.57-6,3.73-9.47,3.83H14.44C11,36.18,7.32,35.08,5,32.51,2.2,29.48,2.3,26,2.3,22.21v-14c0-2.35.37-6.17-2.3-7.16V.92H9.94v.16c-2.62,1-2.3,4.81-2.3,7.16v14c0,7,2.93,10.2,8.32,10.2a9.25,9.25,0,0,0,7.63-3.66c1.15-1.57,1.1-2.88,1.1-4.76V8.24c0-2.35.31-6.17-2.3-7.16V.92h9.94l.05.16C29.71,2.07,30,5.89,30,8.3L30,22.14Z" transform="translate(0 0)" fill="#fff"/><path d="M45.61,5.37,39.08,22.42l-2.73,7.37c-1.1,2.93-1.46,4.45,1,5.39v.16H27.78v-.16c3-1.51,3.92-4.44,5.07-7.43L41.58,5.94c.74-1.88,1.73-4.08-.78-4.86V.92h8.26L59.94,27.75c1.2,3,2.15,5.92,5.13,7.43v.16H54.34v-.16c2.57-1.15,2.15-1.72.74-5.39l-2.83-7.37-6.64-17Z" transform="translate(0 0)" fill="#fff"/><path d="M95.36,4.21A9.09,9.09,0,0,0,96.14,1v0h9v.16c-1.26.36-1.62,1.88-1.62,3.08L107,29.85c.31,2.46.58,3.87,2.67,5.33v.16H99.59v-.16c1.84-.57,2.15-2.14,2.15-3.92L98.76,6,87,36c-2.62-2-3.35-3.4-4.61-6.33L72.5,6.1l-3,22.49c-.42,3.19-.79,5.49,1.67,6.59v.16H62.66v-.16c2.2-1.93,2.51-4.5,2.93-7.32l3-21.92c.21-1.46.79-3.55-1.62-4.86V.92h9.16V1a6.25,6.25,0,0,0,.73,2.36l9.83,23.06L95.36,4.21Z" transform="translate(0 0)" fill="#fff"/><path d="M130.45,7.15a11.87,11.87,0,0,0-8.21-3.3c-3,0-6.75,1.15-6.75,4.76,0,7.17,18,7.06,18,16.74,0,5.6-5.85,10.83-14,10.83a27,27,0,0,1-9.36-1.57l-1.52-6.54A18.09,18.09,0,0,0,120,32.41c3,0,7.48-1.78,7.48-5.44,0-8.16-18-6.7-18-17.79,0-6.58,6.76-9.1,13.14-9.1a26.44,26.44,0,0,1,7.79,1.15V7.15Z" transform="translate(0 0)" fill="#fff"/><path d="M45.69,29.28a4.38,4.38,0,1,0-4.38-4.38,4.39,4.39,0,0,0,4.38,4.38Z" transform="translate(0 0)" fill="#9d2235"/><rect x="144.9" width="1" height="36.07" fill="#9d2235"/><path d="M153.76,10.65v0a4.61,4.61,0,0,1,4.69-4.71A4.76,4.76,0,0,1,162,7.34l-1,1.18a3.65,3.65,0,0,0-2.55-1.13,3.05,3.05,0,0,0-3,3.21v0a3.07,3.07,0,0,0,3,3.23,3.59,3.59,0,0,0,2.62-1.18l1,1a4.69,4.69,0,0,1-3.69,1.61A4.58,4.58,0,0,1,153.76,10.65Z" transform="translate(0 0)" fill="#fff"/><path d="M163,11.78v0a3.59,3.59,0,0,1,3.66-3.59,3.55,3.55,0,0,1,3.65,3.56v0a3.58,3.58,0,0,1-3.67,3.57A3.55,3.55,0,0,1,163,11.78Zm5.74,0v0a2.12,2.12,0,0,0-2.1-2.21,2.06,2.06,0,0,0-2.07,2.18v0A2.12,2.12,0,0,0,166.7,14,2.07,2.07,0,0,0,168.78,11.78Z" transform="translate(0 0)" fill="#fff"/><path d="M172,5.69h1.57v9.49H172Z" transform="translate(0 0)" fill="#fff"/><path d="M175.52,5.69h1.57v9.49h-1.57Z" transform="translate(0 0)" fill="#fff"/><path d="M178.69,11.77v0A3.41,3.41,0,0,1,182,8.17c2.18,0,3.29,1.72,3.29,3.69a3.52,3.52,0,0,1,0,.45h-5a1.92,1.92,0,0,0,2,1.74,2.49,2.49,0,0,0,1.85-.82l.93.82a3.47,3.47,0,0,1-2.81,1.28A3.42,3.42,0,0,1,178.69,11.77Zm5.08-.5A1.78,1.78,0,0,0,182,9.46a1.86,1.86,0,0,0-1.78,1.81Z" transform="translate(0 0)" fill="#fff"/><path d="M186.82,16.47l.58-1.19a4.44,4.44,0,0,0,2.45.73A1.92,1.92,0,0,0,192,13.9v-.53a2.88,2.88,0,0,1-2.42,1.26,3.08,3.08,0,0,1-3.12-3.21v0a3.1,3.1,0,0,1,3.12-3.23A2.93,2.93,0,0,1,192,9.34v-1h1.58v5.46a3.52,3.52,0,0,1-.87,2.59,3.9,3.9,0,0,1-2.82.92A5.91,5.91,0,0,1,186.82,16.47Zm5.21-5v0a1.91,1.91,0,0,0-2-1.9,1.85,1.85,0,0,0-2,1.88v0a1.87,1.87,0,0,0,2,1.9A1.92,1.92,0,0,0,192,11.42Z" transform="translate(0 0)" fill="#fff"/><path d="M195.13,11.77v0a3.41,3.41,0,0,1,3.35-3.58c2.19,0,3.29,1.72,3.29,3.69,0,.15,0,.29,0,.45H196.7a1.92,1.92,0,0,0,2,1.74,2.51,2.51,0,0,0,1.86-.82l.92.82a3.47,3.47,0,0,1-2.81,1.28A3.42,3.42,0,0,1,195.13,11.77Zm5.08-.5a1.78,1.78,0,0,0-1.74-1.81,1.86,1.86,0,0,0-1.78,1.81Z" transform="translate(0 0)" fill="#fff"/><path d="M206,11.78v0a3.59,3.59,0,0,1,3.67-3.59,3.55,3.55,0,0,1,3.65,3.56v0a3.66,3.66,0,0,1-7.32,0Zm5.75,0v0a2.12,2.12,0,0,0-2.11-2.21,2.06,2.06,0,0,0-2.06,2.18v0A2.12,2.12,0,0,0,209.65,14,2.07,2.07,0,0,0,211.73,11.78Z" transform="translate(0 0)" fill="#fff"/><path d="M215,9.67h-.87V8.35H215V7.86a2.33,2.33,0,0,1,.56-1.7,2.08,2.08,0,0,1,1.55-.55,4.29,4.29,0,0,1,1.27.18V7.12a2.59,2.59,0,0,0-.92-.17c-.6,0-.91.32-.91,1v.38h1.82v1.3h-1.79v5.51H215Z" transform="translate(0 0)" fill="#fff"/><path d="M154.16,21.08h1.6v3.78h4.35V21.08h1.6v9.1h-1.6V26.34h-4.35v3.84h-1.6Z" transform="translate(0 0)" fill="#fff"/><path d="M163.24,26.77v0a3.41,3.41,0,0,1,3.35-3.58c2.19,0,3.29,1.72,3.29,3.69,0,.15,0,.29,0,.45h-5.05a1.92,1.92,0,0,0,2,1.74,2.52,2.52,0,0,0,1.86-.82l.92.82a3.47,3.47,0,0,1-2.81,1.28A3.42,3.42,0,0,1,163.24,26.77Zm5.08-.5a1.78,1.78,0,0,0-1.74-1.81,1.86,1.86,0,0,0-1.78,1.81Z" transform="translate(0 0)" fill="#fff"/><path d="M175.59,30.18v-.85a2.77,2.77,0,0,1-2.22,1,2.2,2.2,0,0,1-2.45-2.12v0c0-1.53,1.19-2.25,2.78-2.25a5.73,5.73,0,0,1,1.9.28v-.13c0-.95-.6-1.47-1.69-1.47a4.78,4.78,0,0,0-2,.43l-.43-1.26a5.86,5.86,0,0,1,2.61-.57c2,0,3,1.07,3,2.9v4.07Zm0-2.87a4.37,4.37,0,0,0-1.57-.28c-1,0-1.58.41-1.58,1.07v0c0,.65.59,1,1.33,1,1,0,1.82-.59,1.82-1.45Z" transform="translate(0 0)" fill="#fff"/><path d="M179.06,20.69h1.57v9.49h-1.57Z" transform="translate(0 0)" fill="#fff"/><path d="M182.92,28.28V24.67h-.87V23.31h.87V21.43h1.57v1.88h1.85v1.36h-1.85V28a.75.75,0,0,0,.85.86,2.16,2.16,0,0,0,1-.23v1.28a2.67,2.67,0,0,1-1.42.36A1.76,1.76,0,0,1,182.92,28.28Z" transform="translate(0 0)" fill="#fff"/><path d="M187.86,20.69h1.57v3.69a2.47,2.47,0,0,1,2.15-1.21A2.36,2.36,0,0,1,194,25.81v4.37h-1.57v-3.9c0-1.07-.54-1.68-1.47-1.68a1.53,1.53,0,0,0-1.55,1.7v3.88h-1.57Z" transform="translate(0 0)" fill="#fff"/><path d="M199.1,21.08h3.59c2.12,0,3.46,1.21,3.46,3v0c0,2-1.64,3.1-3.64,3.1H200.7v2.93h-1.6Zm3.46,4.73c1.21,0,2-.68,2-1.62v0c0-1.07-.76-1.63-2-1.63H200.7v3.28Z" transform="translate(0 0)" fill="#fff"/><path d="M207.49,23.31h1.58v1.55a2.43,2.43,0,0,1,2.43-1.68v1.67h-.09c-1.38,0-2.34.89-2.34,2.71v2.62h-1.58Z" transform="translate(0 0)" fill="#fff"/><path d="M212.29,26.78v0a3.66,3.66,0,0,1,7.32,0v0a3.66,3.66,0,0,1-7.32,0Zm5.75,0v0a2.12,2.12,0,0,0-2.11-2.21,2.06,2.06,0,0,0-2.07,2.18v0A2.13,2.13,0,0,0,216,29,2.07,2.07,0,0,0,218,26.78Z" transform="translate(0 0)" fill="#fff"/><path d="M221.34,24.67h-.87V23.35h.87v-.49a2.33,2.33,0,0,1,.56-1.7,2.05,2.05,0,0,1,1.55-.55,4.34,4.34,0,0,1,1.27.18v1.33a2.59,2.59,0,0,0-.92-.17c-.6,0-.91.32-.91,1v.38h1.82v1.3h-1.8v5.51h-1.57Z" transform="translate(0 0)" fill="#fff"/><path d="M225.4,26.77v0a3.41,3.41,0,0,1,3.35-3.58c2.19,0,3.29,1.72,3.29,3.69,0,.15,0,.29,0,.45H227a1.92,1.92,0,0,0,2,1.74,2.52,2.52,0,0,0,1.86-.82l.92.82a3.47,3.47,0,0,1-2.81,1.28A3.42,3.42,0,0,1,225.4,26.77Zm5.08-.5a1.78,1.78,0,0,0-1.74-1.81A1.86,1.86,0,0,0,227,26.27Z" transform="translate(0 0)" fill="#fff"/><path d="M233,29.28l.71-1.06a3.89,3.89,0,0,0,2.25.84c.67,0,1.06-.29,1.06-.74v0c0-.53-.73-.71-1.53-1-1-.28-2.15-.7-2.15-2v0a2.19,2.19,0,0,1,2.45-2.09,4.76,4.76,0,0,1,2.52.78l-.62,1.12a4,4,0,0,0-1.94-.66c-.61,0-1,.29-1,.69v0c0,.49.74.7,1.54,1,1,.31,2.14.77,2.14,2v0c0,1.44-1.12,2.16-2.55,2.16A4.82,4.82,0,0,1,233,29.28Z" transform="translate(0 0)" fill="#fff"/><path d="M239.41,29.28l.71-1.06a3.88,3.88,0,0,0,2.24.84c.68,0,1.07-.29,1.07-.74v0c0-.53-.73-.71-1.53-1-1-.28-2.15-.7-2.15-2v0a2.19,2.19,0,0,1,2.45-2.09,4.79,4.79,0,0,1,2.52.78l-.63,1.12a3.91,3.91,0,0,0-1.93-.66c-.61,0-1,.29-1,.69v0c0,.49.75.7,1.55,1,1,.31,2.13.77,2.13,2v0c0,1.44-1.11,2.16-2.54,2.16A4.82,4.82,0,0,1,239.41,29.28Z" transform="translate(0 0)" fill="#fff"/><path d="M246.39,20.77h1.69v1.49h-1.69Zm.07,2.54H248v6.87h-1.57Z" transform="translate(0 0)" fill="#fff"/><path d="M249.59,26.78v0a3.66,3.66,0,0,1,7.31,0v0a3.58,3.58,0,0,1-3.67,3.57A3.55,3.55,0,0,1,249.59,26.78Zm5.74,0v0a2.12,2.12,0,0,0-2.1-2.21,2.06,2.06,0,0,0-2.07,2.18v0A2.12,2.12,0,0,0,253.25,29,2.07,2.07,0,0,0,255.33,26.78Z" transform="translate(0 0)" fill="#fff"/><path d="M258.44,23.31H260v1.07a2.47,2.47,0,0,1,2.15-1.21,2.36,2.36,0,0,1,2.44,2.64v4.37H263v-3.9c0-1.07-.54-1.68-1.47-1.68A1.53,1.53,0,0,0,260,26.3v3.88h-1.57Z" transform="translate(0 0)" fill="#fff"/><path d="M265.9,29.28l.7-1.06a3.89,3.89,0,0,0,2.25.84c.67,0,1.06-.29,1.06-.74v0c0-.53-.73-.71-1.53-1-1-.28-2.15-.7-2.15-2v0a2.19,2.19,0,0,1,2.45-2.09,4.76,4.76,0,0,1,2.52.78l-.62,1.12a4,4,0,0,0-1.94-.66c-.61,0-1,.29-1,.69v0c0,.49.74.7,1.54,1,1,.31,2.14.77,2.14,2v0c0,1.44-1.12,2.16-2.55,2.16A4.77,4.77,0,0,1,265.9,29.28Z" transform="translate(0 0)" fill="#fff"/><path d="M136.1,33.09c0-.59-.44-.86-1-.86h-1.21v2.58h.63V34h.39l.56.81h.75l-.65-.93A.78.78,0,0,0,136.1,33.09Zm-1.08.4h-.54v-.72H135c.27,0,.44.13.44.36S135.3,33.49,135,33.49Z" transform="translate(0 0)" fill="#fff"/><path d="M134.87,30.94a2.63,2.63,0,1,0,2.63,2.63A2.62,2.62,0,0,0,134.87,30.94Zm2.19,2.62h0a2.19,2.19,0,1,1-4.38,0h0a2.2,2.2,0,0,1,2.19-2.22A2.17,2.17,0,0,1,137.06,33.56Z" transform="translate(0 0)" fill="#fff"/></svg>